<?xml version="1.0" encoding="UTF-8" standalone="no"?>
<!-- Generator: Adobe Illustrator 19.0.0, SVG Export Plug-In . SVG Version: 6.00 Build 0)  -->

<svg
   xmlns:dc="http://purl.org/dc/elements/1.1/"
   xmlns:cc="http://creativecommons.org/ns#"
   xmlns:rdf="http://www.w3.org/1999/02/22-rdf-syntax-ns#"
   xmlns:svg="http://www.w3.org/2000/svg"
   xmlns="http://www.w3.org/2000/svg"
   xmlns:sodipodi="http://sodipodi.sourceforge.net/DTD/sodipodi-0.dtd"
   xmlns:inkscape="http://www.inkscape.org/namespaces/inkscape"
   version="1.1"
   id="Layer_1"
   x="0px"
   y="0px"
   viewBox="0 0 404.39999 343"
   xml:space="preserve"
   sodipodi:docname="opacapp_simple.svg"
   width="404.39999"
   height="343"
   inkscape:version="0.92.1 r"><metadata
     id="metadata28"><rdf:RDF><cc:Work
         rdf:about=""><dc:format>image/svg+xml</dc:format><dc:type
           rdf:resource="http://purl.org/dc/dcmitype/StillImage" /><dc:title></dc:title></cc:Work></rdf:RDF></metadata><defs
     id="defs26" /><sodipodi:namedview
     pagecolor="#ffffff"
     bordercolor="#666666"
     borderopacity="1"
     objecttolerance="10"
     gridtolerance="10"
     guidetolerance="10"
     inkscape:pageopacity="0"
     inkscape:pageshadow="2"
     inkscape:window-width="1916"
     inkscape:window-height="969"
     id="namedview24"
     showgrid="false"
     fit-margin-top="0"
     fit-margin-left="0"
     fit-margin-right="0"
     fit-margin-bottom="0"
     inkscape:zoom="1.3037281"
     inkscape:cx="194.63421"
     inkscape:cy="229.26157"
     inkscape:window-x="1920"
     inkscape:window-y="90"
     inkscape:window-maximized="0"
     inkscape:current-layer="Layer_1" /><style
     type="text/css"
     id="style2">
	.st0{fill:#F4F4F4;}
	.st1{fill:#C4C4C4;}
	.st2{fill:#DD2F44;}
	.st3{fill:#3496DC;}
	.st4{fill:#F3854E;}
	.st5{opacity:0.32;fill:#1E1E1E;}
	.st6{fill:#C92837;}
</style><path
     style="fill:#f4f4f4"
     inkscape:connector-curvature="0"
     d="m 387.3,286 c 0,-1.5 -0.1,-2.8 -0.2,-4.2 C 384.5,275.1 377,262 359,262 c -23.9,0 -320.8,0 -325.8,0 0.9,3 1.7,6.5 2.2,9.9 2.9,18.5 0.2,38.1 -8.8,54.1 h 327.2 c 18.5,0 33.5,-18 33.5,-40 z"
     class="st0"
     id="XMLID_158_" /><path
     style="fill:#c4c4c4"
     inkscape:connector-curvature="0"
     d="M 387.1,281.7 C 385.2,261.8 371,246 353.8,246 H 27 c 4.3,9 6.1,16 6.1,16 0,0 0,0 0.1,0 5.1,0 301.9,0 325.8,0 18,0 25.5,13 28.1,19.7 z"
     class="st1"
     id="XMLID_157_" /><path
     style="fill:#dd2f44"
     inkscape:connector-curvature="0"
     d="M 353.8,228 H 8.5 c -4.7,0 -8.5,4.3 -8.5,9 0,4.7 3.8,9 8.5,9 H 27 353.8 c 17.2,0 31.4,15.6 33.3,35.5 0.1,1.5 0.2,3 0.2,4.5 0,22 -15,40 -33.5,40 H 26.6 8.5 c -4.7,0 -8.5,3.8 -8.5,8.5 0,4.7 3.8,8.5 8.5,8.5 h 345.3 c 27.8,0 50.5,-26.1 50.5,-57.5 0,-31.4 -22.7,-57.5 -50.5,-57.5 z"
     class="st2"
     id="XMLID_156_" /><path
     id="XMLID_154_"
     class="st0"
     d="m 46.2,147 c -22.5,0 -28.5,21.3 -29.2,24.1 0,0.1 0,0 0,0.1 0,22 15,39.7 33.5,39.7 h 327.1 c -6.5,-12 -9.7,-25.8 -9.7,-39.6 0,-10.4 1.6,-20.7 5.2,-30.4 l -2.8,6 c 0,0.1 -300,0.1 -324.1,0.1 z"
     inkscape:connector-curvature="0"
     style="fill:#f4f4f4" /><path
     id="XMLID_150_"
     class="st1"
     d="m 50.5,132 c -18.4,0 -33.3,17.5 -33.5,39.4 0.7,-2.8 6.7,-24.4 29.2,-24.4 24.1,0 324.1,0 324.1,0 l 2.8,-5.7 4.6,-9.3 z"
     inkscape:connector-curvature="0"
     style="fill:#c4c4c4" /><path
     id="XMLID_149_"
     class="st3"
     d="M 395.8,211 H 377.5 50.5 C 32,211 17,193.3 17,171.3 c 0,-0.1 0,0.1 0,0 C 17.1,149.4 32.1,132 50.5,132 h 327.2 18.2 c 4.7,0 8.5,-3.8 8.5,-8.5 0,-4.7 -3.8,-8.5 -8.5,-8.5 H 50.5 C 22.7,115 0,140.1 0,171.5 0,202.9 22.6,228 50.5,228 h 345.3 c 4.7,0 8.5,-3.8 8.5,-8.5 0,-4.7 -3.8,-8.5 -8.5,-8.5 z"
     inkscape:connector-curvature="0"
     style="fill:#3496dc" /><path
     id="XMLID_148_"
     class="st0"
     d="m 26.9,18.3 c 0.2,0.5 0.5,0.9 0.7,1.4 -0.2,-0.5 -0.4,-1 -0.7,-1.4 z"
     inkscape:connector-curvature="0"
     style="fill:#f4f4f4" /><path
     id="XMLID_146_"
     class="st0"
     d="m 387.3,57.6 c 0,-1 0,-1.9 -0.1,-2.8 C 384.9,48.3 377.7,34 359,34 335.1,34 37.3,34 33.1,34 c 0.6,2 1.1,3.7 1.5,5.7 4,19.3 1.2,40.3 -7.7,57.3 h 326.9 c 18.5,0 33.5,-17.4 33.5,-39.4 z"
     inkscape:connector-curvature="0"
     style="fill:#f4f4f4" /><path
     id="XMLID_145_"
     class="st1"
     d="M 387.2,54.7 C 385.9,34.1 371.4,18 353.8,18 H 27 c 0.2,1 0.4,1.2 0.7,1.6 3.8,8.2 5.5,14.4 5.5,14.4 0,0 0,0 0,0 4.1,0 301.9,0 325.9,0 18.7,0 25.8,14.2 28.1,20.7 z"
     inkscape:connector-curvature="0"
     style="fill:#c4c4c4" /><path
     id="XMLID_144_"
     class="st4"
     d="M 353.8,0 H 8.5 C 3.8,0 0,4.3 0,9 c 0,4.7 3.8,9 8.5,9 H 26.9 27 353.8 c 17.6,0 32.1,15.9 33.4,36.5 0.1,1 0.1,2 0.1,3 0,22 -15,39.4 -33.5,39.4 H 27 8.5 c -4.7,0 -8.5,4.3 -8.5,9 0,4.7 3.8,9 8.5,9 h 345.3 c 27.8,0 50.5,-26.1 50.5,-57.5 C 404.3,26 381.6,0 353.8,0 Z"
     inkscape:connector-curvature="0"
     style="fill:#f3854e" /><path
     style="opacity:0.32000002;fill:#1e1e1e"
     d="m 285.6,193.8 7.6,-70.5 -7.6,-59.4 -61.1,129.9 30.5,-9.1 z"
     id="XMLID_143_"
     inkscape:connector-curvature="0" /><path
     style="fill:#dd2f44"
     d="M 255,170.9 H 224.3 V 63.6 h 60.8 v 107.3 z"
     id="XMLID_142_"
     inkscape:connector-curvature="0" /><path
     style="fill:#c92837"
     d="m 285.1,193.8 -30.4,-13.3 -30.4,13.3 v -57.5 h 60.8 z"
     id="XMLID_140_"
     inkscape:connector-curvature="0" /></svg>