<?xml version="1.0" encoding="UTF-8" standalone="no"?>
<svg
   xmlns:dc="http://purl.org/dc/elements/1.1/"
   xmlns:cc="http://creativecommons.org/ns#"
   xmlns:rdf="http://www.w3.org/1999/02/22-rdf-syntax-ns#"
   xmlns:svg="http://www.w3.org/2000/svg"
   xmlns="http://www.w3.org/2000/svg"
   xmlns:sodipodi="http://sodipodi.sourceforge.net/DTD/sodipodi-0.dtd"
   xmlns:inkscape="http://www.inkscape.org/namespaces/inkscape"
   version="1.1"
   id="svg2"
   height="196.66211"
   width="382.79883"
   inkscape:version="0.91 r13725"
   sodipodi:docname="ramiio.svg">
  <metadata
     id="metadata10">
    <rdf:RDF>
      <cc:Work
         rdf:about="">
        <dc:format>image/svg+xml</dc:format>
        <dc:type
           rdf:resource="http://purl.org/dc/dcmitype/StillImage" />
        <dc:title></dc:title>
      </cc:Work>
    </rdf:RDF>
  </metadata>
  <defs
     id="defs8" />
  <sodipodi:namedview
     pagecolor="#ffffff"
     bordercolor="#666666"
     borderopacity="1"
     objecttolerance="10"
     gridtolerance="10"
     guidetolerance="10"
     inkscape:pageopacity="0"
     inkscape:pageshadow="2"
     inkscape:window-width="636"
     inkscape:window-height="1041"
     id="namedview6"
     showgrid="false"
     fit-margin-top="30"
     fit-margin-left="10"
     fit-margin-right="10"
     fit-margin-bottom="30"
     inkscape:zoom="1.0579944"
     inkscape:cx="102.62809"
     inkscape:cy="96.730004"
     inkscape:window-x="1280"
     inkscape:window-y="18"
     inkscape:window-maximized="0"
     inkscape:current-layer="svg2" />
  <g
     transform="translate(-161.75329,-70.15625)"
     id="layer1">
    <path
       id="path3777"
       transform="translate(161.75329,90.15625)"
       d="m 222.125,10 0,37.53125 c 8.21162,0.0846 14.84375,6.76836 14.84375,15 0,8.23153 -6.63228,14.91523 -14.84375,15 l 0,37.53125 150.65625,0 0,-105.0625 -150.65625,0 z m 0,67.53125 0,-30 c -0.0525,-5.4e-4 -0.10361,0 -0.15625,0 -8.28427,0 -15,6.71573 -15,15 0,8.28427 6.71573,15 15,15 0.0528,0 0.10363,5.4e-4 0.15625,0 z M 307.78125,37.5 c 3.24129,5e-5 6.21665,0.62066 8.96875,1.84375 2.75203,1.16203 5.10543,2.82964 7.0625,5.03125 2.01814,2.2017 3.58662,4.84978 4.6875,7.96875 1.10077,3.05789 1.6562,6.45695 1.65625,10.1875 -5e-5,3.79176 -0.55548,7.22341 -1.65625,10.28125 -1.10088,3.05786 -2.66936,5.70461 -4.6875,7.90625 -1.95707,2.20166 -4.31047,3.90186 -7.0625,5.125 -2.7521,1.16198 -5.72746,1.75 -8.96875,1.75 -3.24135,0 -6.24795,-0.58802 -9,-1.75 -2.75208,-1.22314 -5.13808,-2.92334 -7.15625,-5.125 -1.95704,-2.20164 -3.49293,-4.84839 -4.59375,-7.90625 -1.10083,-3.05784 -1.65626,-6.48949 -1.65625,-10.28125 -10e-6,-3.73055 0.55542,-7.12961 1.65625,-10.1875 1.10082,-3.11897 2.63671,-5.76705 4.59375,-7.96875 2.01817,-2.20161 4.40417,-3.86922 7.15625,-5.03125 2.75205,-1.22309 5.75865,-1.8437 9,-1.84375 z M 60.886719,37.58789 c -2.99672,5e-5 -5.779077,0.245165 -8.347657,0.734375 -2.56861,0.42815 -4.403086,0.887743 -5.503906,1.376953 l 1.009766,7.0625 c 1.03966,-0.42806 2.598384,-0.824426 4.677734,-1.191407 2.14048,-0.428059 4.618391,-0.642538 7.431641,-0.642578 2.20163,4e-5 3.974832,0.335123 5.320312,1.007813 1.40658,0.61161 2.507665,1.469522 3.302735,2.570312 0.79501,1.03971 1.34458,2.261389 1.65039,3.667969 0.30576,1.34549 0.458955,2.722326 0.458985,4.128906 l 0,2.384766 c -0.24466,-0.06113 -0.673617,-0.153051 -1.285157,-0.275391 -0.6116,-0.12229 -1.345001,-0.244847 -2.201171,-0.367187 -0.79507,-0.18344 -1.65103,-0.305988 -2.56836,-0.367188 -0.91738,-0.12228 -1.803986,-0.183563 -2.660156,-0.183593 -2.69094,3e-5 -5.258808,0.275782 -7.705078,0.826171 -2.4463,0.550441 -4.587165,1.40641 -6.421875,2.56836 -1.83472,1.16201 -3.303477,2.692041 -4.404297,4.58789 -1.03967,1.895891 -1.558604,4.15737 -1.558594,6.78711 -1e-5,2.75208 0.45764,5.107433 1.375,7.064453 0.91735,1.95703 2.202266,3.546401 3.853516,4.769531 1.65123,1.16199 3.608274,2.01795 5.871094,2.56836 2.2628,0.55042 4.74071,0.826172 7.43164,0.826172 1.89584,-10e-7 3.7916,-0.09192 5.6875,-0.275391 1.957,-0.12232 3.76084,-0.275515 5.41211,-0.458985 1.65121,-0.18347 3.118003,-0.365348 4.402343,-0.548828 1.34541,-0.24462 2.385211,-0.428461 3.119141,-0.550781 l 0,-29.814453 c -4e-5,-2.69088 -0.306439,-5.136201 -0.917969,-7.337891 -0.61161,-2.26277 -1.649457,-4.19112 -3.117187,-5.78125 -1.40665,-1.65119 -3.304363,-2.903515 -5.689453,-3.759765 -2.324,-0.91731 -5.198277,-1.376903 -8.623047,-1.376953 z m -33.273438,0.183593 c -3.7306,5e-5 -7.095117,0.337086 -10.091797,1.009766 C 14.524774,39.39287 12.01817,40.064998 10,40.798828 l 0,45.685547 8.53125,0 0,-40.089844 c 0.48924,-0.12227 1.498394,-0.336748 3.027344,-0.642578 1.59006,-0.3669 3.179431,-0.548788 4.769531,-0.548828 2.44626,4e-5 4.433941,0.181928 5.962891,0.548828 1.59006,0.30583 2.721771,0.581582 3.394531,0.826172 l 1.46875,-7.429687 c -0.36698,-0.122261 -0.949131,-0.244828 -1.744141,-0.367188 -0.73391,-0.18342 -1.559232,-0.336624 -2.476562,-0.458984 -0.91738,-0.18342 -1.86527,-0.305988 -2.84375,-0.367188 -0.91739,-0.12227 -1.742703,-0.183544 -2.476563,-0.183594 z m 84.599609,0 c -4.21986,5e-5 -7.95205,0.275802 -11.19336,0.826172 -3.180179,0.55046 -5.748057,1.069384 -7.705077,1.558594 l 0,46.326172 8.531247,0 0,-40.271484 c 0.24461,-0.06112 0.73485,-0.153031 1.46875,-0.275391 0.73387,-0.12227 1.52855,-0.214191 2.38477,-0.275391 0.91733,-0.12227 1.86522,-0.212237 2.84375,-0.273437 0.97849,-0.0611 1.89573,-0.09176 2.75195,-0.0918 2.01816,4e-5 3.6688,0.335132 4.95313,1.007812 1.34542,0.61161 2.38522,1.590127 3.11914,2.935547 0.79501,1.34549 1.34652,3.028725 1.65234,5.046875 0.30575,2.01821 0.45699,4.432894 0.45703,7.246094 l 0,24.953125 8.53321,0 0,-26.787109 c -5e-5,-2.07931 -0.1226,-4.066991 -0.36719,-5.962891 -0.24467,-1.89583 -0.61234,-3.640349 -1.10156,-5.230469 0.67269,-0.61153 1.92695,-1.283658 3.76171,-2.017578 1.89582,-0.79501 4.27986,-1.191366 7.1543,-1.191406 2.07928,4e-5 3.76252,0.335132 5.04688,1.007812 1.3454,0.61161 2.3852,1.590127 3.11914,2.935547 0.79498,1.34549 1.3139,3.028725 1.55859,5.046875 0.30572,2.01821 0.45892,4.432894 0.45898,7.246094 l 0,24.953125 8.53126,0 0,-26.787109 c -7e-5,-3.18014 -0.2452,-6.115701 -0.73438,-8.806641 -0.42817,-2.69088 -1.31477,-5.015586 -2.66016,-6.972656 -1.28436,-1.95699 -3.08821,-3.454421 -5.41211,-4.494141 -2.32403,-1.10078 -5.32086,-1.652294 -8.99023,-1.652344 -1.89592,5e-5 -3.66912,0.214528 -5.32031,0.642578 -1.65129,0.36699 -3.15069,0.82464 -4.4961,1.375 -1.3455,0.48931 -2.47526,1.010177 -3.39257,1.560547 -0.9174,0.55046 -1.59148,0.979417 -2.01954,1.285157 -1.40666,-1.59004 -3.1492,-2.783035 -5.22851,-3.578125 -2.07937,-0.85615 -4.64726,-1.285107 -7.70508,-1.285157 z M 264.75,38.6875 l 8.53125,0 0,47.71875 -8.53125,0 0,-47.71875 z m -92.41992,0.09375 0,47.703125 8.53125,0 0,-47.703125 -8.53125,0 z m 135.45117,6.25 c -4.15871,4e-5 -7.45999,1.56987 -9.90625,4.75 -2.38515,3.11904 -3.59377,7.36821 -3.59375,12.75 -2e-5,5.38185 1.2086,9.6636 3.59375,12.84375 2.44626,3.11903 5.74754,4.68751 9.90625,4.6875 4.15865,1e-5 7.42734,-1.56847 9.8125,-4.6875 2.44625,-3.18015 3.65621,-7.4619 3.65625,-12.84375 -4e-5,-5.38179 -1.21,-9.63096 -3.65625,-12.75 -2.38516,-3.18013 -5.65385,-4.74996 -9.8125,-4.75 z M 62.90625,64.375 c 1.957,2e-5 3.607635,0.122578 4.953125,0.367188 1.40658,0.18349 2.415744,0.428605 3.027344,0.734374 l 0,14.21875 c -1.0397,0.244641 -2.355263,0.428472 -3.945313,0.550782 -1.52896,0.0611 -3.302152,0.09181 -5.320312,0.0918 -3.36366,10e-6 -6.023459,-0.582151 -7.980469,-1.744141 -1.95704,-1.22314 -2.935557,-3.364005 -2.935547,-6.421875 -1e-5,-1.65123 0.396356,-2.964829 1.191406,-3.943359 0.79503,-1.03966 1.773547,-1.834336 2.935547,-2.384766 1.22313,-0.61155 2.538673,-1.009869 3.945313,-1.193359 1.46774,-0.18341 2.844586,-0.275371 4.128906,-0.275391 z"
       style="font-style:normal;font-variant:normal;font-weight:normal;font-stretch:normal;font-size:91.73565674px;line-height:125%;font-family:Ubuntu;-inkscape-font-specification:Ubuntu;text-align:start;letter-spacing:0px;word-spacing:0px;writing-mode:lr-tb;text-anchor:start;fill:#ffffff;fill-opacity:1;stroke:none"
       inkscape:connector-curvature="0" />
    <path
       id="path4258"
       transform="translate(161.75329,90.15625)"
       d="m 17.226562,125.65039 c -2.109013,0 -3.76327,0.49368 -4.96289,1.48047 -1.199627,0.98678 -1.798828,2.36035 -1.798828,4.12109 0,0.85134 0.135363,1.57597 0.40625,2.17578 0.290226,0.59982 0.676436,1.12334 1.160156,1.56836 0.48372,0.42568 1.055031,0.80194 1.712891,1.13086 0.657853,0.30958 1.35459,0.59027 2.089843,0.8418 0.638507,0.23219 1.237715,0.46509 1.798828,0.69727 0.580467,0.23218 1.094043,0.51286 1.539063,0.84179 0.44502,0.30958 0.793389,0.68584 1.044922,1.13086 0.27088,0.42567 0.40625,0.9492 0.40625,1.56836 0,2.01227 -1.471103,3.01758 -4.412109,3.01758 -1.315714,0 -2.428498,-0.15331 -3.337891,-0.46289 -0.909387,-0.30958 -1.58623,-0.59026 -2.03125,-0.8418 L 10,145.24023 c 0.21284,0.1161 0.503467,0.26142 0.871094,0.43555 0.386973,0.15479 0.840868,0.31006 1.363281,0.46484 0.52242,0.13544 1.113631,0.25091 1.771484,0.34766 0.677207,0.11609 1.411778,0.17383 2.205079,0.17383 2.3412,0 4.150721,-0.47379 5.427734,-1.42188 1.296367,-0.94809 1.943359,-2.30176 1.943359,-4.0625 0,-0.94808 -0.14336,-1.75034 -0.433593,-2.4082 -0.290227,-0.67721 -0.706281,-1.25847 -1.248047,-1.74219 -0.522414,-0.48372 -1.151466,-0.89976 -1.886719,-1.24804 -0.715907,-0.34828 -1.510166,-0.69664 -2.38086,-1.04492 -0.619159,-0.23219 -1.190477,-0.46509 -1.71289,-0.69727 -0.503067,-0.23219 -0.947011,-0.48303 -1.333984,-0.75391 -0.38698,-0.29023 -0.687558,-0.6187 -0.900391,-0.98632 -0.212833,-0.36763 -0.318359,-0.82347 -0.318359,-1.36524 0,-0.48371 0.09558,-0.89977 0.289062,-1.24805 0.212833,-0.36762 0.493517,-0.66625 0.841797,-0.89843 0.348273,-0.23218 0.754377,-0.40735 1.21875,-0.52344 0.464367,-0.11609 0.967999,-0.17383 1.509765,-0.17383 1.06418,0 1.99381,0.12542 2.78711,0.37695 0.812647,0.23219 1.421805,0.47503 1.828125,0.72657 l 0.898437,-2.29297 c -0.464366,-0.30958 -1.198938,-0.59027 -2.205078,-0.8418 -0.986786,-0.27088 -2.089627,-0.40625 -3.308594,-0.40625 z m 18.582032,0 c -1.315714,0 -2.563868,0.22295 -3.744141,0.66797 -1.16092,0.44502 -2.186125,1.11191 -3.076172,2.00195 -0.870693,0.8707 -1.56743,1.96358 -2.089843,3.2793 -0.503067,1.31571 -0.753907,2.83461 -0.753907,4.55664 0,1.72204 0.25084,3.24093 0.753907,4.55664 0.522413,1.31571 1.21915,2.41855 2.089843,3.30859 0.890047,0.8707 1.915252,1.52959 3.076172,1.97461 1.180273,0.44502 2.428427,0.66602 3.744141,0.66602 1.296366,0 2.51467,-0.221 3.65625,-0.66602 1.16092,-0.44502 2.178135,-1.10391 3.048828,-1.97461 0.870693,-0.89004 1.55748,-1.99288 2.060547,-3.30859 0.52242,-1.31571 0.783203,-2.8346 0.783203,-4.55664 0,-1.72203 -0.260783,-3.24093 -0.783203,-4.55664 -0.503067,-1.31572 -1.189854,-2.4086 -2.060547,-3.2793 -0.870693,-0.89004 -1.887908,-1.55693 -3.048828,-2.00195 -1.14158,-0.44502 -2.359884,-0.66797 -3.65625,-0.66797 z m 229.238286,0 c -1.31572,0 -2.56387,0.22295 -3.74415,0.66797 -1.16092,0.44502 -2.18612,1.11191 -3.07617,2.00195 -0.87069,0.8707 -1.56743,1.96358 -2.08984,3.2793 -0.50307,1.31571 -0.75586,2.83461 -0.75586,4.55664 0,1.72204 0.25279,3.24093 0.75586,4.55664 0.52241,1.31571 1.21915,2.41855 2.08984,3.30859 0.89005,0.8707 1.91525,1.52959 3.07617,1.97461 1.18028,0.44502 2.42843,0.66602 3.74415,0.66602 1.29636,0 2.51466,-0.221 3.65624,-0.66602 1.16092,-0.44502 2.17619,-1.10391 3.04688,-1.97461 0.87069,-0.89004 1.55748,-1.99288 2.06055,-3.30859 0.52242,-1.31571 0.7832,-2.8346 0.7832,-4.55664 0,-1.72203 -0.26078,-3.24093 -0.7832,-4.55664 -0.50307,-1.31572 -1.18986,-2.4086 -2.06055,-3.2793 -0.87069,-0.89004 -1.88596,-1.55693 -3.04688,-2.00195 -1.14158,-0.44502 -2.35988,-0.66797 -3.65624,-0.66797 z m -131.62305,0.26172 c -0.81265,0 -1.71243,0.0378 -2.69922,0.11523 -0.96743,0.0581 -1.84733,0.18347 -2.64063,0.37696 l 0,19.82422 2.81446,0 0,-7.86524 2.52539,0 0.78515,0 c 0.27088,0 0.53167,-0.01 0.78321,-0.0293 0.36762,0.44502 0.77373,0.9666 1.21875,1.56641 0.46437,0.59981 0.92821,1.24876 1.39258,1.94531 0.46437,0.67721 0.92021,1.39189 1.36523,2.14649 0.46437,0.7546 0.88842,1.50107 1.27539,2.23633 l 3.07617,0 c -0.34827,-0.77395 -0.77232,-1.57816 -1.27539,-2.41016 -0.48372,-0.83199 -0.9774,-1.62431 -1.48047,-2.37891 -0.50306,-0.77395 -0.99675,-1.47069 -1.48047,-2.08984 -0.46437,-0.63851 -0.85058,-1.15209 -1.16015,-1.53906 1.37376,-0.46437 2.40891,-1.17105 3.10547,-2.11914 0.7159,-0.94809 1.07226,-2.08877 1.07226,-3.42383 0,-2.10902 -0.74452,-3.69559 -2.23437,-4.75977 -1.4705,-1.06418 -3.61844,-1.5957 -6.44336,-1.5957 z m 41.49414,0 c -0.81265,0 -1.71243,0.0378 -2.69922,0.11523 -0.96743,0.0581 -1.84732,0.18347 -2.64063,0.37696 l 0,19.5039 c 0.79331,0.19347 1.6732,0.31889 2.64063,0.37696 0.98679,0.0774 1.88657,0.11718 2.69922,0.11718 1.64465,0 3.15358,-0.20305 4.52734,-0.60937 1.37376,-0.42567 2.55423,-1.05472 3.54102,-1.88672 0.98678,-0.85134 1.75121,-1.91634 2.29297,-3.19336 0.54176,-1.29637 0.8125,-2.81525 0.8125,-4.55664 0,-1.74139 -0.27074,-3.25033 -0.8125,-4.52734 -0.54176,-1.29637 -1.30619,-2.35942 -2.29297,-3.19141 -0.98679,-0.85135 -2.16726,-1.48039 -3.54102,-1.88672 -1.37376,-0.42567 -2.88269,-0.63867 -4.52734,-0.63867 z m 109.17773,0 c -0.81264,0 -1.71243,0.0378 -2.69922,0.11523 -0.96744,0.0581 -1.84732,0.18347 -2.64062,0.37696 l 0,19.82422 2.81445,0 0,-7.45899 2.23438,0 c 1.41245,0 2.68051,-0.11743 3.80273,-0.34961 1.12223,-0.23218 2.0698,-0.59849 2.84375,-1.10156 0.7933,-0.52242 1.39251,-1.19126 1.79883,-2.00391 0.42567,-0.83199 0.63867,-1.82735 0.63867,-2.98828 0,-2.12836 -0.76441,-3.72488 -2.29297,-4.78906 -1.5092,-1.08353 -3.67508,-1.625 -6.5,-1.625 z m -234.578122,0.20312 0,20.11329 2.814453,0 0,-9.25977 8.273438,0 0,-2.37891 -8.273438,0 0,-6.0664 9.316407,0 0,-2.40821 -12.13086,0 z m 13.953125,0 0,2.4375 6.328125,0 0,17.67579 2.814453,0 0,-17.67579 6.328125,0 0,-2.4375 -15.470703,0 z m 17.242188,0 c 0.677206,3.86975 1.401834,7.449 2.175781,10.73829 0.7933,3.28928 1.703029,6.41464 2.728516,9.375 l 2.814453,0 c 0.831993,-2.08966 1.6641,-4.2376 2.496093,-6.44336 0.832,-2.20576 1.654151,-4.60649 2.466797,-7.19922 0.812647,2.59273 1.626807,4.99346 2.439453,7.19922 0.812647,2.20576 1.644747,4.3537 2.496094,6.44336 l 2.814452,0 c 1.00613,-2.96036 1.89597,-6.08572 2.66992,-9.375 0.7933,-3.28929 1.53782,-6.86854 2.23438,-10.73829 l -2.87305,0 c -0.27089,1.5092 -0.55157,3.02809 -0.8418,4.55665 -0.29023,1.50919 -0.58885,2.97834 -0.89843,4.41015 -0.29024,1.41246 -0.59081,2.76809 -0.90039,4.06445 -0.30958,1.29637 -0.620111,2.48678 -0.929691,3.57032 -0.773947,-2.03162 -1.606054,-4.25719 -2.496094,-6.67578 -0.890047,-2.43794 -1.712197,-4.95415 -2.466797,-7.54688 l -2.4375,0 c -0.7546,2.59273 -1.566807,5.10894 -2.4375,7.54688 -0.870693,2.41859 -1.69285,4.64416 -2.466797,6.67578 -0.328933,-1.10288 -0.649404,-2.30325 -0.958984,-3.59961 -0.30958,-1.29637 -0.618155,-2.65005 -0.927735,-4.0625 -0.309579,-1.43182 -0.610163,-2.90291 -0.90039,-4.41211 -0.290233,-1.5092 -0.570917,-3.01815 -0.841797,-4.52735 l -2.958984,0 z m 33.988279,0 c -0.69655,1.45116 -1.36344,2.92031 -2.00195,4.41016 -0.63851,1.47051 -1.28745,3.01924 -1.94531,4.64453 -0.63851,1.6253 -1.29545,3.34724 -1.97266,5.16602 -0.67721,1.79943 -1.40379,3.76422 -2.17773,5.89258 l 2.93164,0 1.82812,-5.13868 9.11328,0 c 0.30958,0.8707 0.61017,1.73264 0.90039,2.58399 0.29024,0.83199 0.59881,1.68399 0.92774,2.55469 l 3.07617,0 c -0.77395,-2.12836 -1.49858,-4.09315 -2.17578,-5.89258 -0.67721,-1.81878 -1.34409,-3.54072 -2.00196,-5.16602 -0.6385,-1.62529 -1.2775,-3.17402 -1.91601,-4.64453 -0.63851,-1.48985 -1.30539,-2.959 -2.00195,-4.41016 l -2.58399,0 z m 31.63672,0 0,20.11329 13.00195,0 0,-2.41016 -10.1875,0 0,-6.96484 8.41602,0 0,-2.35157 -8.41602,0 0,-5.97851 9.46094,0 0,-2.40821 -12.27539,0 z m 43.92969,0 0,20.11329 13.0039,0 0,-2.41016 -10.1875,0 0,-6.96484 8.41602,0 0,-2.35157 -8.41602,0 0,-5.97851 9.46094,0 0,-2.40821 -12.27734,0 z m 14.34765,0 c 0.71591,2.12836 1.41264,4.10115 2.08985,5.91993 0.6772,1.79943 1.33415,3.51142 1.97265,5.13672 0.65786,1.62529 1.29686,3.18397 1.91602,4.67382 0.63851,1.47051 1.28746,2.93166 1.94531,4.38282 l 2.64063,0 c 0.65785,-1.45116 1.29685,-2.91231 1.91601,-4.38282 0.63851,-1.48985 1.27555,-3.04853 1.91407,-4.67382 0.6385,-1.6253 1.28745,-3.33729 1.94531,-5.13672 0.6772,-1.81878 1.38389,-3.79157 2.11914,-5.91993 l -3.01953,0 c -1.02549,3.0571 -2.04074,6.0073 -3.04688,8.85157 -1.00613,2.82491 -2.04129,5.46654 -3.10547,7.92382 -1.06418,-2.47663 -2.09933,-5.1282 -3.10546,-7.95312 -1.00615,-2.82491 -2.03135,-5.76517 -3.07618,-8.82227 l -3.10547,0 z m 21.25196,0 0,20.11329 13.00195,0 0,-2.41016 -10.1875,0 0,-6.96484 8.41797,0 0,-2.35157 -8.41797,0 0,-5.97851 9.46289,0 0,-2.40821 -12.27734,0 z m 16.55273,0 0,20.11329 12.10156,0 0,-2.43946 -9.2871,0 0,-17.67383 -2.81446,0 z m 54.89258,0 c -0.17414,1.45116 -0.33739,2.98799 -0.49219,4.61329 -0.13544,1.62529 -0.27081,3.29944 -0.40625,5.02148 -0.11609,1.70269 -0.22357,3.44452 -0.32031,5.22461 -0.0967,1.76073 -0.18433,3.51252 -0.26172,5.25391 l 2.75781,0 c 0.0968,-2.70882 0.21222,-5.39024 0.34766,-8.04102 0.13544,-2.67013 0.3106,-5.14653 0.52344,-7.42969 0.19348,0.32894 0.44432,0.80272 0.7539,1.42188 0.32893,0.61916 0.6773,1.32584 1.04493,2.11914 0.36762,0.77395 0.75578,1.60605 1.16211,2.49609 0.42567,0.8707 0.82182,1.72269 1.18945,2.55469 0.36762,0.83199 0.70604,1.60636 1.01562,2.32227 0.32893,0.7159 0.58972,1.30516 0.78321,1.76953 l 2.26367,0 c 0.19348,-0.46437 0.44628,-1.05363 0.75586,-1.76953 0.32892,-0.7159 0.67534,-1.49028 1.04297,-2.32227 0.36762,-0.832 0.75579,-1.68399 1.16211,-2.55469 0.42567,-0.89004 0.82182,-1.72214 1.18945,-2.49609 0.36763,-0.7933 0.70604,-1.49998 1.01562,-2.11914 0.32893,-0.61916 0.58972,-1.09294 0.78321,-1.42188 0.21284,2.28316 0.38799,4.75956 0.52343,7.42969 0.13544,2.65078 0.25091,5.3322 0.34766,8.04102 l 2.75781,0 c -0.32892,-6.92685 -0.82261,-13.63146 -1.48047,-20.11329 l -2.46679,0 c -0.52242,0.85134 -1.08378,1.85666 -1.6836,3.01758 -0.59981,1.16093 -1.19902,2.37924 -1.79882,3.65625 -0.59982,1.25767 -1.18108,2.52572 -1.74219,3.80274 -0.56112,1.25766 -1.07274,2.40829 -1.53711,3.45312 -0.46437,-1.04483 -0.97795,-2.19546 -1.53906,-3.45312 -0.56112,-1.27702 -1.14238,-2.54507 -1.74219,-3.80274 -0.59981,-1.27701 -1.19902,-2.49532 -1.79883,-3.65625 -0.59981,-1.16092 -1.16118,-2.16624 -1.68359,-3.01758 l -2.4668,0 z m 24.35352,0 0,20.11329 13.00195,0 0,-2.41016 -10.1875,0 0,-6.96484 8.41797,0 0,-2.35157 -8.41797,0 0,-5.97851 9.46289,0 0,-2.40821 -12.27734,0 z m 16.55273,0 0,20.11329 2.75586,0 0,-15.70313 c 0.54177,0.61916 1.13298,1.33579 1.77148,2.14844 0.63851,0.81264 1.29545,1.68259 1.97266,2.61133 0.67721,0.90939 1.356,1.85892 2.0332,2.8457 0.69656,0.98679 1.36345,1.9642 2.00196,2.93164 0.6385,0.94809 1.22776,1.86582 1.76953,2.75586 0.56111,0.89005 1.05479,1.69426 1.48047,2.41016 l 2.35156,0 0,-20.11329 -2.75781,0 0,14.88868 c -0.61916,-1.02548 -1.38358,-2.19601 -2.29297,-3.51172 -0.89004,-1.31572 -1.84756,-2.65146 -2.87305,-4.00586 -1.00613,-1.37376 -2.03134,-2.69954 -3.07617,-3.97656 -1.02548,-1.29637 -1.99295,-2.4271 -2.90235,-3.39454 l -2.23437,0 z m 19.11133,0 0,2.4375 6.32812,0 0,17.67579 2.81446,0 0,-17.67579 6.32617,0 0,-2.4375 -15.46875,0 z M 35.75,128.11719 c 1.02548,0 1.945166,0.1931 2.757812,0.58008 0.812647,0.36762 1.499434,0.90109 2.060547,1.59765 0.580467,0.69656 1.026358,1.5466 1.335938,2.55274 0.30958,0.98678 0.462891,2.08962 0.462891,3.30859 0,1.21897 -0.153311,2.33176 -0.462891,3.33789 -0.30958,0.98679 -0.755471,1.82884 -1.335938,2.52539 -0.561113,0.69655 -1.2479,1.23802 -2.060547,1.625 -0.812646,0.36762 -1.732332,0.55078 -2.757812,0.55078 -1.025487,0 -1.953163,-0.18316 -2.785156,-0.55078 -0.812647,-0.38698 -1.509384,-0.92845 -2.089844,-1.625 -0.561113,-0.69655 -0.997061,-1.5386 -1.306641,-2.52539 -0.30958,-1.00613 -0.464843,-2.11892 -0.464843,-3.33789 0,-1.21897 0.155263,-2.32181 0.464843,-3.30859 0.30958,-1.00614 0.745528,-1.85618 1.306641,-2.55274 0.58046,-0.69656 1.277197,-1.23003 2.089844,-1.59765 0.831993,-0.38698 1.759669,-0.58008 2.785156,-0.58008 z m 229.23828,0 c 1.02548,0 1.94517,0.1931 2.75781,0.58008 0.81265,0.36762 1.49944,0.90109 2.06055,1.59765 0.58047,0.69656 1.02441,1.5466 1.33398,2.55274 0.30959,0.98678 0.46485,2.08962 0.46485,3.30859 0,1.21897 -0.15526,2.33176 -0.46485,3.33789 -0.30957,0.98679 -0.75351,1.82884 -1.33398,2.52539 -0.56111,0.69655 -1.2479,1.23802 -2.06055,1.625 -0.81264,0.36762 -1.73233,0.55078 -2.75781,0.55078 -1.02549,0 -1.95511,-0.18316 -2.78711,-0.55078 -0.81264,-0.38698 -1.50938,-0.92845 -2.08984,-1.625 -0.56112,-0.69655 -0.99511,-1.5386 -1.30469,-2.52539 -0.30958,-1.00613 -0.46484,-2.11892 -0.46484,-3.33789 0,-1.21897 0.15526,-2.32181 0.46484,-3.30859 0.30958,-1.00614 0.74357,-1.85618 1.30469,-2.55274 0.58046,-0.69656 1.2772,-1.23003 2.08984,-1.59765 0.832,-0.38698 1.76162,-0.58008 2.78711,-0.58008 z m -131.33203,0.26172 c 0.7546,0 1.46129,0.0577 2.11914,0.17382 0.67721,0.1161 1.25847,0.31915 1.74219,0.60938 0.50306,0.29023 0.89922,0.68639 1.18945,1.18945 0.29023,0.50307 0.43555,1.13212 0.43555,1.88672 0,0.81265 -0.14532,1.47154 -0.43555,1.97461 -0.29023,0.48372 -0.70629,0.85997 -1.24805,1.13086 -0.52242,0.27088 -1.17136,0.45599 -1.94531,0.55273 -0.77395,0.0967 -1.64389,0.14454 -2.61133,0.14454 l -2.0039,0 0,-7.57618 c 0.63851,-0.0581 1.55819,-0.0859 2.75781,-0.0859 z m 41.49414,0 c 2.67013,0 4.6628,0.68678 5.97852,2.06054 1.31571,1.35442 1.97461,3.25951 1.97461,5.7168 0,2.45729 -0.6589,4.37233 -1.97461,5.74609 -1.31572,1.35442 -3.30839,2.03321 -5.97852,2.03321 -0.7933,0 -1.4124,-0.01 -1.85742,-0.0293 -0.42567,-0.0193 -0.72625,-0.0393 -0.90039,-0.0586 l 0,-15.38282 c 0.17414,-0.0193 0.47472,-0.0373 0.90039,-0.0566 0.44502,-0.0193 1.06412,-0.0293 1.85742,-0.0293 z m 109.17773,0 c 0.75461,0 1.46928,0.0577 2.14649,0.17382 0.67721,0.1161 1.26842,0.3291 1.77148,0.63868 0.52242,0.29022 0.92853,0.68638 1.21875,1.18945 0.30958,0.50307 0.46485,1.14207 0.46485,1.91602 0,0.81264 -0.14532,1.47953 -0.43555,2.00195 -0.29023,0.52242 -0.70628,0.93847 -1.24805,1.24805 -0.52241,0.29022 -1.17136,0.50322 -1.94531,0.63867 -0.77395,0.11608 -1.64389,0.17383 -2.61133,0.17383 l -2.11914,0 0,-7.89454 c 0.63851,-0.0581 1.55819,-0.0859 2.75781,-0.0859 z m -168.4082,0.95703 c 0.65786,1.45116 1.28691,2.97004 1.88672,4.55664 0.61916,1.56724 1.23826,3.19361 1.85742,4.87695 l -7.48828,0 c 0.59981,-1.68334 1.20097,-3.30971 1.80078,-4.87695 0.61916,-1.5866 1.26616,-3.10548 1.94336,-4.55664 z"
       style="font-style:normal;font-variant:normal;font-weight:normal;font-stretch:normal;font-size:medium;line-height:125%;font-family:Ubuntu;-inkscape-font-specification:Ubuntu;letter-spacing:0px;word-spacing:0px;fill:#ffffff;fill-opacity:1;stroke:none"
       inkscape:connector-curvature="0" />
  </g>
</svg>
