<?xml version="1.0" encoding="UTF-8" standalone="no"?>
<!-- Created with Inkscape (http://www.inkscape.org/) -->

<svg
   xmlns:dc="http://purl.org/dc/elements/1.1/"
   xmlns:cc="http://creativecommons.org/ns#"
   xmlns:rdf="http://www.w3.org/1999/02/22-rdf-syntax-ns#"
   xmlns:svg="http://www.w3.org/2000/svg"
   xmlns="http://www.w3.org/2000/svg"
   xmlns:sodipodi="http://sodipodi.sourceforge.net/DTD/sodipodi-0.dtd"
   xmlns:inkscape="http://www.inkscape.org/namespaces/inkscape"
   width="400mm"
   height="400mm"
   viewBox="0 0 400.00001 400"
   version="1.1"
   id="svg4601"
   inkscape:version="0.92.1 r"
   sodipodi:docname="BannerQuadrat2_en_vector.svg"
   inkscape:export-filename="/home/raphael/proj/opacapp/presskit/Banner/BannerQuadrat_250.png"
   inkscape:export-xdpi="15.875"
   inkscape:export-ydpi="15.875">
  <defs
     id="defs4595" />
  <sodipodi:namedview
     id="base"
     pagecolor="#ffffff"
     bordercolor="#666666"
     borderopacity="1.0"
     inkscape:pageopacity="0.0"
     inkscape:pageshadow="2"
     inkscape:zoom="0.35"
     inkscape:cx="755.1824"
     inkscape:cy="757.1069"
     inkscape:document-units="mm"
     inkscape:current-layer="layer1"
     showgrid="false"
     inkscape:window-width="1916"
     inkscape:window-height="951"
     inkscape:window-x="1920"
     inkscape:window-y="108"
     inkscape:window-maximized="0"
     fit-margin-top="0"
     fit-margin-left="0"
     fit-margin-right="0"
     fit-margin-bottom="0" />
  <metadata
     id="metadata4598">
    <rdf:RDF>
      <cc:Work
         rdf:about="">
        <dc:format>image/svg+xml</dc:format>
        <dc:type
           rdf:resource="http://purl.org/dc/dcmitype/StillImage" />
        <dc:title></dc:title>
      </cc:Work>
    </rdf:RDF>
  </metadata>
  <g
     inkscape:label="Ebene 1"
     inkscape:groupmode="layer"
     id="layer1"
     transform="translate(-13.216333,233.78537)">
    <rect
       style="color:#000000;display:inline;overflow:visible;visibility:visible;opacity:1;fill:#ffffff;fill-opacity:1;fill-rule:nonzero;stroke:none;stroke-width:1.83274424;stroke-linecap:square;stroke-linejoin:round;stroke-miterlimit:4;stroke-dasharray:none;stroke-dashoffset:0;stroke-opacity:1;marker:none;enable-background:accumulate"
       id="rect4535"
       width="400"
       height="400"
       x="13.216333"
       y="-233.78537" />
    <g
       aria-label="Web Opac App"
       style="font-style:normal;font-variant:normal;font-weight:300;font-stretch:normal;font-size:4.11836958px;line-height:7.72194338px;font-family:Roboto;-inkscape-font-specification:'Roboto, Light';font-variant-ligatures:normal;font-variant-caps:normal;font-variant-numeric:normal;font-feature-settings:normal;text-align:start;letter-spacing:0px;word-spacing:0px;writing-mode:lr-tb;text-anchor:start;fill:#000000;fill-opacity:1;stroke:none;stroke-width:0.30887774px;stroke-linecap:butt;stroke-linejoin:miter;stroke-opacity:1"
       id="text4547">
      <path
         d="m 90.077469,47.802179 0.904915,4.725668 h 0.120656 l 1.02557,-4.725668 6.113206,-20.87338 h 2.433214 l 6.13332,20.87338 0.98535,4.745778 h 0.12065 l 0.96525,-4.745778 5.16807,-20.87338 h 2.6142 l -7.50074,29.279037 h -2.29246 l -6.61593,-22.462008 -0.723934,-3.157149 h -0.120655 l -0.683714,3.157149 -6.696373,22.462008 H 89.735612 L 82.23487,26.928799 h 2.614199 z"
         style="font-size:41.18370056px;line-height:40.15410614px;fill:#d50000;fill-opacity:1;stroke-width:0.30887774px"
         id="path5021" />
      <path
         d="m 128.46599,56.63013 q -4.22294,0 -6.85725,-2.976166 -2.63431,-2.996275 -2.63431,-7.681725 v -1.106008 q 0,-4.705559 2.65442,-7.762162 2.67453,-3.056603 6.61593,-3.056603 3.96152,0 6.11321,2.553872 2.1718,2.533763 2.1718,6.837138 v 1.870158 h -15.14225 v 0.663605 q 0,3.720207 1.87016,6.173533 1.89026,2.453326 5.20829,2.453326 1.99081,0 3.65988,-0.643495 1.66906,-0.663605 2.77507,-1.769613 l 1.02557,1.648957 q -1.14623,1.206554 -3.01639,2.010923 -1.85004,0.78426 -4.44413,0.78426 z m -0.22121,-20.531523 q -2.77507,0 -4.56479,1.990814 -1.78972,1.990814 -2.09136,5.047416 l 0.0603,0.120656 h 12.46772 v -0.502731 q 0,-2.895729 -1.5283,-4.765887 -1.50819,-1.890268 -4.3436,-1.890268 z"
         style="font-size:41.18370056px;line-height:40.15410614px;fill:#d50000;fill-opacity:1;stroke-width:0.30887774px"
         id="path5023" />
      <path
         d="m 158.97168,45.93202 q 0,4.886543 -2.21201,7.802381 -2.21202,2.895729 -6.0931,2.895729 -2.37289,0 -4.12239,-0.945134 -1.72939,-0.965243 -2.81529,-2.734855 l -0.40219,3.257695 h -1.89026 V 24.837439 h 2.4131 v 12.950344 q 1.0859,-1.789722 2.77508,-2.754965 1.68917,-0.985352 4.00173,-0.985352 3.9213,0 6.13332,3.13704 2.21201,3.11693 2.21201,8.32522 z m -2.43321,-0.422294 q 0,-4.16261 -1.60874,-6.7567 -1.60874,-2.6142 -4.76589,-2.6142 -2.49354,0 -4.02184,1.226663 -1.52831,1.206554 -2.29246,3.137039 v 9.954069 q 0.80437,1.890267 2.37289,2.996275 1.58863,1.085898 3.98163,1.085898 3.15715,0 4.74578,-2.33267 1.58863,-2.332671 1.58863,-6.27408 z"
         style="font-size:41.18370056px;line-height:40.15410614px;fill:#d50000;fill-opacity:1;stroke-width:0.30887774px"
         id="path5025" />
      <path
         d="m 196.45528,43.961316 q 0,5.670802 -3.11693,9.169808 -3.09682,3.499006 -8.32522,3.499006 -5.14796,0 -8.22467,-3.499006 -3.0566,-3.499006 -3.0566,-9.169808 v -4.765887 q 0,-5.650694 3.0566,-9.169809 3.0566,-3.519115 8.20456,-3.519115 5.2284,0 8.34533,3.519115 3.11693,3.519115 3.11693,9.169809 z m -2.39299,-4.806106 q 0,-4.745778 -2.41311,-7.641507 -2.393,-2.895729 -6.65616,-2.895729 -4.18272,0 -6.51539,2.895729 -2.33267,2.895729 -2.33267,7.641507 v 4.806106 q 0,4.785996 2.33267,7.681725 2.35278,2.895729 6.5355,2.895729 4.28327,0 6.65616,-2.87562 2.393,-2.895729 2.393,-7.701834 z"
         style="font-size:41.18370056px;line-height:40.15410614px;fill:#d50000;fill-opacity:1;stroke-width:0.30887774px"
         id="path5027" />
      <path
         d="m 219.68145,45.93202 q 0,4.886543 -2.21202,7.802381 -2.21201,2.895729 -6.09309,2.895729 -2.27235,0 -4.00174,-0.864697 -1.70928,-0.864697 -2.79518,-2.453326 v 11.261168 h -2.41311 V 34.449651 h 1.85005 l 0.4424,3.398459 q 1.0859,-1.80983 2.81529,-2.795183 1.7294,-1.005461 4.06207,-1.005461 3.9213,0 6.13331,3.13704 2.21202,3.11693 2.21202,8.32522 z m -2.41311,-0.422294 q 0,-4.142501 -1.64896,-6.7567 -1.64895,-2.6142 -4.82621,-2.6142 -2.393,0 -3.9213,1.146226 -1.50819,1.146226 -2.29245,2.976166 v 10.537236 q 0.84459,1.769612 2.393,2.795182 1.54841,1.005462 3.86097,1.005462 3.15715,0 4.78599,-2.372889 1.64896,-2.372889 1.64896,-6.294189 z"
         style="font-size:41.18370056px;line-height:40.15410614px;fill:#d50000;fill-opacity:1;stroke-width:0.30887774px"
         id="path5029" />
      <path
         d="m 238.86565,56.207836 q -0.22121,-1.146226 -0.34186,-1.970704 -0.10055,-0.824479 -0.10055,-1.689175 -1.12611,1.769612 -3.15715,2.935947 -2.03103,1.146226 -4.66534,1.146226 -3.19736,0 -4.96698,-1.689175 -1.7495,-1.709285 -1.7495,-4.625123 0,-2.915838 2.55387,-4.725669 2.55388,-1.80983 6.63605,-1.80983 h 5.34905 v -2.694637 q 0,-2.33267 -1.48808,-3.65988 -1.46797,-1.327209 -4.16261,-1.327209 -2.47344,0 -4.00174,1.206554 -1.50819,1.206554 -1.50819,3.036494 h -2.23212 l -0.0402,-0.120656 q -0.12066,-2.453326 2.09136,-4.303375 2.23212,-1.870158 5.81157,-1.870158 3.57944,0 5.75123,1.82994 2.1718,1.82994 2.1718,5.248509 v 10.698109 q 0,1.146226 0.12066,2.232125 0.14076,1.085898 0.4424,2.151687 z m -8.00348,-1.709284 q 2.77508,0 4.80611,-1.3071 2.03103,-1.327209 2.75496,-3.39846 v -4.16261 h -5.36916 q -2.93595,0 -4.84632,1.407646 -1.91038,1.387537 -1.91038,3.358241 0,1.850049 1.20655,2.976166 1.22667,1.126117 3.35824,1.126117 z"
         style="font-size:41.18370056px;line-height:40.15410614px;fill:#d50000;fill-opacity:1;stroke-width:0.30887774px"
         id="path5031" />
      <path
         d="m 255.17424,54.599098 q 2.31256,0 4.08218,-1.367428 1.78972,-1.367427 1.78972,-3.800644 h 2.15168 l 0.0402,0.120655 q 0.0804,3.016385 -2.37289,5.047417 -2.45332,2.031032 -5.69091,2.031032 -4.34359,0 -6.77681,-3.056603 -2.41311,-3.056603 -2.41311,-7.82249 V 44.90645 q 0,-4.745778 2.41311,-7.802381 2.41311,-3.056603 6.7567,-3.056603 3.49901,0 5.83168,2.111469 2.33267,2.111469 2.25223,5.550147 l -0.0402,0.120656 h -2.15168 q 0,-2.6142 -1.70929,-4.162611 -1.70928,-1.56852 -4.18272,-1.56852 -3.41857,0 -5.08763,2.513654 -1.66907,2.513654 -1.66907,6.294189 v 0.844587 q 0,3.840863 1.66907,6.354516 1.66906,2.493545 5.10774,2.493545 z"
         style="font-size:41.18370056px;line-height:40.15410614px;fill:#d50000;fill-opacity:1;stroke-width:0.30887774px"
         id="path5033" />
      <path
         d="m 294.38723,48.043489 h -12.8498 l -2.95606,8.164347 h -2.49354 l 10.75844,-29.279037 h 2.27234 l 10.678,29.279037 h -2.49355 z m -12.08565,-2.151687 h 11.30139 l -5.55015,-15.524325 h -0.12066 z"
         style="font-size:41.18370056px;line-height:40.15410614px;fill:#d50000;fill-opacity:1;stroke-width:0.30887774px"
         id="path5035" />
      <path
         d="m 321.27328,45.93202 q 0,4.886543 -2.21202,7.802381 -2.21201,2.895729 -6.0931,2.895729 -2.27234,0 -4.00173,-0.864697 -1.70929,-0.864697 -2.79519,-2.453326 v 11.261168 h -2.4131 V 34.449651 h 1.85005 l 0.4424,3.398459 q 1.0859,-1.80983 2.81529,-2.795183 1.7294,-1.005461 4.06207,-1.005461 3.9213,0 6.13331,3.13704 2.21202,3.11693 2.21202,8.32522 z m -2.41311,-0.422294 q 0,-4.142501 -1.64896,-6.7567 -1.64896,-2.6142 -4.82621,-2.6142 -2.393,0 -3.9213,1.146226 -1.5082,1.146226 -2.29246,2.976166 v 10.537236 q 0.84459,1.769612 2.393,2.795182 1.54841,1.005462 3.86097,1.005462 3.15715,0 4.786,-2.372889 1.64896,-2.372889 1.64896,-6.294189 z"
         style="font-size:41.18370056px;line-height:40.15410614px;fill:#d50000;fill-opacity:1;stroke-width:0.30887774px"
         id="path5037" />
      <path
         d="m 344.19779,45.93202 q 0,4.886543 -2.21201,7.802381 -2.21202,2.895729 -6.0931,2.895729 -2.27234,0 -4.00174,-0.864697 -1.70928,-0.864697 -2.79518,-2.453326 v 11.261168 h -2.41311 V 34.449651 h 1.85005 l 0.4424,3.398459 q 1.0859,-1.80983 2.8153,-2.795183 1.72939,-1.005461 4.06206,-1.005461 3.9213,0 6.13332,3.13704 2.21201,3.11693 2.21201,8.32522 z m -2.41311,-0.422294 q 0,-4.142501 -1.64895,-6.7567 -1.64896,-2.6142 -4.82622,-2.6142 -2.393,0 -3.9213,1.146226 -1.50819,1.146226 -2.29245,2.976166 v 10.537236 q 0.84459,1.769612 2.393,2.795182 1.54841,1.005462 3.86097,1.005462 3.15715,0 4.786,-2.372889 1.64895,-2.372889 1.64895,-6.294189 z"
         style="font-size:41.18370056px;line-height:40.15410614px;fill:#d50000;fill-opacity:1;stroke-width:0.30887774px"
         id="path5039" />
    </g>
    <g
       id="g5279"
       transform="matrix(3.1096609,0,0,3.1096609,125.06677,-172.88864)"
       style="fill:#d50000;fill-opacity:1">
      <path
         id="path5271"
         d="M 35.021,8.568 35.568,7.749 36.105,6.941 37.314,5.128 C 37.462,4.905 37.402,4.605 37.181,4.456 36.956,4.307 36.656,4.367 36.507,4.591 L 35.212,6.535 34.667,7.352 34.114,8.18 C 32.362,7.501 30.409,7.12 28.346,7.12 26.285,7.12 24.332,7.501 22.58,8.18 L 22.03,7.352 21.485,6.535 20.188,4.59 C 20.04,4.367 19.739,4.307 19.515,4.455 19.293,4.603 19.233,4.904 19.381,5.127 l 1.208,1.813 0.539,0.808 0.547,0.819 c -4.115,1.916 -6.898,5.546 -6.898,9.701 h 27.142 c 0,-4.154 -2.783,-7.784 -6.898,-9.7 z m -12.489,5.823 c -0.805,0 -1.455,-0.651 -1.455,-1.454 0,-0.803 0.65,-1.453 1.455,-1.453 0.803,0 1.453,0.65 1.453,1.453 0,0.803 -0.65,1.454 -1.453,1.454 z m 11.631,0 c -0.803,0 -1.453,-0.651 -1.453,-1.454 0,-0.803 0.65,-1.453 1.453,-1.453 0.805,0 1.455,0.65 1.455,1.453 0,0.803 -0.65,1.454 -1.455,1.454 z"
         inkscape:connector-curvature="0"
         style="fill:#d50000;fill-opacity:1" />
      <path
         id="path5273"
         d="m 14.986,20.208 h -0.209 v 2.418 1.973 16.936 c 0,1.693 1.376,3.07 3.069,3.07 h 2.216 c -0.074,0.256 -0.116,0.527 -0.116,0.807 v 0.162 0.969 5.01 c 0,1.605 1.303,2.908 2.909,2.908 1.606,0 2.908,-1.303 2.908,-2.908 v -5.01 -0.969 -0.162 c 0,-0.279 -0.043,-0.551 -0.115,-0.807 h 5.4 c -0.074,0.256 -0.115,0.527 -0.115,0.807 v 0.162 0.969 5.01 c 0,1.605 1.303,2.908 2.908,2.908 1.605,0 2.908,-1.303 2.908,-2.908 v -5.01 -0.969 -0.162 c 0,-0.279 -0.041,-0.551 -0.115,-0.807 h 2.215 c 1.693,0 3.07,-1.377 3.07,-3.07 V 24.599 22.626 20.208 H 41.71 Z"
         inkscape:connector-curvature="0"
         style="fill:#d50000;fill-opacity:1" />
      <path
         id="path5275"
         d="m 9.929,20.208 c -1.606,0 -2.908,1.301 -2.908,2.909 v 12.439 c 0,1.605 1.302,2.908 2.908,2.908 1.605,0 2.908,-1.303 2.908,-2.908 v -12.44 c 0,-1.607 -1.302,-2.908 -2.908,-2.908 z"
         inkscape:connector-curvature="0"
         style="fill:#d50000;fill-opacity:1" />
      <path
         id="path5277"
         d="m 46.767,20.208 c -1.607,0 -2.908,1.301 -2.908,2.909 v 12.439 c 0,1.605 1.301,2.908 2.908,2.908 1.605,0 2.906,-1.303 2.906,-2.908 v -12.44 c 0,-1.607 -1.301,-2.908 -2.906,-2.908 z"
         inkscape:connector-curvature="0"
         style="fill:#d50000;fill-opacity:1" />
    </g>
    <g
       transform="translate(2e-6,-2.8531661)"
       aria-label="The library catalogue on your smartphone"
       style="font-style:normal;font-variant:normal;font-weight:300;font-stretch:normal;font-size:2.86377835px;line-height:5.36958456px;font-family:Roboto;-inkscape-font-specification:'Roboto, Light';font-variant-ligatures:normal;font-variant-caps:normal;font-variant-numeric:normal;font-feature-settings:normal;text-align:start;letter-spacing:0px;word-spacing:0px;writing-mode:lr-tb;text-anchor:start;fill:#000000;fill-opacity:1;stroke:none;stroke-width:0.21478339px;stroke-linecap:butt;stroke-linejoin:miter;stroke-opacity:1"
       id="text4539-8">
      <path
         inkscape:connector-curvature="0"
         d="M 98.00798,74.336153 H 91.072267 V 93.269531 H 89.408255 V 74.336153 H 82.234826 V 72.909857 H 98.00798 Z"
         style="font-size:28.63778305px;line-height:29.68620682px;text-align:center;text-anchor:middle;stroke-width:0.21478339px"
         id="path4534" />
      <path
         inkscape:connector-curvature="0"
         d="m 102.56653,80.712535 q 0.76908,-1.35638 2.0136,-2.097494 1.25849,-0.755098 2.93649,-0.755098 2.39114,0 3.66362,1.482229 1.28646,1.482229 1.28646,4.600503 v 9.326856 h -1.67799 v -9.354822 q 0,-2.46106 -0.97883,-3.52379 -0.96485,-1.076714 -2.67081,-1.076714 -1.7619,0 -2.90853,0.866964 -1.13264,0.852981 -1.66401,2.29326 v 10.795102 h -1.67799 V 71.455595 h 1.67799 z"
         style="font-size:28.63778305px;line-height:29.68620682px;text-align:center;text-anchor:middle;stroke-width:0.21478339px"
         id="path4536" />
      <path
         inkscape:connector-curvature="0"
         d="m 122.57663,93.56318 q -2.9365,0 -4.76831,-2.069527 -1.83181,-2.08351 -1.83181,-5.341618 v -0.769081 q 0,-3.27209 1.8458,-5.397551 1.85977,-2.12546 4.6005,-2.12546 2.75471,0 4.25092,1.775878 1.5102,1.761895 1.5102,4.75432 v 1.300446 h -10.52942 v 0.461448 q 0,2.586909 1.30044,4.292871 1.31443,1.705962 3.62168,1.705962 1.38434,0 2.54495,-0.447466 1.16062,-0.461448 1.9297,-1.230529 l 0.71315,1.14663 q -0.79705,0.838997 -2.0975,1.398329 -1.28646,0.545348 -3.0903,0.545348 z m -0.15382,-14.276941 q -1.9297,0 -3.17421,1.384346 -1.24451,1.384346 -1.45426,3.509806 l 0.0419,0.0839 h 8.66964 v -0.349582 q 0,-2.013595 -1.06273,-3.314041 -1.04875,-1.314429 -3.02039,-1.314429 z"
         style="font-size:28.63778305px;line-height:29.68620682px;text-align:center;text-anchor:middle;stroke-width:0.21478339px"
         id="path4538" />
      <path
         inkscape:connector-curvature="0"
         d="m 140.46126,93.269531 h -1.66402 V 71.455595 h 1.66402 z"
         style="font-size:28.63778305px;line-height:29.68620682px;text-align:center;text-anchor:middle;stroke-width:0.21478339px"
         id="path4540" />
      <path
         inkscape:connector-curvature="0"
         d="m 146.9495,93.269531 h -1.66401 V 78.139609 h 1.66401 z m 0,-19.464743 h -1.66401 v -2.349193 h 1.66401 z"
         style="font-size:28.63778305px;line-height:29.68620682px;text-align:center;text-anchor:middle;stroke-width:0.21478339px"
         id="path4542" />
      <path
         inkscape:connector-curvature="0"
         d="m 163.75742,86.124069 q 0,3.39794 -1.53816,5.425517 -1.53816,2.013594 -4.23694,2.013594 -1.65003,0 -2.86657,-0.657214 -1.20257,-0.671198 -1.95767,-1.901728 l -0.27966,2.265293 h -1.31443 V 71.455595 h 1.67799 v 9.00524 q 0.7551,-1.244513 1.9297,-1.915711 1.1746,-0.685181 2.78267,-0.685181 2.72675,0 4.26491,2.181394 1.53816,2.16741 1.53816,5.789083 z m -1.69198,-0.293649 q 0,-2.894542 -1.11866,-4.698387 -1.11867,-1.817828 -3.31404,-1.817828 -1.73393,0 -2.79666,0.852981 -1.06273,0.838998 -1.5941,2.181394 v 6.92173 q 0.55934,1.314429 1.65003,2.08351 1.10468,0.755098 2.76869,0.755098 2.19538,0 3.30006,-1.622062 1.10468,-1.622062 1.10468,-4.362787 z"
         style="font-size:28.63778305px;line-height:29.68620682px;text-align:center;text-anchor:middle;stroke-width:0.21478339px"
         id="path4544" />
      <path
         inkscape:connector-curvature="0"
         d="m 174.41269,79.579888 -1.18858,-0.0839 q -1.58011,0 -2.60089,0.894931 -1.0068,0.880947 -1.44028,2.433093 v 10.445519 h -1.67799 V 78.139609 h 1.46824 l 0.20975,2.516992 v 0.1678 q 0.65721,-1.398329 1.7619,-2.181394 1.10468,-0.783064 2.62885,-0.783064 0.30764,0 0.5873,0.05593 0.27967,0.04195 0.46145,0.09788 z"
         style="font-size:28.63778305px;line-height:29.68620682px;text-align:center;text-anchor:middle;stroke-width:0.21478339px"
         id="path4546" />
      <path
         inkscape:connector-curvature="0"
         d="m 186.8718,93.269531 q -0.15382,-0.797047 -0.23772,-1.370362 -0.0699,-0.573315 -0.0699,-1.174597 -0.78307,1.23053 -2.19538,2.041561 -1.41231,0.797047 -3.24412,0.797047 -2.22335,0 -3.45388,-1.174596 -1.21654,-1.18858 -1.21654,-3.216157 0,-2.027578 1.77588,-3.286074 1.77587,-1.258497 4.61448,-1.258497 h 3.71956 v -1.873761 q 0,-1.622062 -1.03477,-2.544959 -1.02078,-0.922897 -2.89454,-0.922897 -1.71994,0 -2.78267,0.838997 -1.04875,0.838998 -1.04875,2.111477 h -1.55215 l -0.028,-0.0839 q -0.0839,-1.705962 1.45426,-2.992425 1.55215,-1.300446 4.04117,-1.300446 2.48903,0 3.99922,1.27248 1.5102,1.272479 1.5102,3.649639 v 7.439111 q 0,0.797048 0.0839,1.552146 0.0979,0.755098 0.30763,1.496212 z m -5.56535,-1.18858 q 1.92969,0 3.34201,-0.908914 1.41231,-0.922897 1.91571,-2.363176 v -2.894542 h -3.73354 q -2.04156,0 -3.36998,0.978831 -1.32841,0.964847 -1.32841,2.33521 0,1.286463 0.839,2.069527 0.85298,0.783064 2.33521,0.783064 z"
         style="font-size:28.63778305px;line-height:29.68620682px;text-align:center;text-anchor:middle;stroke-width:0.21478339px"
         id="path4548" />
      <path
         inkscape:connector-curvature="0"
         d="m 199.58261,79.579888 -1.18858,-0.0839 q -1.58011,0 -2.60089,0.894931 -1.0068,0.880947 -1.44028,2.433093 v 10.445519 h -1.67799 V 78.139609 h 1.46824 l 0.20975,2.516992 v 0.1678 q 0.65722,-1.398329 1.7619,-2.181394 1.10468,-0.783064 2.62886,-0.783064 0.30763,0 0.58729,0.05593 0.27967,0.04195 0.46145,0.09788 z"
         style="font-size:28.63778305px;line-height:29.68620682px;text-align:center;text-anchor:middle;stroke-width:0.21478339px"
         id="path4550" />
      <path
         inkscape:connector-curvature="0"
         d="m 207.03571,89.172427 0.53136,1.803844 h 0.0839 l 4.57254,-12.836662 h 1.87376 l -6.57215,17.549032 q -0.5873,1.538162 -1.52418,2.614876 -0.93688,1.076713 -2.74072,1.076713 -0.29365,0 -0.71315,-0.06992 -0.4195,-0.05593 -0.61526,-0.12585 l 0.19576,-1.398329 q 0.1678,0.02797 0.53137,0.05593 0.37755,0.04195 0.54535,0.04195 1.09069,0 1.74791,-0.783065 0.65721,-0.769081 1.11866,-1.985627 l 0.79705,-2.041561 -5.84502,-14.934156 h 1.85978 z"
         style="font-size:28.63778305px;line-height:29.68620682px;text-align:center;text-anchor:middle;stroke-width:0.21478339px"
         id="path4552" />
      <path
         inkscape:connector-curvature="0"
         d="m 229.31109,92.150868 q 1.60808,0 2.83861,-0.950864 1.24451,-0.950864 1.24451,-2.642842 h 1.49621 l 0.028,0.0839 q 0.0559,2.097494 -1.65003,3.509807 -1.70596,1.412312 -3.95727,1.412312 -3.02039,0 -4.71237,-2.12546 -1.678,-2.125461 -1.678,-5.439501 v -0.587298 q 0,-3.300057 1.678,-5.425518 1.678,-2.12546 4.69839,-2.12546 2.43309,0 4.05515,1.468246 1.62206,1.468245 1.56613,3.859388 l -0.028,0.0839 h -1.49621 q 0,-1.817828 -1.18858,-2.894541 -1.18858,-1.090697 -2.90852,-1.090697 -2.37716,0 -3.53778,1.747911 -1.16061,1.747912 -1.16061,4.376771 v 0.587298 q 0,2.670809 1.16061,4.418721 1.16062,1.733928 3.55176,1.733927 z"
         style="font-size:28.63778305px;line-height:29.68620682px;text-align:center;text-anchor:middle;stroke-width:0.21478339px"
         id="path4554" />
      <path
         inkscape:connector-curvature="0"
         d="m 248.11862,93.269531 q -0.15382,-0.797047 -0.23772,-1.370362 -0.0699,-0.573315 -0.0699,-1.174597 -0.78307,1.23053 -2.19538,2.041561 -1.41231,0.797047 -3.24412,0.797047 -2.22335,0 -3.45388,-1.174596 -1.21654,-1.18858 -1.21654,-3.216157 0,-2.027578 1.77587,-3.286074 1.77588,-1.258497 4.61449,-1.258497 h 3.71956 v -1.873761 q 0,-1.622062 -1.03477,-2.544959 -1.02078,-0.922897 -2.89454,-0.922897 -1.71994,0 -2.78267,0.838997 -1.04875,0.838998 -1.04875,2.111477 h -1.55215 l -0.028,-0.0839 q -0.0839,-1.705962 1.45426,-2.992425 1.55214,-1.300446 4.04117,-1.300446 2.48903,0 3.99922,1.27248 1.5102,1.272479 1.5102,3.649639 v 7.439111 q 0,0.797048 0.0839,1.552146 0.0979,0.755098 0.30763,1.496212 z m -5.56535,-1.18858 q 1.92969,0 3.34201,-0.908914 1.41231,-0.922897 1.91571,-2.363176 v -2.894542 h -3.73354 q -2.04156,0 -3.36998,0.978831 -1.32841,0.964847 -1.32841,2.33521 0,1.286463 0.839,2.069527 0.85298,0.783064 2.33521,0.783064 z"
         style="font-size:28.63778305px;line-height:29.68620682px;text-align:center;text-anchor:middle;stroke-width:0.21478339px"
         id="path4556" />
      <path
         inkscape:connector-curvature="0"
         d="m 256.53656,74.266237 v 3.873372 h 3.32802 v 1.370362 h -3.32802 v 9.858222 q 0,1.482229 0.53137,2.111477 0.54534,0.615265 1.44028,0.615265 0.30763,0 0.58729,-0.02797 0.29365,-0.04195 0.68519,-0.12585 l 0.25169,1.244513 q -0.33559,0.1678 -0.83899,0.265683 -0.48942,0.111866 -0.97883,0.111866 -1.5941,0 -2.48903,-1.006797 -0.88095,-1.006797 -0.88095,-3.18819 v -9.858222 h -2.61487 v -1.370362 h 2.61487 v -3.873372 z"
         style="font-size:28.63778305px;line-height:29.68620682px;text-align:center;text-anchor:middle;stroke-width:0.21478339px"
         id="path4558" />
      <path
         inkscape:connector-curvature="0"
         d="m 272.72921,93.269531 q -0.15381,-0.797047 -0.23771,-1.370362 -0.0699,-0.573315 -0.0699,-1.174597 -0.78306,1.23053 -2.19538,2.041561 -1.41231,0.797047 -3.24412,0.797047 -2.22334,0 -3.45387,-1.174596 -1.21655,-1.18858 -1.21655,-3.216157 0,-2.027578 1.77588,-3.286074 1.77588,-1.258497 4.61449,-1.258497 h 3.71955 v -1.873761 q 0,-1.622062 -1.03476,-2.544959 -1.02078,-0.922897 -2.89454,-0.922897 -1.71995,0 -2.78268,0.838997 -1.04875,0.838998 -1.04875,2.111477 h -1.55214 l -0.028,-0.0839 q -0.0839,-1.705962 1.45426,-2.992425 1.55215,-1.300446 4.04118,-1.300446 2.48902,0 3.99922,1.27248 1.51019,1.272479 1.51019,3.649639 v 7.439111 q 0,0.797048 0.0839,1.552146 0.0979,0.755098 0.30764,1.496212 z m -5.56535,-1.18858 q 1.9297,0 3.34201,-0.908914 1.41231,-0.922897 1.91571,-2.363176 v -2.894542 h -3.73354 q -2.04156,0 -3.36997,0.978831 -1.32841,0.964847 -1.32841,2.33521 0,1.286463 0.83899,2.069527 0.85298,0.783064 2.33521,0.783064 z"
         style="font-size:28.63778305px;line-height:29.68620682px;text-align:center;text-anchor:middle;stroke-width:0.21478339px"
         id="path4560" />
      <path
         inkscape:connector-curvature="0"
         d="m 280.40604,93.269531 h -1.66401 V 71.455595 h 1.66401 z"
         style="font-size:28.63778305px;line-height:29.68620682px;text-align:center;text-anchor:middle;stroke-width:0.21478339px"
         id="path4562" />
      <path
         inkscape:connector-curvature="0"
         d="m 284.08365,85.480837 q 0,-3.342007 1.83181,-5.48145 1.83181,-2.139444 4.85221,-2.139444 3.03437,0 4.86618,2.139444 1.83181,2.139443 1.83181,5.48145 v 0.461449 q 0,3.35599 -1.83181,5.495434 -1.81783,2.12546 -4.83822,2.12546 -3.04836,0 -4.88017,-2.12546 -1.83181,-2.139444 -1.83181,-5.495434 z m 1.678,0.461449 q 0,2.628859 1.32841,4.41872 1.32841,1.789862 3.70557,1.789862 2.33521,0 3.66362,-1.789862 1.3424,-1.789861 1.3424,-4.41872 v -0.461449 q 0,-2.586909 -1.3424,-4.390754 -1.34239,-1.803844 -3.69158,-1.803844 -2.3492,0 -3.67761,1.803844 -1.32841,1.803845 -1.32841,4.390754 z"
         style="font-size:28.63778305px;line-height:29.68620682px;text-align:center;text-anchor:middle;stroke-width:0.21478339px"
         id="path4564" />
      <path
         inkscape:connector-curvature="0"
         d="m 300.3602,85.83042 q 0,-3.621673 1.52418,-5.789083 1.53816,-2.181394 4.27889,-2.181394 1.60807,0 2.79665,0.699165 1.18858,0.685181 1.95766,1.95766 l 0.23772,-2.377159 h 1.35638 v 15.213822 q 0,2.894542 -1.5941,4.46067 -1.59409,1.566129 -4.5166,1.566129 -1.0907,0 -2.33521,-0.265682 -1.23053,-0.265683 -2.15343,-0.727132 l 0.32162,-1.412312 q 0.90891,0.447465 1.92969,0.671198 1.03477,0.237716 2.20936,0.237716 2.23733,0 3.34201,-1.14663 1.10468,-1.14663 1.10468,-3.383957 v -2.139444 q -0.76908,1.132647 -1.95766,1.747912 -1.1746,0.601281 -2.72674,0.601281 -2.71276,0 -4.25092,-2.027577 -1.52418,-2.027577 -1.52418,-5.411534 z m 1.67799,0.293649 q 0,2.740725 1.10468,4.362787 1.10468,1.622062 3.31404,1.622062 1.5941,0 2.67081,-0.713148 1.0907,-0.727131 1.69198,-1.985627 v -7.215379 q -0.57331,-1.27248 -1.63604,-2.069528 -1.04875,-0.811031 -2.69878,-0.811031 -2.20936,0 -3.32802,1.817828 -1.11867,1.817828 -1.11867,4.698387 z"
         style="font-size:28.63778305px;line-height:29.68620682px;text-align:center;text-anchor:middle;stroke-width:0.21478339px"
         id="path4566" />
      <path
         inkscape:connector-curvature="0"
         d="m 326.80262,90.808472 q -0.72714,1.328413 -1.95767,2.04156 -1.21654,0.713148 -2.89454,0.713148 -2.39114,0 -3.74752,-1.622062 -1.35638,-1.622061 -1.35638,-5.033985 v -8.767524 h 1.678 V 86.9351 q 0,2.768692 0.93688,3.971255 0.95086,1.202563 2.68479,1.202563 1.88774,0 3.00641,-0.838998 1.13264,-0.85298 1.59409,-2.321226 V 78.139609 h 1.678 v 15.129922 h -1.48223 z"
         style="font-size:28.63778305px;line-height:29.68620682px;text-align:center;text-anchor:middle;stroke-width:0.21478339px"
         id="path4568" />
      <path
         inkscape:connector-curvature="0"
         d="m 338.59053,93.56318 q -2.9365,0 -4.76831,-2.069527 -1.83181,-2.08351 -1.83181,-5.341618 v -0.769081 q 0,-3.27209 1.8458,-5.397551 1.85977,-2.12546 4.6005,-2.12546 2.75471,0 4.25092,1.775878 1.5102,1.761895 1.5102,4.75432 v 1.300446 h -10.52942 v 0.461448 q 0,2.586909 1.30044,4.292871 1.31443,1.705962 3.62168,1.705962 1.38434,0 2.54496,-0.447466 1.16061,-0.461448 1.92969,-1.230529 l 0.71315,1.14663 q -0.79705,0.838997 -2.0975,1.398329 -1.28646,0.545348 -3.0903,0.545348 z m -0.15382,-14.276941 q -1.92969,0 -3.17421,1.384346 -1.24451,1.384346 -1.45426,3.509806 l 0.0419,0.0839 h 8.66964 v -0.349582 q 0,-2.013595 -1.06273,-3.314041 -1.04875,-1.314429 -3.02039,-1.314429 z"
         style="font-size:28.63778305px;line-height:29.68620682px;text-align:center;text-anchor:middle;stroke-width:0.21478339px"
         id="path4570" />
      <path
         inkscape:connector-curvature="0"
         d="m 87.506528,115.16704 q 0,-3.342 1.831811,-5.48145 1.831811,-2.13944 4.852203,-2.13944 3.034374,0 4.866185,2.13944 1.831813,2.13945 1.831813,5.48145 v 0.46145 q 0,3.35599 -1.831813,5.49544 -1.817828,2.12546 -4.838219,2.12546 -3.048358,0 -4.880169,-2.12546 -1.831811,-2.13945 -1.831811,-5.49544 z m 1.677995,0.46145 q 0,2.62886 1.328413,4.41872 1.328412,1.78986 3.705572,1.78986 2.33521,0 3.663623,-1.78986 1.342396,-1.78986 1.342396,-4.41872 v -0.46145 q 0,-2.58691 -1.342396,-4.39075 -1.342396,-1.80385 -3.691589,-1.80385 -2.349194,0 -3.677606,1.80385 -1.328413,1.80384 -1.328413,4.39075 z"
         style="font-size:28.63778305px;line-height:29.68620682px;text-align:center;text-anchor:middle;stroke-width:0.21478339px"
         id="path4572" />
      <path
         inkscape:connector-curvature="0"
         d="m 105.86659,107.82581 0.15382,2.62886 q 0.74111,-1.38434 1.97164,-2.13944 1.23053,-0.76908 2.92251,-0.76908 2.46106,0 3.74752,1.51019 1.28646,1.49622 1.28646,4.68441 v 9.21499 h -1.67799 v -9.20101 q 0,-2.60089 -0.97883,-3.67761 -0.96485,-1.07671 -2.75471,-1.07671 -1.78986,0 -2.89454,0.88095 -1.0907,0.88095 -1.58011,2.36317 v 10.71121 h -1.678 v -15.12993 z"
         style="font-size:28.63778305px;line-height:29.68620682px;text-align:center;text-anchor:middle;stroke-width:0.21478339px"
         id="path4574" />
      <path
         inkscape:connector-curvature="0"
         d="m 131.60983,118.85863 0.53137,1.80385 h 0.0839 l 4.57253,-12.83667 h 1.87377 l -6.57215,17.54904 q -0.5873,1.53816 -1.52418,2.61487 -0.93688,1.07672 -2.74073,1.07672 -0.29364,0 -0.71314,-0.0699 -0.4195,-0.0559 -0.61527,-0.12585 l 0.19577,-1.39833 q 0.1678,0.028 0.53136,0.0559 0.37755,0.0419 0.54535,0.0419 1.0907,0 1.74791,-0.78306 0.65722,-0.76908 1.11867,-1.98563 l 0.79704,-2.04156 -5.84501,-14.93416 h 1.85978 z"
         style="font-size:28.63778305px;line-height:29.68620682px;text-align:center;text-anchor:middle;stroke-width:0.21478339px"
         id="path4576" />
      <path
         inkscape:connector-curvature="0"
         d="m 140.19557,115.16704 q 0,-3.342 1.83181,-5.48145 1.83182,-2.13944 4.85221,-2.13944 3.03437,0 4.86618,2.13944 1.83181,2.13945 1.83181,5.48145 v 0.46145 q 0,3.35599 -1.83181,5.49544 -1.81783,2.12546 -4.83822,2.12546 -3.04835,0 -4.88017,-2.12546 -1.83181,-2.13945 -1.83181,-5.49544 z m 1.678,0.46145 q 0,2.62886 1.32841,4.41872 1.32841,1.78986 3.70557,1.78986 2.33521,0 3.66363,-1.78986 1.34239,-1.78986 1.34239,-4.41872 v -0.46145 q 0,-2.58691 -1.34239,-4.39075 -1.3424,-1.80385 -3.69159,-1.80385 -2.3492,0 -3.67761,1.80385 -1.32841,1.80384 -1.32841,4.39075 z"
         style="font-size:28.63778305px;line-height:29.68620682px;text-align:center;text-anchor:middle;stroke-width:0.21478339px"
         id="path4578" />
      <path
         inkscape:connector-curvature="0"
         d="m 166.97358,120.49468 q -0.72713,1.32841 -1.95766,2.04156 -1.21655,0.71315 -2.89455,0.71315 -2.39114,0 -3.74752,-1.62207 -1.35638,-1.62206 -1.35638,-5.03398 v -8.76753 h 1.678 v 8.7955 q 0,2.76869 0.93688,3.97125 0.95086,1.20256 2.68479,1.20256 1.88774,0 3.00641,-0.83899 1.13264,-0.85298 1.59409,-2.32123 v -10.80909 h 1.678 v 15.12993 h -1.48223 z"
         style="font-size:28.63778305px;line-height:29.68620682px;text-align:center;text-anchor:middle;stroke-width:0.21478339px"
         id="path4580" />
      <path
         inkscape:connector-curvature="0"
         d="m 179.92211,109.26609 -1.18858,-0.0839 q -1.58011,0 -2.60089,0.89493 -1.0068,0.88095 -1.44028,2.4331 v 10.44552 h -1.678 v -15.12993 h 1.46825 l 0.20975,2.517 v 0.1678 q 0.65721,-1.39833 1.76189,-2.1814 1.10468,-0.78306 2.62886,-0.78306 0.30763,0 0.5873,0.0559 0.27966,0.0419 0.46145,0.0979 z"
         style="font-size:28.63778305px;line-height:29.68620682px;text-align:center;text-anchor:middle;stroke-width:0.21478339px"
         id="path4582" />
      <path
         inkscape:connector-curvature="0"
         d="m 198.85549,119.08236 q 0,-1.06273 -0.88095,-1.84579 -0.86696,-0.79705 -3.14624,-1.30045 -2.68479,-0.55933 -3.99922,-1.52417 -1.30045,-0.97884 -1.30045,-2.72675 0,-1.73393 1.45426,-2.93649 1.46825,-1.20256 3.87338,-1.20256 2.53097,0 4.04117,1.28646 1.51019,1.27248 1.44028,3.14624 l -0.028,0.0839 h -1.55214 q 0,-1.24451 -1.07672,-2.16741 -1.06273,-0.9229 -2.82462,-0.9229 -1.81783,0 -2.74073,0.79705 -0.9229,0.79705 -0.9229,1.85978 0,1.03476 0.78307,1.71994 0.79705,0.6712 3.16022,1.18858 2.65683,0.5873 4.01321,1.63605 1.37036,1.04875 1.37036,2.82463 0,1.88774 -1.53816,3.07632 -1.52418,1.1746 -4.04117,1.1746 -2.75471,0 -4.33482,-1.31443 -1.56613,-1.31443 -1.48223,-3.13226 l 0.028,-0.0839 h 1.53817 q 0.0979,1.63604 1.32841,2.37716 1.24451,0.74111 2.92251,0.74111 1.81782,0 2.86657,-0.81103 1.04875,-0.81103 1.04875,-1.94368 z"
         style="font-size:28.63778305px;line-height:29.68620682px;text-align:center;text-anchor:middle;stroke-width:0.21478339px"
         id="path4584" />
      <path
         inkscape:connector-curvature="0"
         d="m 205.81917,107.82581 0.15381,2.48903 q 0.72713,-1.31443 1.9297,-2.04156 1.21654,-0.72713 2.88056,-0.72713 1.73392,0 2.89454,0.839 1.16061,0.82501 1.66401,2.53097 0.68518,-1.58011 1.94368,-2.47504 1.27248,-0.89493 3.06234,-0.89493 2.41911,0 3.73354,1.60808 1.32841,1.60808 1.32841,4.97805 v 8.82346 h -1.678 v -8.85143 q 0,-2.79666 -0.99281,-3.94329 -0.99281,-1.16061 -2.74072,-1.16061 -1.91572,0 -2.96446,1.1746 -1.04875,1.16061 -1.32842,3.00641 0,0.15381 0,0.30763 0.014,0.15381 0.014,0.39153 v 9.07516 h -1.69198 v -8.85143 q 0,-2.74072 -1.0068,-3.91532 -0.99281,-1.18858 -2.74072,-1.18858 -1.7619,0 -2.81064,0.89493 -1.03477,0.88095 -1.45427,2.39114 v 10.66926 h -1.67799 v -15.12993 z"
         style="font-size:28.63778305px;line-height:29.68620682px;text-align:center;text-anchor:middle;stroke-width:0.21478339px"
         id="path4586" />
      <path
         inkscape:connector-curvature="0"
         d="m 239.36509,122.95574 q -0.15382,-0.79705 -0.23772,-1.37037 -0.0699,-0.57331 -0.0699,-1.17459 -0.78307,1.23053 -2.19538,2.04156 -1.41231,0.79705 -3.24413,0.79705 -2.22334,0 -3.45387,-1.1746 -1.21654,-1.18858 -1.21654,-3.21616 0,-2.02758 1.77587,-3.28607 1.77588,-1.2585 4.61449,-1.2585 h 3.71956 v -1.87376 q 0,-1.62206 -1.03477,-2.54496 -1.02078,-0.9229 -2.89454,-0.9229 -1.71994,0 -2.78267,0.839 -1.04875,0.839 -1.04875,2.11148 h -1.55215 l -0.028,-0.0839 q -0.0839,-1.70596 1.45426,-2.99243 1.55214,-1.30044 4.04117,-1.30044 2.48903,0 3.99922,1.27248 1.5102,1.27248 1.5102,3.64964 v 7.43911 q 0,0.79705 0.0839,1.55214 0.0979,0.7551 0.30763,1.49622 z m -5.56535,-1.18858 q 1.92969,0 3.342,-0.90892 1.41232,-0.92289 1.91572,-2.36317 v -2.89454 h -3.73354 q -2.04156,0 -3.36998,0.97883 -1.32841,0.96484 -1.32841,2.33521 0,1.28646 0.839,2.06952 0.85298,0.78307 2.33521,0.78307 z"
         style="font-size:28.63778305px;line-height:29.68620682px;text-align:center;text-anchor:middle;stroke-width:0.21478339px"
         id="path4588" />
      <path
         inkscape:connector-curvature="0"
         d="m 252.0759,109.26609 -1.18858,-0.0839 q -1.58011,0 -2.60089,0.89493 -1.0068,0.88095 -1.44028,2.4331 v 10.44552 h -1.67799 v -15.12993 h 1.46824 l 0.20975,2.517 v 0.1678 q 0.65721,-1.39833 1.76189,-2.1814 1.10469,-0.78306 2.62886,-0.78306 0.30764,0 0.5873,0.0559 0.27967,0.0419 0.46145,0.0979 z"
         style="font-size:28.63778305px;line-height:29.68620682px;text-align:center;text-anchor:middle;stroke-width:0.21478339px"
         id="path4590" />
      <path
         inkscape:connector-curvature="0"
         d="m 257.79507,103.95244 v 3.87337 h 3.32802 v 1.37037 h -3.32802 v 9.85822 q 0,1.48223 0.53137,2.11148 0.54534,0.61526 1.44027,0.61526 0.30764,0 0.5873,-0.028 0.29365,-0.0419 0.68518,-0.12585 l 0.2517,1.24452 q -0.3356,0.1678 -0.83899,0.26568 -0.48942,0.11187 -0.97884,0.11187 -1.59409,0 -2.48902,-1.0068 -0.88095,-1.0068 -0.88095,-3.18819 v -9.85822 h -2.61487 v -1.37037 h 2.61487 v -3.87337 z"
         style="font-size:28.63778305px;line-height:29.68620682px;text-align:center;text-anchor:middle;stroke-width:0.21478339px"
         id="path4592" />
      <path
         inkscape:connector-curvature="0"
         d="m 276.58862,115.81027 q 0,3.39794 -1.53817,5.42552 -1.53816,2.0136 -4.23693,2.0136 -1.58012,0 -2.78268,-0.60129 -1.18858,-0.60128 -1.94368,-1.70596 v 7.83065 h -1.67799 v -20.94698 h 1.28646 l 0.30763,2.36318 q 0.7551,-1.2585 1.95766,-1.94368 1.20257,-0.69916 2.82463,-0.69916 2.72674,0 4.2649,2.18139 1.53817,2.16741 1.53817,5.78909 z m -1.678,-0.29364 q 0,-2.88056 -1.14663,-4.69839 -1.14663,-1.81783 -3.35599,-1.81783 -1.66401,0 -2.72674,0.79705 -1.04875,0.79705 -1.5941,2.06953 v 7.32724 q 0.5873,1.23053 1.66401,1.94368 1.07672,0.69916 2.6848,0.69916 2.19537,0 3.32802,-1.65002 1.14663,-1.65003 1.14663,-4.37678 z"
         style="font-size:28.63778305px;line-height:29.68620682px;text-align:center;text-anchor:middle;stroke-width:0.21478339px"
         id="path4594" />
      <path
         inkscape:connector-curvature="0"
         d="m 282.02811,110.39874 q 0.76908,-1.35638 2.0136,-2.09749 1.25849,-0.7551 2.93649,-0.7551 2.39114,0 3.66362,1.48223 1.28646,1.48223 1.28646,4.6005 v 9.32686 h -1.67799 v -9.35483 q 0,-2.46106 -0.97883,-3.52379 -0.96485,-1.07671 -2.67081,-1.07671 -1.7619,0 -2.90853,0.86697 -1.13264,0.85298 -1.66401,2.29326 v 10.7951 h -1.67799 V 101.1418 h 1.67799 z"
         style="font-size:28.63778305px;line-height:29.68620682px;text-align:center;text-anchor:middle;stroke-width:0.21478339px"
         id="path4596" />
      <path
         inkscape:connector-curvature="0"
         d="m 295.35418,115.16704 q 0,-3.342 1.83182,-5.48145 1.83181,-2.13944 4.8522,-2.13944 3.03437,0 4.86618,2.13944 1.83181,2.13945 1.83181,5.48145 v 0.46145 q 0,3.35599 -1.83181,5.49544 -1.81782,2.12546 -4.83822,2.12546 -3.04835,0 -4.88016,-2.12546 -1.83182,-2.13945 -1.83182,-5.49544 z m 1.678,0.46145 q 0,2.62886 1.32841,4.41872 1.32841,1.78986 3.70557,1.78986 2.33521,0 3.66363,-1.78986 1.34239,-1.78986 1.34239,-4.41872 v -0.46145 q 0,-2.58691 -1.34239,-4.39075 -1.3424,-1.80385 -3.69159,-1.80385 -2.3492,0 -3.67761,1.80385 -1.32841,1.80384 -1.32841,4.39075 z"
         style="font-size:28.63778305px;line-height:29.68620682px;text-align:center;text-anchor:middle;stroke-width:0.21478339px"
         id="path4598" />
      <path
         inkscape:connector-curvature="0"
         d="m 313.71424,107.82581 0.15382,2.62886 q 0.74111,-1.38434 1.97164,-2.13944 1.23053,-0.76908 2.92251,-0.76908 2.46106,0 3.74752,1.51019 1.28647,1.49622 1.28647,4.68441 v 9.21499 h -1.678 v -9.20101 q 0,-2.60089 -0.97883,-3.67761 -0.96485,-1.07671 -2.75471,-1.07671 -1.78986,0 -2.89454,0.88095 -1.0907,0.88095 -1.58011,2.36317 v 10.71121 h -1.678 v -15.12993 z"
         style="font-size:28.63778305px;line-height:29.68620682px;text-align:center;text-anchor:middle;stroke-width:0.21478339px"
         id="path4600" />
      <path
         inkscape:connector-curvature="0"
         d="m 333.92011,123.24939 q -2.93649,0 -4.7683,-2.06953 -1.83181,-2.08351 -1.83181,-5.34162 v -0.76908 q 0,-3.27209 1.84579,-5.39755 1.85978,-2.12546 4.6005,-2.12546 2.75471,0 4.25092,1.77588 1.5102,1.76189 1.5102,4.75432 v 1.30044 h -10.52942 v 0.46145 q 0,2.58691 1.30045,4.29287 1.31443,1.70596 3.62167,1.70596 1.38435,0 2.54496,-0.44746 1.16061,-0.46145 1.92969,-1.23053 l 0.71315,1.14663 q -0.79705,0.839 -2.09749,1.39833 -1.28647,0.54535 -3.09031,0.54535 z m -0.15382,-14.27695 q -1.92969,0 -3.1742,1.38435 -1.24452,1.38435 -1.45427,3.50981 l 0.042,0.0839 h 8.66965 v -0.34959 q 0,-2.01359 -1.06274,-3.31404 -1.04874,-1.31443 -3.02039,-1.31443 z"
         style="font-size:28.63778305px;line-height:29.68620682px;text-align:center;text-anchor:middle;stroke-width:0.21478339px"
         id="path4602" />
    </g>
  </g>
</svg>
