<?xml version="1.0" encoding="UTF-8" standalone="no"?>
<!-- Created with Inkscape (http://www.inkscape.org/) -->

<svg
   xmlns:dc="http://purl.org/dc/elements/1.1/"
   xmlns:cc="http://creativecommons.org/ns#"
   xmlns:rdf="http://www.w3.org/1999/02/22-rdf-syntax-ns#"
   xmlns:svg="http://www.w3.org/2000/svg"
   xmlns="http://www.w3.org/2000/svg"
   xmlns:sodipodi="http://sodipodi.sourceforge.net/DTD/sodipodi-0.dtd"
   xmlns:inkscape="http://www.inkscape.org/namespaces/inkscape"
   width="400mm"
   height="200mm"
   viewBox="0 0 400.00001 200"
   version="1.1"
   id="svg4601"
   inkscape:version="0.92.1 r"
   sodipodi:docname="BannerBreit_vector.svg"
   inkscape:export-filename="/home/raphael/proj/opacapp/presskit/Banner/BannerBreit_800x400.png"
   inkscape:export-xdpi="50.799999"
   inkscape:export-ydpi="50.799999">
  <defs
     id="defs4595" />
  <sodipodi:namedview
     id="base"
     pagecolor="#ffffff"
     bordercolor="#666666"
     borderopacity="1.0"
     inkscape:pageopacity="0.0"
     inkscape:pageshadow="2"
     inkscape:zoom="0.35"
     inkscape:cx="488.34485"
     inkscape:cy="891.21843"
     inkscape:document-units="mm"
     inkscape:current-layer="layer1"
     showgrid="false"
     inkscape:window-width="1916"
     inkscape:window-height="1023"
     inkscape:window-x="1920"
     inkscape:window-y="36"
     inkscape:window-maximized="0"
     fit-margin-top="0"
     fit-margin-left="0"
     fit-margin-right="0"
     fit-margin-bottom="0" />
  <metadata
     id="metadata4598">
    <rdf:RDF>
      <cc:Work
         rdf:about="">
        <dc:format>image/svg+xml</dc:format>
        <dc:type
           rdf:resource="http://purl.org/dc/dcmitype/StillImage" />
        <dc:title></dc:title>
      </cc:Work>
    </rdf:RDF>
  </metadata>
  <g
     inkscape:label="Ebene 1"
     inkscape:groupmode="layer"
     id="layer1"
     transform="translate(-13.216333,33.785373)">
    <rect
       style="color:#000000;display:inline;overflow:visible;visibility:visible;opacity:1;fill:#ffffff;fill-opacity:1;fill-rule:nonzero;stroke:none;stroke-width:1.29594588;stroke-linecap:square;stroke-linejoin:round;stroke-miterlimit:4;stroke-dasharray:none;stroke-dashoffset:0;stroke-opacity:1;marker:none;enable-background:accumulate"
       id="rect4535"
       width="400"
       height="200"
       x="13.216333"
       y="-33.785374" />
    <g
       id="g4532"
       transform="matrix(0.66232554,0,0,0.66232554,24.315373,10.956171)">
      <g
         transform="translate(1.8066437e-8,-12.569041)"
         id="g4516">
        <path
           style="fill:#f4f4f4;stroke-width:0.40941477"
           inkscape:connector-curvature="0"
           d="m 171.78268,142.87799 c 0,-0.61413 -0.041,-1.14637 -0.0819,-1.71954 -1.06449,-2.74309 -4.1351,-8.10642 -11.50456,-8.10642 -9.78501,0 -131.340261,0 -133.387334,0 0.368473,1.22825 0.696005,2.66119 0.900712,4.05321 1.187303,7.57417 0.08188,15.5987 -3.60285,22.14934 H 158.06728 c 7.57417,0 13.7154,-7.36947 13.7154,-16.37659 z"
           class="st0"
           id="XMLID_158_" />
        <path
           style="fill:#c4c4c4;stroke-width:0.40941477"
           inkscape:connector-curvature="0"
           d="M 171.70079,141.11751 C 170.9229,132.97015 165.10922,126.5014 158.06728,126.5014 H 24.270533 c 1.760483,3.68473 2.497429,6.55063 2.497429,6.55063 0,0 0,0 0.04095,0 2.088016,0 123.602308,0 133.387328,0 7.36947,0 10.44008,5.3224 11.50455,8.06548 z"
           class="st1"
           id="XMLID_157_" />
        <path
           style="fill:#d90000;fill-opacity:0.94117647;stroke-width:0.40941477"
           inkscape:connector-curvature="0"
           d="M 158.06728,119.13193 H 16.696359 c -1.92425,0 -3.480026,1.76049 -3.480026,3.68473 0,1.92425 1.555776,3.68474 3.480026,3.68474 h 7.574173 133.796748 c 7.04194,0 12.85562,6.38687 13.63351,14.53422 0.041,0.61412 0.0819,1.22824 0.0819,1.84237 0,9.00712 -6.14123,16.37659 -13.7154,16.37659 H 24.106766 16.696359 c -1.92425,0 -3.480026,1.55578 -3.480026,3.48003 0,1.92425 1.555776,3.48002 3.480026,3.48002 H 158.06728 c 11.38173,0 20.67544,-10.68573 20.67544,-23.54135 0,-12.85562 -9.29371,-23.54135 -20.67544,-23.54135 z"
           class="st2"
           id="XMLID_156_" />
        <path
           id="XMLID_154_"
           class="st0"
           d="m 32.131293,85.969338 c -9.211829,0 -11.668318,8.72054 -11.954909,9.866897 0,0.04095 0,0 0,0.04095 0,9.007115 6.141222,16.253755 13.715392,16.253755 H 167.81135 c -2.6612,-4.91297 -3.97132,-10.56289 -3.97132,-16.212808 0,-4.257913 0.65506,-8.47489 2.12895,-12.446209 l -1.14636,2.456483 c 0,0.04096 -122.824427,0.04096 -132.691326,0.04096 z"
           inkscape:connector-curvature="0"
           style="fill:#f4f4f4;stroke-width:0.40941477" />
        <path
           id="XMLID_150_"
           class="st1"
           d="m 33.891776,79.828111 c -7.533229,0 -13.633508,7.164767 -13.715392,16.130943 0.286591,-1.146357 2.74308,-9.989716 11.954909,-9.989716 9.866899,0 132.691327,0 132.691327,0 l 1.14636,-2.333664 1.88331,-3.807563 z"
           inkscape:connector-curvature="0"
           style="fill:#c4c4c4;stroke-width:0.40941477" />
        <path
           id="XMLID_149_"
           class="st3"
           d="M 175.2627,112.17188 H 167.77041 33.891776 c -7.57417,0 -13.715392,-7.24664 -13.715392,-16.253763 0,-0.04096 0,0.04095 0,0 0.04095,-8.966186 6.182163,-16.090006 13.715392,-16.090006 h 133.960514 7.45135 c 1.92425,0 3.48003,-1.555773 3.48003,-3.480023 0,-1.92424 -1.55578,-3.480023 -3.48003,-3.480023 H 33.891776 c -11.381728,0 -20.675443,10.276313 -20.675443,23.131935 0,12.85561 9.252775,23.13193 20.675443,23.13193 H 175.2627 c 1.92425,0 3.48002,-1.55578 3.48002,-3.48003 0,-1.92425 -1.55577,-3.48002 -3.48002,-3.48002 z"
           inkscape:connector-curvature="0"
           style="fill:#3496dc;stroke-width:0.40941477" />
        <path
           id="XMLID_148_"
           class="st0"
           d="m 24.22959,33.277661 c 0.08188,0.204707 0.204707,0.368474 0.28659,0.573181 -0.08188,-0.204707 -0.163765,-0.409416 -0.28659,-0.573181 z"
           inkscape:connector-curvature="0"
           style="fill:#f4f4f4;stroke-width:0.40941477" />
        <path
           id="XMLID_146_"
           class="st0"
           d="m 171.78268,49.36766 c 0,-0.409413 0,-0.777891 -0.041,-1.146358 -0.94166,-2.661196 -3.88944,-8.51583 -11.54549,-8.51583 -9.78501,0 -131.708736,0 -133.428277,0 0.245649,0.818829 0.450357,1.514837 0.614123,2.333665 1.637658,7.901702 0.491297,16.499413 -3.152494,23.459458 H 158.06728 c 7.57417,0 13.7154,-7.123811 13.7154,-16.130935 z"
           inkscape:connector-curvature="0"
           style="fill:#f4f4f4;stroke-width:0.40941477" />
        <path
           id="XMLID_145_"
           class="st1"
           d="m 171.74173,48.180354 c -0.53224,-8.43394 -6.46875,-15.025517 -13.67445,-15.025517 H 24.270533 c 0.08188,0.409415 0.163765,0.491298 0.28659,0.655062 1.555776,3.357202 2.251781,5.895573 2.251781,5.895573 0,0 0,0 0,0 1.6786,0 123.602316,0 133.428276,0 7.65605,0 10.56289,5.813687 11.50455,8.474882 z"
           inkscape:connector-curvature="0"
           style="fill:#c4c4c4;stroke-width:0.40941477" />
        <path
           id="XMLID_144_"
           class="st4"
           d="M 158.06728,25.785369 H 16.696359 c -1.92425,0 -3.480026,1.760484 -3.480026,3.684733 0,1.92425 1.555776,3.684735 3.480026,3.684735 h 7.533231 0.04095 133.79674 c 7.2057,0 13.14221,6.509693 13.67445,14.943635 0.041,0.409414 0.041,0.818827 0.041,1.228251 0,9.007124 -6.14123,16.130937 -13.7154,16.130937 H 24.270533 16.696359 c -1.92425,0 -3.480026,1.760484 -3.480026,3.684734 0,1.924241 1.555776,3.684725 3.480026,3.684725 H 158.06728 c 11.38173,0 20.67544,-10.685717 20.67544,-23.541341 0,-12.855623 -9.29371,-23.500408 -20.67544,-23.500409 z"
           inkscape:connector-curvature="0"
           style="fill:#f3854e;stroke-width:0.40941477" />
        <path
           id="XMLID_143_"
           d="m 133.25675,76.266215 -3.11156,-24.319243 -25.01524,53.182968 12.48715,-3.72567 12.52809,3.72567 z"
           style="opacity:0.32000002;fill:#1e1e1e;stroke-width:0.40941477"
           inkscape:connector-curvature="0" />
        <path
           id="XMLID_142_"
           d="m 105.04807,51.824144 h 24.89241 V 95.754352 H 117.6171 105.04807 Z"
           style="fill:#dd2f44;stroke-width:0.40941477"
           inkscape:connector-curvature="0" />
        <path
           id="XMLID_140_"
           d="M 105.04807,105.12994 V 81.588595 h 24.89241 v 23.541345 l -12.44621,-5.44521 z"
           style="fill:#c92837;stroke-width:0.40941477"
           inkscape:connector-curvature="0" />
      </g>
    </g>
    <g
       aria-label="Der Büchereikatalog
als Android-App"
       style="font-style:normal;font-variant:normal;font-weight:300;font-stretch:normal;font-size:2.6358192px;line-height:4.94216108px;font-family:Roboto;-inkscape-font-specification:'Roboto, Light';font-variant-ligatures:normal;font-variant-caps:normal;font-variant-numeric:normal;font-feature-settings:normal;text-align:start;letter-spacing:0px;word-spacing:0px;writing-mode:lr-tb;text-anchor:start;fill:#000000;fill-opacity:1;stroke:none;stroke-width:0.19768645px;stroke-linecap:butt;stroke-linejoin:miter;stroke-opacity:1"
       id="text4539">
      <path
         d="M 164.76309,80.042404 V 61.303377 h 5.71438 q 3.43634,0 5.67576,2.290897 2.25229,2.290898 2.25229,5.881687 v 2.406729 q 0,3.590789 -2.25229,5.881687 -2.23942,2.278027 -5.67576,2.278027 z m 1.54443,-17.426266 v 16.126375 h 4.16995 q 2.77996,0 4.58179,-1.943402 1.80183,-1.943402 1.80183,-4.916421 v -2.44534 q 0,-2.934408 -1.8147,-4.87781 -1.80183,-1.943402 -4.56892,-1.943402 z"
         style="font-size:26.35819244px;line-height:27.32316017px;stroke-width:0.19768645px"
         id="path4719" />
      <path
         d="m 187.45327,80.312679 q -2.70274,0 -4.38874,-1.904792 -1.686,-1.917661 -1.686,-4.91642 v -0.707862 q 0,-3.011629 1.69887,-4.967901 1.71174,-1.956273 4.2343,-1.956273 2.53543,0 3.91255,1.634517 1.38998,1.621647 1.38998,4.375872 v 1.19693 h -9.69127 v 0.424717 q 0,2.380989 1.19693,3.951155 1.2098,1.570165 3.33338,1.570165 1.27415,0 2.34238,-0.411846 1.06823,-0.424717 1.77609,-1.132579 l 0.65638,1.055357 q -0.7336,0.772213 -1.93053,1.287021 -1.18406,0.501939 -2.84432,0.501939 z M 187.3117,67.172193 q -1.77609,0 -2.92154,1.274151 -1.14545,1.274151 -1.3385,3.230423 l 0.0386,0.07722 h 7.97953 v -0.321755 q 0,-1.85331 -0.97813,-3.05024 -0.96527,-1.2098 -2.77997,-1.2098 z"
         style="font-size:26.35819244px;line-height:27.32316017px;stroke-width:0.19768645px"
         id="path4721" />
      <path
         d="m 202.11244,67.442467 -1.09396,-0.07722 q -1.45434,0 -2.39386,0.823694 -0.92666,0.810823 -1.32564,2.239416 v 9.614048 h -1.54442 V 66.116836 h 1.35137 l 0.19305,2.316638 v 0.154442 q 0.6049,-1.287021 1.62165,-2.007753 1.01675,-0.720732 2.4196,-0.720732 0.28315,0 0.54055,0.05148 0.2574,0.03861 0.42472,0.09009 z"
         style="font-size:26.35819244px;line-height:27.32316017px;stroke-width:0.19768645px"
         id="path4723" />
      <path
         d="M 211.55918,80.042404 V 61.303377 h 5.46984 q 2.92154,0 4.55606,1.23554 1.63451,1.22267 1.63451,3.693751 0,1.402853 -0.79795,2.45821 -0.78508,1.055357 -2.12359,1.492944 1.77609,0.218794 2.8958,1.544426 1.13258,1.325632 1.13258,3.101721 0,2.509691 -1.63452,3.861063 -1.62164,1.351372 -4.35013,1.351372 z m 1.54443,-9.034888 v 7.734997 h 5.23817 q 2.07211,0 3.25617,-1.016747 1.18405,-1.029617 1.18405,-2.870057 0,-1.685998 -1.17118,-2.728485 -1.15832,-1.055357 -3.1146,-1.119708 h -0.20592 z m 0,-1.299891 h 4.50457 q 1.9434,-0.03861 2.99876,-0.926656 1.06823,-0.900914 1.06823,-2.599782 0,-1.776089 -1.18406,-2.664134 -1.18406,-0.900915 -3.46209,-0.900915 h -3.92541 z"
         style="font-size:26.35819244px;line-height:27.32316017px;stroke-width:0.19768645px"
         id="path4725" />
      <path
         d="m 236.57887,77.777247 q -0.66925,1.22267 -1.80183,1.879051 -1.11971,0.656381 -2.66413,0.656381 -2.20081,0 -3.44922,-1.492945 -1.24841,-1.492944 -1.24841,-4.633276 v -8.069622 h 1.54442 v 8.095363 q 0,2.548301 0.86231,3.655139 0.87517,1.106839 2.47108,1.106839 1.73748,0 2.76709,-0.772213 1.04249,-0.785083 1.46721,-2.136455 v -9.948673 h 1.54442 v 13.925568 h -1.36424 z M 237.09368,63.324 h -2.22655 v -2.020623 h 2.22655 z m -6.03613,0 h -2.23942 v -2.020623 h 2.23942 z"
         style="font-size:26.35819244px;line-height:27.32316017px;stroke-width:0.19768645px"
         id="path4727" />
      <path
         d="m 247.23541,79.012787 q 1.48007,0 2.61265,-0.875174 1.14545,-0.875174 1.14545,-2.43247 h 1.37711 l 0.0257,0.07722 q 0.0515,1.930532 -1.51868,3.230423 -1.57017,1.299892 -3.64227,1.299892 -2.77997,0 -4.33727,-1.956272 -1.54442,-1.956273 -1.54442,-5.006513 v -0.540548 q 0,-3.03737 1.54442,-4.993642 1.54443,-1.956273 4.3244,-1.956273 2.23941,0 3.73236,1.351373 1.49294,1.351372 1.44146,3.552178 l -0.0257,0.07722 h -1.37711 q 0,-1.673127 -1.09397,-2.664134 -1.09397,-1.003876 -2.677,-1.003876 -2.18794,0 -3.25617,1.608776 -1.06823,1.608777 -1.06823,4.028377 v 0.540548 q 0,2.458211 1.06823,4.066987 1.06823,1.595906 3.26904,1.595906 z"
         style="font-size:26.35819244px;line-height:27.32316017px;stroke-width:0.19768645px"
         id="path4729" />
      <path
         d="m 257.27417,68.484955 q 0.70786,-1.248411 1.85331,-1.930532 1.15832,-0.694992 2.70274,-0.694992 2.20081,0 3.372,1.364243 1.18406,1.364242 1.18406,4.234299 v 8.584431 h -1.54443 v -8.610171 q 0,-2.265157 -0.90091,-3.243293 -0.88805,-0.991007 -2.45821,-0.991007 -1.62165,0 -2.67701,0.797954 -1.04248,0.785082 -1.53155,2.110714 v 9.935803 h -1.54443 V 59.964875 h 1.54443 z"
         style="font-size:26.35819244px;line-height:27.32316017px;stroke-width:0.19768645px"
         id="path4731" />
      <path
         d="m 275.69144,80.312679 q -2.70274,0 -4.38874,-1.904792 -1.686,-1.917661 -1.686,-4.91642 v -0.707862 q 0,-3.011629 1.69887,-4.967901 1.71174,-1.956273 4.2343,-1.956273 2.53543,0 3.91255,1.634517 1.38998,1.621647 1.38998,4.375872 v 1.19693 h -9.69127 v 0.424717 q 0,2.380989 1.19693,3.951155 1.2098,1.570165 3.33338,1.570165 1.27415,0 2.34238,-0.411846 1.06823,-0.424717 1.77609,-1.132579 l 0.65638,1.055357 q -0.7336,0.772213 -1.93053,1.287021 -1.18406,0.501939 -2.84432,0.501939 z m -0.14157,-13.140486 q -1.77609,0 -2.92154,1.274151 -1.14545,1.274151 -1.3385,3.230423 l 0.0386,0.07722 h 7.97953 v -0.321755 q 0,-1.85331 -0.97813,-3.05024 -0.96527,-1.2098 -2.77997,-1.2098 z"
         style="font-size:26.35819244px;line-height:27.32316017px;stroke-width:0.19768645px"
         id="path4733" />
      <path
         d="m 290.35061,67.442467 -1.09396,-0.07722 q -1.45434,0 -2.39386,0.823694 -0.92666,0.810823 -1.32564,2.239416 v 9.614048 h -1.54442 V 66.116836 h 1.35137 l 0.19305,2.316638 v 0.154442 q 0.6049,-1.287021 1.62165,-2.007753 1.01675,-0.720732 2.4196,-0.720732 0.28315,0 0.54055,0.05148 0.2574,0.03861 0.42472,0.09009 z"
         style="font-size:26.35819244px;line-height:27.32316017px;stroke-width:0.19768645px"
         id="path4735" />
      <path
         d="m 298.03413,80.312679 q -2.70274,0 -4.38874,-1.904792 -1.686,-1.917661 -1.686,-4.91642 v -0.707862 q 0,-3.011629 1.69887,-4.967901 1.71174,-1.956273 4.2343,-1.956273 2.53543,0 3.91255,1.634517 1.38998,1.621647 1.38998,4.375872 v 1.19693 h -9.69127 v 0.424717 q 0,2.380989 1.19693,3.951155 1.2098,1.570165 3.33338,1.570165 1.27415,0 2.34238,-0.411846 1.06823,-0.424717 1.77609,-1.132579 l 0.65638,1.055357 q -0.7336,0.772213 -1.93053,1.287021 -1.18406,0.501939 -2.84432,0.501939 z m -0.14157,-13.140486 q -1.77609,0 -2.92154,1.274151 -1.14545,1.274151 -1.3385,3.230423 l 0.0386,0.07722 h 7.97953 v -0.321755 q 0,-1.85331 -0.97813,-3.05024 -0.96527,-1.2098 -2.77997,-1.2098 z"
         style="font-size:26.35819244px;line-height:27.32316017px;stroke-width:0.19768645px"
         id="path4737" />
      <path
         d="m 308.06003,80.042404 h -1.53156 V 66.116836 h 1.53156 z m 0,-17.915334 h -1.53156 v -2.162195 h 1.53156 z"
         style="font-size:26.35819244px;line-height:27.32316017px;stroke-width:0.19768645px"
         id="path4739" />
      <path
         d="m 315.48613,73.259803 h -1.62164 v 6.782601 h -1.54443 V 59.964875 h 1.54443 v 11.969296 h 1.4672 l 5.34114,-5.817335 h 1.80183 l 0.0257,0.06435 -5.71438,6.319273 6.17771,7.477593 -0.0386,0.06435 h -1.76321 z"
         style="font-size:26.35819244px;line-height:27.32316017px;stroke-width:0.19768645px"
         id="path4741" />
      <path
         d="m 334.09646,80.042404 q -0.14157,-0.733602 -0.21879,-1.261281 -0.0644,-0.527678 -0.0644,-1.081097 -0.72074,1.132578 -2.02063,1.879051 -1.29989,0.733602 -2.98589,0.733602 -2.04636,0 -3.17894,-1.081098 -1.11971,-1.093968 -1.11971,-2.960149 0,-1.86618 1.63452,-3.024499 1.63452,-1.158319 4.24717,-1.158319 h 3.42348 v -1.724609 q 0,-1.492944 -0.9524,-2.342378 -0.93953,-0.849434 -2.66413,-0.849434 -1.58304,0 -2.56118,0.772213 -0.96526,0.772212 -0.96526,1.943402 h -1.4286 l -0.0257,-0.07722 q -0.0772,-1.570165 1.33851,-2.754225 1.42859,-1.19693 3.71949,-1.19693 2.29089,0 3.68088,1.17119 1.38998,1.171189 1.38998,3.359125 v 6.846952 q 0,0.733602 0.0772,1.428594 0.0901,0.694991 0.28315,1.377112 z m -5.12234,-1.093968 q 1.77609,0 3.07598,-0.836563 1.29989,-0.849434 1.76322,-2.175066 v -2.664134 h -3.43635 q -1.87905,0 -3.10172,0.900915 -1.22267,0.888044 -1.22267,2.149325 0,1.18406 0.77221,1.904791 0.78508,0.720732 2.14933,0.720732 z"
         style="font-size:26.35819244px;line-height:27.32316017px;stroke-width:0.19768645px"
         id="path4743" />
      <path
         d="m 341.84432,62.551787 v 3.565049 h 3.06311 v 1.26128 h -3.06311 v 9.073499 q 0,1.364243 0.48907,1.943402 0.50194,0.566289 1.32563,0.566289 0.28315,0 0.54055,-0.02574 0.27027,-0.03861 0.63064,-0.115832 l 0.23166,1.145449 q -0.30888,0.154442 -0.77221,0.244534 -0.45046,0.102962 -0.90091,0.102962 -1.46721,0 -2.2909,-0.926656 -0.81082,-0.926655 -0.81082,-2.934408 v -9.073499 h -2.40673 v -1.26128 h 2.40673 v -3.565049 z"
         style="font-size:26.35819244px;line-height:27.32316017px;stroke-width:0.19768645px"
         id="path4745" />
      <path
         d="m 356.74803,80.042404 q -0.14158,-0.733602 -0.2188,-1.261281 -0.0643,-0.527678 -0.0643,-1.081097 -0.72073,1.132578 -2.02062,1.879051 -1.29989,0.733602 -2.98589,0.733602 -2.04636,0 -3.17894,-1.081098 -1.11971,-1.093968 -1.11971,-2.960149 0,-1.86618 1.63452,-3.024499 1.63451,-1.158319 4.24716,-1.158319 h 3.42348 v -1.724609 q 0,-1.492944 -0.95239,-2.342378 -0.93953,-0.849434 -2.66414,-0.849434 -1.58303,0 -2.56117,0.772213 -0.96527,0.772212 -0.96527,1.943402 h -1.42859 l -0.0257,-0.07722 q -0.0772,-1.570165 1.3385,-2.754225 1.4286,-1.19693 3.71949,-1.19693 2.2909,0 3.68088,1.17119 1.38999,1.171189 1.38999,3.359125 v 6.846952 q 0,0.733602 0.0772,1.428594 0.0901,0.694991 0.28314,1.377112 z m -5.12235,-1.093968 q 1.77609,0 3.07598,-0.836563 1.29989,-0.849434 1.76322,-2.175066 v -2.664134 h -3.43635 q -1.87905,0 -3.10172,0.900915 -1.22267,0.888044 -1.22267,2.149325 0,1.18406 0.77222,1.904791 0.78508,0.720732 2.14932,0.720732 z"
         style="font-size:26.35819244px;line-height:27.32316017px;stroke-width:0.19768645px"
         id="path4747" />
      <path
         d="m 363.81378,80.042404 h -1.53155 V 59.964875 h 1.53155 z"
         style="font-size:26.35819244px;line-height:27.32316017px;stroke-width:0.19768645px"
         id="path4749" />
      <path
         d="m 367.19864,72.873697 q 0,-3.075981 1.686,-5.045123 1.686,-1.969143 4.46596,-1.969143 2.79284,0 4.47883,1.969143 1.686,1.969142 1.686,5.045123 v 0.424717 q 0,3.08885 -1.686,5.057993 -1.67312,1.956272 -4.45309,1.956272 -2.8057,0 -4.4917,-1.956272 -1.686,-1.969143 -1.686,-5.057993 z m 1.54443,0.424717 q 0,2.419599 1.22267,4.066986 1.22267,1.647387 3.4106,1.647387 2.14933,0 3.372,-1.647387 1.23554,-1.647387 1.23554,-4.066986 v -0.424717 q 0,-2.38099 -1.23554,-4.041247 -1.23554,-1.660257 -3.39774,-1.660257 -2.16219,0 -3.38486,1.660257 -1.22267,1.660257 -1.22267,4.041247 z"
         style="font-size:26.35819244px;line-height:27.32316017px;stroke-width:0.19768645px"
         id="path4751" />
      <path
         d="m 382.17957,73.195452 q 0,-3.333385 1.40285,-5.328268 1.41572,-2.007753 3.93829,-2.007753 1.48007,0 2.57404,0.643511 1.09397,0.63064 1.80183,1.80183 l 0.21879,-2.187936 h 1.24841 v 14.002789 q 0,2.664134 -1.4672,4.105598 -1.46721,1.441463 -4.15708,1.441463 -1.00388,0 -2.14933,-0.244534 -1.13257,-0.244534 -1.98201,-0.669251 l 0.29602,-1.299891 q 0.83656,0.411847 1.77609,0.61777 0.95239,0.218794 2.03349,0.218794 2.05923,0 3.07598,-1.055357 1.01675,-1.055358 1.01675,-3.114592 v -1.969142 q -0.70787,1.042487 -1.80183,1.608777 -1.0811,0.553419 -2.5097,0.553419 -2.49682,0 -3.91254,-1.866181 -1.40285,-1.866181 -1.40285,-4.980772 z m 1.54442,0.270274 q 0,2.522562 1.01675,4.015506 1.01675,1.492945 3.05024,1.492945 1.4672,0 2.45821,-0.656381 1.00388,-0.669251 1.5573,-1.82757 v -6.641029 q -0.52768,-1.171189 -1.50582,-1.904791 -0.96526,-0.746473 -2.48395,-0.746473 -2.03349,0 -3.06311,1.673128 -1.02962,1.673127 -1.02962,4.324391 z"
         style="font-size:26.35819244px;line-height:27.32316017px;stroke-width:0.19768645px"
         id="path4753" />
      <path
         d="m 173.21882,107.36556 q -0.14157,-0.7336 -0.21879,-1.26128 -0.0644,-0.52768 -0.0644,-1.08109 -0.72074,1.13257 -2.02063,1.87905 -1.29989,0.7336 -2.98589,0.7336 -2.04636,0 -3.17894,-1.0811 -1.11971,-1.09397 -1.11971,-2.96015 0,-1.86618 1.63452,-3.0245 1.63452,-1.158317 4.24717,-1.158317 h 3.42348 v -1.724608 q 0,-1.492944 -0.9524,-2.342378 -0.93953,-0.849434 -2.66413,-0.849434 -1.58304,0 -2.56118,0.772212 -0.96526,0.772213 -0.96526,1.943402 h -1.4286 l -0.0257,-0.07722 q -0.0772,-1.570166 1.33851,-2.754225 1.42859,-1.19693 3.71949,-1.19693 2.2909,0 3.68088,1.171189 1.38998,1.17119 1.38998,3.359126 v 6.846954 q 0,0.7336 0.0772,1.42859 0.0901,0.69499 0.28315,1.37711 z m -5.12234,-1.09396 q 1.77609,0 3.07598,-0.83657 1.29989,-0.84943 1.76322,-2.17506 v -2.66414 h -3.43635 q -1.87905,0 -3.10172,0.90092 -1.22267,0.88804 -1.22267,2.14932 0,1.18406 0.77221,1.90479 0.78508,0.72074 2.14933,0.72074 z"
         style="font-size:26.35819244px;line-height:27.32316017px;stroke-width:0.19768645px"
         id="path4755" />
      <path
         d="m 180.28457,107.36556 h -1.53156 V 87.288035 h 1.53156 z"
         style="font-size:26.35819244px;line-height:27.32316017px;stroke-width:0.19768645px"
         id="path4757" />
      <path
         d="m 192.87163,103.80052 q 0,-0.97814 -0.81082,-1.69887 -0.79795,-0.7336 -2.8958,-1.19693 -2.47108,-0.51481 -3.68088,-1.402855 -1.19693,-0.900915 -1.19693,-2.509691 0,-1.595906 1.3385,-2.702745 1.35137,-1.106838 3.56505,-1.106838 2.32951,0 3.71949,1.18406 1.38999,1.171189 1.32563,2.895797 l -0.0257,0.07722 h -1.42859 q 0,-1.145448 -0.99101,-1.994882 -0.97813,-0.849434 -2.59978,-0.849434 -1.67313,0 -2.52256,0.733602 -0.84943,0.733602 -0.84943,1.711738 0,0.952396 0.72073,1.583036 0.7336,0.61777 2.90867,1.093968 2.44534,0.540553 3.69375,1.505813 1.26128,0.96527 1.26128,2.59978 0,1.73748 -1.41573,2.83145 -1.40285,1.0811 -3.71949,1.0811 -2.53543,0 -3.98976,-1.2098 -1.44147,-1.2098 -1.36425,-2.88293 l 0.0257,-0.0772 h 1.41572 q 0.0901,1.50581 1.22267,2.18794 1.14545,0.68212 2.68987,0.68212 1.67313,0 2.6384,-0.74648 0.96526,-0.74647 0.96526,-1.78895 z"
         style="font-size:26.35819244px;line-height:27.32316017px;stroke-width:0.19768645px"
         id="path4759" />
      <path
         d="m 214.57081,102.14026 h -8.22406 l -1.89193,5.2253 h -1.5959 l 6.88556,-18.739023 h 1.45434 l 6.83408,18.739023 h -1.59591 z m -7.735,-1.37711 h 7.23306 l -3.55218,-9.935807 h -0.0772 z"
         style="font-size:26.35819244px;line-height:27.32316017px;stroke-width:0.19768645px"
         id="path4761" />
      <path
         d="m 221.93257,93.439995 0.14157,2.4196 q 0.68213,-1.274151 1.8147,-1.969142 1.13258,-0.707862 2.68988,-0.707862 2.26515,0 3.44921,1.389983 1.18406,1.377113 1.18406,4.311521 v 8.481465 h -1.54442 v -8.468595 q 0,-2.393859 -0.90092,-3.384866 -0.88804,-0.991006 -2.53543,-0.991006 -1.64738,0 -2.66413,0.810824 -1.00388,0.810823 -1.45434,2.175065 v 9.858578 h -1.54442 V 93.439995 Z"
         style="font-size:26.35819244px;line-height:27.32316017px;stroke-width:0.19768645px"
         id="path4763" />
      <path
         d="m 234.63547,100.51861 q 0,-3.333383 1.40286,-5.328266 1.41572,-2.007753 3.93828,-2.007753 1.42859,0 2.49682,0.6049 1.0811,0.6049 1.78896,1.711738 v -8.211194 h 1.54443 v 20.077525 h -1.26129 l -0.21879,-2.02062 q -0.70786,1.10684 -1.80183,1.69887 -1.09397,0.59203 -2.57404,0.59203 -2.49682,0 -3.91254,-1.85331 -1.40286,-1.86618 -1.40286,-4.99364 z m 1.54443,0.27028 q 0,2.52256 1.00387,4.0155 1.01675,1.49295 3.05024,1.49295 1.49295,0 2.48395,-0.65638 0.99101,-0.66926 1.54443,-1.84044 v -6.602423 q -0.52768,-1.184059 -1.49294,-1.930532 -0.96527,-0.746472 -2.5097,-0.746472 -2.03349,0 -3.06311,1.673128 -1.01674,1.660257 -1.01674,4.324389 z"
         style="font-size:26.35819244px;line-height:27.32316017px;stroke-width:0.19768645px"
         id="path4765" />
      <path
         d="m 256.27029,94.765627 -1.09397,-0.07722 q -1.45433,0 -2.39386,0.823693 -0.92665,0.810824 -1.32563,2.239417 v 9.614044 h -1.54442 V 93.439995 h 1.35137 l 0.19305,2.316638 v 0.154443 q 0.6049,-1.287021 1.62165,-2.007753 1.01675,-0.720732 2.4196,-0.720732 0.28314,0 0.54055,0.05148 0.2574,0.03861 0.42471,0.09009 z"
         style="font-size:26.35819244px;line-height:27.32316017px;stroke-width:0.19768645px"
         id="path4767" />
      <path
         d="m 257.80185,100.19686 q 0,-3.075984 1.686,-5.045126 1.686,-1.969143 4.46596,-1.969143 2.79284,0 4.47883,1.969143 1.686,1.969142 1.686,5.045126 v 0.42471 q 0,3.08885 -1.686,5.058 -1.67312,1.95627 -4.45309,1.95627 -2.8057,0 -4.4917,-1.95627 -1.686,-1.96915 -1.686,-5.058 z m 1.54443,0.42471 q 0,2.4196 1.22267,4.06699 1.22267,1.64739 3.4106,1.64739 2.14933,0 3.372,-1.64739 1.23554,-1.64739 1.23554,-4.06699 v -0.42471 q 0,-2.380993 -1.23554,-4.04125 -1.23554,-1.660257 -3.39774,-1.660257 -2.16219,0 -3.38486,1.660257 -1.22267,1.660257 -1.22267,4.04125 z"
         style="font-size:26.35819244px;line-height:27.32316017px;stroke-width:0.19768645px"
         id="path4769" />
      <path
         d="m 275.06081,107.36556 h -1.53156 V 93.439995 h 1.53156 z m 0,-17.91533 h -1.53156 v -2.162195 h 1.53156 z"
         style="font-size:26.35819244px;line-height:27.32316017px;stroke-width:0.19768645px"
         id="path4771" />
      <path
         d="m 278.70307,100.51861 q 0,-3.333383 1.40285,-5.328266 1.41572,-2.007753 3.93829,-2.007753 1.42859,0 2.49682,0.6049 1.08109,0.6049 1.78896,1.711738 v -8.211194 h 1.54442 v 20.077525 h -1.26128 l -0.21879,-2.02062 q -0.70786,1.10684 -1.80183,1.69887 -1.09397,0.59203 -2.57404,0.59203 -2.49683,0 -3.91255,-1.85331 -1.40285,-1.86618 -1.40285,-4.99364 z m 1.54442,0.27028 q 0,2.52256 1.00388,4.0155 1.01675,1.49295 3.05024,1.49295 1.49294,0 2.48395,-0.65638 0.99101,-0.66926 1.54443,-1.84044 v -6.602423 q -0.52768,-1.184059 -1.49295,-1.930532 -0.96526,-0.746472 -2.50969,-0.746472 -2.03349,0 -3.06311,1.673128 -1.01675,1.660257 -1.01675,4.324389 z"
         style="font-size:26.35819244px;line-height:27.32316017px;stroke-width:0.19768645px"
         id="path4773" />
      <path
         d="m 301.21307,100.02954 h -7.59342 v -1.299888 h 7.59342 z"
         style="font-size:26.35819244px;line-height:27.32316017px;stroke-width:0.19768645px"
         id="path4775" />
      <path
         d="m 315.21587,102.14026 h -8.22407 l -1.89192,5.2253 h -1.5959 l 6.88556,-18.739023 h 1.45433 l 6.83408,18.739023 h -1.5959 z m -7.735,-1.37711 h 7.23306 l -3.55218,-9.935807 h -0.0772 z"
         style="font-size:26.35819244px;line-height:27.32316017px;stroke-width:0.19768645px"
         id="path4777" />
      <path
         d="m 332.42333,100.78889 q 0,3.12746 -1.41572,4.99364 -1.41572,1.85331 -3.89967,1.85331 -1.45434,0 -2.56118,-0.55342 -1.09396,-0.55342 -1.78896,-1.57017 v 7.20732 h -1.54442 V 93.439995 h 1.18406 l 0.28314,2.175066 q 0.69499,-1.158319 1.80183,-1.788959 1.10684,-0.643511 2.59979,-0.643511 2.50969,0 3.92541,2.007753 1.41572,1.994883 1.41572,5.328266 z m -1.54442,-0.27028 q 0,-2.651262 -1.05536,-4.324389 -1.05536,-1.673128 -3.08885,-1.673128 -1.53156,0 -2.50969,0.733602 -0.96527,0.733602 -1.46721,1.904792 v 6.743993 q 0.54055,1.13258 1.53156,1.78896 0.99101,0.64351 2.47108,0.64351 2.02062,0 3.06311,-1.51869 1.05536,-1.51868 1.05536,-4.02837 z"
         style="font-size:26.35819244px;line-height:27.32316017px;stroke-width:0.19768645px"
         id="path4779" />
      <path
         d="m 347.09538,100.78889 q 0,3.12746 -1.41573,4.99364 -1.41572,1.85331 -3.89967,1.85331 -1.45434,0 -2.56117,-0.55342 -1.09397,-0.55342 -1.78896,-1.57017 v 7.20732 h -1.54443 V 93.439995 h 1.18406 l 0.28315,2.175066 q 0.69499,-1.158319 1.80183,-1.788959 1.10683,-0.643511 2.59978,-0.643511 2.50969,0 3.92541,2.007753 1.41573,1.994883 1.41573,5.328266 z m -1.54443,-0.27028 q 0,-2.651262 -1.05536,-4.324389 -1.05535,-1.673128 -3.08885,-1.673128 -1.53155,0 -2.50969,0.733602 -0.96526,0.733602 -1.4672,1.904792 v 6.743993 q 0.54055,1.13258 1.53155,1.78896 0.99101,0.64351 2.47108,0.64351 2.02063,0 3.06311,-1.51869 1.05536,-1.51868 1.05536,-4.02837 z"
         style="font-size:26.35819244px;line-height:27.32316017px;stroke-width:0.19768645px"
         id="path4781" />
    </g>
    <g
       aria-label="Web Opac App"
       style="font-style:normal;font-variant:normal;font-weight:300;font-stretch:normal;font-size:3.61167645px;line-height:6.7718935px;font-family:Roboto;-inkscape-font-specification:'Roboto, Light';font-variant-ligatures:normal;font-variant-caps:normal;font-variant-numeric:normal;font-feature-settings:normal;text-align:start;letter-spacing:0px;word-spacing:0px;writing-mode:lr-tb;text-anchor:start;fill:#000000;fill-opacity:1;stroke:none;stroke-width:0.27087572px;stroke-linecap:butt;stroke-linejoin:miter;stroke-opacity:1"
       id="text4547">
      <path
         d="m 170.50836,39.849016 0.79358,4.144258 h 0.10582 l 0.89939,-4.144258 5.36108,-18.305276 h 2.13385 l 5.37872,18.305276 0.86412,4.161893 h 0.10581 l 0.84649,-4.161893 4.53223,-18.305276 h 2.29257 l -6.57791,25.676765 h -2.0104 l -5.80197,-19.698452 -0.63486,-2.768717 h -0.10581 l -0.5996,2.768717 -5.8725,19.698452 h -2.0104 L 163.63066,21.54374 h 2.29257 z"
         style="font-size:36.11676788px;line-height:35.2138443px;fill:#d50000;fill-opacity:1;stroke-width:0.27087572px"
         id="path4698" />
      <path
         d="m 204.17385,47.590843 q -3.70338,0 -6.01359,-2.610001 -2.3102,-2.627636 -2.3102,-6.736624 v -0.969933 q 0,-4.126622 2.32784,-6.807164 2.34547,-2.680541 5.80196,-2.680541 3.47412,0 5.36108,2.239663 1.9046,2.222027 1.9046,5.995948 v 1.640068 h -13.27926 v 0.581959 q 0,3.262501 1.64007,5.413988 1.6577,2.151488 4.5675,2.151488 1.74588,0 3.20959,-0.564325 1.46372,-0.58196 2.43365,-1.551892 l 0.89939,1.446081 q -1.0052,1.058109 -2.64527,1.763514 -1.62243,0.687771 -3.89736,0.687771 z m -0.19399,-18.005479 q -2.43365,0 -4.00318,1.745879 -1.56952,1.745879 -1.83405,4.42642 l 0.0529,0.105811 h 10.93379 v -0.440878 q 0,-2.539461 -1.34027,-4.179529 -1.32263,-1.657703 -3.80919,-1.657703 z"
         style="font-size:36.11676788px;line-height:35.2138443px;fill:#d50000;fill-opacity:1;stroke-width:0.27087572px"
         id="path4700" />
      <path
         d="m 230.92636,38.208948 q 0,4.285339 -1.93987,6.842434 -1.93986,2.539461 -5.34345,2.539461 -2.08094,0 -3.6152,-0.828852 -1.51662,-0.846487 -2.46892,-2.398379 l -0.3527,2.856893 h -1.65771 v -27.51082 h 2.11622 v 11.357031 q 0.9523,-1.569528 2.43365,-2.416014 1.48135,-0.864122 3.50939,-0.864122 3.43886,0 5.37872,2.751082 1.93987,2.733447 1.93987,7.300948 z M 228.7925,37.83861 q 0,-3.650474 -1.41081,-5.925407 -1.41081,-2.292569 -4.17953,-2.292569 -2.18675,0 -3.52702,1.075744 -1.34027,1.058108 -2.01041,2.751082 v 8.729395 q 0.70541,1.657703 2.08095,2.627636 1.39317,0.952297 3.49175,0.952297 2.76872,0 4.1619,-2.045676 1.39317,-2.045677 1.39317,-5.502164 z"
         style="font-size:36.11676788px;line-height:35.2138443px;fill:#d50000;fill-opacity:1;stroke-width:0.27087572px"
         id="path4702" />
      <path
         d="m 263.79826,36.480704 q 0,4.97311 -2.73345,8.041624 -2.71581,3.068515 -7.30095,3.068515 -4.51459,0 -7.21277,-3.068515 -2.68054,-3.068514 -2.68054,-8.041624 v -4.179528 q 0,-4.955475 2.68054,-8.041624 2.68054,-3.08615 7.19514,-3.08615 4.58513,0 7.31858,3.08615 2.73345,3.086149 2.73345,8.041624 z m -2.09858,-4.214798 q 0,-4.161894 -2.11622,-6.701354 -2.09858,-2.53946 -5.83723,-2.53946 -3.66811,0 -5.71379,2.53946 -2.04567,2.53946 -2.04567,6.701354 v 4.214798 q 0,4.197164 2.04567,6.736624 2.06331,2.53946 5.73142,2.53946 3.75629,0 5.83723,-2.521825 2.09859,-2.53946 2.09859,-6.754259 z"
         style="font-size:36.11676788px;line-height:35.2138443px;fill:#d50000;fill-opacity:1;stroke-width:0.27087572px"
         id="path4704" />
      <path
         d="m 284.16685,38.208948 q 0,4.285339 -1.93987,6.842434 -1.93986,2.539461 -5.34345,2.539461 -1.99277,0 -3.50939,-0.758311 -1.49899,-0.758311 -2.45128,-2.151487 v 9.875678 h -2.11622 v -26.41744 h 1.62243 l 0.38797,2.980338 q 0.9523,-1.587162 2.46892,-2.451284 1.51663,-0.881757 3.5623,-0.881757 3.43886,0 5.37872,2.751082 1.93987,2.733447 1.93987,7.300948 z m -2.11622,-0.370338 q 0,-3.632839 -1.44608,-5.925407 -1.44608,-2.292569 -4.23244,-2.292569 -2.09858,0 -3.43885,1.005203 -1.32263,1.005203 -2.0104,2.610001 v 9.240814 q 0.74067,1.551892 2.09858,2.451284 1.3579,0.881758 3.38594,0.881758 2.76872,0 4.19717,-2.080947 1.44608,-2.080947 1.44608,-5.519799 z"
         style="font-size:36.11676788px;line-height:35.2138443px;fill:#d50000;fill-opacity:1;stroke-width:0.27087572px"
         id="path4706" />
      <path
         d="m 300.99078,47.220505 q -0.19399,-1.005203 -0.2998,-1.728244 -0.0882,-0.723041 -0.0882,-1.481352 -0.98757,1.551893 -2.76872,2.574731 -1.78114,1.005203 -4.09135,1.005203 -2.80399,0 -4.35588,-1.481352 -1.53425,-1.498987 -1.53425,-4.056082 0,-2.557096 2.23966,-4.144258 2.23966,-1.587163 5.81959,-1.587163 h 4.69095 v -2.363109 q 0,-2.045676 -1.305,-3.209596 -1.28736,-1.163919 -3.65047,-1.163919 -2.16912,0 -3.5094,1.058109 -1.32263,1.058108 -1.32263,2.662906 h -1.9575 l -0.0353,-0.105811 q -0.10581,-2.151487 1.83405,-3.77392 1.9575,-1.640068 5.09656,-1.640068 3.13905,0 5.04365,1.604798 1.90459,1.604797 1.90459,4.602771 v 9.381895 q 0,1.005203 0.10581,1.957501 0.12345,0.952297 0.38798,1.88696 z m -7.01879,-1.498987 q 2.43365,0 4.2148,-1.146284 1.78115,-1.16392 2.41601,-2.980339 v -3.650474 h -4.70858 q -2.57473,0 -4.25007,1.23446 -1.67534,1.216824 -1.67534,2.945068 0,1.622433 1.05811,2.610001 1.07574,0.987568 2.94507,0.987568 z"
         style="font-size:36.11676788px;line-height:35.2138443px;fill:#d50000;fill-opacity:1;stroke-width:0.27087572px"
         id="path4708" />
      <path
         d="m 315.29288,45.809694 q 2.02804,0 3.57993,-1.19919 1.56953,-1.19919 1.56953,-3.333042 h 1.88696 l 0.0353,0.105811 q 0.0705,2.645271 -2.08095,4.426421 -2.15148,1.781149 -4.99074,1.781149 -3.80919,0 -5.94304,-2.680542 -2.11622,-2.680541 -2.11622,-6.860069 v -0.740676 q 0,-4.161893 2.11622,-6.842435 2.11621,-2.680541 5.9254,-2.680541 3.06852,0 5.11419,1.85169 2.04568,1.851689 1.97514,4.867298 l -0.0353,0.105811 h -1.88696 q 0,-2.292568 -1.49899,-3.650474 -1.49898,-1.375541 -3.66811,-1.375541 -2.99797,0 -4.46169,2.204393 -1.46371,2.204392 -1.46371,5.519799 v 0.740676 q 0,3.368312 1.46371,5.572704 1.46372,2.186758 4.47933,2.186758 z"
         style="font-size:36.11676788px;line-height:35.2138443px;fill:#d50000;fill-opacity:1;stroke-width:0.27087572px"
         id="path4710" />
      <path
         d="m 349.6814,40.060638 h -11.26885 l -2.59237,7.159867 h -2.18676 l 9.4348,-25.676765 h 1.99277 l 9.36426,25.676765 h -2.18675 z m -10.59872,-1.88696 h 9.91095 l -4.8673,-13.614329 h -0.10581 z"
         style="font-size:36.11676788px;line-height:35.2138443px;fill:#d50000;fill-opacity:1;stroke-width:0.27087572px"
         id="path4712" />
      <path
         d="m 373.25958,38.208948 q 0,4.285339 -1.93986,6.842434 -1.93987,2.539461 -5.34345,2.539461 -1.99277,0 -3.50939,-0.758311 -1.49899,-0.758311 -2.45129,-2.151487 v 9.875678 h -2.11622 v -26.41744 h 1.62244 l 0.38797,2.980338 q 0.9523,-1.587162 2.46892,-2.451284 1.51662,-0.881757 3.5623,-0.881757 3.43885,0 5.37872,2.751082 1.93986,2.733447 1.93986,7.300948 z m -2.11622,-0.370338 q 0,-3.632839 -1.44608,-5.925407 -1.44608,-2.292569 -4.23243,-2.292569 -2.09858,0 -3.43885,1.005203 -1.32264,1.005203 -2.01041,2.610001 v 9.240814 q 0.74068,1.551892 2.09858,2.451284 1.35791,0.881758 3.38595,0.881758 2.76872,0 4.19716,-2.080947 1.44608,-2.080947 1.44608,-5.519799 z"
         style="font-size:36.11676788px;line-height:35.2138443px;fill:#d50000;fill-opacity:1;stroke-width:0.27087572px"
         id="path4714" />
      <path
         d="m 393.36365,38.208948 q 0,4.285339 -1.93987,6.842434 -1.93986,2.539461 -5.34345,2.539461 -1.99277,0 -3.50939,-0.758311 -1.49899,-0.758311 -2.45128,-2.151487 v 9.875678 h -2.11622 v -26.41744 h 1.62243 l 0.38798,2.980338 q 0.95229,-1.587162 2.46891,-2.451284 1.51663,-0.881757 3.5623,-0.881757 3.43886,0 5.37872,2.751082 1.93987,2.733447 1.93987,7.300948 z m -2.11622,-0.370338 q 0,-3.632839 -1.44608,-5.925407 -1.44608,-2.292569 -4.23244,-2.292569 -2.09858,0 -3.43885,1.005203 -1.32263,1.005203 -2.0104,2.610001 v 9.240814 q 0.74067,1.551892 2.09858,2.451284 1.3579,0.881758 3.38594,0.881758 2.76872,0 4.19717,-2.080947 1.44608,-2.080947 1.44608,-5.519799 z"
         style="font-size:36.11676788px;line-height:35.2138443px;fill:#d50000;fill-opacity:1;stroke-width:0.27087572px"
         id="path4716" />
    </g>
  </g>
</svg>
