<?xml version="1.0" encoding="UTF-8" standalone="no"?>
<!-- Created with Inkscape (http://www.inkscape.org/) -->

<svg
   xmlns:dc="http://purl.org/dc/elements/1.1/"
   xmlns:cc="http://creativecommons.org/ns#"
   xmlns:rdf="http://www.w3.org/1999/02/22-rdf-syntax-ns#"
   xmlns:svg="http://www.w3.org/2000/svg"
   xmlns="http://www.w3.org/2000/svg"
   xmlns:sodipodi="http://sodipodi.sourceforge.net/DTD/sodipodi-0.dtd"
   xmlns:inkscape="http://www.inkscape.org/namespaces/inkscape"
   width="400mm"
   height="400mm"
   viewBox="0 0 400.00001 400"
   version="1.1"
   id="svg4601"
   inkscape:version="0.92.1 r"
   sodipodi:docname="BannerQuadrat2_vector.svg"
   inkscape:export-filename="/home/raphael/proj/opacapp/presskit/Banner/BannerQuadrat_250.png"
   inkscape:export-xdpi="15.875"
   inkscape:export-ydpi="15.875">
  <defs
     id="defs4595" />
  <sodipodi:namedview
     id="base"
     pagecolor="#ffffff"
     bordercolor="#666666"
     borderopacity="1.0"
     inkscape:pageopacity="0.0"
     inkscape:pageshadow="2"
     inkscape:zoom="0.35"
     inkscape:cx="495.1824"
     inkscape:cy="894.24976"
     inkscape:document-units="mm"
     inkscape:current-layer="layer1"
     showgrid="false"
     inkscape:window-width="1916"
     inkscape:window-height="1023"
     inkscape:window-x="1920"
     inkscape:window-y="36"
     inkscape:window-maximized="0"
     fit-margin-top="0"
     fit-margin-left="0"
     fit-margin-right="0"
     fit-margin-bottom="0" />
  <metadata
     id="metadata4598">
    <rdf:RDF>
      <cc:Work
         rdf:about="">
        <dc:format>image/svg+xml</dc:format>
        <dc:type
           rdf:resource="http://purl.org/dc/dcmitype/StillImage" />
        <dc:title></dc:title>
      </cc:Work>
    </rdf:RDF>
  </metadata>
  <g
     inkscape:label="Ebene 1"
     inkscape:groupmode="layer"
     id="layer1"
     transform="translate(-13.216333,233.78537)">
    <rect
       style="color:#000000;display:inline;overflow:visible;visibility:visible;opacity:1;fill:#ffffff;fill-opacity:1;fill-rule:nonzero;stroke:none;stroke-width:1.83274424;stroke-linecap:square;stroke-linejoin:round;stroke-miterlimit:4;stroke-dasharray:none;stroke-dashoffset:0;stroke-opacity:1;marker:none;enable-background:accumulate"
       id="rect4535"
       width="400"
       height="400"
       x="13.216333"
       y="-233.78537" />
    <g
       aria-label="Der Büchereikatalog
als Android-App"
       style="font-style:normal;font-variant:normal;font-weight:300;font-stretch:normal;font-size:3.00560665px;line-height:5.63551235px;font-family:Roboto;-inkscape-font-specification:'Roboto, Light';font-variant-ligatures:normal;font-variant-caps:normal;font-variant-numeric:normal;font-feature-settings:normal;text-align:start;letter-spacing:0px;word-spacing:0px;writing-mode:lr-tb;text-anchor:start;fill:#000000;fill-opacity:1;stroke:none;stroke-width:0.2254205px;stroke-linecap:butt;stroke-linejoin:miter;stroke-opacity:1"
       id="text4539">
      <path
         d="M 82.88046,91.496696 V 70.128713 h 6.51606 q 3.918442,0 6.472034,2.612295 2.568267,2.612294 2.568267,6.706846 v 2.744377 q 0,4.094552 -2.568267,6.706847 -2.553592,2.597618 -6.472034,2.597618 z m 1.761097,-19.87105 v 18.388793 h 4.754963 q 3.169976,0 5.22459,-2.216047 2.054614,-2.216048 2.054614,-5.606161 v -2.788404 q 0,-3.346086 -2.06929,-5.562133 -2.054614,-2.216048 -5.209914,-2.216048 z"
         style="font-size:30.05606461px;line-height:31.15641212px;text-align:center;text-anchor:middle;stroke-width:0.2254205px"
         id="path5042" />
      <path
         d="m 108.75392,91.804889 q -3.08192,0 -5.00445,-2.172021 -1.92254,-2.186696 -1.92254,-5.60616 v -0.80717 q 0,-3.43414 1.93721,-5.664864 1.95189,-2.230723 4.82834,-2.230723 2.89114,0 4.46145,1.863828 1.58499,1.849152 1.58499,4.989776 v 1.364851 h -11.05089 v 0.484302 q 0,2.715025 1.36485,4.505474 1.37953,1.790449 3.80104,1.790449 1.4529,0 2.671,-0.469626 1.21809,-0.484301 2.02526,-1.291471 l 0.74847,1.203417 q -0.83653,0.880548 -2.20138,1.467581 -1.35017,0.572357 -3.24335,0.572357 z m -0.16144,-14.984005 q -2.02526,0 -3.3314,1.452905 -1.30615,1.452906 -1.52629,3.683629 l 0.044,0.08805 h 9.099 v -0.366895 q 0,-2.113317 -1.11536,-3.478168 -1.10069,-1.379526 -3.16998,-1.379526 z"
         style="font-size:30.05606461px;line-height:31.15641212px;text-align:center;text-anchor:middle;stroke-width:0.2254205px"
         id="path5044" />
      <path
         d="m 125.46967,77.129076 -1.24744,-0.08805 q -1.65837,0 -2.7297,0.939252 -1.05666,0.924576 -1.51161,2.553591 v 10.962832 h -1.7611 V 75.617467 h 1.54096 l 0.22014,2.641646 v 0.17611 q 0.68976,-1.467581 1.84915,-2.289427 1.15939,-0.821845 2.75905,-0.821845 0.32287,0 0.61639,0.0587 0.29351,0.04403 0.4843,0.102731 z"
         style="font-size:30.05606461px;line-height:31.15641212px;text-align:center;text-anchor:middle;stroke-width:0.2254205px"
         id="path5046" />
      <path
         d="M 136.24172,91.496696 V 70.128713 h 6.23722 q 3.33141,0 5.19523,1.408878 1.86383,1.394202 1.86383,4.211958 0,1.599664 -0.9099,2.803081 -0.89522,1.203416 -2.42151,1.702394 2.02526,0.249489 3.30206,1.761097 1.29147,1.511609 1.29147,3.536871 0,2.861784 -1.86383,4.402744 -1.84915,1.54096 -4.96042,1.54096 z m 1.76109,-10.30242 v 8.820163 h 5.97306 q 2.3628,0 3.71298,-1.159389 1.35017,-1.174065 1.35017,-3.272706 0,-1.922532 -1.33549,-3.111272 -1.32083,-1.203417 -3.55155,-1.276796 h -0.23481 z m 0,-1.482257 h 5.13654 q 2.21604,-0.04403 3.41946,-1.056659 1.21809,-1.027307 1.21809,-2.964514 0,-2.025262 -1.35017,-3.037893 -1.35018,-1.027307 -3.94779,-1.027307 h -4.47613 z"
         style="font-size:30.05606461px;line-height:31.15641212px;text-align:center;text-anchor:middle;stroke-width:0.2254205px"
         id="path5048" />
      <path
         d="m 164.7715,88.913753 q -0.76315,1.394203 -2.05462,2.142669 -1.27679,0.748467 -3.03789,0.748467 -2.50956,0 -3.93312,-1.702395 -1.42355,-1.702394 -1.42355,-5.283292 v -9.201735 h 1.76109 v 9.231086 q 0,2.905811 0.98328,4.167931 0.99796,1.26212 2.81776,1.26212 1.98124,0 3.1553,-0.880549 1.18874,-0.895224 1.67304,-2.436185 V 75.617467 h 1.7611 v 15.879229 h -1.55564 z m 0.58703,-16.480937 h -2.53892 v -2.304103 h 2.53892 z m -6.88296,0 h -2.55359 v -2.304103 h 2.55359 z"
         style="font-size:30.05606461px;line-height:31.15641212px;text-align:center;text-anchor:middle;stroke-width:0.2254205px"
         id="path5050" />
      <path
         d="m 176.92307,90.322631 q 1.68772,0 2.97919,-0.997955 1.30615,-0.997955 1.30615,-2.773728 h 1.57031 l 0.0293,0.08805 q 0.0587,2.201372 -1.73174,3.683629 -1.79045,1.482258 -4.15326,1.482258 -3.16997,0 -4.94575,-2.230724 -1.76109,-2.230724 -1.76109,-5.708891 V 83.24889 q 0,-3.463492 1.76109,-5.694216 1.7611,-2.230723 4.93108,-2.230723 2.55359,0 4.25598,1.54096 1.7024,1.54096 1.64369,4.050524 l -0.0293,0.08805 h -1.57031 q 0,-1.907855 -1.24744,-3.037893 -1.24745,-1.144713 -3.05257,-1.144713 -2.49489,0 -3.71298,1.834476 -1.2181,1.834477 -1.2181,4.59353 v 0.616384 q 0,2.80308 1.2181,4.637557 1.21809,1.8198 3.72765,1.8198 z"
         style="font-size:30.05606461px;line-height:31.15641212px;text-align:center;text-anchor:middle;stroke-width:0.2254205px"
         id="path5052" />
      <path
         d="m 188.37021,78.317817 q 0.80717,-1.423554 2.11331,-2.201372 1.32083,-0.792494 3.08192,-0.792494 2.50957,0 3.84507,1.555636 1.35017,1.555636 1.35017,4.828342 v 9.788767 h -1.7611 v -9.818118 q 0,-2.582943 -1.0273,-3.698305 -1.01263,-1.130038 -2.80308,-1.130038 -1.84916,0 -3.05257,0.909901 -1.18874,0.895224 -1.74642,2.406833 v 11.329727 h -1.7611 V 68.602429 h 1.7611 z"
         style="font-size:30.05606461px;line-height:31.15641212px;text-align:center;text-anchor:middle;stroke-width:0.2254205px"
         id="path5054" />
      <path
         d="m 209.37129,91.804889 q -3.08192,0 -5.00445,-2.172021 -1.92253,-2.186696 -1.92253,-5.60616 v -0.80717 q 0,-3.43414 1.9372,-5.664864 1.95189,-2.230723 4.82835,-2.230723 2.89113,0 4.46144,1.863828 1.58499,1.849152 1.58499,4.989776 v 1.364851 H 204.2054 v 0.484302 q 0,2.715025 1.36486,4.505474 1.37952,1.790449 3.80103,1.790449 1.45291,0 2.671,-0.469626 1.21809,-0.484301 2.02526,-1.291471 l 0.74847,1.203417 q -0.83652,0.880548 -2.20137,1.467581 -1.35018,0.572357 -3.24336,0.572357 z m -0.16143,-14.984005 q -2.02527,0 -3.33141,1.452905 -1.30615,1.452906 -1.52629,3.683629 l 0.044,0.08805 h 9.099 v -0.366895 q 0,-2.113317 -1.11536,-3.478168 -1.10068,-1.379526 -3.16997,-1.379526 z"
         style="font-size:30.05606461px;line-height:31.15641212px;text-align:center;text-anchor:middle;stroke-width:0.2254205px"
         id="path5056" />
      <path
         d="m 226.08705,77.129076 -1.24745,-0.08805 q -1.65836,0 -2.7297,0.939252 -1.05665,0.924576 -1.51161,2.553591 V 91.496696 H 218.8372 V 75.617467 h 1.54096 l 0.22013,2.641646 v 0.17611 q 0.68977,-1.467581 1.84916,-2.289427 1.15939,-0.821845 2.75905,-0.821845 0.32287,0 0.61638,0.0587 0.29352,0.04403 0.48431,0.102731 z"
         style="font-size:30.05606461px;line-height:31.15641212px;text-align:center;text-anchor:middle;stroke-width:0.2254205px"
         id="path5058" />
      <path
         d="m 234.84851,91.804889 q -3.08192,0 -5.00445,-2.172021 -1.92253,-2.186696 -1.92253,-5.60616 v -0.80717 q 0,-3.43414 1.9372,-5.664864 1.95189,-2.230723 4.82835,-2.230723 2.89113,0 4.46144,1.863828 1.58499,1.849152 1.58499,4.989776 v 1.364851 h -11.05089 v 0.484302 q 0,2.715025 1.36485,4.505474 1.37953,1.790449 3.80104,1.790449 1.45291,0 2.671,-0.469626 1.21809,-0.484301 2.02526,-1.291471 l 0.74847,1.203417 q -0.83653,0.880548 -2.20138,1.467581 -1.35017,0.572357 -3.24335,0.572357 z m -0.16143,-14.984005 q -2.02527,0 -3.33141,1.452905 -1.30615,1.452906 -1.52629,3.683629 l 0.044,0.08805 h 9.099 v -0.366895 q 0,-2.113317 -1.11536,-3.478168 -1.10068,-1.379526 -3.16997,-1.379526 z"
         style="font-size:30.05606461px;line-height:31.15641212px;text-align:center;text-anchor:middle;stroke-width:0.2254205px"
         id="path5060" />
      <path
         d="m 246.28096,91.496696 h -1.74642 V 75.617467 h 1.74642 z m 0,-20.428731 h -1.74642 v -2.465536 h 1.74642 z"
         style="font-size:30.05606461px;line-height:31.15641212px;text-align:center;text-anchor:middle;stroke-width:0.2254205px"
         id="path5062" />
      <path
         d="m 254.74891,83.762543 h -1.84915 v 7.734153 h -1.7611 V 68.602429 h 1.7611 v 13.648505 h 1.67304 l 6.09046,-6.633467 h 2.05462 l 0.0294,0.07338 -6.51606,7.205824 7.04439,8.526647 -0.044,0.07338 h -2.01058 z"
         style="font-size:30.05606461px;line-height:31.15641212px;text-align:center;text-anchor:middle;stroke-width:0.2254205px"
         id="path5064" />
      <path
         d="m 275.97013,91.496696 q -0.16143,-0.836521 -0.24949,-1.438229 -0.0734,-0.601709 -0.0734,-1.232768 -0.82184,1.291471 -2.3041,2.142668 -1.48226,0.836522 -3.40479,0.836522 -2.33345,0 -3.62492,-1.232769 -1.2768,-1.247444 -1.2768,-3.375437 0,-2.127993 1.86383,-3.448816 1.86383,-1.320823 4.84302,-1.320823 h 3.90376 v -1.966559 q 0,-1.702394 -1.08601,-2.670998 -1.07133,-0.968603 -3.03789,-0.968603 -1.80513,0 -2.92049,0.880548 -1.10068,0.880549 -1.10068,2.216048 h -1.62902 l -0.0294,-0.08805 q -0.0881,-1.790449 1.52628,-3.140624 1.62902,-1.36485 4.24131,-1.36485 2.6123,0 4.19729,1.335499 1.58498,1.335499 1.58498,3.830387 v 7.807532 q 0,0.836522 0.0881,1.629016 0.10273,0.792493 0.32287,1.570311 z m -5.84097,-1.247444 q 2.02526,0 3.50752,-0.953927 1.48225,-0.968604 2.01058,-2.480213 v -3.037893 h -3.91844 q -2.14267,0 -3.53687,1.027307 -1.3942,1.012631 -1.3942,2.450861 0,1.350174 0.88055,2.17202 0.89522,0.821845 2.45086,0.821845 z"
         style="font-size:30.05606461px;line-height:31.15641212px;text-align:center;text-anchor:middle;stroke-width:0.2254205px"
         id="path5066" />
      <path
         d="m 284.80498,71.552267 v 4.0652 h 3.49284 v 1.43823 h -3.49284 v 10.346448 q 0,1.555636 0.55768,2.216047 0.57236,0.645736 1.51161,0.645736 0.32287,0 0.61638,-0.02935 0.30819,-0.04403 0.71912,-0.132083 l 0.26416,1.306148 q -0.35222,0.176109 -0.88055,0.27884 -0.51365,0.117407 -1.0273,0.117407 -1.67305,0 -2.6123,-1.056659 -0.92458,-1.056659 -0.92458,-3.346085 V 77.055697 h -2.74437 v -1.43823 h 2.74437 v -4.0652 z"
         style="font-size:30.05606461px;line-height:31.15641212px;text-align:center;text-anchor:middle;stroke-width:0.2254205px"
         id="path5068" />
      <path
         d="m 301.79957,91.496696 q -0.16144,-0.836521 -0.24949,-1.438229 -0.0734,-0.601709 -0.0734,-1.232768 -0.82185,1.291471 -2.3041,2.142668 -1.48226,0.836522 -3.40479,0.836522 -2.33346,0 -3.62493,-1.232769 -1.27679,-1.247444 -1.27679,-3.375437 0,-2.127993 1.86383,-3.448816 1.86382,-1.320823 4.84301,-1.320823 h 3.90377 v -1.966559 q 0,-1.702394 -1.08601,-2.670998 -1.07133,-0.968603 -3.03789,-0.968603 -1.80513,0 -2.92049,0.880548 -1.10069,0.880549 -1.10069,2.216048 h -1.62901 l -0.0293,-0.08805 q -0.0881,-1.790449 1.52628,-3.140624 1.62902,-1.36485 4.24131,-1.36485 2.6123,0 4.19728,1.335499 1.58499,1.335499 1.58499,3.830387 v 7.807532 q 0,0.836522 0.0881,1.629016 0.10273,0.792493 0.32286,1.570311 z m -5.84098,-1.247444 q 2.02527,0 3.50752,-0.953927 1.48226,-0.968604 2.01059,-2.480213 v -3.037893 h -3.91844 q -2.14267,0 -3.53687,1.027307 -1.3942,1.012631 -1.3942,2.450861 0,1.350174 0.88054,2.17202 0.89523,0.821845 2.45086,0.821845 z"
         style="font-size:30.05606461px;line-height:31.15641212px;text-align:center;text-anchor:middle;stroke-width:0.2254205px"
         id="path5070" />
      <path
         d="m 309.85658,91.496696 h -1.74642 V 68.602429 h 1.74642 z"
         style="font-size:30.05606461px;line-height:31.15641212px;text-align:center;text-anchor:middle;stroke-width:0.2254205px"
         id="path5072" />
      <path
         d="m 313.71633,83.322269 q 0,-3.50752 1.92253,-5.752919 1.92253,-2.245399 5.09251,-2.245399 3.18465,0 5.10718,2.245399 1.92253,2.245399 1.92253,5.752919 v 0.484302 q 0,3.522195 -1.92253,5.767594 -1.90785,2.230724 -5.07783,2.230724 -3.19933,0 -5.12186,-2.230724 -1.92253,-2.245399 -1.92253,-5.767594 z m 1.7611,0.484302 q 0,2.759052 1.3942,4.637556 1.3942,1.878504 3.88909,1.878504 2.45086,0 3.84506,-1.878504 1.40888,-1.878504 1.40888,-4.637556 v -0.484302 q 0,-2.715026 -1.40888,-4.608205 -1.40888,-1.89318 -3.87441,-1.89318 -2.46554,0 -3.85974,1.89318 -1.3942,1.893179 -1.3942,4.608205 z"
         style="font-size:30.05606461px;line-height:31.15641212px;text-align:center;text-anchor:middle;stroke-width:0.2254205px"
         id="path5074" />
      <path
         d="m 330.79897,83.689164 q 0,-3.801035 1.59967,-6.075786 1.61433,-2.289427 4.49079,-2.289427 1.68772,0 2.93517,0.73379 1.24744,0.719115 2.05461,2.054614 l 0.24949,-2.494888 h 1.42355 v 15.967284 q 0,3.037894 -1.67304,4.681585 -1.67304,1.643691 -4.74029,1.643691 -1.14471,0 -2.45086,-0.278841 -1.29147,-0.27884 -2.26007,-0.763142 l 0.33754,-1.482257 q 0.95393,0.469626 2.02526,0.704439 1.08601,0.249489 2.31878,0.249489 2.34813,0 3.50752,-1.203417 1.15939,-1.203417 1.15939,-3.551547 v -2.245399 q -0.80717,1.188741 -2.05461,1.834477 -1.23277,0.63106 -2.86179,0.63106 -2.84711,0 -4.46144,-2.127993 -1.59967,-2.127993 -1.59967,-5.67954 z m 1.7611,0.308192 q 0,2.876459 1.15939,4.578854 1.15939,1.702394 3.47817,1.702394 1.67304,0 2.80308,-0.748466 1.14471,-0.763143 1.77577,-2.083966 v -7.572719 q -0.60171,-1.335499 -1.71707,-2.172021 -1.10069,-0.851197 -2.83243,-0.851197 -2.31878,0 -3.49285,1.907856 -1.17406,1.907856 -1.17406,4.931073 z"
         style="font-size:30.05606461px;line-height:31.15641212px;text-align:center;text-anchor:middle;stroke-width:0.2254205px"
         id="path5076" />
      <path
         d="m 119.23245,122.65311 q -0.16144,-0.83652 -0.24949,-1.43823 -0.0734,-0.60171 -0.0734,-1.23277 -0.82185,1.29147 -2.3041,2.14267 -1.48226,0.83652 -3.40479,0.83652 -2.33346,0 -3.62493,-1.23277 -1.27679,-1.24744 -1.27679,-3.37543 0,-2.128 1.86383,-3.44882 1.86382,-1.32082 4.84301,-1.32082 h 3.90377 v -1.96656 q 0,-1.7024 -1.08601,-2.671 -1.07133,-0.9686 -3.03789,-0.9686 -1.80513,0 -2.92049,0.88055 -1.10069,0.88054 -1.10069,2.21604 h -1.62901 l -0.0294,-0.0881 q -0.0881,-1.79045 1.52628,-3.14062 1.62902,-1.36486 4.24131,-1.36486 2.6123,0 4.19728,1.3355 1.58499,1.3355 1.58499,3.83039 v 7.80753 q 0,0.83652 0.0881,1.62902 0.10273,0.79249 0.32286,1.57031 z m -5.84098,-1.24744 q 2.02527,0 3.50752,-0.95393 1.48226,-0.96861 2.01059,-2.48021 v -3.0379 h -3.91844 q -2.14267,0 -3.53687,1.02731 -1.39421,1.01263 -1.39421,2.45086 0,1.35018 0.88055,2.17202 0.89523,0.82185 2.45086,0.82185 z"
         style="font-size:30.05606461px;line-height:31.15641212px;text-align:center;text-anchor:middle;stroke-width:0.2254205px"
         id="path5078" />
      <path
         d="m 127.28947,122.65311 h -1.74642 V 99.758842 h 1.74642 z"
         style="font-size:30.05606461px;line-height:31.15641212px;text-align:center;text-anchor:middle;stroke-width:0.2254205px"
         id="path5080" />
      <path
         d="m 141.64242,118.58791 q 0,-1.11536 -0.92458,-1.93721 -0.9099,-0.83652 -3.30206,-1.36485 -2.81775,-0.58703 -4.19728,-1.59966 -1.36485,-1.02731 -1.36485,-2.86178 0,-1.81981 1.52628,-3.08193 1.54096,-1.26212 4.0652,-1.26212 2.65632,0 4.24131,1.35018 1.58499,1.3355 1.51161,3.30206 l -0.0293,0.0881 h -1.62902 q 0,-1.30615 -1.13003,-2.27475 -1.11536,-0.9686 -2.96452,-0.9686 -1.90785,0 -2.87646,0.83652 -0.9686,0.83652 -0.9686,1.95188 0,1.08601 0.82185,1.80513 0.83652,0.70444 3.31673,1.24744 2.7884,0.61639 4.21196,1.71707 1.43823,1.10069 1.43823,2.96452 0,1.98123 -1.61434,3.22867 -1.59967,1.23277 -4.24131,1.23277 -2.89114,0 -4.5495,-1.37952 -1.6437,-1.37953 -1.55564,-3.28739 l 0.0293,-0.0881 h 1.61434 q 0.10273,1.71707 1.3942,2.49489 1.30615,0.77782 3.06725,0.77782 1.90785,0 3.00854,-0.8512 1.10069,-0.8512 1.10069,-2.03994 z"
         style="font-size:30.05606461px;line-height:31.15641212px;text-align:center;text-anchor:middle;stroke-width:0.2254205px"
         id="path5082" />
      <path
         d="m 166.38583,116.69473 h -9.37784 l -2.15734,5.95838 h -1.8198 l 7.85156,-21.36798 h 1.65836 l 7.79286,21.36798 h -1.8198 z m -8.82016,-1.57031 h 8.24781 l -4.05053,-11.32973 h -0.088 z"
         style="font-size:30.05606461px;line-height:31.15641212px;text-align:center;text-anchor:middle;stroke-width:0.2254205px"
         id="path5084" />
      <path
         d="m 174.7804,106.77388 0.16144,2.75905 q 0.77781,-1.4529 2.06929,-2.2454 1.29147,-0.80717 3.06724,-0.80717 2.58294,0 3.93312,1.58499 1.35017,1.57031 1.35017,4.9164 v 9.67136 h -1.76109 v -9.65668 q 0,-2.72971 -1.02731,-3.85974 -1.01263,-1.13004 -2.89114,-1.13004 -1.8785,0 -3.03789,0.92458 -1.14471,0.92457 -1.65837,2.48021 v 11.24167 h -1.76109 v -15.87923 z"
         style="font-size:30.05606461px;line-height:31.15641212px;text-align:center;text-anchor:middle;stroke-width:0.2254205px"
         id="path5086" />
      <path
         d="m 189.26543,114.84558 q 0,-3.80104 1.59966,-6.07579 1.61434,-2.28943 4.4908,-2.28943 1.62901,0 2.84711,0.68977 1.23276,0.68976 2.03993,1.95188 v -9.363168 h 1.7611 v 22.894268 h -1.43823 l -0.24949,-2.3041 q -0.80717,1.26212 -2.05461,1.9372 -1.24745,0.67509 -2.93516,0.67509 -2.84711,0 -4.46145,-2.11331 -1.59966,-2.128 -1.59966,-5.69422 z m 1.76109,0.30819 q 0,2.87646 1.14472,4.57885 1.15939,1.7024 3.47816,1.7024 1.7024,0 2.83244,-0.74847 1.13003,-0.76314 1.76109,-2.09864 v -7.52869 q -0.6017,-1.35018 -1.70239,-2.20137 -1.10069,-0.8512 -2.86178,-0.8512 -2.31878,0 -3.49285,1.90785 -1.15939,1.89318 -1.15939,4.93108 z"
         style="font-size:30.05606461px;line-height:31.15641212px;text-align:center;text-anchor:middle;stroke-width:0.2254205px"
         id="path5088" />
      <path
         d="m 213.93547,108.28549 -1.24744,-0.0881 q -1.65837,0 -2.7297,0.93926 -1.05666,0.92457 -1.51161,2.55359 v 10.96283 h -1.7611 v -15.87923 h 1.54096 l 0.22014,2.64165 v 0.17611 q 0.68976,-1.46758 1.84915,-2.28943 1.15939,-0.82185 2.75905,-0.82185 0.32287,0 0.61639,0.0587 0.29351,0.044 0.4843,0.10273 z"
         style="font-size:30.05606461px;line-height:31.15641212px;text-align:center;text-anchor:middle;stroke-width:0.2254205px"
         id="path5090" />
      <path
         d="m 215.68189,114.47868 q 0,-3.50752 1.92253,-5.75292 1.92254,-2.2454 5.09251,-2.2454 3.18465,0 5.10718,2.2454 1.92254,2.2454 1.92254,5.75292 v 0.4843 q 0,3.5222 -1.92254,5.7676 -1.90785,2.23072 -5.07783,2.23072 -3.19932,0 -5.12186,-2.23072 -1.92253,-2.2454 -1.92253,-5.7676 z m 1.7611,0.4843 q 0,2.75906 1.3942,4.63756 1.39421,1.87851 3.88909,1.87851 2.45086,0 3.84507,-1.87851 1.40887,-1.8785 1.40887,-4.63756 v -0.4843 q 0,-2.71502 -1.40887,-4.6082 -1.40888,-1.89318 -3.87442,-1.89318 -2.46553,0 -3.85974,1.89318 -1.3942,1.89318 -1.3942,4.6082 z"
         style="font-size:30.05606461px;line-height:31.15641212px;text-align:center;text-anchor:middle;stroke-width:0.2254205px"
         id="path5092" />
      <path
         d="m 235.36215,122.65311 h -1.74642 v -15.87923 h 1.74642 z m 0,-20.42873 h -1.74642 v -2.465538 h 1.74642 z"
         style="font-size:30.05606461px;line-height:31.15641212px;text-align:center;text-anchor:middle;stroke-width:0.2254205px"
         id="path5094" />
      <path
         d="m 239.5154,114.84558 q 0,-3.80104 1.59967,-6.07579 1.61434,-2.28943 4.4908,-2.28943 1.62901,0 2.8471,0.68977 1.23277,0.68976 2.03994,1.95188 v -9.363168 h 1.7611 v 22.894268 h -1.43823 l -0.24949,-2.3041 q -0.80717,1.26212 -2.05461,1.9372 -1.24745,0.67509 -2.93517,0.67509 -2.8471,0 -4.46144,-2.11331 -1.59967,-2.128 -1.59967,-5.69422 z m 1.7611,0.30819 q 0,2.87646 1.14471,4.57885 1.15939,1.7024 3.47817,1.7024 1.7024,0 2.83243,-0.74847 1.13004,-0.76314 1.7611,-2.09864 v -7.52869 q -0.60171,-1.35018 -1.70239,-2.20137 -1.10069,-0.8512 -2.86179,-0.8512 -2.31878,0 -3.49284,1.90785 -1.15939,1.89318 -1.15939,4.93108 z"
         style="font-size:30.05606461px;line-height:31.15641212px;text-align:center;text-anchor:middle;stroke-width:0.2254205px"
         id="path5096" />
      <path
         d="m 265.18341,114.2879 h -8.65873 v -1.48226 h 8.65873 z"
         style="font-size:30.05606461px;line-height:31.15641212px;text-align:center;text-anchor:middle;stroke-width:0.2254205px"
         id="path5098" />
      <path
         d="m 281.1507,116.69473 h -9.37785 l -2.15734,5.95838 h -1.8198 l 7.85156,-21.36798 h 1.65836 l 7.79286,21.36798 h -1.8198 z m -8.82017,-1.57031 h 8.24781 l -4.05052,-11.32973 h -0.0881 z"
         style="font-size:30.05606461px;line-height:31.15641212px;text-align:center;text-anchor:middle;stroke-width:0.2254205px"
         id="path5100" />
      <path
         d="m 300.77225,115.15377 q 0,3.56622 -1.61434,5.69422 -1.61434,2.11331 -4.44677,2.11331 -1.65836,0 -2.92048,-0.63106 -1.24745,-0.63106 -2.03994,-1.79045 v 8.21846 h -1.7611 v -21.98437 h 1.35018 l 0.32286,2.48021 q 0.7925,-1.32082 2.05462,-2.03993 1.26212,-0.7338 2.96451,-0.7338 2.86178,0 4.47612,2.28943 1.61434,2.27475 1.61434,6.07579 z m -1.76109,-0.30819 q 0,-3.02322 -1.20342,-4.93108 -1.20342,-1.90785 -3.5222,-1.90785 -1.74642,0 -2.86178,0.83652 -1.10069,0.83652 -1.67304,2.17202 v 7.69013 q 0.61638,1.29147 1.74642,2.03993 1.13004,0.7338 2.81776,0.7338 2.3041,0 3.49284,-1.73175 1.20342,-1.73175 1.20342,-4.59353 z"
         style="font-size:30.05606461px;line-height:31.15641212px;text-align:center;text-anchor:middle;stroke-width:0.2254205px"
         id="path5102" />
      <path
         d="m 317.50268,115.15377 q 0,3.56622 -1.61434,5.69422 -1.61434,2.11331 -4.44677,2.11331 -1.65837,0 -2.92049,-0.63106 -1.24745,-0.63106 -2.03994,-1.79045 v 8.21846 h -1.7611 v -21.98437 h 1.35018 l 0.32287,2.48021 q 0.79249,-1.32082 2.05461,-2.03993 1.26212,-0.7338 2.96451,-0.7338 2.86179,0 4.47613,2.28943 1.61434,2.27475 1.61434,6.07579 z m -1.7611,-0.30819 q 0,-3.02322 -1.20342,-4.93108 -1.20341,-1.90785 -3.52219,-1.90785 -1.74642,0 -2.86179,0.83652 -1.10068,0.83652 -1.67304,2.17202 v 7.69013 q 0.61639,1.29147 1.74642,2.03993 1.13004,0.7338 2.81776,0.7338 2.3041,0 3.49284,-1.73175 1.20342,-1.73175 1.20342,-4.59353 z"
         style="font-size:30.05606461px;line-height:31.15641212px;text-align:center;text-anchor:middle;stroke-width:0.2254205px"
         id="path5104" />
    </g>
    <g
       aria-label="Web Opac App"
       style="font-style:normal;font-variant:normal;font-weight:300;font-stretch:normal;font-size:4.11836958px;line-height:7.72194338px;font-family:Roboto;-inkscape-font-specification:'Roboto, Light';font-variant-ligatures:normal;font-variant-caps:normal;font-variant-numeric:normal;font-feature-settings:normal;text-align:start;letter-spacing:0px;word-spacing:0px;writing-mode:lr-tb;text-anchor:start;fill:#000000;fill-opacity:1;stroke:none;stroke-width:0.30887774px;stroke-linecap:butt;stroke-linejoin:miter;stroke-opacity:1"
       id="text4547">
      <path
         d="m 90.077469,47.802179 0.904915,4.725668 h 0.120656 l 1.02557,-4.725668 6.113206,-20.87338 h 2.433214 l 6.13332,20.87338 0.98535,4.745778 h 0.12065 l 0.96525,-4.745778 5.16807,-20.87338 h 2.6142 l -7.50074,29.279037 h -2.29246 l -6.61593,-22.462008 -0.723934,-3.157149 h -0.120655 l -0.683714,3.157149 -6.696373,22.462008 H 89.735612 L 82.23487,26.928799 h 2.614199 z"
         style="font-size:41.18370056px;line-height:40.15410614px;fill:#d50000;fill-opacity:1;stroke-width:0.30887774px"
         id="path5021" />
      <path
         d="m 128.46599,56.63013 q -4.22294,0 -6.85725,-2.976166 -2.63431,-2.996275 -2.63431,-7.681725 v -1.106008 q 0,-4.705559 2.65442,-7.762162 2.67453,-3.056603 6.61593,-3.056603 3.96152,0 6.11321,2.553872 2.1718,2.533763 2.1718,6.837138 v 1.870158 h -15.14225 v 0.663605 q 0,3.720207 1.87016,6.173533 1.89026,2.453326 5.20829,2.453326 1.99081,0 3.65988,-0.643495 1.66906,-0.663605 2.77507,-1.769613 l 1.02557,1.648957 q -1.14623,1.206554 -3.01639,2.010923 -1.85004,0.78426 -4.44413,0.78426 z m -0.22121,-20.531523 q -2.77507,0 -4.56479,1.990814 -1.78972,1.990814 -2.09136,5.047416 l 0.0603,0.120656 h 12.46772 v -0.502731 q 0,-2.895729 -1.5283,-4.765887 -1.50819,-1.890268 -4.3436,-1.890268 z"
         style="font-size:41.18370056px;line-height:40.15410614px;fill:#d50000;fill-opacity:1;stroke-width:0.30887774px"
         id="path5023" />
      <path
         d="m 158.97168,45.93202 q 0,4.886543 -2.21201,7.802381 -2.21202,2.895729 -6.0931,2.895729 -2.37289,0 -4.12239,-0.945134 -1.72939,-0.965243 -2.81529,-2.734855 l -0.40219,3.257695 h -1.89026 V 24.837439 h 2.4131 v 12.950344 q 1.0859,-1.789722 2.77508,-2.754965 1.68917,-0.985352 4.00173,-0.985352 3.9213,0 6.13332,3.13704 2.21201,3.11693 2.21201,8.32522 z m -2.43321,-0.422294 q 0,-4.16261 -1.60874,-6.7567 -1.60874,-2.6142 -4.76589,-2.6142 -2.49354,0 -4.02184,1.226663 -1.52831,1.206554 -2.29246,3.137039 v 9.954069 q 0.80437,1.890267 2.37289,2.996275 1.58863,1.085898 3.98163,1.085898 3.15715,0 4.74578,-2.33267 1.58863,-2.332671 1.58863,-6.27408 z"
         style="font-size:41.18370056px;line-height:40.15410614px;fill:#d50000;fill-opacity:1;stroke-width:0.30887774px"
         id="path5025" />
      <path
         d="m 196.45528,43.961316 q 0,5.670802 -3.11693,9.169808 -3.09682,3.499006 -8.32522,3.499006 -5.14796,0 -8.22467,-3.499006 -3.0566,-3.499006 -3.0566,-9.169808 v -4.765887 q 0,-5.650694 3.0566,-9.169809 3.0566,-3.519115 8.20456,-3.519115 5.2284,0 8.34533,3.519115 3.11693,3.519115 3.11693,9.169809 z m -2.39299,-4.806106 q 0,-4.745778 -2.41311,-7.641507 -2.393,-2.895729 -6.65616,-2.895729 -4.18272,0 -6.51539,2.895729 -2.33267,2.895729 -2.33267,7.641507 v 4.806106 q 0,4.785996 2.33267,7.681725 2.35278,2.895729 6.5355,2.895729 4.28327,0 6.65616,-2.87562 2.393,-2.895729 2.393,-7.701834 z"
         style="font-size:41.18370056px;line-height:40.15410614px;fill:#d50000;fill-opacity:1;stroke-width:0.30887774px"
         id="path5027" />
      <path
         d="m 219.68145,45.93202 q 0,4.886543 -2.21202,7.802381 -2.21201,2.895729 -6.09309,2.895729 -2.27235,0 -4.00174,-0.864697 -1.70928,-0.864697 -2.79518,-2.453326 v 11.261168 h -2.41311 V 34.449651 h 1.85005 l 0.4424,3.398459 q 1.0859,-1.80983 2.81529,-2.795183 1.7294,-1.005461 4.06207,-1.005461 3.9213,0 6.13331,3.13704 2.21202,3.11693 2.21202,8.32522 z m -2.41311,-0.422294 q 0,-4.142501 -1.64896,-6.7567 -1.64895,-2.6142 -4.82621,-2.6142 -2.393,0 -3.9213,1.146226 -1.50819,1.146226 -2.29245,2.976166 v 10.537236 q 0.84459,1.769612 2.393,2.795182 1.54841,1.005462 3.86097,1.005462 3.15715,0 4.78599,-2.372889 1.64896,-2.372889 1.64896,-6.294189 z"
         style="font-size:41.18370056px;line-height:40.15410614px;fill:#d50000;fill-opacity:1;stroke-width:0.30887774px"
         id="path5029" />
      <path
         d="m 238.86565,56.207836 q -0.22121,-1.146226 -0.34186,-1.970704 -0.10055,-0.824479 -0.10055,-1.689175 -1.12611,1.769612 -3.15715,2.935947 -2.03103,1.146226 -4.66534,1.146226 -3.19736,0 -4.96698,-1.689175 -1.7495,-1.709285 -1.7495,-4.625123 0,-2.915838 2.55387,-4.725669 2.55388,-1.80983 6.63605,-1.80983 h 5.34905 v -2.694637 q 0,-2.33267 -1.48808,-3.65988 -1.46797,-1.327209 -4.16261,-1.327209 -2.47344,0 -4.00174,1.206554 -1.50819,1.206554 -1.50819,3.036494 h -2.23212 l -0.0402,-0.120656 q -0.12066,-2.453326 2.09136,-4.303375 2.23212,-1.870158 5.81157,-1.870158 3.57944,0 5.75123,1.82994 2.1718,1.82994 2.1718,5.248509 v 10.698109 q 0,1.146226 0.12066,2.232125 0.14076,1.085898 0.4424,2.151687 z m -8.00348,-1.709284 q 2.77508,0 4.80611,-1.3071 2.03103,-1.327209 2.75496,-3.39846 v -4.16261 h -5.36916 q -2.93595,0 -4.84632,1.407646 -1.91038,1.387537 -1.91038,3.358241 0,1.850049 1.20655,2.976166 1.22667,1.126117 3.35824,1.126117 z"
         style="font-size:41.18370056px;line-height:40.15410614px;fill:#d50000;fill-opacity:1;stroke-width:0.30887774px"
         id="path5031" />
      <path
         d="m 255.17424,54.599098 q 2.31256,0 4.08218,-1.367428 1.78972,-1.367427 1.78972,-3.800644 h 2.15168 l 0.0402,0.120655 q 0.0804,3.016385 -2.37289,5.047417 -2.45332,2.031032 -5.69091,2.031032 -4.34359,0 -6.77681,-3.056603 -2.41311,-3.056603 -2.41311,-7.82249 V 44.90645 q 0,-4.745778 2.41311,-7.802381 2.41311,-3.056603 6.7567,-3.056603 3.49901,0 5.83168,2.111469 2.33267,2.111469 2.25223,5.550147 l -0.0402,0.120656 h -2.15168 q 0,-2.6142 -1.70929,-4.162611 -1.70928,-1.56852 -4.18272,-1.56852 -3.41857,0 -5.08763,2.513654 -1.66907,2.513654 -1.66907,6.294189 v 0.844587 q 0,3.840863 1.66907,6.354516 1.66906,2.493545 5.10774,2.493545 z"
         style="font-size:41.18370056px;line-height:40.15410614px;fill:#d50000;fill-opacity:1;stroke-width:0.30887774px"
         id="path5033" />
      <path
         d="m 294.38723,48.043489 h -12.8498 l -2.95606,8.164347 h -2.49354 l 10.75844,-29.279037 h 2.27234 l 10.678,29.279037 h -2.49355 z m -12.08565,-2.151687 h 11.30139 l -5.55015,-15.524325 h -0.12066 z"
         style="font-size:41.18370056px;line-height:40.15410614px;fill:#d50000;fill-opacity:1;stroke-width:0.30887774px"
         id="path5035" />
      <path
         d="m 321.27328,45.93202 q 0,4.886543 -2.21202,7.802381 -2.21201,2.895729 -6.0931,2.895729 -2.27234,0 -4.00173,-0.864697 -1.70929,-0.864697 -2.79519,-2.453326 v 11.261168 h -2.4131 V 34.449651 h 1.85005 l 0.4424,3.398459 q 1.0859,-1.80983 2.81529,-2.795183 1.7294,-1.005461 4.06207,-1.005461 3.9213,0 6.13331,3.13704 2.21202,3.11693 2.21202,8.32522 z m -2.41311,-0.422294 q 0,-4.142501 -1.64896,-6.7567 -1.64896,-2.6142 -4.82621,-2.6142 -2.393,0 -3.9213,1.146226 -1.5082,1.146226 -2.29246,2.976166 v 10.537236 q 0.84459,1.769612 2.393,2.795182 1.54841,1.005462 3.86097,1.005462 3.15715,0 4.786,-2.372889 1.64896,-2.372889 1.64896,-6.294189 z"
         style="font-size:41.18370056px;line-height:40.15410614px;fill:#d50000;fill-opacity:1;stroke-width:0.30887774px"
         id="path5037" />
      <path
         d="m 344.19779,45.93202 q 0,4.886543 -2.21201,7.802381 -2.21202,2.895729 -6.0931,2.895729 -2.27234,0 -4.00174,-0.864697 -1.70928,-0.864697 -2.79518,-2.453326 v 11.261168 h -2.41311 V 34.449651 h 1.85005 l 0.4424,3.398459 q 1.0859,-1.80983 2.8153,-2.795183 1.72939,-1.005461 4.06206,-1.005461 3.9213,0 6.13332,3.13704 2.21201,3.11693 2.21201,8.32522 z m -2.41311,-0.422294 q 0,-4.142501 -1.64895,-6.7567 -1.64896,-2.6142 -4.82622,-2.6142 -2.393,0 -3.9213,1.146226 -1.50819,1.146226 -2.29245,2.976166 v 10.537236 q 0.84459,1.769612 2.393,2.795182 1.54841,1.005462 3.86097,1.005462 3.15715,0 4.786,-2.372889 1.64895,-2.372889 1.64895,-6.294189 z"
         style="font-size:41.18370056px;line-height:40.15410614px;fill:#d50000;fill-opacity:1;stroke-width:0.30887774px"
         id="path5039" />
    </g>
    <g
       id="g5279"
       transform="matrix(3.1096609,0,0,3.1096609,125.06677,-172.88864)"
       style="fill:#d50000;fill-opacity:1">
      <path
         id="path5271"
         d="M 35.021,8.568 35.568,7.749 36.105,6.941 37.314,5.128 C 37.462,4.905 37.402,4.605 37.181,4.456 36.956,4.307 36.656,4.367 36.507,4.591 L 35.212,6.535 34.667,7.352 34.114,8.18 C 32.362,7.501 30.409,7.12 28.346,7.12 26.285,7.12 24.332,7.501 22.58,8.18 L 22.03,7.352 21.485,6.535 20.188,4.59 C 20.04,4.367 19.739,4.307 19.515,4.455 19.293,4.603 19.233,4.904 19.381,5.127 l 1.208,1.813 0.539,0.808 0.547,0.819 c -4.115,1.916 -6.898,5.546 -6.898,9.701 h 27.142 c 0,-4.154 -2.783,-7.784 -6.898,-9.7 z m -12.489,5.823 c -0.805,0 -1.455,-0.651 -1.455,-1.454 0,-0.803 0.65,-1.453 1.455,-1.453 0.803,0 1.453,0.65 1.453,1.453 0,0.803 -0.65,1.454 -1.453,1.454 z m 11.631,0 c -0.803,0 -1.453,-0.651 -1.453,-1.454 0,-0.803 0.65,-1.453 1.453,-1.453 0.805,0 1.455,0.65 1.455,1.453 0,0.803 -0.65,1.454 -1.455,1.454 z"
         inkscape:connector-curvature="0"
         style="fill:#d50000;fill-opacity:1" />
      <path
         id="path5273"
         d="m 14.986,20.208 h -0.209 v 2.418 1.973 16.936 c 0,1.693 1.376,3.07 3.069,3.07 h 2.216 c -0.074,0.256 -0.116,0.527 -0.116,0.807 v 0.162 0.969 5.01 c 0,1.605 1.303,2.908 2.909,2.908 1.606,0 2.908,-1.303 2.908,-2.908 v -5.01 -0.969 -0.162 c 0,-0.279 -0.043,-0.551 -0.115,-0.807 h 5.4 c -0.074,0.256 -0.115,0.527 -0.115,0.807 v 0.162 0.969 5.01 c 0,1.605 1.303,2.908 2.908,2.908 1.605,0 2.908,-1.303 2.908,-2.908 v -5.01 -0.969 -0.162 c 0,-0.279 -0.041,-0.551 -0.115,-0.807 h 2.215 c 1.693,0 3.07,-1.377 3.07,-3.07 V 24.599 22.626 20.208 H 41.71 Z"
         inkscape:connector-curvature="0"
         style="fill:#d50000;fill-opacity:1" />
      <path
         id="path5275"
         d="m 9.929,20.208 c -1.606,0 -2.908,1.301 -2.908,2.909 v 12.439 c 0,1.605 1.302,2.908 2.908,2.908 1.605,0 2.908,-1.303 2.908,-2.908 v -12.44 c 0,-1.607 -1.302,-2.908 -2.908,-2.908 z"
         inkscape:connector-curvature="0"
         style="fill:#d50000;fill-opacity:1" />
      <path
         id="path5277"
         d="m 46.767,20.208 c -1.607,0 -2.908,1.301 -2.908,2.909 v 12.439 c 0,1.605 1.301,2.908 2.908,2.908 1.605,0 2.906,-1.303 2.906,-2.908 v -12.44 c 0,-1.607 -1.301,-2.908 -2.906,-2.908 z"
         inkscape:connector-curvature="0"
         style="fill:#d50000;fill-opacity:1" />
    </g>
  </g>
</svg>
