<?xml version="1.0" encoding="UTF-8" standalone="no"?>
<!-- Created with Inkscape (http://www.inkscape.org/) -->

<svg
   xmlns:dc="http://purl.org/dc/elements/1.1/"
   xmlns:cc="http://creativecommons.org/ns#"
   xmlns:rdf="http://www.w3.org/1999/02/22-rdf-syntax-ns#"
   xmlns:svg="http://www.w3.org/2000/svg"
   xmlns="http://www.w3.org/2000/svg"
   xmlns:sodipodi="http://sodipodi.sourceforge.net/DTD/sodipodi-0.dtd"
   xmlns:inkscape="http://www.inkscape.org/namespaces/inkscape"
   width="400mm"
   height="200mm"
   viewBox="0 0 400.00001 200"
   version="1.1"
   id="svg4601"
   inkscape:version="0.92.1 r"
   sodipodi:docname="BannerBreit_en_vector.svg"
   inkscape:export-filename="/home/raphael/proj/opacapp/presskit/Banner/BannerBreit_800x400.png"
   inkscape:export-xdpi="50.799999"
   inkscape:export-ydpi="50.799999">
  <defs
     id="defs4595" />
  <sodipodi:namedview
     id="base"
     pagecolor="#ffffff"
     bordercolor="#666666"
     borderopacity="1.0"
     inkscape:pageopacity="0.0"
     inkscape:pageshadow="2"
     inkscape:zoom="0.35"
     inkscape:cx="488.34485"
     inkscape:cy="891.21843"
     inkscape:document-units="mm"
     inkscape:current-layer="g4657"
     showgrid="false"
     inkscape:window-width="1916"
     inkscape:window-height="969"
     inkscape:window-x="1920"
     inkscape:window-y="90"
     inkscape:window-maximized="0"
     fit-margin-top="0"
     fit-margin-left="0"
     fit-margin-right="0"
     fit-margin-bottom="0" />
  <metadata
     id="metadata4598">
    <rdf:RDF>
      <cc:Work
         rdf:about="">
        <dc:format>image/svg+xml</dc:format>
        <dc:type
           rdf:resource="http://purl.org/dc/dcmitype/StillImage" />
        <dc:title></dc:title>
      </cc:Work>
    </rdf:RDF>
  </metadata>
  <g
     inkscape:label="Ebene 1"
     inkscape:groupmode="layer"
     id="layer1"
     transform="translate(-13.216333,33.785373)">
    <rect
       style="color:#000000;display:inline;overflow:visible;visibility:visible;opacity:1;fill:#ffffff;fill-opacity:1;fill-rule:nonzero;stroke:none;stroke-width:1.29594588;stroke-linecap:square;stroke-linejoin:round;stroke-miterlimit:4;stroke-dasharray:none;stroke-dashoffset:0;stroke-opacity:1;marker:none;enable-background:accumulate"
       id="rect4535"
       width="400"
       height="200"
       x="13.216333"
       y="-33.785374" />
    <g
       id="g4657"
       transform="matrix(1.1603218,0,0,1.1603218,-28.755156,15.777413)">
      <g
         transform="matrix(0.57081194,0,0,0.57081194,45.737768,-4.1550901)"
         id="g4532">
        <g
           id="g4516"
           transform="translate(1.8066437e-8,-12.569041)">
          <path
             id="XMLID_158_"
             class="st0"
             d="m 171.78268,142.87799 c 0,-0.61413 -0.041,-1.14637 -0.0819,-1.71954 -1.06449,-2.74309 -4.1351,-8.10642 -11.50456,-8.10642 -9.78501,0 -131.340261,0 -133.387334,0 0.368473,1.22825 0.696005,2.66119 0.900712,4.05321 1.187303,7.57417 0.08188,15.5987 -3.60285,22.14934 H 158.06728 c 7.57417,0 13.7154,-7.36947 13.7154,-16.37659 z"
             inkscape:connector-curvature="0"
             style="fill:#f4f4f4;stroke-width:0.40941477" />
          <path
             id="XMLID_157_"
             class="st1"
             d="M 171.70079,141.11751 C 170.9229,132.97015 165.10922,126.5014 158.06728,126.5014 H 24.270533 c 1.760483,3.68473 2.497429,6.55063 2.497429,6.55063 0,0 0,0 0.04095,0 2.088016,0 123.602308,0 133.387328,0 7.36947,0 10.44008,5.3224 11.50455,8.06548 z"
             inkscape:connector-curvature="0"
             style="fill:#c4c4c4;stroke-width:0.40941477" />
          <path
             id="XMLID_156_"
             class="st2"
             d="M 158.06728,119.13193 H 16.696359 c -1.92425,0 -3.480026,1.76049 -3.480026,3.68473 0,1.92425 1.555776,3.68474 3.480026,3.68474 h 7.574173 133.796748 c 7.04194,0 12.85562,6.38687 13.63351,14.53422 0.041,0.61412 0.0819,1.22824 0.0819,1.84237 0,9.00712 -6.14123,16.37659 -13.7154,16.37659 H 24.106766 16.696359 c -1.92425,0 -3.480026,1.55578 -3.480026,3.48003 0,1.92425 1.555776,3.48002 3.480026,3.48002 H 158.06728 c 11.38173,0 20.67544,-10.68573 20.67544,-23.54135 0,-12.85562 -9.29371,-23.54135 -20.67544,-23.54135 z"
             inkscape:connector-curvature="0"
             style="fill:#d90000;fill-opacity:0.94117647;stroke-width:0.40941477" />
          <path
             style="fill:#f4f4f4;stroke-width:0.40941477"
             inkscape:connector-curvature="0"
             d="m 32.131293,85.969338 c -9.211829,0 -11.668318,8.72054 -11.954909,9.866897 0,0.04095 0,0 0,0.04095 0,9.007115 6.141222,16.253755 13.715392,16.253755 H 167.81135 c -2.6612,-4.91297 -3.97132,-10.56289 -3.97132,-16.212808 0,-4.257913 0.65506,-8.47489 2.12895,-12.446209 l -1.14636,2.456483 c 0,0.04096 -122.824427,0.04096 -132.691326,0.04096 z"
             class="st0"
             id="XMLID_154_" />
          <path
             style="fill:#c4c4c4;stroke-width:0.40941477"
             inkscape:connector-curvature="0"
             d="m 33.891776,79.828111 c -7.533229,0 -13.633508,7.164767 -13.715392,16.130943 0.286591,-1.146357 2.74308,-9.989716 11.954909,-9.989716 9.866899,0 132.691327,0 132.691327,0 l 1.14636,-2.333664 1.88331,-3.807563 z"
             class="st1"
             id="XMLID_150_" />
          <path
             style="fill:#3496dc;stroke-width:0.40941477"
             inkscape:connector-curvature="0"
             d="M 175.2627,112.17188 H 167.77041 33.891776 c -7.57417,0 -13.715392,-7.24664 -13.715392,-16.253763 0,-0.04096 0,0.04095 0,0 0.04095,-8.966186 6.182163,-16.090006 13.715392,-16.090006 h 133.960514 7.45135 c 1.92425,0 3.48003,-1.555773 3.48003,-3.480023 0,-1.92424 -1.55578,-3.480023 -3.48003,-3.480023 H 33.891776 c -11.381728,0 -20.675443,10.276313 -20.675443,23.131935 0,12.85561 9.252775,23.13193 20.675443,23.13193 H 175.2627 c 1.92425,0 3.48002,-1.55578 3.48002,-3.48003 0,-1.92425 -1.55577,-3.48002 -3.48002,-3.48002 z"
             class="st3"
             id="XMLID_149_" />
          <path
             style="fill:#f4f4f4;stroke-width:0.40941477"
             inkscape:connector-curvature="0"
             d="m 24.22959,33.277661 c 0.08188,0.204707 0.204707,0.368474 0.28659,0.573181 -0.08188,-0.204707 -0.163765,-0.409416 -0.28659,-0.573181 z"
             class="st0"
             id="XMLID_148_" />
          <path
             style="fill:#f4f4f4;stroke-width:0.40941477"
             inkscape:connector-curvature="0"
             d="m 171.78268,49.36766 c 0,-0.409413 0,-0.777891 -0.041,-1.146358 -0.94166,-2.661196 -3.88944,-8.51583 -11.54549,-8.51583 -9.78501,0 -131.708736,0 -133.428277,0 0.245649,0.818829 0.450357,1.514837 0.614123,2.333665 1.637658,7.901702 0.491297,16.499413 -3.152494,23.459458 H 158.06728 c 7.57417,0 13.7154,-7.123811 13.7154,-16.130935 z"
             class="st0"
             id="XMLID_146_" />
          <path
             style="fill:#c4c4c4;stroke-width:0.40941477"
             inkscape:connector-curvature="0"
             d="m 171.74173,48.180354 c -0.53224,-8.43394 -6.46875,-15.025517 -13.67445,-15.025517 H 24.270533 c 0.08188,0.409415 0.163765,0.491298 0.28659,0.655062 1.555776,3.357202 2.251781,5.895573 2.251781,5.895573 0,0 0,0 0,0 1.6786,0 123.602316,0 133.428276,0 7.65605,0 10.56289,5.813687 11.50455,8.474882 z"
             class="st1"
             id="XMLID_145_" />
          <path
             style="fill:#f3854e;stroke-width:0.40941477"
             inkscape:connector-curvature="0"
             d="M 158.06728,25.785369 H 16.696359 c -1.92425,0 -3.480026,1.760484 -3.480026,3.684733 0,1.92425 1.555776,3.684735 3.480026,3.684735 h 7.533231 0.04095 133.79674 c 7.2057,0 13.14221,6.509693 13.67445,14.943635 0.041,0.409414 0.041,0.818827 0.041,1.228251 0,9.007124 -6.14123,16.130937 -13.7154,16.130937 H 24.270533 16.696359 c -1.92425,0 -3.480026,1.760484 -3.480026,3.684734 0,1.924241 1.555776,3.684725 3.480026,3.684725 H 158.06728 c 11.38173,0 20.67544,-10.685717 20.67544,-23.541341 0,-12.855623 -9.29371,-23.500408 -20.67544,-23.500409 z"
             class="st4"
             id="XMLID_144_" />
          <path
             inkscape:connector-curvature="0"
             style="opacity:0.32000002;fill:#1e1e1e;stroke-width:0.40941477"
             d="m 133.25675,76.266215 -3.11156,-24.319243 -25.01524,53.182968 12.48715,-3.72567 12.52809,3.72567 z"
             id="XMLID_143_" />
          <path
             inkscape:connector-curvature="0"
             style="fill:#dd2f44;stroke-width:0.40941477"
             d="m 105.04807,51.824144 h 24.89241 V 95.754352 H 117.6171 105.04807 Z"
             id="XMLID_142_" />
          <path
             inkscape:connector-curvature="0"
             style="fill:#c92837;stroke-width:0.40941477"
             d="M 105.04807,105.12994 V 81.588595 h 24.89241 v 23.541345 l -12.44621,-5.44521 z"
             id="XMLID_140_" />
        </g>
      </g>
      <g
         aria-label="The library catalogue
on your smartphone"
         style="font-style:normal;font-variant:normal;font-weight:300;font-stretch:normal;font-size:2.16443396px;line-height:4.05831385px;font-family:Roboto;-inkscape-font-specification:'Roboto, Light';font-variant-ligatures:normal;font-variant-caps:normal;font-variant-numeric:normal;font-feature-settings:normal;text-align:start;letter-spacing:0px;word-spacing:0px;writing-mode:lr-tb;text-anchor:start;fill:#000000;fill-opacity:1;stroke:none;stroke-width:0.16233255px;stroke-linecap:butt;stroke-linejoin:miter;stroke-opacity:1"
         id="text4539">
        <path
           d="m 177.72514,42.182682 h -5.24199 V 56.492466 H 171.2255 V 42.182682 h -5.42166 v -1.077989 h 11.9213 z"
           style="font-size:21.64434052px;line-height:22.43673515px;stroke-width:0.16233255px"
           id="path4775" />
        <path
           d="m 181.17048,47.00193 q 0.58127,-1.025147 1.52187,-1.585279 0.95116,-0.5707 2.21939,-0.5707 1.80722,0 2.76895,1.120263 0.97231,1.120264 0.97231,3.477045 v 7.049207 h -1.26823 v -7.070344 q 0,-1.86006 -0.73979,-2.663268 -0.72923,-0.813777 -2.01859,-0.813777 -1.33164,0 -2.19826,0.655249 -0.85605,0.64468 -1.25765,1.733238 v 8.158902 h -1.26822 v -16.4869 h 1.26822 z"
           style="font-size:21.64434052px;line-height:22.43673515px;stroke-width:0.16233255px"
           id="path4777" />
        <path
           d="m 196.29404,56.714405 q -2.21939,0 -3.60387,-1.564142 -1.38447,-1.57471 -1.38447,-4.037177 v -0.581268 q 0,-2.473035 1.39504,-4.079451 1.40561,-1.606416 3.47705,-1.606416 2.08199,0 3.21283,1.342202 1.1414,1.331635 1.1414,3.593299 v 0.982873 h -7.9581 v 0.348761 q 0,1.955178 0.98287,3.244538 0.99344,1.28936 2.73725,1.28936 1.04628,0 1.92347,-0.338193 0.87719,-0.348761 1.45846,-0.93003 l 0.53899,0.866619 q -0.6024,0.634111 -1.58528,1.056853 -0.9723,0.412172 -2.33564,0.412172 z M 196.17779,45.92394 q -1.45846,0 -2.39906,1.046284 -0.9406,1.046284 -1.09913,2.6527 l 0.0317,0.06341 h 6.55248 v -0.264213 q 0,-1.521867 -0.8032,-2.50474 -0.79264,-0.993442 -2.2828,-0.993442 z"
           style="font-size:21.64434052px;line-height:22.43673515px;stroke-width:0.16233255px"
           id="path4779" />
        <path
           d="m 209.81118,56.492466 h -1.25765 v -16.4869 h 1.25765 z"
           style="font-size:21.64434052px;line-height:22.43673515px;stroke-width:0.16233255px"
           id="path4781" />
        <path
           d="m 214.71498,56.492466 h -1.25765 V 45.057321 h 1.25765 z m 0,-14.711388 h -1.25765 v -1.775512 h 1.25765 z"
           style="font-size:21.64434052px;line-height:22.43673515px;stroke-width:0.16233255px"
           id="path4783" />
        <path
           d="m 227.41835,51.091949 q 0,2.568152 -1.16254,4.100588 -1.16254,1.521868 -3.20226,1.521868 -1.24709,0 -2.16655,-0.496721 -0.90889,-0.507289 -1.47959,-1.437319 l -0.21137,1.712101 h -0.99344 v -16.4869 h 1.26822 v 6.80613 q 0.5707,-0.940598 1.45845,-1.447888 0.88776,-0.517857 2.10314,-0.517857 2.06086,0 3.2234,1.64869 1.16254,1.638121 1.16254,4.375369 z m -1.27879,-0.221939 q 0,-2.187684 -0.84548,-3.551024 -0.84549,-1.373909 -2.50474,-1.373909 -1.3105,0 -2.11371,0.64468 -0.80321,0.634112 -1.20481,1.64869 v 5.231421 q 0.42274,0.993441 1.24708,1.57471 0.83492,0.5707 2.09257,0.5707 1.65926,0 2.49417,-1.225949 0.83492,-1.225949 0.83492,-3.29738 z"
           style="font-size:21.64434052px;line-height:22.43673515px;stroke-width:0.16233255px"
           id="path4785" />
        <path
           d="m 235.47157,46.145879 -0.89833,-0.06341 q -1.19424,0 -1.96574,0.676386 -0.76094,0.665817 -1.08856,1.838923 v 7.894689 h -1.26823 V 45.057321 h 1.1097 l 0.15853,1.902335 v 0.126822 q 0.49672,-1.056852 1.33163,-1.64869 0.83491,-0.591837 1.98688,-0.591837 0.23251,0 0.44388,0.04227 0.21137,0.03171 0.34876,0.07398 z"
           style="font-size:21.64434052px;line-height:22.43673515px;stroke-width:0.16233255px"
           id="path4787" />
        <path
           d="m 244.88812,56.492466 q -0.11626,-0.602406 -0.17967,-1.035716 -0.0528,-0.433309 -0.0528,-0.887756 -0.59184,0.930031 -1.65926,1.543005 -1.06742,0.602406 -2.4519,0.602406 -1.68039,0 -2.61042,-0.887756 -0.91946,-0.898325 -0.91946,-2.430761 0,-1.532436 1.3422,-2.483604 1.3422,-0.951167 3.48761,-0.951167 h 2.81123 v -1.416182 q 0,-1.225949 -0.78207,-1.923472 -0.7715,-0.697523 -2.18768,-0.697523 -1.29993,0 -2.10314,0.634112 -0.79264,0.634111 -0.79264,1.595847 h -1.17311 l -0.0211,-0.06341 q -0.0634,-1.28936 1.09912,-2.261664 1.17311,-0.982873 3.05431,-0.982873 1.88119,0 3.02259,0.961736 1.14141,0.961735 1.14141,2.758385 v 5.622455 q 0,0.602406 0.0634,1.173107 0.074,0.5707 0.2325,1.130832 z m -4.20627,-0.898325 q 1.45845,0 2.52587,-0.686954 1.06742,-0.697523 1.44789,-1.786081 v -2.187685 h -2.8218 q -1.543,0 -2.54701,0.739797 -1.00401,0.729229 -1.00401,1.764944 0,0.972304 0.63411,1.564142 0.64468,0.591837 1.76495,0.591837 z"
           style="font-size:21.64434052px;line-height:22.43673515px;stroke-width:0.16233255px"
           id="path4789" />
        <path
           d="m 254.49491,46.145879 -0.89832,-0.06341 q -1.19425,0 -1.96575,0.676386 -0.76093,0.665817 -1.08856,1.838923 v 7.894689 h -1.26822 V 45.057321 h 1.1097 l 0.15852,1.902335 v 0.126822 q 0.49672,-1.056852 1.33164,-1.64869 0.83491,-0.591837 1.98688,-0.591837 0.23251,0 0.44388,0.04227 0.21137,0.03171 0.34876,0.07398 z"
           style="font-size:21.64434052px;line-height:22.43673515px;stroke-width:0.16233255px"
           id="path4791" />
        <path
           d="m 260.12793,53.395888 0.40161,1.36334 h 0.0634 l 3.45591,-9.701907 h 1.41618 l -4.96721,13.2635 q -0.44388,1.162538 -1.15197,1.976314 -0.70809,0.813777 -2.07143,0.813777 -0.22194,0 -0.53899,-0.05284 -0.31706,-0.04227 -0.46502,-0.09512 l 0.14796,-1.056852 q 0.12682,0.02114 0.40161,0.04227 0.28535,0.03171 0.41217,0.03171 0.82434,0 1.32106,-0.591837 0.49672,-0.581269 0.84549,-1.500731 l 0.6024,-1.543004 -4.41764,-11.287186 h 1.40561 z"
           style="font-size:21.64434052px;line-height:22.43673515px;stroke-width:0.16233255px"
           id="path4793" />
        <path
           d="m 276.9636,55.646984 q 1.21538,0 2.14541,-0.71866 0.9406,-0.71866 0.9406,-1.997451 h 1.13083 l 0.0211,0.06341 q 0.0423,1.585279 -1.24709,2.6527 -1.28936,1.067421 -2.99089,1.067421 -2.2828,0 -3.56159,-1.606416 -1.26823,-1.606416 -1.26823,-4.111156 v -0.443878 q 0,-2.494172 1.26823,-4.100588 1.26822,-1.606416 3.55102,-1.606416 1.83892,0 3.06487,1.109695 1.22595,1.109695 1.18368,2.916913 l -0.0211,0.06341 h -1.13083 q 0,-1.373908 -0.89833,-2.187685 -0.89832,-0.824345 -2.19825,-0.824345 -1.79665,0 -2.67384,1.321066 -0.87718,1.321066 -0.87718,3.307949 v 0.443878 q 0,2.018588 0.87718,3.339654 0.87719,1.310497 2.68441,1.310497 z"
           style="font-size:21.64434052px;line-height:22.43673515px;stroke-width:0.16233255px"
           id="path4795" />
        <path
           d="m 291.17826,56.492466 q -0.11625,-0.602406 -0.17966,-1.035716 -0.0528,-0.433309 -0.0528,-0.887756 -0.59184,0.930031 -1.65926,1.543005 -1.06742,0.602406 -2.4519,0.602406 -1.6804,0 -2.61043,-0.887756 -0.91946,-0.898325 -0.91946,-2.430761 0,-1.532436 1.34221,-2.483604 1.3422,-0.951167 3.48761,-0.951167 h 2.81123 v -1.416182 q 0,-1.225949 -0.78207,-1.923472 -0.77151,-0.697523 -2.18769,-0.697523 -1.29993,0 -2.10314,0.634112 -0.79263,0.634111 -0.79263,1.595847 h -1.17311 l -0.0211,-0.06341 q -0.0634,-1.28936 1.09913,-2.261664 1.1731,-0.982873 3.0543,-0.982873 1.8812,0 3.0226,0.961736 1.1414,0.961735 1.1414,2.758385 v 5.622455 q 0,0.602406 0.0634,1.173107 0.074,0.5707 0.23251,1.130832 z m -4.20627,-0.898325 q 1.45846,0 2.52588,-0.686954 1.06742,-0.697523 1.44789,-1.786081 v -2.187685 h -2.8218 q -1.543,0 -2.54701,0.739797 -1.00401,0.729229 -1.00401,1.764944 0,0.972304 0.63411,1.564142 0.64468,0.591837 1.76494,0.591837 z"
           style="font-size:21.64434052px;line-height:22.43673515px;stroke-width:0.16233255px"
           id="path4797" />
        <path
           d="m 297.54052,42.12984 v 2.927481 h 2.51531 v 1.035716 h -2.51531 v 7.45081 q 0,1.120264 0.4016,1.595848 0.41218,0.465015 1.08856,0.465015 0.23251,0 0.44388,-0.02114 0.22194,-0.03171 0.51786,-0.09512 l 0.19023,0.940599 q -0.25364,0.126822 -0.63411,0.200802 -0.3699,0.08455 -0.7398,0.08455 -1.20481,0 -1.88119,-0.760934 -0.66582,-0.760934 -0.66582,-2.409624 v -7.45081 h -1.97632 v -1.035716 h 1.97632 V 42.12984 Z"
           style="font-size:21.64434052px;line-height:22.43673515px;stroke-width:0.16233255px"
           id="path4799" />
        <path
           d="m 309.77887,56.492466 q -0.11626,-0.602406 -0.17967,-1.035716 -0.0528,-0.433309 -0.0528,-0.887756 -0.59184,0.930031 -1.65926,1.543005 -1.06742,0.602406 -2.4519,0.602406 -1.68039,0 -2.61042,-0.887756 -0.91947,-0.898325 -0.91947,-2.430761 0,-1.532436 1.34221,-2.483604 1.3422,-0.951167 3.48761,-0.951167 h 2.81123 v -1.416182 q 0,-1.225949 -0.78207,-1.923472 -0.77151,-0.697523 -2.18769,-0.697523 -1.29993,0 -2.10313,0.634112 -0.79264,0.634111 -0.79264,1.595847 h -1.17311 l -0.0211,-0.06341 q -0.0634,-1.28936 1.09913,-2.261664 1.17311,-0.982873 3.0543,-0.982873 1.8812,0 3.0226,0.961736 1.1414,0.961735 1.1414,2.758385 v 5.622455 q 0,0.602406 0.0634,1.173107 0.074,0.5707 0.23251,1.130832 z m -4.20628,-0.898325 q 1.45846,0 2.52588,-0.686954 1.06742,-0.697523 1.44789,-1.786081 v -2.187685 h -2.8218 q -1.543,0 -2.54701,0.739797 -1.00401,0.729229 -1.00401,1.764944 0,0.972304 0.63411,1.564142 0.64468,0.591837 1.76494,0.591837 z"
           style="font-size:21.64434052px;line-height:22.43673515px;stroke-width:0.16233255px"
           id="path4801" />
        <path
           d="m 315.58099,56.492466 h -1.25766 v -16.4869 h 1.25766 z"
           style="font-size:21.64434052px;line-height:22.43673515px;stroke-width:0.16233255px"
           id="path4803" />
        <path
           d="m 318.36051,50.605797 q 0,-2.525877 1.38448,-4.142862 1.38447,-1.616984 3.66727,-1.616984 2.29337,0 3.67785,1.616984 1.38448,1.616985 1.38448,4.142862 v 0.348762 q 0,2.536446 -1.38448,4.15343 -1.37391,1.606416 -3.65671,1.606416 -2.30394,0 -3.68841,-1.606416 -1.38448,-1.616984 -1.38448,-4.15343 z m 1.26822,0.348762 q 0,1.986882 1.00401,3.339654 1.00401,1.352771 2.80066,1.352771 1.76495,0 2.76896,-1.352771 1.01457,-1.352772 1.01457,-3.339654 v -0.348762 q 0,-1.955177 -1.01457,-3.318517 -1.01458,-1.36334 -2.7901,-1.36334 -1.77551,0 -2.77952,1.36334 -1.00401,1.36334 -1.00401,3.318517 z"
           style="font-size:21.64434052px;line-height:22.43673515px;stroke-width:0.16233255px"
           id="path4805" />
        <path
           d="m 330.66228,50.87001 q 0,-2.737248 1.15197,-4.375369 1.16254,-1.64869 3.23397,-1.64869 1.21538,0 2.1137,0.528426 0.89833,0.517858 1.4796,1.479594 l 0.17966,-1.79665 h 1.02515 v 11.498556 q 0,2.187685 -1.20481,3.37136 -1.20482,1.183675 -3.41364,1.183675 -0.82434,0 -1.76494,-0.200802 -0.93003,-0.200802 -1.62755,-0.549564 l 0.24307,-1.067421 q 0.68696,0.338193 1.45846,0.507289 0.78207,0.179665 1.66983,0.179665 1.69096,0 2.52587,-0.866619 0.83492,-0.866619 0.83492,-2.557583 v -1.616984 q -0.58127,0.85605 -1.4796,1.321065 -0.88775,0.454447 -2.06086,0.454447 -2.05029,0 -3.21283,-1.532436 -1.15197,-1.532436 -1.15197,-4.09002 z m 1.26822,0.221939 q 0,2.071431 0.83492,3.29738 0.83491,1.225949 2.50474,1.225949 1.20481,0 2.01859,-0.538994 0.82434,-0.549564 1.27879,-1.500731 v -5.453359 q -0.43331,-0.961736 -1.23652,-1.564142 -0.79264,-0.612975 -2.03973,-0.612975 -1.66982,0 -2.51531,1.373909 -0.84548,1.373908 -0.84548,3.551024 z"
           style="font-size:21.64434052px;line-height:22.43673515px;stroke-width:0.16233255px"
           id="path4807" />
        <path
           d="m 350.64735,54.632405 q -0.54956,1.00401 -1.47959,1.543005 -0.91946,0.538995 -2.18768,0.538995 -1.80722,0 -2.83237,-1.225949 -1.02515,-1.225949 -1.02515,-3.804669 v -6.626466 h 1.26823 v 6.647603 q 0,2.092568 0.70809,3.001461 0.71866,0.908893 2.02915,0.908893 1.42676,0 2.27224,-0.634111 0.85605,-0.64468 1.20481,-1.754375 v -8.169471 h 1.26822 v 11.435145 h -1.12026 z"
           style="font-size:21.64434052px;line-height:22.43673515px;stroke-width:0.16233255px"
           id="path4809" />
        <path
           d="m 359.55663,56.714405 q -2.21939,0 -3.60387,-1.564142 -1.38448,-1.57471 -1.38448,-4.037177 v -0.581268 q 0,-2.473035 1.39505,-4.079451 1.40561,-1.606416 3.47704,-1.606416 2.082,0 3.21284,1.342202 1.1414,1.331635 1.1414,3.593299 v 0.982873 h -7.9581 v 0.348761 q 0,1.955178 0.98287,3.244538 0.99344,1.28936 2.73725,1.28936 1.04628,0 1.92347,-0.338193 0.87719,-0.348761 1.45846,-0.93003 l 0.53899,0.866619 q -0.60241,0.634111 -1.58528,1.056853 -0.9723,0.412172 -2.33564,0.412172 z M 359.44037,45.92394 q -1.45845,0 -2.39905,1.046284 -0.9406,1.046284 -1.09913,2.6527 l 0.0317,0.06341 h 6.55248 v -0.264213 q 0,-1.521867 -0.8032,-2.50474 -0.79264,-0.993442 -2.28281,-0.993442 z"
           style="font-size:21.64434052px;line-height:22.43673515px;stroke-width:0.16233255px"
           id="path4811" />
        <path
           d="m 166.25829,73.042532 q 0,-2.525878 1.38448,-4.142862 1.38447,-1.616984 3.66728,-1.616984 2.29337,0 3.67784,1.616984 1.38448,1.616984 1.38448,4.142862 v 0.348761 q 0,2.536447 -1.38448,4.153431 -1.37391,1.606416 -3.65671,1.606416 -2.30394,0 -3.68841,-1.606416 -1.38448,-1.616984 -1.38448,-4.153431 z m 1.26822,0.348761 q 0,1.986883 1.00401,3.339654 1.00401,1.352772 2.80066,1.352772 1.76495,0 2.76896,-1.352772 1.01457,-1.352771 1.01457,-3.339654 v -0.348761 q 0,-1.955177 -1.01457,-3.318517 -1.01458,-1.36334 -2.79009,-1.36334 -1.77552,0 -2.77953,1.36334 -1.00401,1.36334 -1.00401,3.318517 z"
           style="font-size:21.64434052px;line-height:22.43673515px;stroke-width:0.16233255px"
           id="path4813" />
        <path
           d="m 180.13476,67.494056 0.11626,1.986883 q 0.56013,-1.046284 1.49016,-1.616985 0.93003,-0.581268 2.20882,-0.581268 1.86006,0 2.83237,1.1414 0.9723,1.130833 0.9723,3.540456 v 6.964659 h -1.26822 v -6.95409 q 0,-1.965746 -0.7398,-2.779522 -0.72923,-0.813777 -2.082,-0.813777 -1.35277,0 -2.18768,0.665817 -0.82435,0.665817 -1.19425,1.786081 v 8.095491 H 179.0145 V 67.494056 Z"
           style="font-size:21.64434052px;line-height:22.43673515px;stroke-width:0.16233255px"
           id="path4815" />
        <path
           d="m 199.59142,75.832623 0.4016,1.36334 h 0.0634 l 3.45591,-9.701907 h 1.41619 l -4.96721,13.2635 q -0.44388,1.162538 -1.15197,1.976314 -0.70809,0.813776 -2.07143,0.813776 -0.22194,0 -0.539,-0.05284 -0.31705,-0.04227 -0.46501,-0.09512 l 0.14796,-1.056852 q 0.12682,0.02114 0.4016,0.04227 0.28535,0.03171 0.41217,0.03171 0.82435,0 1.32107,-0.591837 0.49672,-0.581269 0.84548,-1.500731 l 0.60241,-1.543005 -4.41765,-11.287185 h 1.40562 z"
           style="font-size:21.64434052px;line-height:22.43673515px;stroke-width:0.16233255px"
           id="path4817" />
        <path
           d="m 206.08049,73.042532 q 0,-2.525878 1.38448,-4.142862 1.38448,-1.616984 3.66728,-1.616984 2.29337,0 3.67785,1.616984 1.38447,1.616984 1.38447,4.142862 v 0.348761 q 0,2.536447 -1.38447,4.153431 -1.37391,1.606416 -3.65671,1.606416 -2.30394,0 -3.68842,-1.606416 -1.38448,-1.616984 -1.38448,-4.153431 z m 1.26823,0.348761 q 0,1.986883 1.00401,3.339654 1.00401,1.352772 2.80066,1.352772 1.76494,0 2.76895,-1.352772 1.01458,-1.352771 1.01458,-3.339654 v -0.348761 q 0,-1.955177 -1.01458,-3.318517 -1.01458,-1.36334 -2.79009,-1.36334 -1.77551,0 -2.77952,1.36334 -1.00401,1.36334 -1.00401,3.318517 z"
           style="font-size:21.64434052px;line-height:22.43673515px;stroke-width:0.16233255px"
           id="path4819" />
        <path
           d="m 226.31922,77.06914 q -0.54956,1.00401 -1.47959,1.543005 -0.91946,0.538995 -2.18769,0.538995 -1.80722,0 -2.83236,-1.225949 -1.02515,-1.225949 -1.02515,-3.804669 v -6.626466 h 1.26822 v 6.647603 q 0,2.092568 0.70809,3.001461 0.71866,0.908893 2.02916,0.908893 1.42675,0 2.27223,-0.634111 0.85606,-0.64468 1.20482,-1.754376 v -8.16947 h 1.26822 v 11.435145 h -1.12026 z"
           style="font-size:21.64434052px;line-height:22.43673515px;stroke-width:0.16233255px"
           id="path4821" />
        <path
           d="m 236.10568,68.582614 -0.89833,-0.06341 q -1.19424,0 -1.96574,0.676386 -0.76094,0.665817 -1.08856,1.838923 v 7.894689 h -1.26822 V 67.494056 h 1.10969 l 0.15853,1.902335 v 0.126822 q 0.49672,-1.056853 1.33163,-1.64869 0.83492,-0.591837 1.98689,-0.591837 0.2325,0 0.44388,0.04227 0.21137,0.03171 0.34876,0.07398 z"
           style="font-size:21.64434052px;line-height:22.43673515px;stroke-width:0.16233255px"
           id="path4823" />
        <path
           d="m 250.41546,76.001719 q 0,-0.803208 -0.66581,-1.395045 -0.65525,-0.602406 -2.37792,-0.982873 -2.02916,-0.422741 -3.0226,-1.151969 -0.98287,-0.739797 -0.98287,-2.060863 0,-1.310497 1.09912,-2.21939 1.1097,-0.908893 2.92749,-0.908893 1.9129,0 3.0543,0.972304 1.1414,0.961736 1.08856,2.377918 l -0.0211,0.06341 h -1.17311 q 0,-0.940598 -0.81377,-1.638121 -0.80321,-0.697523 -2.13484,-0.697523 -1.37391,0 -2.07144,0.602406 -0.69752,0.602406 -0.69752,1.405614 0,0.782071 0.59184,1.299929 0.60241,0.507289 2.38849,0.898324 2.00802,0.443878 3.03316,1.236518 1.03572,0.792639 1.03572,2.134842 0,1.426751 -1.16254,2.325076 -1.15197,0.887756 -3.0543,0.887756 -2.082,0 -3.27625,-0.993442 -1.18367,-0.993441 -1.12026,-2.367349 l 0.0211,-0.06341 h 1.16253 q 0.074,1.236517 1.00401,1.796649 0.9406,0.560132 2.20883,0.560132 1.3739,0 2.16654,-0.612975 0.79264,-0.612974 0.79264,-1.469025 z"
           style="font-size:21.64434052px;line-height:22.43673515px;stroke-width:0.16233255px"
           id="path4825" />
        <path
           d="m 255.67859,67.494056 0.11625,1.881198 q 0.54956,-0.993442 1.45846,-1.543005 0.91946,-0.549563 2.17711,-0.549563 1.3105,0 2.18769,0.634111 0.87719,0.623543 1.25765,1.912903 0.51786,-1.194243 1.46903,-1.870629 0.96173,-0.676385 2.31451,-0.676385 1.82835,0 2.82179,1.21538 1.00401,1.21538 1.00401,3.762395 v 6.66874 h -1.26822 v -6.689877 q 0,-2.113705 -0.75037,-2.980324 -0.75036,-0.877188 -2.07143,-0.877188 -1.44789,0 -2.24052,0.887756 -0.79264,0.877188 -1.00401,2.272233 0,0.116254 0,0.232508 0.0106,0.116254 0.0106,0.295919 v 6.858973 h -1.27879 v -6.689877 q 0,-2.071431 -0.76093,-2.959187 -0.75037,-0.898325 -2.07143,-0.898325 -1.33164,0 -2.12428,0.676386 -0.78207,0.665817 -1.09912,1.807218 v 8.063785 h -1.26823 V 67.494056 Z"
           style="font-size:21.64434052px;line-height:22.43673515px;stroke-width:0.16233255px"
           id="path4827" />
        <path
           d="m 281.03248,78.929201 q -0.11625,-0.602406 -0.17966,-1.035716 -0.0529,-0.433309 -0.0529,-0.887756 -0.59183,0.93003 -1.65925,1.543005 -1.06743,0.602406 -2.4519,0.602406 -1.6804,0 -2.61043,-0.887756 -0.91946,-0.898325 -0.91946,-2.430761 0,-1.532436 1.3422,-2.483604 1.34221,-0.951167 3.48762,-0.951167 h 2.81122 V 70.98167 q 0,-1.225949 -0.78207,-1.923472 -0.7715,-0.697523 -2.18768,-0.697523 -1.29993,0 -2.10314,0.634112 -0.79264,0.634111 -0.79264,1.595847 h -1.1731 l -0.0211,-0.06341 q -0.0634,-1.28936 1.09913,-2.261665 1.1731,-0.982872 3.0543,-0.982872 1.8812,0 3.0226,0.961735 1.1414,0.961736 1.1414,2.758386 v 5.622455 q 0,0.602406 0.0634,1.173107 0.074,0.5707 0.23251,1.130832 z m -4.20627,-0.898325 q 1.45846,0 2.52588,-0.686954 1.06742,-0.697523 1.44788,-1.786081 v -2.187685 h -2.82179 q -1.54301,0 -2.54702,0.739797 -1.00401,0.729228 -1.00401,1.764944 0,0.972304 0.63411,1.564142 0.64468,0.591837 1.76495,0.591837 z"
           style="font-size:21.64434052px;line-height:22.43673515px;stroke-width:0.16233255px"
           id="path4829" />
        <path
           d="m 290.63927,68.582614 -0.89833,-0.06341 q -1.19424,0 -1.96574,0.676386 -0.76094,0.665817 -1.08856,1.838923 v 7.894689 h -1.26822 V 67.494056 h 1.10969 l 0.15853,1.902335 v 0.126822 q 0.49672,-1.056853 1.33163,-1.64869 0.83492,-0.591837 1.98689,-0.591837 0.2325,0 0.44387,0.04227 0.21137,0.03171 0.34877,0.07398 z"
           style="font-size:21.64434052px;line-height:22.43673515px;stroke-width:0.16233255px"
           id="path4831" />
        <path
           d="m 294.9618,64.566574 v 2.927482 h 2.51531 v 1.035716 h -2.51531 v 7.45081 q 0,1.120264 0.4016,1.595848 0.41218,0.465015 1.08856,0.465015 0.23251,0 0.44388,-0.02114 0.22194,-0.03171 0.51786,-0.09512 l 0.19023,0.940599 q -0.25364,0.126822 -0.63411,0.200802 -0.3699,0.08455 -0.7398,0.08455 -1.20481,0 -1.88119,-0.760934 -0.66582,-0.760934 -0.66582,-2.409624 v -7.45081 h -1.97632 v -1.035716 h 1.97632 v -2.927482 z"
           style="font-size:21.64434052px;line-height:22.43673515px;stroke-width:0.16233255px"
           id="path4833" />
        <path
           d="m 309.16589,73.528684 q 0,2.568152 -1.16254,4.100588 -1.16253,1.521868 -3.20226,1.521868 -1.19424,0 -2.10314,-0.454447 -0.89832,-0.454446 -1.46902,-1.28936 v 5.918374 h -1.26822 V 67.494056 h 0.9723 l 0.23251,1.786081 q 0.5707,-0.951167 1.47959,-1.469025 0.90889,-0.528426 2.13484,-0.528426 2.06087,0 3.2234,1.64869 1.16254,1.638121 1.16254,4.375369 z m -1.26822,-0.221939 q 0,-2.177116 -0.86662,-3.551024 -0.86662,-1.373909 -2.53645,-1.373909 -1.25765,0 -2.06086,0.602406 -0.79264,0.602406 -1.20481,1.564142 v 5.537907 q 0.44388,0.930031 1.25765,1.469025 0.81378,0.528427 2.02916,0.528427 1.65926,0 2.51531,-1.247086 0.86662,-1.247086 0.86662,-3.307949 z"
           style="font-size:21.64434052px;line-height:22.43673515px;stroke-width:0.16233255px"
           id="path4835" />
        <path
           d="m 313.27705,69.438665 q 0.58127,-1.025147 1.52187,-1.585279 0.95117,-0.5707 2.21939,-0.5707 1.80722,0 2.76896,1.120263 0.9723,1.120264 0.9723,3.477045 v 7.049207 h -1.26822 v -7.070344 q 0,-1.86006 -0.7398,-2.663268 -0.72923,-0.813777 -2.01859,-0.813777 -1.33163,0 -2.19825,0.655249 -0.85605,0.64468 -1.25766,1.733238 v 8.158902 h -1.26822 v -16.4869 h 1.26822 z"
           style="font-size:21.64434052px;line-height:22.43673515px;stroke-width:0.16233255px"
           id="path4837" />
        <path
           d="m 323.34885,73.042532 q 0,-2.525878 1.38448,-4.142862 1.38448,-1.616984 3.66728,-1.616984 2.29337,0 3.67784,1.616984 1.38448,1.616984 1.38448,4.142862 v 0.348761 q 0,2.536447 -1.38448,4.153431 -1.3739,1.606416 -3.65671,1.606416 -2.30393,0 -3.68841,-1.606416 -1.38448,-1.616984 -1.38448,-4.153431 z m 1.26822,0.348761 q 0,1.986883 1.00401,3.339654 1.00401,1.352772 2.80066,1.352772 1.76495,0 2.76896,-1.352772 1.01458,-1.352771 1.01458,-3.339654 v -0.348761 q 0,-1.955177 -1.01458,-3.318517 -1.01458,-1.36334 -2.79009,-1.36334 -1.77552,0 -2.77953,1.36334 -1.00401,1.36334 -1.00401,3.318517 z"
           style="font-size:21.64434052px;line-height:22.43673515px;stroke-width:0.16233255px"
           id="path4839" />
        <path
           d="m 337.22533,67.494056 0.11626,1.986883 q 0.56013,-1.046284 1.49016,-1.616985 0.93003,-0.581268 2.20882,-0.581268 1.86006,0 2.83237,1.1414 0.9723,1.130833 0.9723,3.540456 v 6.964659 h -1.26822 v -6.95409 q 0,-1.965746 -0.7398,-2.779522 -0.72923,-0.813777 -2.082,-0.813777 -1.35277,0 -2.18768,0.665817 -0.82435,0.665817 -1.19425,1.786081 v 8.095491 h -1.26822 V 67.494056 Z"
           style="font-size:21.64434052px;line-height:22.43673515px;stroke-width:0.16233255px"
           id="path4841" />
        <path
           d="m 352.49684,79.15114 q -2.21939,0 -3.60386,-1.564142 -1.38448,-1.57471 -1.38448,-4.037177 v -0.581269 q 0,-2.473035 1.39505,-4.079451 1.40561,-1.606415 3.47704,-1.606415 2.082,0 3.21283,1.342202 1.1414,1.331635 1.1414,3.593299 v 0.982873 h -7.9581 v 0.348761 q 0,1.955177 0.98288,3.244538 0.99344,1.28936 2.73724,1.28936 1.04629,0 1.92348,-0.338193 0.87718,-0.348761 1.45845,-0.93003 l 0.539,0.866619 q -0.60241,0.634111 -1.58528,1.056852 -0.97231,0.412173 -2.33565,0.412173 z m -0.11625,-10.790465 q -1.45846,0 -2.39906,1.046284 -0.94059,1.046284 -1.09912,2.6527 l 0.0317,0.06341 h 6.55249 v -0.264213 q 0,-1.521868 -0.80321,-2.50474 -0.79264,-0.993442 -2.2828,-0.993442 z"
           style="font-size:21.64434052px;line-height:22.43673515px;stroke-width:0.16233255px"
           id="path4843" />
      </g>
      <g
         aria-label="Web Opac App"
         style="font-style:normal;font-variant:normal;font-weight:300;font-stretch:normal;font-size:3.11265063px;line-height:5.83622026px;font-family:Roboto;-inkscape-font-specification:'Roboto, Light';font-variant-ligatures:normal;font-variant-caps:normal;font-variant-numeric:normal;font-feature-settings:normal;text-align:start;letter-spacing:0px;word-spacing:0px;writing-mode:lr-tb;text-anchor:start;fill:#000000;fill-opacity:1;stroke:none;stroke-width:0.2334488px;stroke-linecap:butt;stroke-linejoin:miter;stroke-opacity:1"
         id="text4547">
        <path
           d="m 171.73125,20.745625 0.68393,3.571646 h 0.0912 l 0.77513,-3.571646 4.62034,-15.776034 h 1.83902 l 4.63554,15.776034 0.74472,3.586844 h 0.0912 l 0.72953,-3.586844 3.90601,-15.776034 h 1.97581 l -5.66904,22.129004 h -1.73263 l -5.0003,-16.976715 -0.54715,-2.3861635 h -0.0912 l -0.51675,2.3861635 -5.0611,16.976715 h -1.73262 L 165.80384,4.969591 h 1.9758 z"
           style="font-size:31.12651062px;line-height:30.3483429px;fill:#d50000;fill-opacity:1;stroke-width:0.2334488px"
           id="path4754" />
        <path
           d="m 200.74517,27.417763 q -3.19168,0 -5.18268,-2.249377 -1.99101,-2.264575 -1.99101,-5.805824 v -0.835917 q 0,-3.556447 2.0062,-5.866617 2.0214,-2.310171 5.00031,-2.310171 2.9941,0 4.62034,1.930208 1.64144,1.91501 1.64144,5.167488 v 1.413459 H 195.3953 v 0.50155 q 0,2.811721 1.41346,4.665937 1.42866,1.854216 3.93641,1.854216 1.50465,0 2.76613,-0.486351 1.26147,-0.501551 2.09739,-1.337468 l 0.77512,1.246277 q -0.86631,0.911909 -2.27977,1.519849 -1.39826,0.592741 -3.35887,0.592741 z m -0.16718,-15.51766 q -2.09739,0 -3.45006,1.504651 -1.35267,1.50465 -1.58064,3.814821 l 0.0456,0.09119 h 9.42307 v -0.379962 q 0,-2.188583 -1.15509,-3.602043 -1.13989,-1.428658 -3.28287,-1.428658 z"
           style="font-size:31.12651062px;line-height:30.3483429px;fill:#d50000;fill-opacity:1;stroke-width:0.2334488px"
           id="path4756" />
        <path
           d="m 223.80128,19.332166 q 0,3.693233 -1.67183,5.897014 -1.67184,2.188583 -4.60515,2.188583 -1.79342,0 -3.11569,-0.714329 -1.30707,-0.729528 -2.12778,-2.066995 l -0.30397,2.462156 H 210.5482 V 3.3889479 h 1.82382 v 9.7878281 q 0.82071,-1.352665 2.09739,-2.082193 1.27667,-0.744726 3.0245,-0.744726 2.9637,0 4.63554,2.370965 1.67183,2.355766 1.67183,6.292175 z m -1.83902,-0.319169 q 0,-3.146088 -1.21588,-5.106693 -1.21587,-1.975804 -3.60204,-1.975804 -1.88461,0 -3.0397,0.927108 -1.15508,0.91191 -1.73262,2.370965 v 7.523253 q 0.60794,1.428658 1.79342,2.264575 1.20068,0.820719 3.0093,0.820719 2.38616,0 3.58684,-1.763025 1.20068,-1.763025 1.20068,-4.741929 z"
           style="font-size:31.12651062px;line-height:30.3483429px;fill:#d50000;fill-opacity:1;stroke-width:0.2334488px"
           id="path4758" />
        <path
           d="m 252.13127,17.842713 q 0,4.285975 -2.35576,6.930512 -2.34057,2.644538 -6.29218,2.644538 -3.89081,0 -6.21618,-2.644538 -2.31017,-2.644537 -2.31017,-6.930512 v -3.602042 q 0,-4.2707763 2.31017,-6.9305123 2.31017,-2.659736 6.20098,-2.659736 3.95161,0 6.30738,2.659736 2.35576,2.659736 2.35576,6.9305123 z m -1.80862,-3.632439 q 0,-3.586844 -1.82382,-5.7754269 -1.80862,-2.1885828 -5.0307,-2.1885828 -3.16128,0 -4.92431,2.1885828 -1.76302,2.1885829 -1.76302,5.7754269 v 3.632439 q 0,3.617241 1.76302,5.805824 1.77823,2.188583 4.93951,2.188583 3.23728,0 5.0307,-2.173384 1.80862,-2.188583 1.80862,-5.821023 z"
           style="font-size:31.12651062px;line-height:30.3483429px;fill:#d50000;fill-opacity:1;stroke-width:0.2334488px"
           id="path4760" />
        <path
           d="m 269.68553,19.332166 q 0,3.693233 -1.67184,5.897014 -1.67183,2.188583 -4.60514,2.188583 -1.71743,0 -3.0245,-0.653535 -1.29187,-0.653535 -2.11259,-1.854216 v 8.511155 h -1.82382 v -22.76734 h 1.39826 l 0.33437,2.568545 q 0.82072,-1.367864 2.12779,-2.11259 1.30707,-0.759925 3.07009,-0.759925 2.96371,0 4.63554,2.370965 1.67184,2.355766 1.67184,6.292175 z m -1.82382,-0.319169 q 0,-3.130889 -1.24628,-5.106693 -1.24627,-1.975804 -3.64764,-1.975804 -1.80862,0 -2.9637,0.866314 -1.13989,0.866314 -1.73263,2.249377 V 23.0102 q 0.63834,1.337468 1.80862,2.112591 1.17028,0.759924 2.91811,0.759924 2.38616,0 3.61724,-1.793422 1.24628,-1.793422 1.24628,-4.757127 z"
           style="font-size:31.12651062px;line-height:30.3483429px;fill:#d50000;fill-opacity:1;stroke-width:0.2334488px"
           id="path4762" />
        <path
           d="m 284.18489,27.098595 q -0.16719,-0.866314 -0.25838,-1.489453 -0.076,-0.623138 -0.076,-1.276673 -0.85112,1.337467 -2.38616,2.21898 -1.53505,0.866314 -3.52605,0.866314 -2.41656,0 -3.75403,-1.276673 -1.32227,-1.291872 -1.32227,-3.495653 0,-2.203782 1.93021,-3.571646 1.93021,-1.367864 5.0155,-1.367864 h 4.0428 v -2.036598 q 0,-1.763025 -1.12469,-2.766125 -1.10949,-1.003101 -3.14609,-1.003101 -1.86941,0 -3.0245,0.91191 -1.13988,0.911909 -1.13988,2.294972 h -1.68704 l -0.0304,-0.09119 q -0.0912,-1.854216 1.58064,-3.252477 1.68703,-1.41346 4.39236,-1.41346 2.70534,0 4.34677,1.383063 1.64144,1.383062 1.64144,3.966806 v 8.085598 q 0,0.866314 0.0912,1.687032 0.10639,0.820719 0.33437,1.626239 z m -6.049,-1.291872 q 2.09739,0 3.63244,-0.987902 1.53504,-1.003101 2.08219,-2.568545 v -3.146088 h -4.058 q -2.21898,0 -3.66283,1.063895 -1.44386,1.048695 -1.44386,2.538148 0,1.398261 0.91191,2.249376 0.92711,0.851116 2.53815,0.851116 z"
           style="font-size:31.12651062px;line-height:30.3483429px;fill:#d50000;fill-opacity:1;stroke-width:0.2334488px"
           id="path4764" />
        <path
           d="m 296.51087,25.882715 q 1.74783,0 3.08529,-1.033497 1.35267,-1.033498 1.35267,-2.872515 h 1.62624 l 0.0304,0.09119 q 0.0608,2.279774 -1.79342,3.814821 -1.85421,1.535048 -4.30117,1.535048 -3.28288,0 -5.12189,-2.310171 -1.82382,-2.31017 -1.82382,-5.912213 v -0.638337 q 0,-3.586844 1.82382,-5.897014 1.82382,-2.310171 5.10669,-2.310171 2.64454,0 4.40756,1.595842 1.76303,1.595841 1.70223,4.194783 l -0.0304,0.09119 h -1.62624 q 0,-1.975804 -1.29187,-3.146088 -1.29188,-1.185482 -3.16129,-1.185482 -2.58374,0 -3.84522,1.899812 -1.26147,1.899811 -1.26147,4.757127 v 0.638337 q 0,2.902912 1.26147,4.802723 1.26148,1.884613 3.86042,1.884613 z"
           style="font-size:31.12651062px;line-height:30.3483429px;fill:#d50000;fill-opacity:1;stroke-width:0.2334488px"
           id="path4766" />
        <path
           d="m 326.14792,20.928007 h -9.71184 l -2.23418,6.170588 h -1.88461 l 8.13119,-22.129004 h 1.71743 l 8.0704,22.129004 h -1.88461 z m -9.1343,-1.626238 h 8.54155 L 321.36039,7.5685331 h -0.0912 z"
           style="font-size:31.12651062px;line-height:30.3483429px;fill:#d50000;fill-opacity:1;stroke-width:0.2334488px"
           id="path4768" />
        <path
           d="m 346.4683,19.332166 q 0,3.693233 -1.67183,5.897014 -1.67183,2.188583 -4.60514,2.188583 -1.71743,0 -3.0245,-0.653535 -1.29188,-0.653535 -2.11259,-1.854216 v 8.511155 h -1.82382 v -22.76734 h 1.39826 l 0.33437,2.568545 q 0.82071,-1.367864 2.12778,-2.11259 1.30707,-0.759925 3.0701,-0.759925 2.96371,0 4.63554,2.370965 1.67183,2.355766 1.67183,6.292175 z m -1.82382,-0.319169 q 0,-3.130889 -1.24627,-5.106693 -1.24628,-1.975804 -3.64764,-1.975804 -1.80862,0 -2.96371,0.866314 -1.13988,0.866314 -1.73262,2.249377 V 23.0102 q 0.63833,1.337468 1.80862,2.112591 1.17028,0.759924 2.91811,0.759924 2.38616,0 3.61724,-1.793422 1.24627,-1.793422 1.24627,-4.757127 z"
           style="font-size:31.12651062px;line-height:30.3483429px;fill:#d50000;fill-opacity:1;stroke-width:0.2334488px"
           id="path4770" />
        <path
           d="m 363.79458,19.332166 q 0,3.693233 -1.67183,5.897014 -1.67184,2.188583 -4.60514,2.188583 -1.71743,0 -3.0245,-0.653535 -1.29188,-0.653535 -2.11259,-1.854216 v 8.511155 h -1.82382 v -22.76734 h 1.39826 l 0.33436,2.568545 q 0.82072,-1.367864 2.12779,-2.11259 1.30707,-0.759925 3.0701,-0.759925 2.9637,0 4.63554,2.370965 1.67183,2.355766 1.67183,6.292175 z m -1.82382,-0.319169 q 0,-3.130889 -1.24627,-5.106693 -1.24628,-1.975804 -3.64764,-1.975804 -1.80862,0 -2.96371,0.866314 -1.13988,0.866314 -1.73262,2.249377 V 23.0102 q 0.63833,1.337468 1.80862,2.112591 1.17028,0.759924 2.91811,0.759924 2.38616,0 3.61724,-1.793422 1.24627,-1.793422 1.24627,-4.757127 z"
           style="font-size:31.12651062px;line-height:30.3483429px;fill:#d50000;fill-opacity:1;stroke-width:0.2334488px"
           id="path4772" />
      </g>
    </g>
  </g>
</svg>
