<?xml version="1.0" encoding="UTF-8" standalone="no"?>
<!-- Created with Inkscape (http://www.inkscape.org/) -->

<svg
   xmlns:svg="http://www.w3.org/2000/svg"
   xmlns="http://www.w3.org/2000/svg"
   width="546.13336"
   height="546.13336"
   id="svg2"
   version="1.1"
   viewBox="0 0 512 512">
  <defs
     id="defs4">
    <linearGradient
       id="linearGradient3873"
       gradientUnits="userSpaceOnUse"
       x1="276.63446"
       y1="1051.9308"
       x2="276.63446"
       y2="541.80371"
       gradientTransform="matrix(0.9765625,0,0,0.9765625,6,18.664736)" />
    <linearGradient
       id="linearGradient3845">
      <stop
         style="stop-color:#ffffff;stop-opacity:1;"
         offset="0"
         id="stop3847" />
      <stop
         id="stop3855"
         offset="0.5"
         style="stop-color:#dcdcdc;stop-opacity:1;" />
      <stop
         style="stop-color:#ffffff;stop-opacity:1;"
         offset="1"
         id="stop3849" />
    </linearGradient>
    <clipPath
       clipPathUnits="userSpaceOnUse"
       id="clipPath4751">
      <path
         d="M 0,0 H 841.89 V 595.276 H 0 Z"
         id="path4749" />
    </clipPath>
  </defs>
  <g
     id="layer1"
     transform="translate(0,-540.36218)">
    <path
       style="fill:#d91920;fill-opacity:1;fill-rule:nonzero;stroke:none"
       d="M 54.828125,546.36218 H 457.17187 c 27.05079,0 48.82813,21.77735 48.82813,48.82813 v 402.34375 c 0,27.05074 -21.77734,48.82814 -48.82813,48.82814 H 54.828125 C 27.777344,1046.3622 6,1024.5848 6,997.53406 V 595.19031 c 0,-27.05078 21.777344,-48.82813 48.828125,-48.82813 z"
       id="rect2992" />
    <path
       style="fill:#ffffff;fill-opacity:1;fill-rule:nonzero;stroke:none;stroke-width:0.19656417"
       d="m 56.76955,885.81046 v 67.86628 h 32.880907 c 8.456186,0 21.243533,-3.65061 21.243533,-18.74434 0,-11.34397 -7.01784,-15.38635 -12.401754,-17.01818 6.345104,-1.82604 10.383444,-7.78474 10.383444,-14.7075 0,-11.34175 -9.808958,-17.39626 -19.517257,-17.39626 z m 8.558402,7.97896 h 22.394355 c 8.460145,0 11.633083,4.32501 11.633083,9.89822 0,9.51719 -7.882921,10.66661 -13.939057,10.66661 H 65.327952 Z m 0,28.25597 H 87.62786 c 8.171145,0 13.93906,4.04164 13.93906,12.2126 0,10.38286 -7.59274,11.44423 -14.226765,11.44423 H 65.327952 Z"
       id="path6002" />
    <path
       style="fill:#ffffff;fill-opacity:1;fill-rule:nonzero;stroke:none;stroke-width:0.19656417"
       d="m 129.5414,885.80861 h -7.40262 v 8.84389 h 7.40262 z"
       id="path5996" />
    <path
       style="fill:#ffffff;fill-opacity:1;fill-rule:nonzero;stroke:none;stroke-width:0.19656417"
       d="m 129.5414,908.39962 h -7.40262 v 45.27897 h 7.40262 z"
       id="path5994" />
    <path
       style="fill:#ffffff;fill-opacity:1;fill-rule:nonzero;stroke:none;stroke-width:0.19656417"
       d="m 141.74801,885.81046 v 67.86628 h 7.69525 v -5.86177 c 2.11304,2.78716 6.72499,7.30455 15.4721,7.30455 14.03665,0 20.95579,-10.76908 20.95579,-24.12925 0,-15.18954 -9.132,-24.03047 -20.85705,-24.03047 -6.06006,0 -12.01501,2.39983 -15.57084,7.69077 v -28.84011 z m 21.92201,28.16607 c 7.49696,0 14.0335,5.56989 14.0335,16.33933 0,14.51662 -8.0737,18.26341 -14.0335,18.26341 -10.96241,0 -14.42431,-9.6093 -14.42431,-17.39589 0,-13.36645 8.26988,-17.20685 14.42431,-17.20685 z"
       id="path5992" />
    <path
       style="fill:#ffffff;fill-opacity:1;fill-rule:nonzero;stroke:none;stroke-width:0.19656417"
       d="m 203.27263,885.80861 h -7.30433 v 67.86998 h 7.30433 z"
       id="path5988" />
    <path
       style="fill:#ffffff;fill-opacity:1;fill-rule:nonzero;stroke:none;stroke-width:0.19656417"
       d="m 223.55804,885.80861 h -7.40262 v 8.84389 h 7.40262 z"
       id="path5986" />
    <path
       style="fill:#ffffff;fill-opacity:1;fill-rule:nonzero;stroke:none;stroke-width:0.19656417"
       d="m 223.55804,908.39962 h -7.40262 v 45.27897 h 7.40262 z"
       id="path5984" />
    <path
       style="fill:#ffffff;fill-opacity:1;fill-rule:nonzero;stroke:none;stroke-width:0.19656417"
       d="m 256.24066,906.9598 c -19.60927,0 -22.87965,16.821 -22.87965,24.12925 0,15.57391 9.51526,24.03047 22.20546,24.03047 12.11227,0 22.20972,-8.26604 22.20972,-24.5114 0,-16.25054 -10.96038,-23.64832 -21.53553,-23.64832 z m -0.0947,6.14922 c 10.28623,0 13.36365,9.12874 13.36365,16.9194 0,11.72686 -4.80913,18.93744 -14.03783,18.93744 -12.11228,0 -13.7458,-12.11308 -13.7458,-17.49466 0,-2.88557 0.0962,-18.36218 14.41998,-18.36218 z"
       id="path5982" />
    <path
       style="fill:#ffffff;fill-opacity:1;fill-rule:nonzero;stroke:none;stroke-width:0.19656417"
       d="m 298.34679,914.74121 h 8.16918 v -6.34159 h -8.16918 v -14.32535 h -7.88422 v 14.32535 h -7.30432 v 6.34159 h 7.30432 v 31.53331 c 0,5.19106 1.25212,8.17281 8.74908,8.17281 2.9799,0 6.63402,-0.67441 7.30432,-0.76874 v -6.34307 c -2.11304,0.76505 -3.93913,1.0536 -4.80794,1.0536 -2.40005,0 -3.36124,-1.24782 -3.36124,-4.51702 z"
       id="path5978" />
    <path
       style="fill:#ffffff;fill-opacity:1;fill-rule:nonzero;stroke:none;stroke-width:0.19656417"
       d="m 353.71694,953.67859 v -29.32327 c 0,-7.59162 -2.49834,-17.39589 -16.24407,-17.39589 -3.17256,0 -8.55644,0.38141 -13.74772,6.05414 v -27.20496 h -7.69155 v 67.86998 h 7.69155 v -22.49521 c 0,-3.94397 0,-8.17503 2.11309,-11.82897 2.98186,-5.0908 8.17118,-5.6668 10.09556,-5.6668 4.13372,0 7.68955,1.92297 9.13037,5.95795 0.77252,2.21116 0.86685,5.00054 0.86685,7.50062 v 26.53241 z"
       id="path5976" />
    <path
       style="fill:#ffffff;fill-opacity:1;fill-rule:nonzero;stroke:none;stroke-width:0.19656417"
       d="m 385.44103,906.9598 c -9.42133,0 -21.91772,6.43888 -21.91772,23.64832 0,17.87719 11.05435,24.5114 22.20543,24.5114 15.18854,0 19.41738,-12.11272 20.4749,-15.28758 l -7.78544,-1.05619 c -0.96319,4.13302 -3.94028,10.57671 -11.92079,10.57671 -10.86412,0 -14.70769,-9.32297 -14.70769,-16.34414 v -0.57527 h 34.41392 v -1.24967 c 0,-17.59418 -10.86168,-24.22358 -20.76261,-24.22358 z m -0.57541,5.9561 c 7.69155,0 12.97717,6.43814 12.97713,13.93877 h -25.86414 c 0.67619,-7.20985 4.71583,-13.93877 12.88701,-13.93877 z"
       id="path5974" />
    <path
       style="fill:#ffffff;fill-opacity:1;fill-rule:nonzero;stroke:none;stroke-width:0.19656417"
       d="m 455.23047,953.67859 -20.66676,-27.40067 16.82004,-17.8783 h -9.41937 l -18.07015,19.22675 v -41.81776 h -7.78789 v 67.86998 h 7.78789 v -15.9594 l 5.4802,-5.76706 16.24015,21.72646 h 9.61589"
       id="path5643" />
    <path
       id="path4755"
       style="fill:#ffffff;fill-opacity:1;fill-rule:nonzero;stroke:none;stroke-width:1.24999988"
       d="m 326.29109,637.27947 -0.43,24.4225 c -49.0825,-13.165 -106.09749,15.87375 -106.09749,15.87375 l -8.8875,-22.295 c 61.63499,-29.12 115.15624,-18.0125 115.15624,-18.0125 z m -3.5225,201.86748 c -8.535,4.085 -72.08249,40.1025 -120.25999,-7.635 -22.24249,-22.03749 -24.28374,-63.74749 5.33875,-91.38999 16.08375,-15.01 33.4725,-21.605 51.54875,-24.82125 24.16624,-4.3 42.62374,-2.50875 65.51124,1.1425 l -0.4125,23.43625 c -55.01625,-9.42625 -83.39749,7.1725 -94.14499,16.75125 -23.5025,20.945 -26.86375,56.17875 12.76875,70.54624 0,0 32.85624,16.035 80.11249,-14.71749 l -0.46625,26.68749 z" />
  </g>
</svg>
