<?xml version="1.0" encoding="UTF-8" standalone="no"?>
<!-- Created with Inkscape (http://www.inkscape.org/) -->

<svg
   xmlns:dc="http://purl.org/dc/elements/1.1/"
   xmlns:cc="http://creativecommons.org/ns#"
   xmlns:rdf="http://www.w3.org/1999/02/22-rdf-syntax-ns#"
   xmlns:svg="http://www.w3.org/2000/svg"
   xmlns="http://www.w3.org/2000/svg"
   xmlns:xlink="http://www.w3.org/1999/xlink"
   xmlns:sodipodi="http://sodipodi.sourceforge.net/DTD/sodipodi-0.dtd"
   xmlns:inkscape="http://www.inkscape.org/namespaces/inkscape"
   width="512"
   height="512"
   id="svg2"
   version="1.1"
   inkscape:version="0.48.4 r9939"
   sodipodi:docname="ic_launcher.svg">
  <defs
     id="defs4">
    <linearGradient
       id="linearGradient4495">
      <stop
         id="stop4497"
         offset="0"
         style="stop-color:#fcd858;stop-opacity:1;" />
      <stop
         style="stop-color:#fccc23;stop-opacity:1;"
         offset="0.5"
         id="stop4499" />
      <stop
         id="stop4501"
         offset="1"
         style="stop-color:#fcd858;stop-opacity:1;" />
    </linearGradient>
    <linearGradient
       id="linearGradient3845">
      <stop
         style="stop-color:#fcd13a;stop-opacity:1;"
         offset="0"
         id="stop3847" />
      <stop
         id="stop3855"
         offset="0.5"
         style="stop-color:#dead04;stop-opacity:1;" />
      <stop
         style="stop-color:#fcd13a;stop-opacity:1;"
         offset="1"
         id="stop3849" />
    </linearGradient>
    <linearGradient
       inkscape:collect="always"
       xlink:href="#linearGradient3845"
       id="linearGradient3853"
       x1="276.63446"
       y1="1051.9308"
       x2="276.63446"
       y2="541.80371"
       gradientUnits="userSpaceOnUse" />
    <linearGradient
       inkscape:collect="always"
       xlink:href="#linearGradient3845"
       id="linearGradient3865"
       gradientUnits="userSpaceOnUse"
       x1="276.63446"
       y1="1051.9308"
       x2="276.63446"
       y2="541.80371" />
    <linearGradient
       inkscape:collect="always"
       xlink:href="#linearGradient3845"
       id="linearGradient3873"
       gradientUnits="userSpaceOnUse"
       x1="276.63446"
       y1="1051.9308"
       x2="276.63446"
       y2="541.80371"
       gradientTransform="matrix(0.9765625,0,0,0.9765625,6,18.664736)" />
    <clipPath
       clipPathUnits="userSpaceOnUse"
       id="clipPath3158">
      <path
         inkscape:connector-curvature="0"
         d="m 141.719,151.719 2551.17,0 0,2551.17 -2551.17,0 0,-2551.17 z"
         id="path3160" />
    </clipPath>
    <linearGradient
       inkscape:collect="always"
       xlink:href="#linearGradient3845"
       id="linearGradient4484"
       gradientUnits="userSpaceOnUse"
       gradientTransform="matrix(0.9765625,0,0,0.9765625,-562.57143,88.664736)"
       x1="276.63446"
       y1="1051.9308"
       x2="276.63446"
       y2="541.80371" />
    <linearGradient
       inkscape:collect="always"
       xlink:href="#linearGradient4495"
       id="linearGradient4493"
       x1="260.28571"
       y1="-1.1428555"
       x2="266"
       y2="512.13959"
       gradientUnits="userSpaceOnUse" />
  </defs>
  <sodipodi:namedview
     id="base"
     pagecolor="#ffffff"
     bordercolor="#666666"
     borderopacity="1.0"
     inkscape:pageopacity="0.0"
     inkscape:pageshadow="2"
     inkscape:zoom="0.7"
     inkscape:cx="50.626615"
     inkscape:cy="298.72216"
     inkscape:document-units="px"
     inkscape:current-layer="layer1"
     showgrid="false"
     inkscape:window-width="1916"
     inkscape:window-height="1041"
     inkscape:window-x="1920"
     inkscape:window-y="18"
     inkscape:window-maximized="0" />
  <metadata
     id="metadata7">
    <rdf:RDF>
      <cc:Work
         rdf:about="">
        <dc:format>image/svg+xml</dc:format>
        <dc:type
           rdf:resource="http://purl.org/dc/dcmitype/StillImage" />
        <dc:title />
      </cc:Work>
    </rdf:RDF>
  </metadata>
  <g
     inkscape:label="Ebene 1"
     inkscape:groupmode="layer"
     id="layer1"
     transform="translate(0,-540.36218)">
    <path
       style="fill:url(#linearGradient4493);fill-opacity:1;fill-rule:nonzero;stroke:none"
       d="M 54.8125 6 C 27.761719 6 6 27.79297 6 54.84375 L 6 457.1875 C 6 484.23824 27.761719 506 54.8125 506 L 457.15625 506 C 484.20704 506 506 484.23824 506 457.1875 L 506 54.84375 C 506 27.79297 484.20704 6 457.15625 6 L 54.8125 6 z "
       transform="translate(0,540.36218)"
       id="path3130" />
    <path
       id="path3132"
       style="fill:#fee564;fill-opacity:1;fill-rule:nonzero;stroke:none"
       d="m 110.67249,1026.7498 21.40731,0 0,-153.58446 -21.40731,0 0,153.58446 z"
       inkscape:connector-curvature="0" />
    <path
       id="path3134"
       style="fill:#fee564;fill-opacity:1;fill-rule:nonzero;stroke:none"
       d="m 174.87799,719.56624 21.40731,0 0,-153.60633 -21.40731,0 0,153.60633 z"
       inkscape:connector-curvature="0" />
    <path
       id="path3136"
       style="fill:#fff200;fill-opacity:1;fill-rule:nonzero;stroke:none"
       d="m 196.28549,1026.5099 42.80595,0 0,-153.34438 -42.80595,0 0,153.34438 z"
       inkscape:connector-curvature="0" />
    <path
       id="path3138"
       style="fill:#fff200;fill-opacity:1;fill-rule:nonzero;stroke:none"
       d="m 346.10959,719.56624 42.79819,0 0,-153.60633 -42.79819,0 0,153.60633 z"
       inkscape:connector-curvature="0" />
    <path
       id="path3140"
       style="fill:#3871c1;fill-opacity:1;fill-rule:nonzero;stroke:none"
       d="m 303.30399,719.30434 21.40009,0 0,-153.34443 -21.40009,0 0,153.34443 z"
       inkscape:connector-curvature="0" />
    <path
       id="path3142"
       style="fill:#f89c0e;fill-opacity:1;fill-rule:nonzero;stroke:none"
       d="m 239.09108,1026.5099 21.40009,0 0,-153.34438 -21.40009,0 0,153.34438 z"
       inkscape:connector-curvature="0" />
    <path
       id="path3144"
       style="fill:#f9a72b;fill-opacity:1;fill-rule:nonzero;stroke:none"
       d="m 388.90796,719.56624 21.40731,0 0,-153.60633 -21.40731,0 0,153.60633 z"
       inkscape:connector-curvature="0" />
    <path
       id="path3146"
       style="fill:#fffa94;fill-opacity:1;fill-rule:nonzero;stroke:none"
       d="m 324.70408,873.15811 21.40731,0 0,-153.59928 -21.40731,0 0,153.59928 z"
       inkscape:connector-curvature="0" />
    <path
       id="path3148"
       style="fill:#fffa94;fill-opacity:1;fill-rule:nonzero;stroke:none"
       d="m 25.597562,873.15811 20.871047,0 0,-153.59928 -20.871047,0 0,153.59928 z"
       inkscape:connector-curvature="0" />
    <path
       id="path3150"
       style="fill:#fee564;fill-opacity:1;fill-rule:nonzero;stroke:none"
       d="m 388.90796,1026.7646 21.40731,0 0,-153.59926 -21.40731,0 0,153.59926 z"
       inkscape:connector-curvature="0" />
    <path
       id="path3152"
       style="fill:#ed1c24;fill-opacity:1;fill-rule:nonzero;stroke:none"
       d="m 431.72258,719.56624 21.40009,0 0,-153.60633 -21.40009,0 0,153.60633 z"
       inkscape:connector-curvature="0" />
    <g
       id="g3154"
       transform="matrix(0.18062195,0,0,-0.18062195,0,1054.1684)">
      <g
         clip-path="url(#clipPath3158)"
         id="g3156">
        <path
           id="path3162"
           style="fill:#231f20;fill-opacity:1;fill-rule:nonzero;stroke:none"
           d="m 1105.39,1507.89 c -3.87,2.78 -6.09,6.41 -6.09,10.82 0,6.1 4.72,11.64 11.91,11.64 2.77,0 5.55,-1.09 7.77,-2.5 13.6,-8.55 28.83,-14.68 46.84,-14.68 26.64,0 42.15,12.77 42.15,32.18 0,16.06 -8.87,26.06 -39.38,30.75 l -9.14,1.4 c -37.97,5.82 -55.7,22.74 -55.7,52.38 0,33.56 23.83,54.93 61.52,54.93 20.24,0 38.56,-5.82 49.93,-12.78 4.72,-3.04 6.64,-6.64 6.64,-10.82 0,-6.09 -4.73,-11.05 -11.1,-11.05 -2.5,0 -5.54,1.09 -8.01,2.19 -11.95,5.27 -24.41,9.45 -38.28,9.45 -23.83,0 -35.78,-13.05 -35.78,-30.51 0,-15.82 9.73,-25.78 39.1,-30.23 l 9.14,-1.37 c 38.01,-5.82 56.02,-22.74 56.02,-52.97 0,-32.69 -23.28,-56.56 -69.02,-56.56 -24.42,0 -45.2,8.59 -58.52,17.73"
           inkscape:connector-curvature="0" />
        <path
           id="path3164"
           style="fill:#231f20;fill-opacity:1;fill-rule:nonzero;stroke:none"
           d="m 1293.71,1491.84 c -27.19,0 -37.15,11.36 -37.15,39.06 l 0,74.61 c 0,1.09 -0.54,1.64 -1.68,1.64 l -7.46,0 c -6.4,0 -10,3.91 -10,9.45 0,5.55 3.6,9.42 10,9.42 l 7.46,0 c 1.14,0 1.68,0.54 1.68,1.64 l 0,29.14 c 0,7.77 5,12.46 11.64,12.46 6.64,0 11.64,-4.69 11.64,-12.46 l 0,-29.14 c 0,-1.1 0.55,-1.64 1.68,-1.64 l 17.46,0 c 6.37,0 9.97,-3.87 9.97,-9.42 0,-5.54 -3.6,-9.45 -9.97,-9.45 l -17.46,0 c -1.13,0 -1.68,-0.55 -1.68,-1.64 l 0,-73.75 c 0,-14.14 3.6,-18.32 17.74,-18.32 7.22,0 11.37,-4.41 11.37,-10.82 0,-6.37 -4.15,-10.78 -12.47,-10.78"
           inkscape:connector-curvature="0" />
        <path
           id="path3166"
           style="fill:#231f20;fill-opacity:1;fill-rule:nonzero;stroke:none"
           d="m 1406.68,1536.17 0,14.73 c 0,1.09 -0.55,1.64 -1.68,1.64 l -26.6,0 c -22.74,0 -33.01,-6.64 -33.01,-21.64 0,-13.83 10,-20.78 27.73,-20.78 20.51,0 33.56,9.73 33.56,26.05 m 31.6,-33.24 c 0,-6.4 -5,-11.09 -11.91,-11.09 -4.18,0 -7.5,1.91 -10.28,5.82 l -5.27,8.32 -0.27,0 c -8.87,-10 -21.33,-15.82 -40.75,-15.82 -29.68,0 -46.87,14.69 -46.87,39.92 0,27.46 18.87,41.05 51.87,41.05 l 30.2,0 c 1.13,0 1.68,0.55 1.68,1.64 l 0,6.37 c 0,18.6 -8.59,29.14 -31.88,29.14 -10.27,0 -20.82,-3.32 -27.18,-6.68 -2.23,-1.09 -4.73,-1.91 -6.64,-1.91 -6.14,0 -10,3.87 -10,9.96 0,3.63 1.68,7.23 5.54,9.45 8.32,5.51 22.19,9.96 40.47,9.96 35.51,0 52.15,-16.91 52.15,-49.61 l 0,-47.69 c 0,-6.95 0.55,-9.73 2.46,-13.59 l 4.73,-8.6 c 1.09,-1.95 1.95,-4.45 1.95,-6.64"
           inkscape:connector-curvature="0" />
        <path
           id="path3168"
           style="fill:#231f20;fill-opacity:1;fill-rule:nonzero;stroke:none"
           d="m 1538.01,1532.58 c 2.5,7.23 3.04,15.55 3.04,27.19 0,11.36 -0.54,19.65 -3.04,26.87 -4.46,13.32 -14.42,20.82 -29.38,20.82 -14.72,0 -24.68,-7.5 -29.14,-20.82 -2.5,-7.22 -3.04,-15.51 -3.04,-26.87 0,-11.64 0.54,-19.96 3.04,-27.19 4.46,-13.32 14.42,-20.78 29.14,-20.78 14.96,0 24.92,7.46 29.38,20.78 m 3.04,-28.28 0,3.63 -0.27,0 c -6.37,-10.55 -18.01,-17.77 -37.69,-17.77 -22.47,0 -38.83,12.46 -45.75,33.28 -3.36,10.51 -4.72,21.05 -4.72,36.33 0,14.96 1.36,25.5 4.72,36.01 6.92,20.82 23.28,33.28 45.75,33.28 19.96,0 31.6,-7.5 37.69,-17.73 l 0.27,0 0,59.34 c 0,7.73 5,12.46 11.65,12.46 6.68,0 11.64,-4.73 11.64,-12.46 l 0,-166.37 c 0,-7.77 -4.96,-12.46 -11.64,-12.46 -6.65,0 -11.65,4.69 -11.65,12.46"
           inkscape:connector-curvature="0" />
        <path
           id="path3170"
           style="fill:#231f20;fill-opacity:1;fill-rule:nonzero;stroke:none"
           d="m 1638.28,1491.84 c -27.15,0 -37.15,11.36 -37.15,39.06 l 0,74.61 c 0,1.09 -0.54,1.64 -1.64,1.64 l -7.5,0 c -6.4,0 -10,3.91 -10,9.45 0,5.55 3.6,9.42 10,9.42 l 7.5,0 c 1.1,0 1.64,0.54 1.64,1.64 l 0,29.14 c 0,7.77 5,12.46 11.64,12.46 6.68,0 11.64,-4.69 11.64,-12.46 l 0,-29.14 c 0,-1.1 0.59,-1.64 1.68,-1.64 l 17.46,0 c 6.37,0 9.97,-3.87 9.97,-9.42 0,-5.54 -3.6,-9.45 -9.97,-9.45 l -17.46,0 c -1.09,0 -1.68,-0.55 -1.68,-1.64 l 0,-73.75 c 0,-14.14 3.64,-18.32 17.78,-18.32 7.19,0 11.33,-4.41 11.33,-10.82 0,-6.37 -4.14,-10.78 -12.47,-10.78"
           inkscape:connector-curvature="0" />
        <path
           id="path3172"
           style="fill:#231f20;fill-opacity:1;fill-rule:nonzero;stroke:none"
           d="m 1757.54,1532.58 c 2.46,7.23 3.05,15.55 3.05,27.19 0,11.36 -0.59,19.65 -3.05,26.87 -4.45,13.32 -14.45,20.82 -29.14,20.82 -14.96,0 -24.96,-7.5 -29.38,-20.82 -2.5,-7.22 -3.04,-15.51 -3.04,-26.87 0,-11.64 0.54,-19.96 3.04,-27.19 4.42,-13.32 14.42,-20.78 29.38,-20.78 14.69,0 24.69,7.46 29.14,20.78 m -84.84,-28.28 0,166.37 c 0,7.73 4.96,12.46 11.64,12.46 6.64,0 11.64,-4.73 11.64,-12.46 l 0,-59.34 0.23,0 c 6.13,10.23 17.77,17.73 37.74,17.73 22.46,0 38.82,-12.46 45.74,-33.28 3.32,-10.51 4.72,-21.05 4.72,-36.01 0,-15.28 -1.4,-25.82 -4.72,-36.33 -6.92,-20.82 -23.28,-33.28 -45.74,-33.28 -19.69,0 -31.33,7.22 -37.74,17.77 l -0.23,0 0,-3.63 c 0,-7.77 -5,-12.46 -11.64,-12.46 -6.68,0 -11.64,4.69 -11.64,12.46"
           inkscape:connector-curvature="0" />
        <path
           id="path3174"
           style="fill:#231f20;fill-opacity:1;fill-rule:nonzero;stroke:none"
           d="m 1808.4,1614.92 c 0,7.78 5,12.5 11.64,12.5 6.64,0 11.64,-4.72 11.64,-12.5 l 0,-110.62 c 0,-7.77 -5,-12.46 -11.64,-12.46 -6.64,0 -11.64,4.69 -11.64,12.46 l 0,110.62 z m -3.6,52.97 c 0,8.6 6.92,15.24 15.24,15.24 8.32,0 15.23,-6.64 15.23,-15.24 0,-8.32 -6.91,-15.27 -15.23,-15.27 -8.32,0 -15.24,6.95 -15.24,15.27"
           inkscape:connector-curvature="0" />
        <path
           id="path3176"
           style="fill:#231f20;fill-opacity:1;fill-rule:nonzero;stroke:none"
           d="m 1946.6,1532.58 c 2.5,7.23 3.05,15.55 3.05,27.19 0,11.36 -0.55,19.65 -3.05,26.87 -4.41,13.32 -14.41,20.82 -29.1,20.82 -14.96,0 -24.96,-7.5 -29.41,-20.82 -2.5,-7.22 -3.01,-15.51 -3.01,-26.87 0,-11.64 0.51,-19.96 3.01,-27.19 4.45,-13.32 14.45,-20.78 29.41,-20.78 14.69,0 24.69,7.46 29.1,20.78 m -84.84,-28.28 0,166.37 c 0,7.73 5,12.46 11.68,12.46 6.64,0 11.64,-4.73 11.64,-12.46 l 0,-59.34 0.23,0 c 6.14,10.23 17.78,17.73 37.74,17.73 22.46,0 38.79,-12.46 45.74,-33.28 3.32,-10.51 4.69,-21.05 4.69,-36.01 0,-15.28 -1.37,-25.82 -4.69,-36.33 -6.95,-20.82 -23.28,-33.28 -45.74,-33.28 -19.69,0 -31.33,7.22 -37.74,17.77 l -0.23,0 0,-3.63 c 0,-7.77 -5,-12.46 -11.64,-12.46 -6.68,0 -11.68,4.69 -11.68,12.46"
           inkscape:connector-curvature="0" />
        <path
           id="path3178"
           style="fill:#231f20;fill-opacity:1;fill-rule:nonzero;stroke:none"
           d="m 2030.04,1491.84 c -23.87,0 -32.42,11.64 -32.42,35.47 l 0,143.36 c 0,7.73 4.96,12.46 11.64,12.46 6.64,0 11.64,-4.73 11.64,-12.46 l 0,-141.96 c 0,-11.09 3.59,-15.27 12.73,-15.27 6.64,0 10.82,-4.41 10.82,-10.82 0,-6.37 -4.18,-10.78 -11.91,-10.78"
           inkscape:connector-curvature="0" />
        <path
           id="path3180"
           style="fill:#231f20;fill-opacity:1;fill-rule:nonzero;stroke:none"
           d="m 2062.73,1614.92 c 0,7.78 5,12.5 11.65,12.5 6.64,0 11.64,-4.72 11.64,-12.5 l 0,-110.62 c 0,-7.77 -5,-12.46 -11.64,-12.46 -6.65,0 -11.65,4.69 -11.65,12.46 l 0,110.62 z m -3.59,52.97 c 0,8.6 6.91,15.24 15.24,15.24 8.32,0 15.23,-6.64 15.23,-15.24 0,-8.32 -6.91,-15.27 -15.23,-15.27 -8.33,0 -15.24,6.95 -15.24,15.27"
           inkscape:connector-curvature="0" />
        <path
           id="path3182"
           style="fill:#231f20;fill-opacity:1;fill-rule:nonzero;stroke:none"
           d="m 2195.94,1532.58 c 2.18,7.23 3.04,14.41 3.04,27.19 0,12.73 -0.86,19.65 -3.04,26.87 -4.46,13.32 -15.28,20.82 -29.96,20.82 -14.69,0 -25.51,-7.5 -29.96,-20.82 -2.19,-7.22 -3.05,-14.14 -3.05,-26.87 0,-12.78 0.86,-19.96 3.05,-27.19 4.45,-13.32 15.27,-20.78 29.96,-20.78 14.68,0 25.5,7.46 29.96,20.78 m -82.35,-6.64 c -3.04,9.14 -4.45,18.28 -4.45,33.83 0,15.23 1.41,24.37 4.45,33.55 7.19,22.7 26.61,35.74 52.39,35.74 25.78,0 45.19,-13.04 52.38,-35.74 3.09,-9.18 4.45,-18.32 4.45,-33.55 0,-15.55 -1.36,-24.69 -4.45,-33.83 -7.19,-22.46 -26.6,-35.78 -52.38,-35.78 -25.78,0 -45.2,13.32 -52.39,35.78"
           inkscape:connector-curvature="0" />
        <path
           id="path3184"
           style="fill:#231f20;fill-opacity:1;fill-rule:nonzero;stroke:none"
           d="m 2286.76,1491.84 c -27.15,0 -37.11,11.36 -37.11,39.06 l 0,74.61 c 0,1.09 -0.59,1.64 -1.68,1.64 l -7.5,0 c -6.37,0 -9.96,3.91 -9.96,9.45 0,5.55 3.59,9.42 9.96,9.42 l 7.5,0 c 1.09,0 1.68,0.54 1.68,1.64 l 0,29.14 c 0,7.77 4.96,12.46 11.64,12.46 6.64,0 11.6,-4.69 11.6,-12.46 l 0,-29.14 c 0,-1.1 0.59,-1.64 1.68,-1.64 l 17.46,0 c 6.41,0 10,-3.87 10,-9.42 0,-5.54 -3.59,-9.45 -10,-9.45 l -17.46,0 c -1.09,0 -1.68,-0.55 -1.68,-1.64 l 0,-73.75 c 0,-14.14 3.63,-18.32 17.77,-18.32 7.19,0 11.37,-4.41 11.37,-10.82 0,-6.37 -4.18,-10.78 -12.5,-10.78"
           inkscape:connector-curvature="0" />
        <path
           id="path3186"
           style="fill:#231f20;fill-opacity:1;fill-rule:nonzero;stroke:none"
           d="m 2321.17,1670.67 c 0,7.73 4.96,12.46 11.64,12.46 6.64,0 11.64,-4.73 11.64,-12.46 l 0,-59.61 0.28,0 c 6.36,10.23 19.14,18 37.15,18 28.82,0 46.01,-19.68 46.01,-49.88 l 0,-74.88 c 0,-7.77 -4.96,-12.46 -11.64,-12.46 -6.64,0 -11.64,4.69 -11.64,12.46 l 0,69.3 c 0,21.36 -9.69,33.86 -29.65,33.86 -18.05,0 -30.51,-12.77 -30.51,-32.46 l 0,-70.7 c 0,-7.77 -5,-12.46 -11.64,-12.46 -6.68,0 -11.64,4.69 -11.64,12.46"
           inkscape:connector-curvature="0" />
        <path
           id="path3188"
           style="fill:#231f20;fill-opacity:1;fill-rule:nonzero;stroke:none"
           d="m 2537.97,1571.13 c 1.13,0 1.68,0.55 1.68,1.64 0,6.1 -0.55,10.83 -1.95,14.97 -4.42,13.32 -15.51,20.82 -30.51,20.82 -14.96,0 -26.06,-7.5 -30.47,-20.82 -1.41,-4.14 -1.95,-8.87 -1.95,-14.97 0,-1.09 0.54,-1.64 1.68,-1.64 l 61.52,0 z m -82.62,-44.92 c -2.77,8.32 -4.41,17.74 -4.41,33.56 0,15.78 1.36,25.19 4.14,33.51 7.5,23.01 26.6,35.78 51.87,35.78 26.06,0 44.89,-12.77 52.11,-35.46 3.05,-8.91 4.42,-19.15 4.42,-32.19 0,-5.28 -3.6,-8.87 -9.14,-8.87 l -77.89,0 c -1.14,0 -1.68,-0.55 -1.68,-1.68 0,-6.37 0.54,-10.78 2.22,-16.05 5,-15.28 17.19,-23.01 33.56,-23.01 13,0 21.87,3.87 31.87,11.37 2.78,2.18 5.28,3.32 8.05,3.32 5.55,0 9.69,-4.18 9.69,-9.73 0,-3.32 -1.37,-6.09 -3.6,-8.32 -11.36,-10.51 -27.18,-18.28 -47.69,-18.28 -27.46,0 -46.02,12.77 -53.52,36.05"
           inkscape:connector-curvature="0" />
        <path
           id="path3190"
           style="fill:#231f20;fill-opacity:1;fill-rule:nonzero;stroke:none"
           d="m 2586.99,1670.67 c 0,7.73 5,12.46 11.64,12.46 6.68,0 11.64,-4.73 11.64,-12.46 l 0,-108.72 54.38,61.29 c 2.5,2.78 5.23,4.18 8.87,4.18 5.27,0 9.68,-3.9 9.68,-9.72 0,-3.05 -1.09,-5.28 -3.32,-7.78 l -30.78,-33.51 41.88,-67.11 c 1.36,-2.23 1.95,-4.45 1.95,-6.95 0,-5.82 -4.73,-10.51 -11.09,-10.51 -4.46,0 -8.05,2.19 -10.82,6.64 l -37.43,61.29 -23.32,-26.06 0,-29.41 c 0,-7.77 -4.96,-12.46 -11.64,-12.46 -6.64,0 -11.64,4.69 -11.64,12.46"
           inkscape:connector-curvature="0" />
        <path
           id="path3192"
           style="fill:#231f20;fill-opacity:1;fill-rule:nonzero;stroke:none"
           d="m 1127.85,1247.35 44.06,0 c 22.47,0 34.69,12.18 34.69,31.05 0,18.55 -12.22,31.05 -34.69,31.05 l -44.06,0 c -1.09,0 -1.64,-0.54 -1.64,-1.68 l 0,-58.74 c 0,-1.14 0.55,-1.68 1.64,-1.68 m 42.7,84.57 c 20.78,0 33,11.91 33,29.37 0,18.05 -12.22,29.69 -33,29.69 l -42.7,0 c -1.09,0 -1.64,-0.55 -1.64,-1.68 l 0,-55.74 c 0,-1.1 0.55,-1.64 1.64,-1.64 l 42.7,0 z m -69.03,70.43 c 0,6.64 4.14,11.05 11.1,11.05 l 58.47,0 c 37.7,0 56.84,-19.37 56.84,-49.34 0,-21.87 -9.96,-35.46 -25.51,-41.29 l 0,-0.58 c 13.6,-3.59 28.83,-18.83 28.83,-43.52 0,-35.47 -22.73,-53.79 -60.98,-53.79 l -57.65,0 c -6.96,0 -11.1,4.15 -11.1,11.1"
           inkscape:connector-curvature="0" />
        <path
           id="path3194"
           style="fill:#231f20;fill-opacity:1;fill-rule:nonzero;stroke:none"
           d="m 1333.87,1267.85 0,14.69 c 0,1.13 -0.55,1.68 -1.64,1.68 l -26.64,0 c -22.7,0 -32.97,-6.64 -32.97,-21.6 0,-13.91 9.96,-20.82 27.73,-20.82 20.51,0 33.52,9.69 33.52,26.05 m 31.64,-33.28 c 0,-6.37 -5,-11.05 -11.96,-11.05 -4.14,0 -7.46,1.91 -10.23,5.82 l -5.27,8.32 -0.28,0 c -8.86,-10 -21.36,-15.82 -40.74,-15.82 -29.69,0 -46.87,14.69 -46.87,39.92 0,27.46 18.82,41.05 51.83,41.05 l 30.24,0 c 1.09,0 1.64,0.55 1.64,1.64 l 0,6.37 c 0,18.6 -8.6,29.1 -31.88,29.1 -10.23,0 -20.78,-3.32 -27.15,-6.64 -2.22,-1.09 -4.72,-1.91 -6.68,-1.91 -6.09,0 -9.96,3.87 -9.96,9.96 0,3.59 1.64,7.23 5.55,9.41 8.32,5.59 22.19,10 40.47,10 35.51,0 52.11,-16.91 52.11,-49.64 l 0,-47.66 c 0,-6.95 0.58,-9.73 2.5,-13.59 l 4.72,-8.6 c 1.1,-1.95 1.96,-4.45 1.96,-6.68"
           inkscape:connector-curvature="0" />
        <path
           id="path3196"
           style="fill:#231f20;fill-opacity:1;fill-rule:nonzero;stroke:none"
           d="m 1386.95,1236.53 c -3.59,2.5 -5.54,5.82 -5.54,9.68 0,5.55 4.45,10.55 10.82,10.55 2.22,0 4.41,-0.55 7.77,-2.5 10.78,-6.37 22.15,-11.64 37.15,-11.64 19.1,0 29.1,8.32 29.1,19.96 0,11.09 -5,16.64 -26.05,18.87 l -13.87,1.36 c -26.06,2.82 -39.65,16.1 -39.65,37.46 0,25.24 18.01,40.47 49.06,40.47 15.55,0 29.38,-3.86 39.65,-9.68 4.73,-2.5 6.95,-5.55 6.95,-9.73 0,-5.55 -4.45,-9.96 -10,-9.96 -2.22,0 -4.72,0.55 -8.32,2.19 -8.86,4.18 -18.82,6.95 -29.37,6.95 -16.64,0 -25.24,-7.5 -25.24,-18.32 0,-10.51 6.1,-16.06 26.06,-18.01 l 13.87,-1.37 c 27.73,-3.04 39.92,-16.09 39.92,-37.73 0,-26.05 -18.87,-43.24 -54.06,-43.24 -20.24,0 -37.15,6.91 -48.25,14.69"
           inkscape:connector-curvature="0" />
        <path
           id="path3198"
           style="fill:#231f20;fill-opacity:1;fill-rule:nonzero;stroke:none"
           d="m 1593.24,1302.81 c 1.1,0 1.64,0.55 1.64,1.64 0,6.1 -0.54,10.82 -1.91,15 -4.45,13.29 -15.55,20.79 -30.51,20.79 -14.96,0 -26.05,-7.5 -30.51,-20.79 -1.36,-4.18 -1.91,-8.9 -1.91,-15 0,-1.09 0.55,-1.64 1.64,-1.64 l 61.56,0 z m -82.62,-44.92 c -2.77,8.32 -4.45,17.74 -4.45,33.56 0,15.78 1.41,25.19 4.14,33.51 7.5,23.01 26.64,35.78 51.88,35.78 26.05,0 44.92,-12.77 52.11,-35.5 3.04,-8.87 4.45,-19.11 4.45,-32.15 0,-5.28 -3.63,-8.87 -9.14,-8.87 l -77.93,0 c -1.09,0 -1.64,-0.55 -1.64,-1.68 0,-6.37 0.55,-10.78 2.19,-16.05 5,-15.28 17.18,-23.05 33.55,-23.05 13.05,0 21.92,3.91 31.88,11.41 2.77,2.18 5.27,3.32 8.04,3.32 5.55,0 9.73,-4.14 9.73,-9.73 0,-3.32 -1.41,-6.09 -3.63,-8.32 -11.37,-10.51 -27.15,-18.28 -47.66,-18.28 -27.46,0 -46.05,12.77 -53.52,36.05"
           inkscape:connector-curvature="0" />
        <path
           id="path3200"
           style="fill:#231f20;fill-opacity:1;fill-rule:nonzero;stroke:none"
           d="m 1673.98,1223.52 c -23.86,0 -32.46,11.64 -32.46,35.47 l 0,143.36 c 0,7.73 5,12.46 11.68,12.46 6.64,0 11.64,-4.73 11.64,-12.46 l 0,-141.96 c 0,-11.09 3.6,-15.27 12.74,-15.27 6.64,0 10.82,-4.42 10.82,-10.82 0,-6.37 -4.18,-10.78 -11.92,-10.78"
           inkscape:connector-curvature="0" />
        <path
           id="path3202"
           style="fill:#231f20;fill-opacity:1;fill-rule:nonzero;stroke:none"
           d="m 356.172,1221.56 c -118.242,0 -214.453,96.18 -214.453,214.46 0,118.24 96.211,214.45 214.453,214.45 61.367,0 113.668,-19.02 151.25,-55 6.797,-6.48 10.629,-15.2 10.859,-24.57 0.199,-9.37 -3.281,-18.28 -9.73,-25.08 -6.672,-6.91 -15.621,-10.74 -25.27,-10.74 -9.062,0 -17.691,3.4 -24.332,9.65 -24.57,22.93 -59.148,34.57 -102.777,34.57 -75.274,0 -141.293,-66.95 -141.293,-143.28 0,-77.7 64.691,-143.32 141.293,-143.32 65.469,0 113.047,37.5 128.008,100.54 l -75.2,0 c -18.671,0 -33.82,15.59 -33.82,34.77 0,19.18 15.149,34.76 33.82,34.76 l 133.129,0 c 8.2,0 14.801,-9.06 15.942,-15.58 0.859,-5 1.558,-10.98 1.719,-14.88 2.57,-59.42 -16.29,-113.32 -53.09,-151.76 -36.95,-38.6 -88.981,-58.99 -150.508,-58.99"
           inkscape:connector-curvature="0" />
        <path
           id="path3204"
           style="fill:#231f20;fill-opacity:1;fill-rule:nonzero;stroke:none"
           d="m 748.949,983.629 c -118.289,0 -214.461,96.221 -214.461,214.461 0,118.24 96.172,214.45 214.461,214.45 61.321,0 113.629,-19.02 151.25,-55 6.75,-6.48 10.621,-15.19 10.821,-24.57 0.191,-9.37 -3.29,-18.28 -9.731,-25.04 -6.641,-6.99 -15.629,-10.78 -25.269,-10.78 -9.032,0 -17.661,3.4 -24.379,9.65 -24.532,22.97 -59.102,34.57 -102.692,34.57 -75.32,0 -141.328,-66.95 -141.328,-143.28 0,-77.7 64.68,-143.32 141.328,-143.32 65.43,0 113,37.5 127.961,100.54 l -75.191,0 c -18.668,0 -33.828,15.59 -33.828,34.77 0,19.18 15.16,34.77 33.828,34.77 l 133.121,0 c 8.211,0 14.808,-9.07 15.941,-15.55 0.86,-5.04 1.559,-11.06 1.758,-14.92 2.539,-59.42 -16.328,-113.32 -53.129,-151.76 -36.949,-38.59 -88.98,-58.991 -150.461,-58.991"
           inkscape:connector-curvature="0" />
        <path
           id="path3206"
           style="fill:#231f20;fill-opacity:1;fill-rule:nonzero;stroke:none"
           d="m 748.949,1442.11 c -118.289,0 -214.461,96.21 -214.461,214.45 0,118.25 96.172,214.46 214.461,214.46 61.321,0 113.629,-19.03 151.25,-55 6.75,-6.49 10.621,-15.2 10.821,-24.61 0.191,-9.34 -3.29,-18.24 -9.731,-25.04 -6.641,-6.95 -15.629,-10.78 -25.269,-10.78 -9.032,0 -17.661,3.44 -24.379,9.65 -24.532,22.96 -59.102,34.61 -102.692,34.61 -75.32,0 -141.328,-66.96 -141.328,-143.29 0,-77.69 64.68,-143.32 141.328,-143.32 65.43,0 113,37.5 127.961,100.55 l -75.191,0 c -18.668,0 -33.828,15.59 -33.828,34.77 0,19.18 15.16,34.76 33.828,34.76 l 133.121,0 c 8.211,0 14.808,-9.06 15.941,-15.58 0.86,-5 1.559,-10.98 1.758,-14.89 2.539,-59.41 -16.328,-113.32 -53.129,-151.75 -36.949,-38.6 -88.98,-58.99 -150.461,-58.99"
           inkscape:connector-curvature="0" />
      </g>
    </g>
  </g>
</svg>
