<?xml version="1.0" encoding="UTF-8" standalone="no"?>
<!-- Created with Inkscape (http://www.inkscape.org/) -->

<svg
   xmlns:dc="http://purl.org/dc/elements/1.1/"
   xmlns:cc="http://creativecommons.org/ns#"
   xmlns:rdf="http://www.w3.org/1999/02/22-rdf-syntax-ns#"
   xmlns:svg="http://www.w3.org/2000/svg"
   xmlns="http://www.w3.org/2000/svg"
   xmlns:sodipodi="http://sodipodi.sourceforge.net/DTD/sodipodi-0.dtd"
   xmlns:inkscape="http://www.inkscape.org/namespaces/inkscape"
   id="svg2"
   version="1.1"
   inkscape:version="0.91 r13725"
   xml:space="preserve"
   width="331.84674"
   height="331.84674"
   viewBox="0 0 331.84674 331.84674"
   sodipodi:docname="ic_launcher.svg"><metadata
     id="metadata8"><rdf:RDF><cc:Work
         rdf:about=""><dc:format>image/svg+xml</dc:format><dc:type
           rdf:resource="http://purl.org/dc/dcmitype/StillImage" /><dc:title></dc:title></cc:Work></rdf:RDF></metadata><defs
     id="defs6" /><sodipodi:namedview
     pagecolor="#ffffff"
     bordercolor="#666666"
     borderopacity="1"
     objecttolerance="10"
     gridtolerance="10"
     guidetolerance="10"
     inkscape:pageopacity="0"
     inkscape:pageshadow="2"
     inkscape:window-width="956"
     inkscape:window-height="1041"
     id="namedview4"
     showgrid="false"
     fit-margin-top="0"
     fit-margin-left="0"
     fit-margin-right="0"
     fit-margin-bottom="0"
     inkscape:zoom="1.2829489"
     inkscape:cx="-18.172699"
     inkscape:cy="161.15222"
     inkscape:window-x="2880"
     inkscape:window-y="18"
     inkscape:window-maximized="0"
     inkscape:current-layer="g10" /><g
     id="g10"
     inkscape:groupmode="layer"
     inkscape:label="ink_ext_XXXXXX"
     transform="matrix(1.25,0,0,-1.25,-139.04674,226.29336)"><g
       id="g4135"
       transform="matrix(1.0374999,0,0,1,-4.1713924,0)"><rect
         transform="scale(1,-1)"
         y="-181.1573"
         x="111.23739"
         height="265.60001"
         width="256"
         id="rect4789"
         style="color:#000000;display:inline;overflow:visible;visibility:visible;opacity:1;fill:#518fc5;fill-opacity:1;fill-rule:nonzero;stroke:none;stroke-width:11;stroke-linecap:round;stroke-linejoin:round;stroke-miterlimit:4;stroke-dasharray:none;stroke-dashoffset:0;stroke-opacity:1;marker:none;enable-background:accumulate" /><path
         inkscape:connector-curvature="0"
         id="rect4266"
         d="m 111.238,181.03469 0,-0.43143 64.17849,0 0.0809,-44.35634 -64.25938,44.35634 0,-265.04597 64.17849,0 0,66.392952 -21.32879,0 21.29846,-66.369352 -63.90884,0 0,66.369352 64.02006,44.346217 -0.0809,-44.346217 63.9392,66.379458 0,66.31204 -0.0108,0.0101 -42.65422,-66.34575 -21.30519,0 0.0304,66.3626 -21.32879,-66.3626 -42.61039,0 0,66.3626 63.93918,0 63.91223,0 -63.84819,65.93455 63.87515,0 0,-65.93455 42.58679,0 -42.34749,65.93455 63.69651,0 0,-65.93455 21.29844,0 -21.23778,65.93116 63.88527,0 0,0.43482 -255.99942,0 z m 192.02653,-66.39295 -63.90884,-66.3626 0,-66.241266 42.78565,66.268226 21.30182,0 0,-66.355858 21.07265,66.355858 42.60702,0 0,-66.355858 -63.67967,0 -64.08747,0 63.9358,-66.392942 -0.0809,44.346227 64.02682,-44.346227 0,199.08444 -0.0403,0 -63.98637,-44.32937 0.0809,44.32937 -0.027,0 z m -63.90884,-132.691498 -42.66434,0 42.66434,-66.392942 0,66.392942 z"
         style="color:#000000;display:inline;overflow:visible;visibility:visible;opacity:1;fill:#ffffff;fill-opacity:1;fill-rule:nonzero;stroke:none;stroke-width:11;stroke-linecap:round;stroke-linejoin:round;stroke-miterlimit:4;stroke-dasharray:none;stroke-dashoffset:0;stroke-opacity:1;marker:none;enable-background:accumulate" /></g></g></svg>