<?xml version="1.0" encoding="UTF-8" standalone="no"?>
<!-- Created with Inkscape (http://www.inkscape.org/) -->

<svg
   xmlns:dc="http://purl.org/dc/elements/1.1/"
   xmlns:cc="http://creativecommons.org/ns#"
   xmlns:rdf="http://www.w3.org/1999/02/22-rdf-syntax-ns#"
   xmlns:svg="http://www.w3.org/2000/svg"
   xmlns="http://www.w3.org/2000/svg"
   xmlns:xlink="http://www.w3.org/1999/xlink"
   xmlns:sodipodi="http://sodipodi.sourceforge.net/DTD/sodipodi-0.dtd"
   xmlns:inkscape="http://www.inkscape.org/namespaces/inkscape"
   id="svg3224"
   version="1.1"
   inkscape:version="0.48.4 r9939"
   width="512"
   height="512"
   xml:space="preserve"
   sodipodi:docname="ic_launcher.svg"><metadata
     id="metadata3230"><rdf:RDF><cc:Work
         rdf:about=""><dc:format>image/svg+xml</dc:format><dc:type
           rdf:resource="http://purl.org/dc/dcmitype/StillImage" /></cc:Work></rdf:RDF></metadata><defs
     id="defs3228"><clipPath
       clipPathUnits="userSpaceOnUse"
       id="clipPath3240"><path
         d="M 0,948.938 0,0 l 2547.72,0 0,948.938 -2547.72,0 z"
         id="path3242"
         inkscape:connector-curvature="0" /></clipPath><linearGradient
       y2="541.80371"
       x2="276.63446"
       y1="1051.9308"
       x1="276.63446"
       gradientTransform="matrix(0.9765625,0,0,0.9765625,5.9999952,18.664763)"
       gradientUnits="userSpaceOnUse"
       id="linearGradient3625"
       xlink:href="#linearGradient3845"
       inkscape:collect="always" /><linearGradient
       id="linearGradient3845"><stop
         style="stop-color:#ffffff;stop-opacity:1;"
         offset="0"
         id="stop3847" /><stop
         id="stop3855"
         offset="0.5"
         style="stop-color:#dcdcdc;stop-opacity:1;" /><stop
         style="stop-color:#ffffff;stop-opacity:1;"
         offset="1"
         id="stop3849" /></linearGradient><linearGradient
       y2="541.80371"
       x2="276.63446"
       y1="1051.9308"
       x1="276.63446"
       gradientTransform="matrix(0.78125,0,0,0.78125,161.998,-818.95795)"
       gradientUnits="userSpaceOnUse"
       id="linearGradient3339"
       xlink:href="#linearGradient3845"
       inkscape:collect="always" /></defs><sodipodi:namedview
     pagecolor="#ffffff"
     bordercolor="#666666"
     borderopacity="1"
     objecttolerance="10"
     gridtolerance="10"
     guidetolerance="10"
     inkscape:pageopacity="0"
     inkscape:pageshadow="2"
     inkscape:window-width="956"
     inkscape:window-height="1041"
     id="namedview3226"
     showgrid="false"
     fit-margin-top="10"
     fit-margin-left="16.7"
     fit-margin-right="16.7"
     fit-margin-bottom="10"
     inkscape:zoom="0.485985"
     inkscape:cx="271.45444"
     inkscape:cy="2.9588323"
     inkscape:window-x="2640"
     inkscape:window-y="18"
     inkscape:window-maximized="0"
     inkscape:current-layer="g3232" /><g
     id="g3232"
     inkscape:groupmode="layer"
     inkscape:label="ink_ext_XXXXXX"
     transform="matrix(1.25,0,0,-1.25,-196.4975,502)"><rect
       style="fill:url(#linearGradient3339);fill-opacity:1;fill-rule:nonzero;stroke:none"
       id="rect2992"
       width="400"
       height="400"
       x="161.998"
       y="-396.79999"
       rx="39.0625"
       ry="39.0625"
       transform="scale(1,-1)" /><g
       id="g3360"
       transform="matrix(3.3592187,0,0,3.3592187,-352.39024,37.415474)"><path
         d="m 253.57,19.9359 -0.076,-7.5187 C 253.491,12.2578 235.684,12.0324 225.422,7.74609 219.821,5.4043 216.159,3.98828 211.902,0 c -4.173,3.98828 -7.794,5.49414 -13.36,7.86328 -10.161,4.31602 -27.979,4.50702 -27.977,4.67112 l 0.072,7.5125 c 0.111,-0.0211 18.955,-1.0977 29.328,-6.4887 5.053,-2.6309 7.988,-4.27382 11.993,-8.31601 4.082,4.04219 7.063,5.60581 12.156,8.19961 10.539,5.3742 29.685,6.4941 29.57,6.4941 l -0.114,0"
         style="fill:#2350a9;fill-opacity:1;fill-rule:evenodd;stroke:none"
         id="path3244"
         inkscape:connector-curvature="0" /><path
         d="m 253.57,19.9359 -0.076,-7.5187 C 253.491,12.2578 235.684,12.0324 225.422,7.74609 219.821,5.4043 216.159,3.98828 211.902,0 c -4.173,3.98828 -7.794,5.49414 -13.36,7.86328 -10.161,4.31602 -27.979,4.50702 -27.977,4.67112 l 0.072,7.5125 c 0.111,-0.0211 18.955,-1.0977 29.328,-6.4887 5.053,-2.6309 7.988,-4.27382 11.993,-8.31601 4.082,4.04219 7.063,5.60581 12.156,8.19961 10.539,5.3742 29.685,6.4941 29.57,6.4941 l -0.114,0"
         style="fill:#2350a9;fill-opacity:1;fill-rule:nonzero;stroke:none"
         id="path3246"
         inkscape:connector-curvature="0" /><path
         d="m 212.119,10.2504 c -0.028,0.0371 -0.057,0.0746 -0.087,0.1051"
         style="fill:#2350a9;fill-opacity:1;fill-rule:nonzero;stroke:none"
         id="path3248"
         inkscape:connector-curvature="0" /><path
         d="m 212.032,10.3559 c -4.901,5.7492 -9.202,7.7359 -16.09,10.9429 -9.171,4.2813 -25.348,5.5383 -25.348,5.7032 l -0.036,7.6289 c 0.245,-0.0629 14.338,-1.5946 24.198,-6.3778 7.606,-3.6929 12.283,-6.1711 17.416,-12.8722 5.266,6.7011 9.763,9.0683 17.44,12.7566 9.961,4.7816 24.082,6.3148 24.331,6.3836 l -0.19,-7.6363 c -0.003,-0.1578 -16.206,-1.4258 -25.459,-5.6957 -6.917,-3.1911 -11.213,-5.02 -16.23,-10.8801 -0.085,-0.0961 -0.032,0.0469 -0.032,0.0469"
         style="fill:#2350a9;fill-opacity:1;fill-rule:nonzero;stroke:none"
         id="path3250"
         inkscape:connector-curvature="0" /><path
         d="m 212.141,20.8453 c -4.555,6.1192 -8.378,8.4598 -14.828,12.534 -10.642,6.7207 -26.687,8.1531 -26.687,8.3121 l -0.037,7.5188 c 0.108,-0.0321 14.331,-2.2782 23.501,-7.7457 8,-4.7661 13.683,-7.9321 18.185,-15.8321 4.659,7.9 10.175,10.9488 18.27,15.7207 9.281,5.4692 23.434,7.709 23.543,7.7461 l -0.073,-7.5191 c -0.003,-0.1586 -16.08,-1.5957 -26.855,-8.3176 -6.53,-4.0734 -10.341,-6.298 -15.019,-12.4172"
         style="fill:#2350a9;fill-opacity:1;fill-rule:nonzero;stroke:none"
         id="path3252"
         inkscape:connector-curvature="0" /><path
         d="m 212.141,20.8453 c -4.555,6.1192 -8.378,8.4598 -14.828,12.534 -10.642,6.7207 -26.687,8.1531 -26.687,8.3121 l -0.037,7.5188 c 0.108,-0.0321 14.331,-2.2782 23.501,-7.7457 8,-4.7661 13.683,-7.9321 18.185,-15.8321 4.659,7.9 10.175,10.9488 18.27,15.7207 9.281,5.4692 23.434,7.709 23.543,7.7461 l -0.073,-7.5191 c -0.003,-0.1586 -16.08,-1.5957 -26.855,-8.3176 -6.53,-4.0734 -10.341,-6.298 -15.019,-12.4172"
         style="fill:#2350a9;fill-opacity:1;fill-rule:nonzero;stroke:none"
         id="path3254"
         inkscape:connector-curvature="0" /><path
         d="m 212.413,36.5973 c 5.368,8.2699 9.791,12.4703 18.037,18.082 10.206,6.9477 23.548,9.1355 23.786,9.2262 l -0.077,-7.5145 c 0,-0.2269 -13.345,-1.8281 -23.662,-8.3168 -8.23,-5.1793 -13.308,-9.3418 -18.282,-16.8621 -4.823,7.5203 -9.816,11.7941 -17.943,16.9731 -10.184,6.4941 -23.501,8.0902 -23.498,8.3168 l 0.076,7.5191 c 0.236,-0.0949 13.534,-2.277 23.605,-9.2262 8.206,-5.6699 12.687,-9.7695 17.958,-18.1976"
         style="fill:#2350a9;fill-opacity:1;fill-rule:nonzero;stroke:none"
         id="path3256"
         inkscape:connector-curvature="0" /><path
         d="m 212.413,36.5973 c 5.368,8.2699 9.791,12.4703 18.037,18.082 10.206,6.9477 23.548,9.1355 23.786,9.2262 l -0.077,-7.5145 c 0,-0.2269 -13.345,-1.8281 -23.662,-8.3168 -8.23,-5.1793 -13.308,-9.3418 -18.282,-16.8621 -4.823,7.5203 -9.816,11.7941 -17.943,16.9731 -10.184,6.4941 -23.501,8.0902 -23.498,8.3168 l 0.076,7.5191 c 0.236,-0.0949 13.534,-2.277 23.605,-9.2262 8.206,-5.6699 12.687,-9.7695 17.958,-18.1976"
         style="fill:#2350a9;fill-opacity:1;fill-rule:nonzero;stroke:none"
         id="path3258"
         inkscape:connector-curvature="0" /><path
         d="m 212.325,42.1508 c -5.038,8.9992 -10.011,14.3828 -19.162,20.275 -12.563,8.0879 -22.241,8.7043 -22.235,9.1144 l 0.079,7.977 c 0.1,-0.0531 13.865,-3.1922 24.599,-11.8492 7.884,-6.3571 13.092,-12.3071 16.778,-19.8211 3.833,7.514 9.16,13.3469 17.168,19.7039 10.911,8.6582 24.734,11.7969 24.838,11.85 l -0.077,-7.975 c -0.008,-0.4121 -9.694,-1.025 -22.417,-9.111 C 222.619,56.423 217.541,51.15 212.325,42.1508"
         style="fill:#2350a9;fill-opacity:1;fill-rule:nonzero;stroke:none"
         id="path3260"
         inkscape:connector-curvature="0" /><path
         d="m 212.325,42.1508 c -5.038,8.9992 -10.011,14.3828 -19.162,20.275 -12.563,8.0879 -22.241,8.7043 -22.235,9.1144 l 0.079,7.977 c 0.1,-0.0531 13.865,-3.1922 24.599,-11.8492 7.884,-6.3571 13.092,-12.3071 16.778,-19.8211 3.833,7.514 9.16,13.3469 17.168,19.7039 10.911,8.6582 24.734,11.7969 24.838,11.85 l -0.077,-7.975 c -0.008,-0.4121 -9.694,-1.025 -22.417,-9.111 C 222.619,56.423 217.541,51.15 212.325,42.1508"
         style="fill:#2350a9;fill-opacity:1;fill-rule:nonzero;stroke:none"
         id="path3262"
         inkscape:connector-curvature="0" /><path
         d="m 170.93,94.8938 -0.079,-7.8629 c -0.002,-0.2536 16.819,-4.2114 27.538,-14.5782 6.715,-6.4972 10.187,-10.814 14.045,-19.3371 4.029,8.5231 7.586,12.7242 14.434,19.2199 10.924,10.368 27.822,14.3309 27.825,14.584 l 0.079,7.8578 c 0,0 -16.441,-3.8726 -29.104,-16.9714 -6.18,-6.3961 -9.298,-10.8465 -13.147,-18.8512 -3.688,8.0047 -6.771,12.5707 -12.825,18.9668 -12.401,13.0992 -28.766,16.9723 -28.766,16.9723"
         style="fill:#2350a9;fill-opacity:1;fill-rule:evenodd;stroke:none"
         id="path3264"
         inkscape:connector-curvature="0" /><path
         d="m 170.93,94.8938 -0.079,-7.8629 c -0.002,-0.2536 16.819,-4.2114 27.538,-14.5782 6.715,-6.4972 10.187,-10.814 14.045,-19.3371 4.029,8.5231 7.586,12.7242 14.434,19.2199 10.924,10.368 27.822,14.3309 27.825,14.584 l 0.079,7.8578 c 0,0 -16.441,-3.8726 -29.104,-16.9714 -6.18,-6.3961 -9.298,-10.8465 -13.147,-18.8512 -3.688,8.0047 -6.771,12.5707 -12.825,18.9668 -12.401,13.0992 -28.766,16.9723 -28.766,16.9723"
         style="fill:#2350a9;fill-opacity:1;fill-rule:nonzero;stroke:none"
         id="path3266"
         inkscape:connector-curvature="0" /></g></g></svg>