<?xml version="1.0" encoding="utf-8"?>
<!-- Generator: Adobe Illustrator 22.1.0, SVG Export Plug-In . SVG Version: 6.00 Build 0)  -->
<svg version="1.1" baseProfile="tiny" id="Ebene_1" xmlns="http://www.w3.org/2000/svg" xmlns:xlink="http://www.w3.org/1999/xlink"
	 x="0px" y="0px" viewBox="0 0 24 24" xml:space="preserve">
<g>
	<g>
		<g>
			<path fill="#FF9933" d="M8.2,10.9c0,0.1-0.2,0.3-0.3,0.3H7.4c-0.1,0-0.2-0.1-0.2-0.3l1-5.5c0-0.1,0.2-0.3,0.3-0.3H9
				c0.1,0,0.2,0.1,0.2,0.3L8.2,10.9z"/>
		</g>
		<g>
			<path fill="#FF9933" d="M9.8,10.9c0,0.1-0.2,0.3-0.3,0.3H9c-0.1,0-0.2-0.1-0.2-0.3l1-5.5c0-0.1,0.2-0.3,0.3-0.3h0.5
				c0.1,0,0.2,0.1,0.2,0.3L9.8,10.9z"/>
		</g>
		<g>
			<path fill="#FF9933" d="M11.4,10.9c0,0.1-0.2,0.3-0.3,0.3h-0.5c-0.1,0-0.2-0.1-0.2-0.3l1-5.5c0-0.1,0.2-0.3,0.3-0.3h0.5
				c0.1,0,0.2,0.1,0.2,0.3L11.4,10.9z"/>
		</g>
		<g>
			<path fill="#FF9933" d="M13,10.9c0,0.1-0.2,0.3-0.3,0.3h-0.5c-0.1,0-0.2-0.1-0.2-0.3l1-5.5c0-0.1,0.2-0.3,0.3-0.3h0.5
				c0.1,0,0.2,0.1,0.2,0.3L13,10.9z"/>
		</g>
	</g>
	<g>
		<g>
			<path fill="#66CC66" d="M15.6,6.2c0,0.1-0.2,0.3-0.3,0.3H15c-0.2,0-0.3-0.1-0.2-0.3L15.5,2c0-0.1,0.2-0.3,0.3-0.3h0.2
				c0.2,0,0.3,0.1,0.2,0.3L15.6,6.2z"/>
		</g>
		<g>
			<path fill="#66CC66" d="M16.8,6.2c0,0.1-0.2,0.3-0.3,0.3h-0.2c-0.2,0-0.3-0.1-0.2-0.3L16.8,2c0-0.1,0.2-0.3,0.3-0.3h0.2
				c0.2,0,0.3,0.1,0.2,0.3L16.8,6.2z"/>
		</g>
		<g>
			<path fill="#66CC66" d="M18,6.2c0,0.1-0.2,0.3-0.3,0.3h-0.2c-0.2,0-0.3-0.1-0.2-0.3L18,2c0-0.1,0.2-0.3,0.3-0.3h0.2
				c0.2,0,0.3,0.1,0.2,0.3L18,6.2z"/>
		</g>
		<g>
			<path fill="#66CC66" d="M19.3,6.2c0,0.1-0.2,0.3-0.3,0.3h-0.2c-0.2,0-0.3-0.1-0.2-0.3L19.2,2c0-0.1,0.2-0.3,0.3-0.3h0.2
				C19.9,1.8,20,1.9,20,2L19.3,6.2z"/>
		</g>
	</g>
	<g>
		<g>
			<path fill="#FF6666" d="M14.6,15.4c0,0.2-0.2,0.4-0.5,0.4h-0.6c-0.2,0-0.4-0.2-0.3-0.4l1.3-7.6c0-0.2,0.2-0.4,0.5-0.4h0.6
				c0.2,0,0.4,0.2,0.3,0.4L14.6,15.4z"/>
		</g>
		<g>
			<path fill="#FF6666" d="M16.8,15.4c0,0.2-0.2,0.4-0.5,0.4h-0.6c-0.2,0-0.4-0.2-0.3-0.4l1.3-7.6c0-0.2,0.2-0.4,0.5-0.4h0.6
				c0.2,0,0.4,0.2,0.3,0.4L16.8,15.4z"/>
		</g>
		<g>
			<path fill="#FF6666" d="M19,15.4c0,0.2-0.2,0.4-0.5,0.4h-0.6c-0.2,0-0.4-0.2-0.3-0.4l1.3-7.6c0-0.2,0.2-0.4,0.5-0.4H20
				c0.2,0,0.4,0.2,0.3,0.4L19,15.4z"/>
		</g>
		<g>
			<path fill="#FF6666" d="M21.2,15.4c0,0.2-0.2,0.4-0.5,0.4h-0.6c-0.2,0-0.4-0.2-0.3-0.4l1.3-7.6c0-0.2,0.2-0.4,0.5-0.4h0.6
				c0.2,0,0.4,0.2,0.3,0.4L21.2,15.4z"/>
		</g>
	</g>
	<g>
		<g>
			<path fill="#6699CC" d="M3.2,21.8c0,0.2-0.2,0.4-0.5,0.4H1.8c-0.2,0-0.4-0.2-0.3-0.4l1.6-9.3c0-0.2,0.2-0.4,0.5-0.4h0.9
				c0.2,0,0.4,0.2,0.3,0.4L3.2,21.8z"/>
		</g>
		<g>
			<path fill="#6699CC" d="M5.8,21.8c0,0.2-0.2,0.4-0.5,0.4H4.5c-0.2,0-0.4-0.2-0.3-0.4l1.6-9.3c0-0.2,0.2-0.4,0.5-0.4h0.9
				c0.2,0,0.4,0.2,0.3,0.4L5.8,21.8z"/>
		</g>
		<g>
			<path fill="#6699CC" d="M8.4,21.8c0,0.2-0.2,0.4-0.5,0.4H7.1c-0.2,0-0.4-0.2-0.3-0.4l1.6-9.3c0-0.2,0.2-0.4,0.5-0.4h0.9
				c0.2,0,0.4,0.2,0.3,0.4L8.4,21.8z"/>
		</g>
		<g>
			<path fill="#6699CC" d="M11.1,21.8c0,0.2-0.2,0.4-0.5,0.4H9.7c-0.2,0-0.4-0.2-0.3-0.4l1.6-9.3c0-0.2,0.2-0.4,0.5-0.4h0.9
				c0.2,0,0.4,0.2,0.3,0.4L11.1,21.8z"/>
		</g>
	</g>
</g>
</svg>
