<?xml version="1.0" encoding="UTF-8" standalone="no"?>
<!-- Created with Inkscape (http://www.inkscape.org/) -->

<svg
   xmlns:dc="http://purl.org/dc/elements/1.1/"
   xmlns:cc="http://creativecommons.org/ns#"
   xmlns:rdf="http://www.w3.org/1999/02/22-rdf-syntax-ns#"
   xmlns:svg="http://www.w3.org/2000/svg"
   xmlns="http://www.w3.org/2000/svg"
   xmlns:sodipodi="http://sodipodi.sourceforge.net/DTD/sodipodi-0.dtd"
   xmlns:inkscape="http://www.inkscape.org/namespaces/inkscape"
   width="47.406929mm"
   height="47.406929mm"
   viewBox="0 0 167.97731 167.97731"
   id="svg2"
   version="1.1"
   inkscape:version="0.91 r13725"
   sodipodi:docname="ic_launcher.svg">
  <defs
     id="defs4" />
  <sodipodi:namedview
     id="base"
     pagecolor="#ffffff"
     bordercolor="#666666"
     borderopacity="1.0"
     inkscape:pageopacity="0.0"
     inkscape:pageshadow="2"
     inkscape:zoom="4"
     inkscape:cx="72.497205"
     inkscape:cy="64.63844"
     inkscape:document-units="px"
     inkscape:current-layer="layer1"
     showgrid="false"
     inkscape:window-width="1920"
     inkscape:window-height="1080"
     inkscape:window-x="0"
     inkscape:window-y="0"
     inkscape:window-maximized="0"
     fit-margin-top="0"
     fit-margin-left="0"
     fit-margin-right="0"
     fit-margin-bottom="0"
     units="in" />
  <metadata
     id="metadata7">
    <rdf:RDF>
      <cc:Work
         rdf:about="">
        <dc:format>image/svg+xml</dc:format>
        <dc:type
           rdf:resource="http://purl.org/dc/dcmitype/StillImage" />
        <dc:title />
      </cc:Work>
    </rdf:RDF>
  </metadata>
  <g
     inkscape:label="Ebene 1"
     inkscape:groupmode="layer"
     id="layer1"
     transform="translate(-135.83014,-80.500016)">
    <path
       style="color:#000000;display:inline;overflow:visible;visibility:visible;opacity:1;fill:#ffffff;fill-opacity:1;fill-rule:nonzero;stroke:none;stroke-width:2.5999999;stroke-linecap:round;stroke-linejoin:round;stroke-miterlimit:4;stroke-dasharray:none;stroke-dashoffset:0;stroke-opacity:1;marker:none;enable-background:accumulate"
       d="m 141.08014,89.477325 157.75,0.25 -0.5,146.750005 -21,9.25 -121.77188,0.67429 -13.97812,-7.67429 z"
       id="rect4134"
       inkscape:connector-curvature="0"
       sodipodi:nodetypes="ccccccc" />
    <path
       style="fill:#ed1a3b;fill-opacity:1"
       d="m 154.22487,248.17833 c -4.3514,-0.56148 -8.7717,-2.76174 -11.96643,-5.95648 -3.32795,-3.32793 -5.37696,-7.56566 -5.97876,-12.36514 -0.42985,-3.42813 -0.42985,-127.26227 0,-130.690404 0.6018,-4.79948 2.65081,-9.0372 5.97876,-12.36514 3.32794,-3.32795 7.56563,-5.37696 12.36513,-5.97876 3.428,-0.42984 126.9624,-0.42984 130.3904,0 4.7995,0.6018 9.0372,2.65081 12.3652,5.97876 3.3279,3.32794 5.3769,7.56566 5.9787,12.36514 0.4299,3.428134 0.4299,127.262274 0,130.690404 -0.6018,4.79948 -2.6508,9.03721 -5.9787,12.36514 -3.328,3.32795 -7.5657,5.37696 -12.3652,5.97876 -3.0545,0.383 -127.8129,0.36175 -130.7891,-0.0223 z m 67.7012,-7.21393 c 0.5194,-0.35591 1.5275,-1.44358 2.2402,-2.41704 3.3132,-4.52552 7.7083,-7.31703 14.6282,-9.29099 2.2898,-0.65318 2.694,-0.66554 27.2243,-0.83218 27.4459,-0.18645 25.8231,-0.066 28.1265,-2.08834 0.5955,-0.52289 1.3619,-1.5274 1.7031,-2.23224 l 0.6204,-1.28154 0,-62.98028 0,-62.980284 -0.7103,-1.5 c -0.8774,-1.85306 -2.272,-3.2068 -4.2337,-4.10963 l -1.5,-0.69037 -27.5195,-0.0811 -27.5196,-0.0811 -2.7804,0.78026 c -5.0002,1.40318 -8.2701,3.70109 -10.8595,7.63153 -1.8694,2.837644 -2.3726,2.837644 -4.242,0 -2.5855,-3.92458 -5.8602,-6.22862 -10.8377,-7.62543 l -2.7588,-0.77416 -26.9412,0.003 -26.9413,0.003 -1.49999,0.71033 c -1.85306,0.87751 -3.2068,2.27215 -4.10963,4.23379 l -0.69037,1.5 0,62.850004 c 0,57.37412 0.0425,62.94338 0.48747,63.92182 0.7345,1.61497 2.22394,3.15617 3.80071,3.9328 l 1.41181,0.69538 24.45,0.17221 24.45,0.17221 3.45,0.96083 c 5.8152,1.61952 10.1208,4.04812 12.9907,7.32738 3.78,4.31919 4.2419,4.71737 5.4729,4.71737 0.6853,0 1.5306,-0.26125 2.0937,-0.64711 z m -3.3531,-20.12789 c -0.5024,-0.53625 -1.1195,-1.28459 -1.3712,-1.66299 -0.8837,-1.32843 -4.21,-3.92906 -6.5328,-5.10763 -1.2904,-0.65477 -3.4046,-1.42348 -4.6982,-1.70825 -1.2936,-0.28477 -2.757,-0.66253 -3.252,-0.83947 -0.6029,-0.21551 -8.8226,-0.35406 -24.9,-0.41973 -13.2,-0.0539 -24.3125,-0.16779 -24.6944,-0.25306 -0.4528,-0.10109 -0.8941,-0.59504 -1.2684,-1.41946 -0.5583,-1.22981 -0.5742,-2.71004 -0.5806,-54.09505 l -0.01,-52.83063 0.675,-0.99178 c 0.3713,-0.54548 1.0304,-1.25493 1.4647,-1.576564 0.7675,-0.56841 1.4226,-0.58365 23.4,-0.54462 12.4357,0.0221 23.0828,0.11714 23.6603,0.21122 4.1477,0.675694 7.2816,2.416084 9.675,5.372814 l 1.425,1.76044 0,28.06055 0,28.06055 3.8999,-3.89125 3.8999,-3.89126 3.7501,3.74108 3.7501,3.74109 0,-27.91038 0,-27.91038 1.425,-1.76044 c 1.7675,-2.18352 4.1274,-3.85056 6.675,-4.71525 1.9272,-0.654124 2.225,-0.663794 25.5,-0.828204 19.3648,-0.13679 23.7493,-0.0942 24.6712,0.2397 1.2255,0.443824 2.8259,2.066054 3.0824,3.124454 0.089,0.36823 0.1249,24.51988 0.079,53.67035 l -0.083,53.00085 -0.7053,0.75071 -0.7052,0.75071 -23.7448,0.12056 c -23.1213,0.11739 -23.8195,0.13776 -26.5947,0.77615 -1.5675,0.36059 -3.525,0.87801 -4.35,1.14985 -3.5692,1.17604 -7.7012,4.01724 -9.4995,6.53197 -1.4392,2.01244 -1.7143,2.26835 -2.4387,2.26835 -0.3957,0 -1.0868,-0.41917 -1.6076,-0.975 z m -50.0454,-14.55595 c 0.6552,-0.33586 1.486,-0.92755 1.8464,-1.31485 0.7475,-0.80347 2.1875,-3.75826 2.1919,-4.4976 0.01,-0.91019 1.2136,-4.42441 1.6822,-4.89304 0.2578,-0.25779 0.9771,-0.46356 1.6204,-0.46356 1.7402,0 2.4003,0.99621 2.4003,3.62258 0,2.03424 -1.0158,5.61972 -1.9886,7.01917 -0.2263,0.32546 -0.4114,0.69671 -0.4114,0.825 0,0.12829 1.2768,0.23325 2.8373,0.23325 l 2.8373,0 0.6118,-2.05435 c 1.3834,-4.64519 1.5403,-7.32491 0.6058,-10.35032 -1.0953,-3.54623 -3.0174,-4.99765 -6.9278,-5.23129 -2.6993,-0.16129 -4.0849,0.22111 -5.5902,1.54272 -1.3443,1.18034 -2.0679,2.78968 -3.0511,6.78568 -0.6525,2.65229 -0.8933,3.2093 -1.5439,3.57113 -2.8588,1.59001 -4.2615,-2.75893 -2.5189,-7.80983 0.9602,-2.78292 0.9651,-2.80977 0.5147,-2.77374 -0.2062,0.0165 -1.4414,0.0503 -2.7449,0.075 l -2.3699,0.045 -0.543,2.325 c -0.3296,1.41128 -0.5451,3.50399 -0.5482,5.325 0,2.68642 0.083,3.18185 0.8417,4.73979 0.8885,1.82524 2.1185,2.88249 4.3001,3.69592 1.5185,0.56618 4.4285,0.36234 5.948,-0.41666 z m 29.6378,0.0528 1.4034,-0.4782 0,-3.28442 0,-3.28442 -2.325,0.0876 -2.325,0.0876 -0.093,1.125 c -0.089,1.07521 -0.053,1.125 0.825,1.125 0.8711,0 0.9181,0.0614 0.9181,1.2 0,1.27685 -0.1586,1.36768 -2.1,1.20267 -1.7435,-0.1482 -2.7,-1.48286 -2.7,-3.76743 0,-3.86001 2.6844,-5.12823 6.975,-3.29532 0.457,0.19521 0.525,0.0432 0.525,-1.17313 0,-1.32783 -0.055,-1.4205 -1.1099,-1.86115 -0.7708,-0.32206 -1.8086,-0.43194 -3.3969,-0.35969 -2.8491,0.12962 -4.3781,1.00713 -5.3873,3.09192 -0.562,1.16086 -0.6502,1.76892 -0.5614,3.86713 0.089,2.09042 0.2339,2.6836 0.906,3.69886 1.5344,2.3178 5.0799,3.1649 8.4461,2.01794 z m 82.5,0 1.4034,-0.4782 0,-3.28442 0,-3.28442 -2.325,0.0876 -2.325,0.0876 -0.093,1.125 c -0.089,1.07521 -0.053,1.125 0.825,1.125 0.8711,0 0.9181,0.0614 0.9181,1.2 0,1.27685 -0.1586,1.36768 -2.1,1.20267 -1.7435,-0.1482 -2.7,-1.48286 -2.7,-3.76743 0,-3.86001 2.6844,-5.12823 6.975,-3.29532 0.457,0.19521 0.525,0.0432 0.525,-1.17313 0,-1.32783 -0.055,-1.4205 -1.1099,-1.86115 -0.7708,-0.32206 -1.8086,-0.43194 -3.3969,-0.35969 -2.8491,0.12962 -4.3781,1.00713 -5.3873,3.09192 -0.562,1.16086 -0.6502,1.76892 -0.5614,3.86713 0.089,2.09042 0.2339,2.6836 0.906,3.69886 1.5344,2.3178 5.0799,3.1649 8.4461,2.01794 z m -67.2966,-2.2218 c 0,-1.32 0.1262,-2.4 0.2805,-2.4 1.0761,0 1.7741,0.69417 2.6851,2.67053 l 0.9815,2.12947 1.6265,0 c 0.8945,0 1.6264,-0.0651 1.6264,-0.14456 0,-0.53735 -2.4472,-5.2924 -2.7918,-5.42464 -0.3265,-0.12529 -0.2238,-0.369 0.4317,-1.02452 0.7238,-0.72383 0.8601,-1.1046 0.8601,-2.40293 0,-2.98696 -0.9468,-3.60335 -5.5351,-3.60335 l -3.1649,0 0,6.3 0,6.3 1.5,0 1.5,0 0,-2.4 z m 0,-6.28275 c 0,-1.6608 0.2963,-1.84598 1.9486,-1.21778 0.6851,0.26047 0.7756,0.44606 0.6946,1.425 -0.091,1.09263 -0.1305,1.12823 -1.3682,1.21778 l -1.275,0.0923 0,-1.51725 z m 10.8663,4.70775 0.084,-3.975 1.0417,2.775 1.0418,2.775 1.0665,0 1.0666,0 1.0417,-2.775 1.0417,-2.775 0.084,3.975 0.084,3.975 1.4913,0 1.4913,0 0,-6.31371 0,-6.3137 -1.9876,0.0887 -1.9877,0.0887 -1.0774,2.925 c -0.5926,1.60875 -1.1494,2.9248 -1.2374,2.92456 -0.088,-2.4e-4 -0.6739,-1.35024 -1.3022,-3 l -1.1423,-2.99956 -1.9327,0 -1.9327,0 0,6.3 0,6.3 1.4913,0 1.4913,0 0.084,-3.975 z m 23.6337,1.575 c 0,-1.32 0.1262,-2.4 0.2805,-2.4 1.0761,0 1.7741,0.69417 2.6851,2.67053 l 0.9815,2.12947 1.6265,0 c 0.8945,0 1.6264,-0.0651 1.6264,-0.14456 0,-0.53735 -2.4472,-5.2924 -2.7918,-5.42464 -0.3265,-0.12529 -0.2238,-0.369 0.4317,-1.02452 0.7238,-0.72383 0.8601,-1.1046 0.8601,-2.40293 0,-2.98696 -0.9468,-3.60335 -5.5351,-3.60335 l -3.1649,0 0,6.3 0,6.3 1.5,0 1.5,0 0,-2.4 z m 0,-6.28275 c 0,-1.6608 0.2963,-1.84598 1.9486,-1.21778 0.6851,0.26047 0.7756,0.44606 0.6946,1.425 -0.091,1.09263 -0.1305,1.12823 -1.3682,1.21778 l -1.275,0.0923 0,-1.51725 z m 10.8,2.38275 0,-6.3 -1.5,0 -1.5,0 0,6.3 0,6.3 1.5,0 1.5,0 0,-6.3 z m 4.566,2.49258 0.084,-3.80741 1.6749,3.73241 1.6748,3.73242 1.8502,0.0893 1.8501,0.0893 0,-6.31431 0,-6.31432 -1.5,0 -1.5,0 -0.01,4.125 -0.01,4.125 -1.8672,-4.12357 -1.8671,-4.12357 -1.725,-0.002 -1.725,-10e-4 0,6.3 0,6.3 1.491,0 1.4911,0 0.084,-3.80742 z m -54.066,2.30742 0,-1.2 -2.55,0 -2.55,0 0,-1.35 0,-1.35 2.25,0 2.25,0 0,-1.2 0,-1.2 -2.25,0 -2.25,0 0,-1.2 0,-1.2 2.4,0 2.4,0 0,-1.2 0,-1.2 -3.9,0 -3.9,0 0,6.15 0,6.15 4.05,0 4.05,0 0,-1.2 z m 34.5,0 0,-1.2 -2.55,0 -2.55,0 0,-1.35 0,-1.35 2.25,0 2.25,0 0,-1.2 0,-1.2 -2.25,0 -2.25,0 0,-1.2 0,-1.2 2.4,0 2.4,0 0,-1.2 0,-1.2 -3.9,0 -3.9,0 0,6.15 0,6.15 4.05,0 4.05,0 0,-1.2 z m -7.3302,-13.94576 c 1.8362,-1.07607 2.6802,-2.91961 2.6802,-5.85424 0,-4.23108 -2.0214,-6.6 -5.6318,-6.6 -3.9576,0 -5.8984,2.14528 -5.9116,6.53464 -0.013,4.45723 1.884,6.62758 5.8171,6.65362 1.3623,0.009 2.0687,-0.16118 3.0461,-0.73402 z m -3.6575,-1.88329 c -0.3508,-0.0566 -0.9583,-0.4441 -1.35,-0.8611 -0.6247,-0.66491 -0.7123,-1.04751 -0.7123,-3.10985 0,-2.06234 0.088,-2.44494 0.7123,-3.10985 0.8215,-0.87441 1.6408,-1.07607 2.8218,-0.69455 1.1361,0.36699 1.7759,1.73766 1.7759,3.8044 0,2.77669 -1.2415,4.29468 -3.2477,3.97095 z m -35.9329,1.69194 c 1.8836,-0.8948 2.4419,-4.00001 0.9959,-5.53923 -0.6321,-0.67277 -0.6429,-0.75168 -0.1746,-1.26914 0.7849,-0.86733 0.6631,-3.13044 -0.224,-4.16279 -0.7076,-0.82338 -0.8024,-0.84391 -4.35,-0.94185 l -3.6267,-0.10013 0,6.36761 0,6.36761 3.2544,-0.15425 c 1.8183,-0.0862 3.6386,-0.33676 4.125,-0.56783 z m -4.3794,-3.26289 0,-1.5 1.3597,0 c 1.1292,0 1.4013,0.11249 1.6052,0.66381 0.5142,1.39008 -0.3907,2.33619 -2.2344,2.33619 -0.6766,0 -0.7305,-0.11069 -0.7305,-1.5 z m 0,-5.11725 0,-1.21725 1.275,0.0923 c 1.0926,0.079 1.2898,0.19714 1.3785,0.82544 0.1252,0.88682 -0.6269,1.51681 -1.8108,1.51681 -0.7851,0 -0.8427,-0.0832 -0.8427,-1.21725 z m 10.5,2.71725 0,-6.3 -1.5,0 -1.5,0 0,6.3 0,6.3 1.5,0 1.5,0 0,-6.3 z m 8.8794,5.66289 c 1.8836,-0.8948 2.4419,-4.00001 0.9959,-5.53923 -0.6321,-0.67277 -0.6429,-0.75168 -0.1746,-1.26914 0.7849,-0.86733 0.6631,-3.13044 -0.224,-4.16279 -0.7076,-0.82338 -0.8024,-0.84391 -4.35,-0.94185 l -3.6267,-0.10013 0,6.36761 0,6.36761 3.2544,-0.15425 c 1.8183,-0.0862 3.6386,-0.33676 4.125,-0.56783 z m -4.3794,-3.26289 0,-1.5 1.3597,0 c 1.1292,0 1.4013,0.11249 1.6052,0.66381 0.5142,1.39008 -0.3907,2.33619 -2.2344,2.33619 -0.6766,0 -0.7305,-0.11069 -0.7305,-1.5 z m 0,-5.11725 0,-1.21725 1.275,0.0923 c 1.0926,0.079 1.2898,0.19714 1.3785,0.82544 0.1252,0.88682 -0.6269,1.51681 -1.8108,1.51681 -0.7851,0 -0.8427,-0.0832 -0.8427,-1.21725 z m 15.6,7.81725 0,-1.2 -2.55,0 -2.55,0 0,-5.1 0,-5.1 -1.5,0 -1.5,0 0,6.3 0,6.3 4.05,0 4.05,0 0,-1.2 z m 3.6,-5.1 0,-6.3 -1.5,0 -1.5,0 0,6.3 0,6.3 1.5,0 1.5,0 0,-6.3 z m 18.9,1.2 0,-5.1 1.8,0 1.8,0 0,-1.2 0,-1.2 -5.1,0 -5.1,0 0,1.2 0,1.2 1.8,0 1.8,0 0,5.1 0,5.1 1.5,0 1.5,0 0,-5.1 z m 7.2,2.4 0,-2.7 2.1,0 2.1,0 0,2.7 0,2.7 1.5,0 1.5,0 0,-6.3 0,-6.3 -1.5,0 -1.5,0 0,2.4 0,2.4 -2.1,0 -2.1,0 0,-2.4 0,-2.4 -1.5,0 -1.5,0 0,6.3 0,6.3 1.5,0 1.5,0 0,-2.7 z m 21,0.43405 0,-2.26596 2.0239,2.26596 2.0239,2.26595 1.8761,0 c 1.0319,0 1.8761,-0.0797 1.8761,-0.17704 0,-0.0974 -1.2907,-1.58956 -2.8683,-3.31596 l -2.8683,-3.13891 2.7513,-2.98405 2.7513,-2.98404 -1.8889,0 -1.889,0 -1.8798,2.025 -1.8798,2.025 -0.014,-2.025 -0.014,-2.025 -1.5,0 -1.5,0 0,6.3 0,6.3 1.5,0 1.5,0 0,-2.26595 z m -4.2,0.76595 0,-1.2 -2.55,0 -2.55,0 0,-1.35 0,-1.35 2.25,0 2.25,0 0,-1.2 0,-1.2 -2.25,0 -2.25,0 0,-1.2 0,-1.2 2.4,0 2.4,0 0,-1.2 0,-1.2 -3.9,0 -3.9,0 0,6.15 0,6.15 4.05,0 4.05,0 0,-1.2 z m -106.5,-6.9 0,-3.6 9.9,0 9.9,0 0,-3.15793 0,-3.15793 -9.9001,0.0829 -9.9002,0.0829 2e-4,-3.675 1e-4,-3.675 -2.55,0 -2.55,0 0,10.35 0,10.35 2.55,0 2.55,0 0,-3.6 z m 19.8,-17.675 0,-2.975 -2.175,-0.72463 -2.175,-0.72463 -0.083,-4.36877 -0.083,-4.36877 2.1223,-0.64461 c 1.1672,-0.35454 2.1886,-0.81763 2.2698,-1.02911 0.081,-0.21147 0.1084,-1.61614 0.061,-3.12148 l -0.087,-2.73699 -11.7,3.89529 c -6.435,2.1424 -12.0754,4.04351 -12.5342,4.22468 l -0.8341,0.32941 0.084,3.48481 0.084,3.4848 9.6,3.23332 c 5.28,1.77832 10.7475,3.62321 12.15,4.09975 1.4025,0.47653 2.7188,0.87779 2.925,0.89168 0.2765,0.0186 0.375,-0.75628 0.375,-2.94975 z m -14.4,-7.525 c -2.3925,-0.79737 -4.1271,-1.46107 -3.8546,-1.47488 0.2724,-0.0138 2.2262,-0.56512 4.3417,-1.22512 2.1155,-0.66 3.9514,-1.2 4.0797,-1.2 0.1282,0 0.2332,1.215 0.2332,2.7 0,1.485 -0.1012,2.6887 -0.225,2.67488 -0.1237,-0.0138 -2.1825,-0.67751 -4.575,-1.47488 z m 111.6,-8.85 0,-2.55 -22.65,0 -22.65,0 0,2.55 0,2.55 22.65,0 22.65,0 0,-2.55 z m -97.29,-12.975 c -0.1798,-6.65974 -0.4482,-8.17099 -1.8101,-10.19198 -2.3416,-3.47511 -5.6072,-5.03302 -10.5499,-5.03302 -4.6004,0 -7.6539,1.31842 -10.0979,4.36001 -1.748,2.17527 -2.1395,4.00967 -2.2873,10.71499 l -0.1338,6.075 12.5195,0 12.5196,0 -0.1601,-5.925 z m -19.6312,-2.47527 c 0.3044,-4.44143 2.2731,-6.32405 6.847,-6.54757 5.067,-0.24763 7.7742,2.40326 7.7742,7.61261 l 0,1.33523 -7.3929,0 -7.3928,0 0.1645,-2.40027 z m 116.9212,1.65027 0,-2.55 -22.65,0 -22.65,0 0,2.55 0,2.55 22.65,0 22.65,0 0,-2.55 z m 0,-14.1 0,-2.55 -22.65,0 -22.65,0 0,2.55 0,2.55 22.65,0 22.65,0 0,-2.55 z m -117,-5.7 0,-3.75 9.9,0 9.9,0 0,-3 0,-3 -12.45,0 -12.45,0 0,6.75 0,6.75 2.55,0 2.55,0 0,-3.75 z"
       id="path4202"
       inkscape:connector-curvature="0" />
  </g>
</svg>
