<?xml version="1.0" encoding="UTF-8" standalone="no"?>
<!-- Created with Inkscape (http://www.inkscape.org/) -->

<svg
   xmlns:dc="http://purl.org/dc/elements/1.1/"
   xmlns:cc="http://creativecommons.org/ns#"
   xmlns:rdf="http://www.w3.org/1999/02/22-rdf-syntax-ns#"
   xmlns:svg="http://www.w3.org/2000/svg"
   xmlns="http://www.w3.org/2000/svg"
   xmlns:sodipodi="http://sodipodi.sourceforge.net/DTD/sodipodi-0.dtd"
   xmlns:inkscape="http://www.inkscape.org/namespaces/inkscape"
   width="512"
   height="512"
   id="svg2"
   version="1.1"
   inkscape:version="0.92.1 r"
   sodipodi:docname="heilbronn.svg">
  <defs
     id="defs4" />
  <sodipodi:namedview
     id="base"
     pagecolor="#ffffff"
     bordercolor="#666666"
     borderopacity="1.0"
     inkscape:pageopacity="0.0"
     inkscape:pageshadow="2"
     inkscape:zoom="0.49497475"
     inkscape:cx="323.72022"
     inkscape:cy="-22.972133"
     inkscape:document-units="px"
     inkscape:current-layer="layer1"
     showgrid="false"
     inkscape:window-width="1920"
     inkscape:window-height="1080"
     inkscape:window-x="0"
     inkscape:window-y="0"
     inkscape:window-maximized="0" />
  <metadata
     id="metadata7">
    <rdf:RDF>
      <cc:Work
         rdf:about="">
        <dc:format>image/svg+xml</dc:format>
        <dc:type
           rdf:resource="http://purl.org/dc/dcmitype/StillImage" />
        <dc:title />
      </cc:Work>
    </rdf:RDF>
  </metadata>
  <g
     inkscape:label="Ebene 1"
     inkscape:groupmode="layer"
     id="layer1"
     transform="translate(0,-540.36218)">
    <rect
       style="fill:#e3001b;fill-opacity:1;fill-rule:nonzero;stroke:none"
       id="rect3104"
       width="512"
       height="512"
       x="0"
       y="540.36218" />
    <g
       aria-label="Stadt-"
       style="font-style:normal;font-variant:normal;font-weight:normal;font-stretch:normal;line-height:0%;font-family:Georgia;-inkscape-font-specification:Georgia;letter-spacing:0px;word-spacing:0px;fill:#000000;fill-opacity:1;stroke:none"
       id="text2991">
      <path
         d="m 68.626363,594.59452 q 0,-0.91264 -0.304212,-2.63651 -0.304213,-1.72387 -1.723871,-3.65055 -1.014041,-1.31825 -3.346337,-2.73791 -2.332295,-1.52106 -6.287057,-1.52106 -0.405617,0 -1.521062,0.1014 -1.115446,0.10141 -2.4337,0.50702 -1.318254,0.30421 -2.737912,1.11545 -1.419658,0.81123 -2.4337,2.23089 -0.912637,1.11544 -1.115445,2.12949 -0.202809,0.91263 -0.202809,1.62246 0,1.62247 0.608425,2.73791 0.709829,1.11545 2.028083,2.12949 1.318254,0.91264 3.143529,1.72387 1.926679,0.81124 4.360378,1.82528 7.503908,2.94072 12.168499,4.8674 4.664591,1.82527 7.706715,4.05616 1.419658,1.01404 3.447741,3.14353 2.028083,2.12949 3.143529,6.18565 0.202808,0.81124 0.507021,2.4337 0.304212,1.62247 0.304212,3.75196 0,1.41966 -0.405616,4.46178 -0.405617,2.94072 -2.332296,6.28706 -1.825275,3.24493 -4.360378,5.37442 -2.4337,2.12948 -5.475825,3.44774 -2.94072,1.31825 -6.287057,1.82527 -3.346337,0.60843 -6.794078,0.60843 -1.014042,0 -3.549145,-0.20281 -2.4337,-0.1014 -5.577229,-0.91264 -3.042124,-0.70983 -6.388461,-2.33229 -3.346337,-1.62247 -6.08425,-4.56319 -1.014041,-1.11545 -2.535103,-3.44774 -1.521063,-2.3323 -2.636508,-5.98285 -0.811233,-2.83931 -0.912638,-4.9688 -0.101404,-2.23089 -0.202808,-3.34634 h 13.283944 q 0.101404,0.50702 0.304212,2.2309 0.202809,1.62246 0.912638,3.34633 1.21685,2.94072 3.143528,4.66459 1.926679,1.62247 3.954762,2.4337 2.028083,0.81124 3.751954,1.01404 1.825275,0.10141 2.737912,0.10141 5.780037,0 8.517949,-2.3323 2.839316,-2.33229 2.94072,-5.27301 0,-0.50702 -0.202808,-1.21685 -0.101404,-0.81124 -0.709829,-1.92668 -1.115446,-2.02808 -3.549145,-3.34634 -2.332296,-1.31825 -6.489866,-3.04212 -1.825275,-0.81124 -4.461783,-1.82528 -2.535104,-1.11544 -5.273016,-2.33229 -2.636508,-1.21685 -5.171611,-2.53511 -2.4337,-1.31825 -4.056167,-2.5351 -0.912637,-0.70983 -2.230891,-1.92668 -1.21685,-1.31825 -2.433699,-3.14353 -1.115446,-1.92668 -1.926679,-4.36038 -0.709829,-2.4337 -0.709829,-5.67863 0,-5.27302 2.129487,-9.12637 2.129487,-3.95477 5.475824,-6.59127 3.447741,-2.63651 7.80812,-3.95476 4.461782,-1.31826 9.126373,-1.31826 0.912638,0 2.737912,0.10141 1.926679,0.1014 4.258975,0.60842 4.968803,1.11545 9.126373,4.15757 4.258975,3.04212 6.388462,7.70672 1.419658,3.14352 1.723871,5.98284 0.304212,2.73791 0.405616,3.85336 z"
         style="font-style:normal;font-variant:normal;font-weight:normal;font-stretch:normal;font-size:101.40415192px;line-height:1.25;font-family:'Corporate S BQ';-inkscape-font-specification:'Corporate S BQ';fill:#ffffff"
         id="path4530" />
      <path
         d="m 121.92534,594.1889 v 10.34323 H 111.3793 l -0.30421,19.6724 q -0.1014,2.4337 -0.1014,4.46178 0.1014,2.02809 0.30421,2.83932 0.30421,1.11545 1.41966,2.12949 1.21685,1.01404 3.75195,1.01404 1.11545,0 2.94072,-0.30421 1.82528,-0.40562 4.46178,-1.41966 l -0.1014,10.95165 q -1.41966,0.50702 -4.36038,1.41965 -2.94072,1.01405 -7.19969,1.01405 -3.54915,0 -5.67864,-0.81124 -2.12948,-0.81123 -3.34633,-1.72387 -2.4337,-1.62246 -3.447744,-3.34633 -0.912637,-1.82528 -1.318254,-2.83932 -0.507021,-1.21685 -0.811233,-2.73791 -0.202808,-1.62247 -0.202808,-4.36038 0,-1.52106 0,-3.04213 0.101404,-1.62246 0.202808,-3.14352 l 0.608425,-19.77381 H 90.28724 V 594.1889 h 8.31514 l 0.405617,-14.805 h 12.776923 l -0.20281,14.805 z"
         style="font-style:normal;font-variant:normal;font-weight:normal;font-stretch:normal;font-size:101.40415192px;line-height:1.25;font-family:'Corporate S BQ';-inkscape-font-specification:'Corporate S BQ';fill:#ffffff"
         id="path4532" />
      <path
         d="m 161.5601,620.85819 q 0,0 -1.21685,0.20281 -1.11545,0.10141 -2.83932,0.30421 -1.62247,0.20281 -3.44774,0.60843 -1.82528,0.30421 -3.14353,0.70983 -2.5351,0.81123 -3.75195,1.72387 -1.11545,0.91264 -1.82528,2.02808 -0.50702,0.81124 -0.81123,1.72387 -0.30421,0.91264 -0.30421,1.82528 0,1.11544 0.30421,1.82527 0.30421,0.70983 0.50702,1.11545 0.70983,1.21685 1.72387,1.92668 1.11545,0.60842 2.12949,0.91263 1.11544,0.30422 2.02808,0.40562 0.91264,0 1.21685,0 3.14353,0 4.9688,-1.11544 1.82528,-1.21685 2.53511,-2.2309 1.52106,-2.02808 1.62246,-4.36037 0.20281,-2.3323 0.30422,-4.6646 z m -29.00159,-11.45867 q 0.20281,-2.33229 0.70983,-4.36037 0.60842,-2.02809 1.92668,-3.85336 2.02808,-3.04213 5.0702,-4.66459 3.14353,-1.72387 6.18566,-2.4337 3.04212,-0.81124 5.37442,-0.91264 2.4337,-0.1014 3.04212,-0.1014 0.40562,0 2.02809,0.1014 1.72387,0 3.85335,0.40562 2.23089,0.40561 4.66459,1.21685 2.4337,0.81123 4.25898,2.4337 1.82527,1.52106 2.73791,3.44774 0.91264,1.92668 1.31826,4.05616 0.40561,2.02809 0.50702,4.25898 0.1014,2.12949 0.1014,4.25897 v 20.58505 q 0,2.23089 0.1014,4.9688 0.20281,2.63651 0.81124,4.66459 0.20281,0.40562 0.30421,0.70983 0.1014,0.30421 0.50702,1.01404 H 163.9938 q -0.50702,-1.82527 -0.60843,-2.83932 -0.1014,-1.01404 0,-2.94072 -0.20281,0.20281 -0.81123,1.11545 -0.50702,0.81123 -1.21685,1.52106 -1.41966,1.41966 -4.25898,2.83932 -2.83931,1.41966 -7.60531,1.41966 -3.14353,0 -6.69267,-0.70983 -3.54915,-0.70983 -6.18565,-2.4337 -1.21685,-0.81124 -1.82528,-1.41966 -0.50702,-0.60843 -0.91264,-1.11545 -1.01404,-1.11544 -2.12948,-3.24493 -1.01405,-2.12949 -1.01405,-5.67863 0,-1.21685 0.40562,-3.75196 0.50702,-2.5351 2.53511,-5.27301 0.60842,-0.91264 1.41965,-1.62247 0.81124,-0.81123 1.01404,-1.01404 1.72388,-1.52106 3.75196,-2.4337 2.02808,-1.01404 2.63651,-1.21685 4.25897,-1.72387 9.32918,-2.63651 5.17161,-0.91263 9.7348,-1.72387 v -0.81123 q 0,-0.91264 -0.10141,-1.92668 -0.1014,-1.11545 -0.40561,-2.02808 -0.81124,-2.23089 -2.94072,-2.94072 -2.12949,-0.81124 -4.25898,-0.81124 -0.81123,0 -1.72387,0.10141 -0.91264,0.1014 -1.72387,0.30421 -0.60842,0.20281 -1.41966,0.50702 -0.81123,0.20281 -1.62246,0.81123 -0.70983,0.60843 -1.31826,1.62247 -0.60842,0.91264 -0.91264,2.5351 z"
         style="font-style:normal;font-variant:normal;font-weight:normal;font-stretch:normal;font-size:101.40415192px;line-height:1.25;font-family:'Corporate S BQ';-inkscape-font-specification:'Corporate S BQ';fill:#ffffff"
         id="path4534" />
      <path
         d="m 209.21687,604.12651 q -0.50702,0 -1.72387,0.20281 -1.11544,0.1014 -2.33229,0.70983 -2.63651,1.31825 -4.66459,5.0702 -1.92668,3.65055 -1.92668,10.03901 0,5.78004 1.72387,9.12638 1.82527,3.34634 3.95476,4.76599 0.70983,0.40562 1.82528,0.81124 1.11544,0.40561 3.04212,0.40561 3.14353,0 5.27302,-1.52106 2.12948,-1.52106 3.34633,-3.75195 1.31826,-2.3323 1.82528,-5.07021 0.50702,-2.73791 0.50702,-5.37442 0,-0.20281 -0.10141,-2.63651 -0.1014,-2.5351 -1.11544,-5.37442 -0.91264,-2.83931 -3.14353,-5.17161 -2.23089,-2.3323 -6.48987,-2.23089 z m 23.82998,24.94542 q 0.1014,3.34634 0.1014,5.57723 0,2.23089 0.10141,3.95476 0.1014,1.72387 0.20281,3.24493 0.2028,1.52107 0.50702,3.34634 h -12.26991 q -0.30421,-2.02808 -0.40561,-2.73791 -0.10141,-0.81123 -0.10141,-2.02808 0,-0.50703 0,-1.11545 0.10141,-0.60843 0.20281,-1.21685 -0.70983,1.21685 -1.82527,2.63651 -1.01404,1.41966 -2.73791,2.73791 -1.62247,1.21685 -4.05617,2.02808 -2.4337,0.81124 -5.88144,0.81124 -3.54915,0 -5.78004,-0.70983 -2.23089,-0.70983 -3.54914,-1.41966 -3.34634,-1.62247 -5.78004,-4.25898 -2.3323,-2.73791 -3.85336,-5.88144 -1.41966,-3.24493 -2.12948,-6.79407 -0.70983,-3.54915 -0.70983,-7.0983 0.1014,-4.56318 1.11544,-8.92356 1.01404,-4.46178 3.44774,-8.41655 0.60843,-1.01404 1.92668,-2.6365 1.41966,-1.72387 3.44774,-3.24494 2.12949,-1.62246 4.96881,-2.73791 2.83931,-1.11544 6.59127,-1.11544 2.5351,0 4.9688,0.70983 2.4337,0.60842 4.46178,2.02808 1.41966,1.01404 2.4337,2.23089 1.01404,1.21685 1.41966,1.72387 v -26.66929 h 13.18254 z"
         style="font-style:normal;font-variant:normal;font-weight:normal;font-stretch:normal;font-size:101.40415192px;line-height:1.25;font-family:'Corporate S BQ';-inkscape-font-specification:'Corporate S BQ';fill:#ffffff"
         id="path4536" />
      <path
         d="m 274.82378,594.1889 v 10.34323 h -10.54603 l -0.30421,19.6724 q -0.10141,2.4337 -0.10141,4.46178 0.10141,2.02809 0.30421,2.83932 0.30422,1.11545 1.41966,2.12949 1.21685,1.01404 3.75196,1.01404 1.11544,0 2.94072,-0.30421 1.82527,-0.40562 4.46178,-1.41966 l -0.1014,10.95165 q -1.41966,0.50702 -4.36038,1.41965 -2.94072,1.01405 -7.1997,1.01405 -3.54914,0 -5.67863,-0.81124 -2.12949,-0.81123 -3.34634,-1.72387 -2.4337,-1.62246 -3.44774,-3.34633 -0.91264,-1.82528 -1.31825,-2.83932 -0.50702,-1.21685 -0.81124,-2.73791 -0.2028,-1.62247 -0.2028,-4.36038 0,-1.52106 0,-3.04213 0.1014,-1.62246 0.2028,-3.14352 l 0.60843,-19.77381 h -7.90952 V 594.1889 h 8.31514 l 0.40561,-14.805 h 12.77693 l -0.20281,14.805 z"
         style="font-style:normal;font-variant:normal;font-weight:normal;font-stretch:normal;font-size:101.40415192px;line-height:1.25;font-family:'Corporate S BQ';-inkscape-font-specification:'Corporate S BQ';fill:#ffffff"
         id="path4538" />
      <path
         d="m 307.25885,613.35429 v 9.53199 h -27.98754 v -9.53199 z"
         style="font-style:normal;font-variant:normal;font-weight:normal;font-stretch:normal;font-size:101.40415192px;line-height:1.25;font-family:'Corporate S BQ';-inkscape-font-specification:'Corporate S BQ';fill:#ffffff"
         id="path4540" />
    </g>
    <g
       aria-label="bibliothek"
       style="font-style:normal;font-variant:normal;font-weight:normal;font-stretch:normal;line-height:0%;font-family:Georgia;-inkscape-font-specification:Georgia;letter-spacing:0px;word-spacing:0px;fill:#000000;fill-opacity:1;stroke:none"
       id="text2995">
      <path
         d="m 58.688756,702.9362 q -2.230891,-0.1014 -4.258974,0.81123 -1.926679,0.91264 -3.447741,2.83932 -1.521062,1.92668 -2.4337,4.9688 -0.912637,2.94072 -0.912637,7.1997 0,0.30421 0,1.92668 0.101404,1.52106 0.507021,3.54914 0.50702,2.02809 1.419658,4.15757 0.912637,2.02809 2.636508,3.54915 1.72387,1.41966 3.447741,1.82527 1.72387,0.30422 2.535104,0.30422 1.115445,0 3.346337,-0.60843 2.230891,-0.60842 4.15757,-3.14353 1.825275,-2.4337 2.535104,-5.78003 0.709829,-3.44775 0.709829,-6.38847 0,-0.30421 -0.101404,-1.52106 0,-1.21685 -0.304213,-2.73791 -0.202808,-1.62247 -0.709829,-3.44774 -0.507021,-1.82528 -1.521062,-3.34634 -0.709829,-1.01404 -2.535104,-2.5351 -1.723871,-1.52106 -5.070208,-1.62247 z m -11.053052,-31.02967 0.101404,27.48053 q 0.507021,-0.60843 0.912637,-1.21685 0.507021,-0.60843 1.014042,-1.21685 1.723871,-1.82528 3.447741,-2.83932 1.723871,-1.01404 3.346337,-1.52106 1.622467,-0.50702 2.940721,-0.60843 1.419658,-0.1014 2.332295,-0.1014 1.21685,0 2.737912,0.20281 1.622467,0.20281 3.447741,0.91263 1.825275,0.70983 3.751954,2.02809 2.028083,1.21685 4.056166,3.44774 1.115446,1.21685 2.332295,3.04212 1.21685,1.82528 2.129488,4.25898 1.014041,2.4337 1.622466,5.57723 0.608425,3.14352 0.608425,7.09829 0,1.11544 -0.202808,3.85335 -0.101404,2.63651 -1.014042,5.78004 -1.115445,3.65055 -3.042124,6.79408 -1.926679,3.14353 -4.664591,5.47582 -2.737912,2.23089 -6.084249,3.54915 -3.346338,1.21685 -7.301099,1.21685 -3.751954,0 -6.08425,-1.01404 -2.230891,-1.01404 -3.447741,-2.02809 -0.50702,-0.30421 -1.21685,-0.91263 -0.608424,-0.60843 -1.419658,-1.62247 -0.50702,-0.60842 -0.709829,-0.91264 -0.202808,-0.40561 -0.709829,-1.41966 -0.101404,1.21685 -0.304212,2.73792 -0.101404,1.41965 -0.709829,4.05616 H 34.047548 q 0.101404,-0.81123 0.202808,-1.41966 0.101404,-0.70982 0.101404,-1.41965 0.101404,-0.91264 0,-1.82528 0,-0.91264 0.101404,-1.82527 v -65.60849 z"
         style="font-style:normal;font-variant:normal;font-weight:normal;font-stretch:normal;font-size:101.40415192px;line-height:1.25;font-family:'Corporate S BQ';-inkscape-font-specification:'Corporate S BQ';fill:#ffffff"
         id="path4509" />
      <path
         d="m 100.16147,670.89249 q 0.50702,0 1.52106,0.20281 1.01404,0.1014 2.23089,0.60842 1.41966,0.60843 2.2309,1.62247 0.81123,1.01404 1.11544,2.12949 0.40562,1.01404 0.50702,1.92668 0.10141,0.91263 0.10141,1.31825 0,3.54914 -2.12949,5.57723 -2.02808,2.02808 -5.57723,2.02808 -3.44774,0 -5.577227,-1.92668 -2.129488,-2.02808 -2.129488,-5.57723 0,-0.50702 0.202809,-1.82527 0.202808,-1.41966 1.115445,-2.73791 0.709829,-1.11545 1.622467,-1.72387 1.014041,-0.70983 1.926679,-1.01405 1.014041,-0.30421 1.72387,-0.40561 0.811233,-0.20281 1.115445,-0.20281 z m 6.59127,22.1061 v 51.00629 H 93.570201 v -51.00629 z"
         style="font-style:normal;font-variant:normal;font-weight:normal;font-stretch:normal;font-size:101.40415192px;line-height:1.25;font-family:'Corporate S BQ';-inkscape-font-specification:'Corporate S BQ';fill:#ffffff"
         id="path4511" />
      <path
         d="m 145.83295,702.9362 q -2.23089,-0.1014 -4.25897,0.81123 -1.92668,0.91264 -3.44774,2.83932 -1.52107,1.92668 -2.4337,4.9688 -0.91264,2.94072 -0.91264,7.1997 0,0.30421 0,1.92668 0.1014,1.52106 0.50702,3.54914 0.50702,2.02809 1.41966,4.15757 0.91264,2.02809 2.63651,3.54915 1.72387,1.41966 3.44774,1.82527 1.72387,0.30422 2.5351,0.30422 1.11545,0 3.34634,-0.60843 2.23089,-0.60842 4.15757,-3.14353 1.82527,-2.4337 2.5351,-5.78003 0.70983,-3.44775 0.70983,-6.38847 0,-0.30421 -0.1014,-1.52106 0,-1.21685 -0.30422,-2.73791 -0.2028,-1.62247 -0.70982,-3.44774 -0.50703,-1.82528 -1.52107,-3.34634 -0.70983,-1.01404 -2.5351,-2.5351 -1.72387,-1.52106 -5.07021,-1.62247 z m -11.05305,-31.02967 0.1014,27.48053 q 0.50702,-0.60843 0.91264,-1.21685 0.50702,-0.60843 1.01404,-1.21685 1.72387,-1.82528 3.44774,-2.83932 1.72387,-1.01404 3.34634,-1.52106 1.62247,-0.50702 2.94072,-0.60843 1.41966,-0.1014 2.3323,-0.1014 1.21685,0 2.73791,0.20281 1.62247,0.20281 3.44774,0.91263 1.82527,0.70983 3.75195,2.02809 2.02809,1.21685 4.05617,3.44774 1.11545,1.21685 2.3323,3.04212 1.21684,1.82528 2.12948,4.25898 1.01404,2.4337 1.62247,5.57723 0.60842,3.14352 0.60842,7.09829 0,1.11544 -0.2028,3.85335 -0.10141,2.63651 -1.01405,5.78004 -1.11544,3.65055 -3.04212,6.79408 -1.92668,3.14353 -4.66459,5.47582 -2.73791,2.23089 -6.08425,3.54915 -3.34634,1.21685 -7.3011,1.21685 -3.75195,0 -6.08425,-1.01404 -2.23089,-1.01404 -3.44774,-2.02809 -0.50702,-0.30421 -1.21685,-0.91263 -0.60842,-0.60843 -1.41966,-1.62247 -0.50702,-0.60842 -0.70983,-0.91264 -0.20281,-0.40561 -0.70983,-1.41966 -0.1014,1.21685 -0.30421,2.73792 -0.1014,1.41965 -0.70983,4.05616 h -11.45867 q 0.10141,-0.81123 0.20281,-1.41966 0.10141,-0.70982 0.10141,-1.41965 0.1014,-0.91264 0,-1.82528 0,-0.91264 0.1014,-1.82527 v -65.60849 z"
         style="font-style:normal;font-variant:normal;font-weight:normal;font-stretch:normal;font-size:101.40415192px;line-height:1.25;font-family:'Corporate S BQ';-inkscape-font-specification:'Corporate S BQ';fill:#ffffff"
         id="path4513" />
      <path
         d="m 193.89694,671.90653 v 72.09835 H 180.7144 v -72.09835 z"
         style="font-style:normal;font-variant:normal;font-weight:normal;font-stretch:normal;font-size:101.40415192px;line-height:1.25;font-family:'Corporate S BQ';-inkscape-font-specification:'Corporate S BQ';fill:#ffffff"
         id="path4515" />
      <path
         d="m 215.23142,670.89249 q 0.50702,0 1.52106,0.20281 1.01404,0.1014 2.23089,0.60842 1.41966,0.60843 2.2309,1.62247 0.81123,1.01404 1.11544,2.12949 0.40562,1.01404 0.50702,1.92668 0.10141,0.91263 0.10141,1.31825 0,3.54914 -2.12949,5.57723 -2.02808,2.02808 -5.57723,2.02808 -3.44774,0 -5.57723,-1.92668 -2.12948,-2.02808 -2.12948,-5.57723 0,-0.50702 0.2028,-1.82527 0.20281,-1.41966 1.11545,-2.73791 0.70983,-1.11545 1.62247,-1.72387 1.01404,-0.70983 1.92667,-1.01405 1.01405,-0.30421 1.72388,-0.40561 0.81123,-0.20281 1.11544,-0.20281 z m 6.59127,22.1061 v 51.00629 h -13.18254 v -51.00629 z"
         style="font-style:normal;font-variant:normal;font-weight:normal;font-stretch:normal;font-size:101.40415192px;line-height:1.25;font-family:'Corporate S BQ';-inkscape-font-specification:'Corporate S BQ';fill:#ffffff"
         id="path4517" />
      <path
         d="m 246.1993,718.55244 q 0,3.54915 1.11544,7.4025 1.11545,3.85336 4.05617,6.38847 1.92668,1.72387 3.75195,2.12948 1.82528,0.40562 2.83932,0.40562 0.81123,0 2.23089,-0.30421 1.52106,-0.30422 3.24493,-1.41966 2.3323,-1.41966 4.25898,-4.9688 1.92668,-3.54915 1.92668,-9.7348 0,-0.50702 -0.10141,-2.02809 0,-1.62246 -0.50702,-3.54914 -0.40562,-2.02808 -1.41966,-4.05617 -0.91264,-2.12949 -2.73791,-3.85336 -2.02808,-1.92667 -3.95476,-2.33229 -1.92668,-0.50702 -3.04213,-0.50702 -3.44774,0 -5.98284,2.02808 -2.02808,1.52106 -3.85336,5.07021 -1.82527,3.44774 -1.82527,9.32918 z m -13.48676,-0.1014 q 0,-1.41966 0.30422,-4.56319 0.40561,-3.14353 1.82527,-6.89548 2.94072,-7.3011 9.12637,-11.35727 6.18566,-4.05616 13.99378,-4.05616 2.94072,0 5.88144,0.70983 2.94072,0.60842 5.47582,1.92667 3.54915,1.72387 6.18566,4.36038 2.6365,2.53511 4.25897,5.78004 1.72387,3.14353 2.5351,6.79408 0.81124,3.65055 0.81124,7.4025 0,5.37442 -1.62247,10.34322 -1.41966,3.85336 -3.75195,6.89549 -2.3323,3.04212 -5.37442,5.17161 -3.04213,2.12949 -6.79408,3.24493 -3.65055,1.21685 -7.70672,1.21685 -3.75195,0 -6.48986,-0.81123 -2.73791,-0.81124 -3.95476,-1.41966 -3.75196,-1.62247 -6.48987,-4.25897 -2.73791,-2.63651 -4.56319,-5.78004 -1.82527,-3.24493 -2.73791,-6.99689 -0.91264,-3.75195 -0.91264,-7.70671 z"
         style="font-style:normal;font-variant:normal;font-weight:normal;font-stretch:normal;font-size:101.40415192px;line-height:1.25;font-family:'Corporate S BQ';-inkscape-font-specification:'Corporate S BQ';fill:#ffffff"
         id="path4519" />
      <path
         d="m 320.9706,692.99859 v 10.34323 h -10.54603 l -0.30421,19.6724 q -0.10141,2.4337 -0.10141,4.46179 0.10141,2.02808 0.30421,2.83931 0.30422,1.11545 1.41966,2.12949 1.21685,1.01404 3.75196,1.01404 1.11544,0 2.94072,-0.30421 1.82527,-0.40562 4.46178,-1.41966 l -0.1014,10.95165 q -1.41966,0.50702 -4.36038,1.41966 -2.94072,1.01404 -7.1997,1.01404 -3.54914,0 -5.67863,-0.81123 -2.12949,-0.81124 -3.34634,-1.72388 -2.4337,-1.62246 -3.44774,-3.34633 -0.91264,-1.82528 -1.31825,-2.83932 -0.50702,-1.21685 -0.81124,-2.73791 -0.2028,-1.62247 -0.2028,-4.36038 0,-1.52106 0,-3.04212 0.1014,-1.62247 0.2028,-3.14353 l 0.60843,-19.77381 h -7.90952 v -10.34323 h 8.31514 l 0.40561,-14.805 h 12.77693 l -0.20281,14.805 z"
         style="font-style:normal;font-variant:normal;font-weight:normal;font-stretch:normal;font-size:101.40415192px;line-height:1.25;font-family:'Corporate S BQ';-inkscape-font-specification:'Corporate S BQ';fill:#ffffff"
         id="path4521" />
      <path
         d="m 346.10458,671.90653 v 26.66929 q 0.30421,-0.40561 0.70983,-0.91263 0.50702,-0.50703 1.31825,-1.21685 1.82527,-1.62247 3.65055,-2.53511 1.92668,-0.91264 3.54914,-1.31825 1.72387,-0.50702 3.14353,-0.60843 1.41966,-0.1014 2.23089,-0.1014 0.81124,0 2.73792,0.20281 1.92667,0.20281 4.15757,1.01404 2.33229,0.81123 4.56318,2.5351 2.3323,1.62247 3.85336,4.46179 0.70983,1.31825 1.11545,2.73791 0.40561,1.31825 0.60842,3.04212 0.20281,1.62247 0.20281,3.75196 0.1014,2.12948 0.1014,4.9688 v 29.4072 H 364.86434 V 717.437 q 0,-1.52107 -0.1014,-3.24494 -0.1014,-1.72387 -0.40562,-3.34633 -0.30421,-1.62247 -1.11544,-3.04213 -0.70983,-1.52106 -2.02809,-2.63651 -0.60842,-0.50702 -1.82527,-1.01404 -1.21685,-0.60842 -3.24493,-0.60842 -2.12949,0 -3.54915,0.70983 -1.41966,0.60842 -2.12949,1.11544 -3.14352,2.3323 -3.75195,5.67863 -0.60842,3.24494 -0.60842,6.79408 v 26.16227 h -13.28395 v -72.09835 z"
         style="font-style:normal;font-variant:normal;font-weight:normal;font-stretch:normal;font-size:101.40415192px;line-height:1.25;font-family:'Corporate S BQ';-inkscape-font-specification:'Corporate S BQ';fill:#ffffff"
         id="path4523" />
      <path
         d="m 423.66289,712.06257 q -0.50702,-4.36037 -2.94072,-7.30109 -2.33229,-2.94072 -7.09829,-2.94072 -3.24493,0 -5.37442,1.31825 -2.02808,1.21685 -3.24493,2.94072 -1.21685,1.72387 -1.82527,3.44774 -0.50703,1.62247 -0.70983,2.5351 z m -21.59908,9.6334 q 0.30421,4.15757 1.62247,6.79408 1.31825,2.5351 3.04212,3.95476 1.82528,1.41966 3.85336,1.92668 2.12949,0.50702 3.95476,0.50702 0.40562,0 1.31825,0 1.01405,-0.10141 2.12949,-0.40562 1.21685,-0.30421 2.4337,-0.91263 1.31826,-0.70983 2.4337,-1.92668 0.60843,-0.81124 0.91264,-1.52107 0.40561,-0.70983 0.60842,-1.01404 l 11.66148,0.50702 q -0.1014,0.40562 -0.30421,1.21685 -0.20281,0.81124 -0.60843,1.82528 -1.01404,2.4337 -2.73791,4.66459 -1.72387,2.23089 -3.85336,3.85336 -1.82527,1.41965 -5.37442,2.83931 -3.54914,1.41966 -9.12637,1.41966 -0.91264,0 -2.83932,-0.20281 -1.82527,-0.1014 -4.25897,-0.70983 -2.3323,-0.50702 -4.9688,-1.62246 -2.63651,-1.21685 -4.8674,-3.24494 -1.31826,-1.21685 -2.83932,-2.94072 -1.41966,-1.82527 -2.63651,-4.25897 -1.21685,-2.5351 -2.02808,-5.78004 -0.70983,-3.34633 -0.70983,-7.5039 0,-5.67864 1.62247,-10.64744 1.62246,-5.07021 4.76599,-8.82216 3.14353,-3.75196 7.70672,-5.88144 4.66459,-2.23089 10.74884,-2.23089 0.91263,0 2.33229,0.1014 1.52106,0.1014 3.24494,0.50702 1.72387,0.30421 3.75195,1.11545 2.02808,0.81123 4.05617,2.23089 2.73791,2.02808 4.56318,4.56319 1.82528,2.43369 2.83932,5.17161 1.11544,2.6365 1.62246,5.27301 0.60843,2.63651 0.70983,4.8674 0.20281,2.23089 0.20281,3.95476 0,1.62247 0,2.3323 z"
         style="font-style:normal;font-variant:normal;font-weight:normal;font-stretch:normal;font-size:101.40415192px;line-height:1.25;font-family:'Corporate S BQ';-inkscape-font-specification:'Corporate S BQ';fill:#ffffff"
         id="path4525" />
      <path
         d="m 461.27118,671.90653 v 72.09835 h -13.18254 v -72.09835 z m 34.78162,21.09206 -19.16538,23.62717 20.88925,27.37912 h -17.64432 l -18.65836,-27.17631 18.75976,-23.82998 z"
         style="font-style:normal;font-variant:normal;font-weight:normal;font-stretch:normal;font-size:101.40415192px;line-height:1.25;font-family:'Corporate S BQ';-inkscape-font-specification:'Corporate S BQ';fill:#ffffff"
         id="path4527" />
    </g>
    <g
       aria-label="Heilbronn"
       style="font-style:normal;font-variant:normal;font-weight:normal;font-stretch:normal;line-height:0%;font-family:Georgia;-inkscape-font-specification:Georgia;letter-spacing:0px;word-spacing:0px;fill:#000000;fill-opacity:1;stroke:none"
       id="text3003">
      <path
         d="m 77.854141,795.81921 v -28.59597 h 13.790965 v 71.59134 H 77.854141 v -31.6381 H 49.460979 v 31.6381 H 35.670014 v -71.59134 h 13.790965 v 28.59597 z"
         style="font-style:normal;font-variant:normal;font-weight:normal;font-stretch:normal;font-size:101.40415192px;line-height:1.25;font-family:'Corporate S BQ';-inkscape-font-specification:'Corporate S BQ';fill:#ffffff"
         id="path4490" />
      <path
         d="m 138.85983,806.87227 q -0.50702,-4.36038 -2.94072,-7.3011 -2.33229,-2.94072 -7.09829,-2.94072 -3.24493,0 -5.37442,1.31825 -2.02808,1.21685 -3.24493,2.94072 -1.21685,1.72387 -1.82528,3.44774 -0.50702,1.62247 -0.70983,2.53511 z m -21.59908,9.63339 q 0.30421,4.15757 1.62246,6.79408 1.31826,2.5351 3.04213,3.95476 1.82527,1.41966 3.85336,1.92668 2.12948,0.50702 3.95476,0.50702 0.40561,0 1.31825,0 1.01404,-0.1014 2.12949,-0.40562 1.21685,-0.30421 2.4337,-0.91263 1.31825,-0.70983 2.4337,-1.92668 0.60842,-0.81123 0.91264,-1.52106 0.40561,-0.70983 0.60842,-1.01405 l 11.66148,0.50703 q -0.10141,0.40561 -0.30421,1.21685 -0.20281,0.81123 -0.60843,1.82527 -1.01404,2.4337 -2.73791,4.66459 -1.72387,2.23089 -3.85336,3.85336 -1.82527,1.41966 -5.37442,2.83932 -3.54914,1.41965 -9.12637,1.41965 -0.91264,0 -2.83932,-0.2028 -1.82527,-0.10141 -4.25897,-0.70983 -2.3323,-0.50702 -4.96881,-1.62247 -2.6365,-1.21685 -4.8674,-3.24493 -1.31825,-1.21685 -2.83931,-2.94072 -1.41966,-1.82528 -2.63651,-4.25898 -1.21685,-2.5351 -2.02808,-5.78003 -0.70983,-3.34634 -0.70983,-7.50391 0,-5.67863 1.62246,-10.64744 1.62247,-5.07021 4.766,-8.82216 3.14353,-3.75195 7.70671,-5.88144 4.6646,-2.23089 10.74884,-2.23089 0.91264,0 2.3323,0.1014 1.52106,0.10141 3.24493,0.50702 1.72387,0.30422 3.75196,1.11545 2.02808,0.81123 4.05616,2.23089 2.73791,2.02808 4.56319,4.56319 1.82527,2.4337 2.83932,5.17161 1.11544,2.63651 1.62246,5.27302 0.60843,2.6365 0.70983,4.86739 0.20281,2.2309 0.20281,3.95477 0,1.62246 0,2.33229 z"
         style="font-style:normal;font-variant:normal;font-weight:normal;font-stretch:normal;font-size:101.40415192px;line-height:1.25;font-family:'Corporate S BQ';-inkscape-font-specification:'Corporate S BQ';fill:#ffffff"
         id="path4492" />
      <path
         d="m 169.87682,765.70218 q 0.50702,0 1.52106,0.20281 1.01405,0.1014 2.2309,0.60842 1.41965,0.60843 2.23089,1.62247 0.81123,1.01404 1.11544,2.12949 0.40562,1.01404 0.50702,1.92668 0.10141,0.91263 0.10141,1.31825 0,3.54915 -2.12949,5.57723 -2.02808,2.02808 -5.57723,2.02808 -3.44774,0 -5.57723,-1.92668 -2.12948,-2.02808 -2.12948,-5.57722 0,-0.50703 0.2028,-1.82528 0.20281,-1.41966 1.11545,-2.73791 0.70983,-1.11545 1.62247,-1.72387 1.01404,-0.70983 1.92668,-1.01404 1.01404,-0.30422 1.72387,-0.40562 0.81123,-0.20281 1.11544,-0.20281 z m 6.59127,22.10611 v 51.00629 h -13.18254 v -51.00629 z"
         style="font-style:normal;font-variant:normal;font-weight:normal;font-stretch:normal;font-size:101.40415192px;line-height:1.25;font-family:'Corporate S BQ';-inkscape-font-specification:'Corporate S BQ';fill:#ffffff"
         id="path4494" />
      <path
         d="m 204.39384,766.71622 v 72.09836 H 191.2113 v -72.09836 z"
         style="font-style:normal;font-variant:normal;font-weight:normal;font-stretch:normal;font-size:101.40415192px;line-height:1.25;font-family:'Corporate S BQ';-inkscape-font-specification:'Corporate S BQ';fill:#ffffff"
         id="path4496" />
      <path
         d="m 243.47407,797.74589 q -2.2309,-0.1014 -4.25898,0.81124 -1.92668,0.91263 -3.44774,2.83931 -1.52106,1.92668 -2.4337,4.96881 -0.91264,2.94072 -0.91264,7.19969 0,0.30421 0,1.92668 0.10141,1.52106 0.50702,3.54915 0.50702,2.02808 1.41966,4.15757 0.91264,2.02808 2.63651,3.54914 1.72387,1.41966 3.44774,1.82528 1.72387,0.30421 2.5351,0.30421 1.11545,0 3.34634,-0.60843 2.23089,-0.60842 4.15757,-3.14353 1.82528,-2.43369 2.53511,-5.78003 0.70982,-3.44774 0.70982,-6.38846 0,-0.30422 -0.1014,-1.52107 0,-1.21685 -0.30421,-2.73791 -0.20281,-1.62246 -0.70983,-3.44774 -0.50702,-1.82527 -1.52106,-3.34634 -0.70983,-1.01404 -2.53511,-2.5351 -1.72387,-1.52106 -5.0702,-1.62247 z m -11.05306,-31.02967 0.10141,27.48053 q 0.50702,-0.60843 0.91263,-1.21685 0.50703,-0.60843 1.01405,-1.21685 1.72387,-1.82528 3.44774,-2.83932 1.72387,-1.01404 3.34633,-1.52106 1.62247,-0.50702 2.94072,-0.60842 1.41966,-0.10141 2.3323,-0.10141 1.21685,0 2.73791,0.20281 1.62247,0.20281 3.44774,0.91264 1.82528,0.70983 3.75196,2.02808 2.02808,1.21685 4.05616,3.44774 1.11545,1.21685 2.3323,3.04213 1.21685,1.82527 2.12949,4.25897 1.01404,2.4337 1.62246,5.57723 0.60843,3.14353 0.60843,7.09829 0,1.11544 -0.20281,3.85336 -0.10141,2.6365 -1.01404,5.78003 -1.11545,3.65055 -3.04213,6.79408 -1.92668,3.14353 -4.66459,5.47583 -2.73791,2.23089 -6.08425,3.54914 -3.34633,1.21685 -7.3011,1.21685 -3.75195,0 -6.08425,-1.01404 -2.23089,-1.01404 -3.44774,-2.02808 -0.50702,-0.30422 -1.21685,-0.91264 -0.60842,-0.60843 -1.41965,-1.62247 -0.50703,-0.60842 -0.70983,-0.91263 -0.20281,-0.40562 -0.70983,-1.41966 -0.10141,1.21685 -0.30422,2.73791 -0.1014,1.41966 -0.70982,4.05617 h -11.45867 q 0.1014,-0.81124 0.2028,-1.41966 0.10141,-0.70983 0.10141,-1.41966 0.1014,-0.91264 0,-1.82528 0,-0.91263 0.1014,-1.82527 v -65.60849 z"
         style="font-style:normal;font-variant:normal;font-weight:normal;font-stretch:normal;font-size:101.40415192px;line-height:1.25;font-family:'Corporate S BQ';-inkscape-font-specification:'Corporate S BQ';fill:#ffffff"
         id="path4498" />
      <path
         d="m 290.42259,787.80829 q 0.50702,2.4337 0.60843,4.8674 0.20281,2.33229 0.20281,3.04212 0,0.70983 -0.10141,1.31825 0,0.60843 0,1.31826 0.81123,-1.82528 2.12949,-3.75196 0.40562,-0.70982 1.31825,-2.02808 1.01404,-1.31825 2.53511,-2.63651 1.52106,-1.31825 3.65055,-2.23089 2.23089,-1.01404 5.0702,-1.01404 1.62247,0 2.3323,0.30421 0.81123,0.20281 1.62247,0.40562 l -0.10141,13.38535 q -0.40562,-0.40562 -1.01404,-0.70983 -0.70983,-0.40562 -2.63651,-1.11545 -1.92668,-0.70983 -4.25897,-0.70983 -2.3323,0 -3.65055,0.70983 -1.31826,0.60843 -2.12949,1.31826 -1.52106,1.31825 -2.4337,3.14353 -0.81123,1.72387 -1.31825,3.75195 -0.40562,2.02808 -0.50702,4.05617 -0.10141,2.02808 -0.10141,3.85335 v 23.72858 H 278.4569 v -35.39005 q 0,-3.44774 0,-5.47583 0,-2.12949 -0.1014,-3.65055 0,-1.52106 -0.20281,-2.94072 -0.1014,-1.41966 -0.40562,-3.54914 z"
         style="font-style:normal;font-variant:normal;font-weight:normal;font-stretch:normal;font-size:101.40415192px;line-height:1.25;font-family:'Corporate S BQ';-inkscape-font-specification:'Corporate S BQ';fill:#ffffff"
         id="path4500" />
      <path
         d="m 328.59017,813.36213 q 0,3.54915 1.11544,7.40251 1.11545,3.85335 4.05617,6.38846 1.92668,1.72387 3.75195,2.12948 1.82528,0.40562 2.83932,0.40562 0.81123,0 2.23089,-0.30421 1.52106,-0.30421 3.24493,-1.41966 2.3323,-1.41966 4.25898,-4.9688 1.92667,-3.54915 1.92667,-9.7348 0,-0.50702 -0.1014,-2.02808 0,-1.62247 -0.50702,-3.54915 -0.40562,-2.02808 -1.41966,-4.05617 -0.91264,-2.12948 -2.73791,-3.85335 -2.02808,-1.92668 -3.95476,-2.3323 -1.92668,-0.50702 -3.04213,-0.50702 -3.44774,0 -5.98284,2.02808 -2.02809,1.52107 -3.85336,5.07021 -1.82527,3.44774 -1.82527,9.32918 z m -13.48676,-0.1014 q 0,-1.41966 0.30422,-4.56319 0.40561,-3.14353 1.82527,-6.89548 2.94072,-7.3011 9.12637,-11.35727 6.18566,-4.05616 13.99378,-4.05616 2.94072,0 5.88144,0.70983 2.94072,0.60842 5.47582,1.92668 3.54915,1.72387 6.18566,4.36038 2.6365,2.5351 4.25897,5.78003 1.72387,3.14353 2.5351,6.79408 0.81124,3.65055 0.81124,7.4025 0,5.37442 -1.62247,10.34323 -1.41966,3.85335 -3.75195,6.89548 -2.3323,3.04212 -5.37442,5.17161 -3.04213,2.12949 -6.79408,3.24493 -3.65055,1.21685 -7.70672,1.21685 -3.75195,0 -6.48986,-0.81123 -2.73791,-0.81123 -3.95476,-1.41966 -3.75196,-1.62246 -6.48987,-4.25897 -2.73791,-2.63651 -4.56319,-5.78004 -1.82527,-3.24493 -2.73791,-6.99689 -0.91264,-3.75195 -0.91264,-7.70671 z"
         style="font-style:normal;font-variant:normal;font-weight:normal;font-stretch:normal;font-size:101.40415192px;line-height:1.25;font-family:'Corporate S BQ';-inkscape-font-specification:'Corporate S BQ';fill:#ffffff"
         id="path4502" />
      <path
         d="m 387.64383,787.80829 q 0.50702,1.21685 0.70983,2.5351 0.30421,1.31825 0.50702,3.95476 0.50702,-0.81123 1.62246,-2.02808 1.21685,-1.31825 3.34634,-2.73791 1.31825,-0.81124 3.75195,-1.82528 2.53511,-1.01404 6.38846,-1.01404 2.83932,0 5.07021,0.70983 2.3323,0.60843 4.05617,1.62247 1.72387,0.91263 2.83931,2.12948 1.21685,1.11545 1.92668,2.02809 1.21685,1.72387 1.82528,3.75195 0.70983,1.92668 0.91264,4.05617 0.30421,2.12948 0.30421,4.36038 0,2.12948 0,4.05616 v 29.40721 h -13.28395 v -28.90019 q -0.1014,-4.25897 -0.91263,-6.48986 -0.70983,-2.2309 -2.53511,-3.65055 -2.02808,-1.41966 -4.8674,-1.41966 -0.81123,0 -2.4337,0.30421 -1.52106,0.20281 -3.24493,1.62247 -1.52106,1.21685 -2.33229,2.63651 -0.81124,1.41965 -1.21685,3.04212 -0.30422,1.62247 -0.40562,3.34634 0,1.72387 0,3.34633 v 26.16228 h -13.18254 v -32.75355 q 0,-0.1014 0,-1.62246 0,-1.62247 0,-3.75196 0,-2.23089 -0.20281,-4.56318 -0.1014,-2.4337 -0.40562,-4.36038 -0.2028,-1.52106 -0.50702,-2.4337 -0.30421,-0.91264 -0.50702,-1.52106 z"
         style="font-style:normal;font-variant:normal;font-weight:normal;font-stretch:normal;font-size:101.40415192px;line-height:1.25;font-family:'Corporate S BQ';-inkscape-font-specification:'Corporate S BQ';fill:#ffffff"
         id="path4504" />
      <path
         d="m 446.26809,787.80829 q 0.50702,1.21685 0.70983,2.5351 0.30422,1.31825 0.50702,3.95476 0.50702,-0.81123 1.62247,-2.02808 1.21685,-1.31825 3.34634,-2.73791 1.31825,-0.81124 3.75195,-1.82528 2.5351,-1.01404 6.38846,-1.01404 2.83932,0 5.07021,0.70983 2.3323,0.60843 4.05617,1.62247 1.72387,0.91263 2.83931,2.12948 1.21685,1.11545 1.92668,2.02809 1.21685,1.72387 1.82528,3.75195 0.70982,1.92668 0.91263,4.05617 0.30422,2.12948 0.30422,4.36038 0,2.12948 0,4.05616 v 29.40721 h -13.28395 v -28.90019 q -0.1014,-4.25897 -0.91264,-6.48986 -0.70982,-2.2309 -2.5351,-3.65055 -2.02808,-1.41966 -4.8674,-1.41966 -0.81123,0 -2.4337,0.30421 -1.52106,0.20281 -3.24493,1.62247 -1.52106,1.21685 -2.3323,2.63651 -0.81123,1.41965 -1.21685,3.04212 -0.30421,1.62247 -0.40561,3.34634 0,1.72387 0,3.34633 v 26.16228 h -13.18254 v -32.75355 q 0,-0.1014 0,-1.62246 0,-1.62247 0,-3.75196 0,-2.23089 -0.20281,-4.56318 -0.10141,-2.4337 -0.40562,-4.36038 -0.20281,-1.52106 -0.50702,-2.4337 -0.30421,-0.91264 -0.50702,-1.52106 z"
         style="font-style:normal;font-variant:normal;font-weight:normal;font-stretch:normal;font-size:101.40415192px;line-height:1.25;font-family:'Corporate S BQ';-inkscape-font-specification:'Corporate S BQ';fill:#ffffff"
         id="path4506" />
    </g>
    <path
       style="fill:none;stroke:#ffffff;stroke-width:4.7313323;stroke-linecap:square;stroke-linejoin:miter;stroke-miterlimit:4;stroke-opacity:1;stroke-dasharray:none"
       d="m 32.407715,654.36218 -30.0605343,0"
       id="path3015"
       inkscape:connector-curvature="0" />
  </g>
</svg>
