<?xml version="1.0" encoding="UTF-8" standalone="no"?>
<svg
   xmlns:dc="http://purl.org/dc/elements/1.1/"
   xmlns:cc="http://creativecommons.org/ns#"
   xmlns:rdf="http://www.w3.org/1999/02/22-rdf-syntax-ns#"
   xmlns:svg="http://www.w3.org/2000/svg"
   xmlns="http://www.w3.org/2000/svg"
   xmlns:sodipodi="http://sodipodi.sourceforge.net/DTD/sodipodi-0.dtd"
   xmlns:inkscape="http://www.inkscape.org/namespaces/inkscape"
   viewBox="0 0 207.88 209.65334"
   height="209.65334"
   width="207.88"
   xml:space="preserve"
   id="svg2"
   version="1.1"
   sodipodi:docname="ic_launcher.svg"
   inkscape:version="0.92.1 r"><sodipodi:namedview
     pagecolor="#ffffff"
     bordercolor="#666666"
     borderopacity="1"
     objecttolerance="10"
     gridtolerance="10"
     guidetolerance="10"
     inkscape:pageopacity="0"
     inkscape:pageshadow="2"
     inkscape:window-width="1916"
     inkscape:window-height="951"
     id="namedview18"
     showgrid="false"
     inkscape:zoom="2.2513355"
     inkscape:cx="125.77053"
     inkscape:cy="58.700734"
     inkscape:window-x="1920"
     inkscape:window-y="108"
     inkscape:window-maximized="0"
     inkscape:current-layer="svg2" /><metadata
     id="metadata8"><rdf:RDF><cc:Work
         rdf:about=""><dc:format>image/svg+xml</dc:format><dc:type
           rdf:resource="http://purl.org/dc/dcmitype/StillImage" /><dc:title></dc:title></cc:Work></rdf:RDF></metadata><defs
     id="defs6" /><path
     id="path14"
     style="fill:#93b413;fill-opacity:1;fill-rule:nonzero;stroke:none;stroke-width:0.13333333"
     d="m 16,0.00666857 c 0,0 -16,0 -16,15.99999943 V 85.734533 H 207.87466 V 16.006668 c 0,0 0,-15.99999943 -16,-15.99999943 H 16"
     inkscape:connector-curvature="0" /><path
     id="path16"
     style="fill:#0f65a6;fill-opacity:1;fill-rule:nonzero;stroke:none;stroke-width:0.13333333"
     d="M 191.87466,209.65333 H 16 c -16,0 -16,-16 -16,-16 V 85.734533 H 207.87466 V 42.870668 193.65333 c 0,16 -16,16 -16,16"
     inkscape:connector-curvature="0" /><path
     id="path18"
     style="fill:#0e522d;fill-opacity:1;fill-rule:nonzero;stroke:none;stroke-width:0.13333333"
     d="M 0,85.734533 H 207.87466 V 42.870534 H 0 Z"
     inkscape:connector-curvature="0" /><path
     id="path20"
     style="fill:#ffffff;fill-opacity:1;fill-rule:nonzero;stroke:none;stroke-width:0.13333333"
     d="m 140.19866,14.190668 c -1.19866,0.914667 -2.54,1.686667 -3.90133,2.438667 4.02133,1.850666 9.628,-1.341333 13.16267,0 -1.34,1.26 -4.084,1.116 -5.848,1.950666 3.25066,2.761334 13.62533,-1.605333 14.624,3.410667 -2.724,-0.285333 -4.41067,0.468 -5.85067,1.462667 0.52933,2.397333 5.972,-0.121334 7.30933,1.461333 -3.67466,1.848 -9.76666,1.281333 -11.21066,5.362666 2.39866,1.482667 6.644,-1.642666 9.26266,0 -1.444,1.158667 -4.408,0.792 -5.852,1.949334 1.76934,2.681333 7.47734,-1.076 10.236,0.976 -0.82933,0.790666 -1.96533,0.829333 -3.40933,1.461333 1.21867,1.218667 5.17867,-0.304 5.84933,1.462667 -6.03466,1.442666 -12.99866,1.950666 -16.572,5.849333 1.22534,0.646667 1.65734,-0.04 4.38667,0.485333 -2.64133,0.937333 -6.05333,1.098667 -7.312,3.414667 4.89467,-0.310667 7.96,-2.801334 13.648,-2.437334 -2.84533,1.542667 -7.14933,1.624 -9.74933,3.412 1.74533,1.706667 5.056,-1.178666 6.82533,0.488 -0.99467,1.278667 -2.62,1.929334 -4.388,2.436 0.772,1.2 3.41333,0.202667 4.388,0 -4.28533,2.701334 -9.76933,4.205334 -15.11067,5.850667 -3.84133,11.576 7.048,20.796799 5.848,32.657199 -1.52266,15.090537 -3.24933,31.337467 -4.876,47.769197 -21.44506,0 -42.891462,0 -64.340929,0 1.5052,-5.64533 4.815067,-9.48386 6.336934,-15.11146 -0.648934,-1.2984 -3.774,0.17453 -4.385334,-1.45987 -3.001066,-8.04013 -9.131866,-9.69893 -9.749066,-12.18587 -2.0812,-8.373997 -7.0724,-8.155731 -6.337467,-16.573464 -5.909333,-7.738533 -12.854133,-14.442399 -19.010399,-21.934399 3.410933,-6.176 10.726,-18.038666 10.726,-18.038666 l 3.411466,2.44 1.460934,-2.44 L 91.943198,83.896 c 0,0 -1.958267,1.5844 -2.752534,2.257866 0.163467,1.9484 1.673867,1.5812 2.2624,3.104667 -1.6848,2.700533 -5.584266,3.189067 -7.308266,5.851067 -0.384933,4.91507 3.206266,5.88533 6.822933,6.81973 6.560933,-6.92293 9.158269,-17.81093 16.083329,-24.368663 -0.12133,-3.21 0.0219,-6.156667 0.49067,-8.774 3.0052,-1.872 6.59893,-3.149333 9.25933,-5.361333 0.0792,-1.869334 -2.84266,-0.732 -1.95053,-3.413334 -3.39213,0.426667 -7.06667,0.656 -7.79947,-0.486666 -0.31933,-0.501334 -0.53906,-2.022667 0.006,-3.957333 0.0921,-0.326667 0.49373,-1.445334 0.6328,-1.793334 0.1744,-0.438666 -0.80053,-0.826666 -0.54067,-1.289333 1.1084,-1.953333 3.95627,-3.344 7.21934,-5.146667 -1.5068,-1.242666 -7.92867,0.338667 -7.92867,0.338667 0,0 0.0235,-1.205333 0.12387,-2.776 -1.46134,0 -2.92334,0 -4.3864,0 1.90786,-3.614666 4.2052,-6.846666 7.312,-9.262666 -0.28547,-7.433333 7.71613,-6.58 8.776,-12.673333 6.63546,-4.741334 13.92973,-6.538667 21.93306,-8.774667 v 0"
     inkscape:connector-curvature="0" /><path
     id="path22"
     style="fill:#ffffff;fill-opacity:1;fill-rule:nonzero;stroke:none;stroke-width:0.13333333"
     d="m 30.177066,159.98933 c 0.549467,-2.4376 0.629733,-3.26667 0.563067,-4.15573 -0.1708,-1.38294 -0.972934,-2.10427 -2.4208,-2.10574 -2.090667,-0.003 -3.757867,1.43587 -4.283334,3.76147 -0.3772,1.6624 0.02027,2.99213 1.3536,4.21187 0.707334,0.66573 1.534934,1.2776 2.375467,1.83333 l 0.9464,0.55373 0.935867,0.6104 0.8944,0.55467 c 4.197333,2.55213 5.394266,5.324 4.355599,9.91973 -1.730133,7.6428 -6.073866,10.96307 -14.332266,10.95374 -4.5052,-0.005 -7.74892,-1.56147 -8.703613,-4.2188 -0.6302,-1.71867 -0.496867,-3.49067 0.479693,-7.812 l 7.562454,0.009 c -0.522934,2.54627 -0.578134,3.26667 -0.4692,4.20774 0.1692,1.38706 1.281199,2.16413 2.943733,2.1656 2.305733,0.003 4.0636,-1.60147 4.678133,-4.31507 0.662,-2.93693 -0.06507,-3.98907 -4.641733,-6.76253 -2.2728,-1.33427 -4.271333,-2.94374 -5.281733,-4.164 -1.270267,-1.49427 -1.615067,-3.76667 -1.000534,-6.4812 0.7636,-3.38134 2.776534,-6.59227 5.269333,-8.36147 2.120267,-1.548 4.976534,-2.31987 8.247334,-2.31467 4.077599,0.003 7.019333,1.2256 8.207333,3.33334 1.033333,1.82813 1.063466,3.6 0.2,7.42133 l -0.264534,1.16413 -7.614666,-0.009 v 0"
     inkscape:connector-curvature="0" /><path
     id="path24"
     style="fill:#ffffff;fill-opacity:1;fill-rule:nonzero;stroke:none;stroke-width:0.13333333"
     d="m 60.200532,159.79453 -6.6724,-0.006 -5.8364,25.8172 -6.272933,-0.008 5.835866,-25.8172 -6.760399,-0.007 1.0912,-4.8224 19.706266,0.0215 -1.0912,4.8224 v 0"
     inkscape:connector-curvature="0" /><path
     id="path26"
     style="fill:#ffffff;fill-opacity:1;fill-rule:nonzero;stroke:none;stroke-width:0.13333333"
     d="m 78.261998,185.6388 -6.450533,-0.008 -0.1104,-6.8 -8.228133,-0.0104 -3.183334,6.7984 -5.605199,-0.006 14.890666,-30.63227 8.008266,0.009 z m -6.4208,-19.0324 c 0.0328,-0.73694 0.0708,-1.8848 0.128134,-3.12387 0.01453,-0.4584 -0.0276,0.32133 0.1504,-2.4344 0.02667,-0.32133 0.08333,-0.96413 0.1464,-1.83853 -0.7244,1.83586 -1.0464,2.66346 -1.4416,3.6292 -0.513067,1.28533 -1.349467,3.21453 -1.6084,3.76506 l -3.4964,7.3932 6.005333,0.009 0.116133,-7.4 v 0"
     inkscape:connector-curvature="0" /><path
     id="path28"
     style="fill:#ffffff;fill-opacity:1;fill-rule:nonzero;stroke:none;stroke-width:0.13333333"
     d="m 103.39066,148.7612 c 4.34374,0.006 6.1484,0.56293 7.4104,2.3348 1.04267,1.55466 1.29787,3.99333 0.65987,6.81613 -0.55213,2.43853 -1.6052,4.48493 -2.9912,5.8704 -1.36133,1.2708 -2.7848,1.87867 -5.68747,2.37493 2.6344,0.4464 3.69067,1.00107 4.55374,2.16667 1.11093,1.49427 1.26813,3.87707 0.5416,7.09173 -0.8636,3.82027 -2.54587,6.75627 -4.774,8.30254 -2.22907,1.54946 -4.420802,1.9896 -9.729602,1.9844 l -10.6188,-0.0109 8.3532,-36.94266 z m -8.896396,31.51346 c 1.822934,0.004 2.5708,-0.21866 3.604667,-0.99066 1.309867,-1.0504 2.027069,-2.32547 2.540669,-4.59574 0.92653,-4.1 0.0307,-5.59746 -3.508402,-5.6 l -3.326534,-0.003 -2.5292,11.18707 z m 3.005734,-16.61453 h 0.590133 c 2.305199,0.003 2.932799,-0.16413 3.857729,-1.15987 0.8292,-0.82973 1.4948,-2.10426 1.83134,-3.59746 0.40053,-1.77347 0.0796,-3.43587 -0.66987,-4.1588 -0.5968,-0.4412 -1.41667,-0.60787 -3.133332,-0.6136 l -2.79,-0.001 -2.152667,9.52813 2.466667,0.003 v 0"
     inkscape:connector-curvature="0" /><path
     id="path30"
     style="fill:#ffffff;fill-opacity:1;fill-rule:nonzero;stroke:none;stroke-width:0.13333333"
     d="m 118.0156,185.72933 -6.2724,-0.007 6.92866,-30.64013 6.27187,0.008 -6.92813,30.63853 v 0"
     inkscape:connector-curvature="0" /><path
     id="path32"
     style="fill:#ffffff;fill-opacity:1;fill-rule:nonzero;stroke:none;stroke-width:0.13333333"
     d="m 148.24,179.84546 10.164,0.0147 -1.31467,5.79587 -17.70133,-0.0199 8.33066,-36.83333 7.53867,0.007 -7.01733,31.03586 v 0"
     inkscape:connector-curvature="0" /><path
     id="path34"
     style="fill:#ffffff;fill-opacity:1;fill-rule:nonzero;stroke:none;stroke-width:0.13333333"
     d="m 183.95066,148.78253 c 4.332,0.008 6.13067,0.5604 7.39067,2.32813 1.04133,1.55054 1.29333,3.98014 0.656,6.79734 -0.54933,2.42813 -1.59867,4.4708 -2.98133,5.85053 -1.356,1.26827 -2.77734,1.876 -5.672,2.36827 2.628,0.44946 3.68133,1 4.54,2.16146 1.10933,1.4916 1.26533,3.86774 0.54133,7.06774 -0.85867,3.81186 -2.54,6.73853 -4.76,8.28373 -2.22267,1.54173 -4.408,1.98293 -9.70133,1.9776 l -10.58934,-0.0145 8.328,-36.83334 z M 175.08,180.20386 c 1.81733,0.002 2.56266,-0.21986 3.592,-0.99066 1.308,-1.04627 2.02266,-2.31614 2.536,-4.5812 0.924,-4.08547 0.0307,-5.58027 -3.49734,-5.5828 l -3.31733,-0.004 -2.524,11.1548 z m 2.99733,-16.56933 0.58667,0.002 c 2.30266,0.003 2.928,-0.16307 3.84666,-1.1536 0.83067,-0.8308 1.49067,-2.09853 1.828,-3.58907 0.40134,-1.76826 0.0787,-3.424 -0.66666,-4.1428 -0.596,-0.44266 -1.41467,-0.60773 -3.12534,-0.61346 l -2.78266,-0.001 -2.14667,9.49747 2.46,9.3e-4 v 0"
     inkscape:connector-curvature="0" /></svg>