<?xml version="1.0" encoding="UTF-8" standalone="no"?>
<!-- Created with Inkscape (http://www.inkscape.org/) -->

<svg
   xmlns:dc="http://purl.org/dc/elements/1.1/"
   xmlns:cc="http://creativecommons.org/ns#"
   xmlns:rdf="http://www.w3.org/1999/02/22-rdf-syntax-ns#"
   xmlns:svg="http://www.w3.org/2000/svg"
   xmlns="http://www.w3.org/2000/svg"
   xmlns:xlink="http://www.w3.org/1999/xlink"
   xmlns:sodipodi="http://sodipodi.sourceforge.net/DTD/sodipodi-0.dtd"
   xmlns:inkscape="http://www.inkscape.org/namespaces/inkscape"
   width="512"
   height="512"
   id="svg2"
   version="1.1"
   inkscape:version="0.92.2 5c3e80d, 2017-08-06"
   sodipodi:docname="ic_launcher.svg"
   inkscape:export-filename="/home/raphael/proj/opacapp/plus/_img/luedenscheid/ic_launcher.png"
   inkscape:export-xdpi="96"
   inkscape:export-ydpi="96">
  <defs
     id="defs4">
    <linearGradient
       id="linearGradient4874">
      <stop
         id="stop4868"
         offset="0"
         style="stop-color:#099268;stop-opacity:1" />
      <stop
         style="stop-color:#09a172;stop-opacity:1"
         offset="0.5"
         id="stop4870" />
      <stop
         id="stop4872"
         offset="1"
         style="stop-color:#099268;stop-opacity:1" />
    </linearGradient>
    <linearGradient
       inkscape:collect="always"
       xlink:href="#linearGradient3845"
       id="linearGradient3873"
       gradientUnits="userSpaceOnUse"
       x1="276.63446"
       y1="1051.9308"
       x2="276.63446"
       y2="541.80371"
       gradientTransform="matrix(0.9765625,0,0,0.9765625,6,18.664736)" />
    <linearGradient
       id="linearGradient3845">
      <stop
         style="stop-color:#ffffff;stop-opacity:1;"
         offset="0"
         id="stop3847" />
      <stop
         id="stop3855"
         offset="0.5"
         style="stop-color:#dcdcdc;stop-opacity:1;" />
      <stop
         style="stop-color:#ffffff;stop-opacity:1;"
         offset="1"
         id="stop3849" />
    </linearGradient>
    <linearGradient
       y2="541.80371"
       x2="276.63446"
       y1="1051.9308"
       x1="276.63446"
       gradientTransform="matrix(0.9765625,0,0,0.9765625,5.9999952,18.664763)"
       gradientUnits="userSpaceOnUse"
       id="linearGradient3625"
       xlink:href="#linearGradient4874"
       inkscape:collect="always" />
    <clipPath
       id="clip1">
      <path
         inkscape:connector-curvature="0"
         d="M 27,0 H 90 V 56.910156 H 27 Z m 0,0"
         id="path49" />
    </clipPath>
    <clipPath
       id="clip2">
      <path
         inkscape:connector-curvature="0"
         d="M 2,22 H 40 V 56.910156 H 2 Z m 0,0"
         id="path52" />
    </clipPath>
  </defs>
  <sodipodi:namedview
     id="base"
     pagecolor="#ffffff"
     bordercolor="#666666"
     borderopacity="1.0"
     inkscape:pageopacity="0.0"
     inkscape:pageshadow="2"
     inkscape:zoom="0.49497475"
     inkscape:cx="-131.26036"
     inkscape:cy="207.49938"
     inkscape:document-units="px"
     inkscape:current-layer="layer1"
     showgrid="false"
     inkscape:window-width="1916"
     inkscape:window-height="1005"
     inkscape:window-x="1920"
     inkscape:window-y="54"
     inkscape:window-maximized="0" />
  <metadata
     id="metadata7">
    <rdf:RDF>
      <cc:Work
         rdf:about="">
        <dc:format>image/svg+xml</dc:format>
        <dc:type
           rdf:resource="http://purl.org/dc/dcmitype/StillImage" />
        <dc:title />
      </cc:Work>
    </rdf:RDF>
  </metadata>
  <g
     inkscape:label="Ebene 1"
     inkscape:groupmode="layer"
     id="layer1"
     transform="translate(0,-540.36218)">
    <rect
       style="fill:url(#linearGradient3625);fill-opacity:1;fill-rule:nonzero;stroke:none"
       id="rect2992"
       width="500"
       height="500"
       x="6"
       y="546.36218"
       rx="48.828125"
       ry="48.828125" />
    <g
       transform="matrix(3.5002238,0,0,3.5002238,43.583331,709.14371)"
       id="g1916"
       style="stroke:#ffffff;stroke-width:1.5998977;stroke-miterlimit:4;stroke-dasharray:none">
      <path
         inkscape:connector-curvature="0"
         id="path57"
         transform="matrix(0.1,0,0,-0.1,0,56.91)"
         d="M 4.960938,339.92031 V 94.139062 H 405.82031"
         style="fill:none;stroke:#ffffff;stroke-width:15.99897698;stroke-linecap:square;stroke-linejoin:miter;stroke-miterlimit:4;stroke-dasharray:none;stroke-opacity:1" />
      <path
         inkscape:connector-curvature="0"
         id="path59"
         transform="matrix(0.1,0,0,-0.1,0,56.91)"
         d="M 742.14844,94.139062 H 1207.0703 V 339.92031 H 743.51562"
         style="fill:none;stroke:#ffffff;stroke-width:15.99897698;stroke-linecap:square;stroke-linejoin:miter;stroke-miterlimit:4;stroke-dasharray:none;stroke-opacity:1" />
      <path
         inkscape:connector-curvature="0"
         id="path61"
         transform="matrix(0.1,0,0,-0.1,0,56.91)"
         d="M 447.77344,422.77188 H 293.90625"
         style="fill:none;stroke:#ffffff;stroke-width:15.99897698;stroke-linecap:square;stroke-linejoin:miter;stroke-miterlimit:4;stroke-dasharray:none;stroke-opacity:1" />
      <path
         inkscape:connector-curvature="0"
         id="path63"
         transform="matrix(0.1,0,0,-0.1,0,56.91)"
         d="M 121.01563,422.77188 H 4.960938 v -82.85157"
         style="fill:none;stroke:#ffffff;stroke-width:15.99897698;stroke-linecap:square;stroke-linejoin:miter;stroke-miterlimit:4;stroke-dasharray:none;stroke-opacity:1" />
      <path
         inkscape:connector-curvature="0"
         id="path65"
         transform="matrix(0.1,0,0,-0.1,0,56.91)"
         d="m 1158.9844,156.24844 -2.8125,10.35156 -1.7188,4.96094 -1.7578,4.29687 -4.8828,8.20313 -5.5859,6.75781 -4.8438,4.64844 -4.8828,3.90625 -5.2344,3.20312 -5.2343,2.5 -5.9375,2.14844 -5.8985,1.09375 -6.289,1.05469 -5.9375,-0.35157 -6.6016,0.35157 -6.2891,-1.05469 -11.4843,-3.24219 -5.586,-2.5 -5.2344,-3.20312 -4.8828,-3.90625 -4.5312,-4.64844 -3.4766,-2.8125 -2.7734,-3.59375 -4.5313,-8.20313 -2.1093,-4.29687 -1.3672,-4.96094 -1.7578,-10.70312"
         style="fill:none;stroke:#ffffff;stroke-width:15.99897698;stroke-linecap:square;stroke-linejoin:miter;stroke-miterlimit:4;stroke-dasharray:none;stroke-opacity:1" />
      <path
         inkscape:connector-curvature="0"
         id="path67"
         transform="matrix(0.1,0,0,-0.1,0,56.91)"
         d="m 1007.4609,156.24844 -1.0547,3.94531 -0.7031,3.28125 -2.4219,6.13281 -3.164,5.42969 -1.75783,2.53906 -1.40625,1.79688 -5.23437,4.72656 -3.20313,1.79687 -2.77343,1.09375 -3.51563,1.44532 -3.16406,0.70312 -6.67969,0.39063 -7.34375,-0.35157 -6.67969,-2.1875 -5.97656,-2.89062 -5.23437,-4.6875 -3.55469,-3.98438 -2.42188,-5.39062 -1.75781,-6.17188 -1.05469,-7.57812"
         style="fill:none;stroke:#ffffff;stroke-width:15.99897698;stroke-linecap:square;stroke-linejoin:miter;stroke-miterlimit:4;stroke-dasharray:none;stroke-opacity:1" />
      <path
         inkscape:connector-curvature="0"
         id="path69"
         transform="matrix(0.1,0,0,-0.1,0,56.91)"
         d="m 622.57812,514.68594 v 0.35156 h 0.35157 l -0.35157,5.23438 -0.70312,4.88281 -2.77344,8.71094 -2.10937,4.53125 -2.42188,4.17968 -6.28906,7.30469 -4.17969,3.82813 -3.82812,2.77343 -4.17969,2.42188 -3.82813,1.75781 -4.53125,1.75781 -4.53125,1.01563 -4.88281,0.70312 h -4.53125 l -10.11719,-0.70312 -9.0625,-2.77344 -8.71093,-4.17969 -7.30469,-6.60156 -6.28906,-7.30469 -4.17969,-8.71093 -2.77344,-8.71094 -0.70312,-10.11719 v -4.49219 l 0.70312,-4.17968 0.70313,-3.86719 1.36718,-3.47656 -127.53906,-135.78125 13.90625,-1.71875"
         style="fill:none;stroke:#ffffff;stroke-width:15.99897698;stroke-linecap:square;stroke-linejoin:miter;stroke-miterlimit:4;stroke-dasharray:none;stroke-opacity:1" />
      <g
         style="clip-rule:nonzero;stroke:#ffffff;stroke-width:1.5998977;stroke-miterlimit:4;stroke-dasharray:none"
         id="g73"
         clip-path="url(#clip1)">
        <path
           inkscape:connector-curvature="0"
           id="path71"
           transform="matrix(0.1,0,0,-0.1,0,56.91)"
           d="M 413.78906,361.52188 V 75.701562 H 736.5625 l -0.70313,291.718748 h 19.17969 L 618.75,494.17813 l 0.70312,2.77343 0.35157,1.40625 0.66406,1.01563 1.40625,4.88281 0.70312,5.58594 v 4.84375"
           style="fill:none;stroke:#ffffff;stroke-width:15.99897698;stroke-linecap:square;stroke-linejoin:miter;stroke-miterlimit:4;stroke-dasharray:none;stroke-opacity:1" />
      </g>
      <path
         inkscape:connector-curvature="0"
         id="path75"
         transform="matrix(0.1,0,0,-0.1,0,56.91)"
         d="M 1160.1953,473.04531 1138.75,473.475"
         style="fill:none;stroke:#ffffff;stroke-width:15.99897698;stroke-linecap:square;stroke-linejoin:miter;stroke-miterlimit:4;stroke-dasharray:none;stroke-opacity:1" />
      <path
         inkscape:connector-curvature="0"
         id="path77"
         transform="matrix(0.1,0,0,-0.1,0,56.91)"
         d="M 946.36719,473.27969 H 650.46875"
         style="fill:none;stroke:#ffffff;stroke-width:15.99897698;stroke-linecap:square;stroke-linejoin:miter;stroke-miterlimit:4;stroke-dasharray:none;stroke-opacity:1" />
      <path
         inkscape:connector-curvature="0"
         id="path79"
         transform="matrix(0.1,0,0,-0.1,0,56.91)"
         d="M 1205.1563,345.62344 1162.5,470.74063"
         style="fill:none;stroke:#ffffff;stroke-width:15.99897698;stroke-linecap:square;stroke-linejoin:miter;stroke-miterlimit:4;stroke-dasharray:none;stroke-opacity:1" />
      <path
         inkscape:connector-curvature="0"
         id="path81"
         transform="matrix(0.1,0,0,-0.1,0,56.91)"
         d="M 292.85156,97.264062 V 443.00625 H 123.125 V 99.685937"
         style="fill:none;stroke:#ffffff;stroke-width:15.99897698;stroke-linecap:square;stroke-linejoin:miter;stroke-miterlimit:4;stroke-dasharray:none;stroke-opacity:1" />
      <path
         inkscape:connector-curvature="0"
         id="path83"
         transform="matrix(0.1,0,0,-0.1,0,56.91)"
         d="m 1131.7969,441.24844 0.7031,-58.16406 -7.3437,-1.36719 v -33.08594"
         style="fill:none;stroke:#ffffff;stroke-width:15.99897698;stroke-linecap:square;stroke-linejoin:miter;stroke-miterlimit:4;stroke-dasharray:none;stroke-opacity:1" />
      <path
         inkscape:connector-curvature="0"
         id="path85"
         transform="matrix(0.1,0,0,-0.1,0,56.91)"
         d="m 1131.7969,444.37344 h 10.4297 l -0.3516,7.65625 -0.6641,7.30469 -2.1093,7.34375 -2.461,6.95312 -3.8281,6.95313 -4.1797,6.95312 -5.1953,6.95313 -5.5859,6.28906 -6.6407,6.60156 -3.8281,3.16406 -3.4765,2.42188 -8.0079,4.53125 -8.0468,3.82812 -9.375,3.125 -4.8828,1.40625 -4.5313,0.70313 -10.1172,1.01562 -10.4687,0.35157 -11.1328,-0.35157 -10.4688,-1.36718 -10.4297,-2.46094 -9.4531,-3.47656 -9.41408,-4.17969 -8.67187,-5.23438 -8.75,-6.25 -8.00781,-7.30468 -5.9375,-5.58594 -4.84375,-6.25 -3.82813,-6.28906 -3.16406,-6.95313 -2.42188,-6.64062 -1.75781,-7.26563 -1.05469,-7.34375 0.35157,-7.96875 h 10.82031 v -58.16406 h 9.41406 V 347.225"
         style="fill:none;stroke:#ffffff;stroke-width:15.99897698;stroke-linecap:square;stroke-linejoin:miter;stroke-miterlimit:4;stroke-dasharray:none;stroke-opacity:1" />
      <g
         style="clip-rule:nonzero;stroke:#ffffff;stroke-width:1.5998977;stroke-miterlimit:4;stroke-dasharray:none"
         id="g89"
         clip-path="url(#clip2)">
        <path
           inkscape:connector-curvature="0"
           id="path87"
           transform="matrix(0.1,0,0,-0.1,0,56.91)"
           d="m 166.91406,98.1625 -0.23437,59.33594 0.35156,5.89843 1.05469,5.23438 3.125,9.76562 3.82812,8.35938 5.23438,6.95312 2.46093,3.47657 3.125,2.77343 6.64063,4.21875 3.47656,1.71875 4.17969,0.70313 4.17969,0.66406 h 9.0625 l 4.17968,-0.66406 3.82813,-0.70313 4.17969,-1.71875 3.16406,-1.79687 3.47656,-2.42188 3.125,-2.77343 3.125,-3.47657 2.10938,-3.125 2.42187,-3.82812 2.10938,-3.82813 2.07031,-4.53125 1.40625,-4.53125 1.75781,-5.23437 1.36719,-5.23438"
           style="fill:none;stroke:#ffffff;stroke-width:15.99897698;stroke-linecap:square;stroke-linejoin:miter;stroke-miterlimit:4;stroke-dasharray:none;stroke-opacity:1" />
      </g>
      <path
         inkscape:connector-curvature="0"
         id="path91"
         transform="matrix(0.1,0,0,-0.1,0,56.91)"
         d="M 252.65625,154.99844 V 98.94375"
         style="fill:none;stroke:#ffffff;stroke-width:15.99897698;stroke-linecap:square;stroke-linejoin:miter;stroke-miterlimit:4;stroke-dasharray:none;stroke-opacity:1" />
      <path
         inkscape:connector-curvature="0"
         id="path93"
         transform="matrix(0.1,0,0,-0.1,0,56.91)"
         d="M 1008.4375,147.5375 V 98.357812"
         style="fill:none;stroke:#ffffff;stroke-width:15.99897698;stroke-linecap:square;stroke-linejoin:miter;stroke-miterlimit:4;stroke-dasharray:none;stroke-opacity:1" />
      <path
         inkscape:connector-curvature="0"
         id="path95"
         transform="matrix(0.1,0,0,-0.1,0,56.91)"
         d="M 938.00781,149.84219 V 97.771875"
         style="fill:none;stroke:#ffffff;stroke-width:15.99897698;stroke-linecap:square;stroke-linejoin:miter;stroke-miterlimit:4;stroke-dasharray:none;stroke-opacity:1" />
      <path
         inkscape:connector-curvature="0"
         id="path97"
         transform="matrix(0.1,0,0,-0.1,0,56.91)"
         d="M 1036.7578,148.70937 V 98.357812"
         style="fill:none;stroke:#ffffff;stroke-width:15.99897698;stroke-linecap:square;stroke-linejoin:miter;stroke-miterlimit:4;stroke-dasharray:none;stroke-opacity:1" />
      <path
         inkscape:connector-curvature="0"
         id="path99"
         transform="matrix(0.1,0,0,-0.1,0,56.91)"
         d="M 1160.1953,147.92812 V 98.1625"
         style="fill:none;stroke:#ffffff;stroke-width:15.99897698;stroke-linecap:square;stroke-linejoin:miter;stroke-miterlimit:4;stroke-dasharray:none;stroke-opacity:1" />
    </g>
  </g>
</svg>
