<?xml version="1.0" encoding="UTF-8" standalone="no"?>
<!-- Created with Inkscape (http://www.inkscape.org/) -->

<svg
   xmlns:dc="http://purl.org/dc/elements/1.1/"
   xmlns:cc="http://creativecommons.org/ns#"
   xmlns:rdf="http://www.w3.org/1999/02/22-rdf-syntax-ns#"
   xmlns:svg="http://www.w3.org/2000/svg"
   xmlns="http://www.w3.org/2000/svg"
   xmlns:xlink="http://www.w3.org/1999/xlink"
   xmlns:sodipodi="http://sodipodi.sourceforge.net/DTD/sodipodi-0.dtd"
   xmlns:inkscape="http://www.inkscape.org/namespaces/inkscape"
   width="512"
   height="512"
   id="svg2"
   version="1.1"
   inkscape:version="0.91 r13725"
   sodipodi:docname="ic_launcher.svg">
  <defs
     id="defs4">
    <linearGradient
       inkscape:collect="always"
       xlink:href="#linearGradient3845"
       id="linearGradient3873"
       gradientUnits="userSpaceOnUse"
       x1="276.63446"
       y1="1051.9308"
       x2="276.63446"
       y2="541.80371"
       gradientTransform="matrix(0.9765625,0,0,0.9765625,6,18.664736)" />
    <linearGradient
       id="linearGradient3845">
      <stop
         style="stop-color:#ffffff;stop-opacity:1;"
         offset="0"
         id="stop3847" />
      <stop
         id="stop3855"
         offset="0.5"
         style="stop-color:#dcdcdc;stop-opacity:1;" />
      <stop
         style="stop-color:#ffffff;stop-opacity:1;"
         offset="1"
         id="stop3849" />
    </linearGradient>
    <linearGradient
       y2="541.80371"
       x2="276.63446"
       y1="1051.9308"
       x1="276.63446"
       gradientTransform="matrix(0.9765625,0,0,0.9765625,5.9999952,18.664763)"
       gradientUnits="userSpaceOnUse"
       id="linearGradient3625"
       xlink:href="#linearGradient3845"
       inkscape:collect="always" />
  </defs>
  <sodipodi:namedview
     id="base"
     pagecolor="#ffffff"
     bordercolor="#666666"
     borderopacity="1.0"
     inkscape:pageopacity="0.0"
     inkscape:pageshadow="2"
     inkscape:zoom="0.98994949"
     inkscape:cx="45.63739"
     inkscape:cy="313.57849"
     inkscape:document-units="px"
     inkscape:current-layer="layer1"
     showgrid="false"
     inkscape:window-width="1916"
     inkscape:window-height="1041"
     inkscape:window-x="1920"
     inkscape:window-y="18"
     inkscape:window-maximized="0" />
  <metadata
     id="metadata7">
    <rdf:RDF>
      <cc:Work
         rdf:about="">
        <dc:format>image/svg+xml</dc:format>
        <dc:type
           rdf:resource="http://purl.org/dc/dcmitype/StillImage" />
        <dc:title />
      </cc:Work>
    </rdf:RDF>
  </metadata>
  <g
     inkscape:label="Ebene 1"
     inkscape:groupmode="layer"
     id="layer1"
     transform="translate(0,-540.36218)">
    <rect
       style="fill:url(#linearGradient3625);fill-opacity:1;fill-rule:nonzero;stroke:none"
       id="rect2992"
       width="500"
       height="500"
       x="6"
       y="546.36218"
       rx="48.828125"
       ry="48.828125" />
    <path
       id="path4944"
       d="m 146.26846,927.54279 -8.09481,-11.25334 -0.19105,0 0,11.25334 -4.2031,0 0,-26.01505 c 1.88941,-0.11661 4.04679,-0.15507 6.97705,-0.15507 5.39778,0 9.09596,1.88817 9.09596,7.0552 0,4.16092 -3.12131,6.81701 -7.36163,7.28459 0.73195,0.92312 1.54081,1.92427 2.19708,2.77407 l 6.86167,9.05626 -5.28117,0 z m -6.08878,-22.74115 c -0.81011,0 -1.58175,0.0409 -2.19708,0.0769 l 0,8.24988 c 0.38334,0.036 1.11653,0.0769 2.04076,0.0769 3.393,0 5.435,-1.7331 5.435,-4.31847 0.001,-2.84962 -1.77279,-4.08525 -5.27868,-4.08525 z"
       inkscape:connector-curvature="0"
       style="fill:#1d1d1b" />
    <path
       id="path4946"
       d="m 177.29175,927.92985 c -5.31962,0 -8.7883,-2.97119 -8.7883,-9.71377 0,-5.77988 3.73912,-10.21249 9.55871,-10.21249 5.12609,0 8.75108,2.8521 8.75108,9.59716 0,5.89526 -3.85574,10.3291 -9.52149,10.3291 z m 0.42552,-16.45759 c -2.50722,0 -4.9338,1.92663 -4.9338,6.31954 0,4.31723 1.69588,6.59246 4.8941,6.59246 2.65982,0 4.89535,-2.08418 4.89535,-6.5143 0,-4.08649 -1.5805,-6.3977 -4.85565,-6.3977 z"
       inkscape:connector-curvature="0"
       style="fill:#1d1d1b" />
    <path
       id="path4948"
       d="m 212.82829,927.8914 c -4.08649,0 -5.31839,-1.58175 -5.31839,-5.85928 l 0,-10.44572 -3.66344,0 0,-3.20071 3.66344,0 0,-6.08879 4.08401,-1.11528 0,7.20531 5.04917,0 0,3.20071 -5.0132,0 0,9.17412 c 0,2.8521 0.57936,3.62499 2.50598,3.62499 0.8498,0 1.7728,-0.11414 2.50722,-0.31139 l 0,3.39052 c -1.11776,0.23199 -2.54195,0.42552 -3.81479,0.42552 z"
       inkscape:connector-curvature="0"
       style="fill:#1d1d1b" />
    <path
       id="path4950"
       d="m 242.62092,927.8914 c -4.08401,0 -5.31839,-1.58175 -5.31839,-5.85928 l 0,-10.44572 -3.6622,0 0,-3.20071 3.6622,0 0,-6.08879 4.08401,-1.11528 0,7.20531 5.04917,0 0,3.20071 -5.01072,0 0,9.17412 c 0,2.8521 0.57812,3.62499 2.50722,3.62499 0.84732,0 1.77404,-0.11414 2.50474,-0.31139 l 0,3.39052 c -1.11776,0.23199 -2.54443,0.42552 -3.81603,0.42552 z"
       inkscape:connector-curvature="0"
       style="fill:#1d1d1b" />
    <path
       id="path4952"
       d="m 287.25714,927.54279 -4.54799,0 -3.31856,-10.0202 c -0.42304,-1.2716 -0.76792,-2.58041 -1.11652,-4.04554 l -0.0397,0 c -0.38458,1.6934 -0.80638,3.19822 -1.30758,4.81843 l -2.8918,9.24731 -4.35693,0 -5.8965,-19.1571 4.50952,0 2.54692,8.90491 c 0.49996,1.8125 1.03837,3.62499 1.42419,5.35809 l 0.0385,0 c 0.38582,-1.8883 0.84732,-3.58293 1.34852,-5.24271 l 2.84962,-9.02029 4.16464,0 2.88932,8.8677 c 0.73443,2.31245 1.11777,3.73912 1.50359,5.3953 l 0.0397,0 c 0.38582,-1.7728 0.76792,-3.3136 1.34851,-5.20301 l 2.65982,-9.05999 4.27877,0 -6.126,19.1571 z"
       inkscape:connector-curvature="0"
       style="fill:#1d1d1b" />
    <path
       id="path4954"
       d="m 326.94963,918.21608 -12.21604,0 c -0.11661,4.43261 1.84972,6.43739 5.66575,6.43739 1.96385,0 4.00709,-0.4615 5.58883,-1.2345 l 0.38583,3.27774 c -1.92663,0.80886 -4.27878,1.23314 -6.62845,1.23314 -5.97465,0 -9.24979,-3.08285 -9.24979,-9.83038 0,-5.77989 3.15729,-10.09712 8.7486,-10.09712 5.47346,0 7.82436,3.73912 7.82436,8.2871 0,0.54214 -0.0409,1.19593 -0.11909,1.92663 z m -7.86283,-7.17058 c -2.30996,0 -3.92768,1.69588 -4.27629,4.27878 l 8.13203,0 c 0.0757,-2.61776 -1.42543,-4.27878 -3.85574,-4.27878 z"
       inkscape:connector-curvature="0"
       style="fill:#1d1d1b" />
    <path
       id="path4956"
       d="m 352.35183,927.54279 -4.08524,0 0,-15.95639 c -0.923,-0.15383 -2.23678,-0.30891 -3.35082,-0.38582 l 0,-2.5432 c 2.15613,-0.23075 4.93008,-0.38706 7.43606,-0.27293 l 0,19.15834 z m -2.04324,-22.00672 c -1.42295,0 -2.61888,-1.15623 -2.61888,-2.5829 0,-1.42419 1.19593,-2.58289 2.61888,-2.58289 1.46761,0 2.66105,1.119 2.66105,2.58289 0,1.42667 -1.19344,2.5829 -2.66105,2.5829 z"
       inkscape:connector-curvature="0"
       style="fill:#1d1d1b" />
    <path
       id="path4958"
       d="m 378.56165,927.54279 -4.12618,0 0,-24.93574 c -0.92424,-0.15631 -2.23305,-0.31139 -3.35082,-0.38706 l 0,-2.54072 c 2.15738,-0.23447 4.97102,-0.38706 7.477,-0.27305 l 0,28.13657 z"
       inkscape:connector-curvature="0"
       style="fill:#1d1d1b" />
    <line
       id="line4960"
       y2="812.33215"
       x2="470.00262"
       y1="812.33215"
       x1="42.312439"
       stroke-miterlimit="10"
       style="fill:#1d1d1b;stroke:#1d1d1b;stroke-width:1.24058425;stroke-miterlimit:10" />
    <line
       id="line4962"
       y2="886.92969"
       x2="470.00012"
       y1="886.92969"
       x1="42.311226"
       stroke-miterlimit="10"
       style="fill:#1d1d1b;stroke:#1d1d1b;stroke-width:1.24058425;stroke-miterlimit:10" />
    <path
       id="path4964"
       d="m 51.331517,874.59962 c -3.028266,0 -5.996984,-0.36969 -8.406199,-0.98874 l 0.370935,-6.36433 c 2.348426,0.86482 5.624809,1.54466 8.653075,1.54466 4.575274,0 8.280899,-1.91671 8.280899,-6.42995 0,-8.77465 -18.232866,-5.06655 -18.232866,-18.5419 0,-7.16809 5.624809,-12.17633 15.328659,-12.17633 2.472484,0 5.006997,0.3089 7.541511,0.74571 l -0.370935,5.99314 c -2.410455,-0.74187 -5.069027,-1.17471 -7.541511,-1.17471 -5.191845,0 -7.849176,2.4117 -7.849176,5.87156 0,8.34541 18.234106,5.25264 18.234106,18.2949 -0.0012,7.66557 -6.059013,13.22587 -16.008498,13.22587 z"
       inkscape:connector-curvature="0"
       style="fill:#c70c6f" />
    <path
       id="path4966"
       d="m 87.413908,837.94904 0,36.03401 -6.737613,0 0,-36.03401 -11.434464,0 0,-5.68684 29.66733,0 0,5.68684 -11.495253,0 z"
       inkscape:connector-curvature="0"
       style="fill:#c70c6f" />
    <path
       id="path4968"
       d="m 125.78146,873.98305 -3.21436,-9.20762 -16.87194,0 -3.2156,9.20762 -6.798399,0 14.956479,-41.72085 7.47949,0 15.14133,41.72085 -7.477,0 z m -9.76464,-27.68984 c -0.80266,-2.1611 -1.35968,-4.14107 -1.85468,-6.42747 l -0.12405,0 c -0.43297,2.10155 -1.11157,4.38795 -1.91547,6.61343 l -4.69685,12.91585 13.35117,0 -4.76012,-13.10193 z"
       inkscape:connector-curvature="0"
       style="fill:#c70c6f" />
    <path
       id="path4970"
       d="m 149.51631,874.22993 c -4.26513,0 -7.78838,-0.18609 -11.06353,-0.24688 l 0,-41.65882 c 3.27639,-0.062 8.09606,-0.24687 12.91821,-0.24687 13.16508,0 21.26237,5.9945 21.26237,20.45971 -0.001,14.33743 -9.52024,21.69286 -23.11705,21.69286 z m 1.35968,-36.58992 c -2.04076,0 -4.20434,0.062 -5.68683,0.18621 l 0,30.34593 c 1.35968,0.18597 3.40044,0.30767 5.00823,0.30767 8.96074,0 15.26663,-4.75764 15.26663,-15.449 -0.001,-9.88745 -4.39042,-15.39068 -14.58803,-15.39068 z"
       inkscape:connector-curvature="0"
       style="fill:#c70c6f" />
    <path
       id="path4972"
       d="m 191.97407,837.94904 0,36.03401 -6.73762,0 0,-36.03401 -11.43322,0 0,-5.68684 29.66609,0 0,5.68684 -11.49525,0 z"
       inkscape:connector-curvature="0"
       style="fill:#c70c6f" />
    <path
       id="path4974"
       d="m 219.96041,874.16914 c -2.53452,0 -6.73638,-0.12654 -11.37244,-0.18609 l 0,-41.72085 c 3.27638,-0.0608 8.0365,-0.18484 13.10429,-0.18484 9.0848,0 13.78289,3.7081 13.78289,10.13557 0,4.26624 -2.84466,8.03638 -7.10731,9.52148 l 0,0.12282 c 5.43749,1.05065 7.972,5.19172 7.972,9.51776 0,5.43872 -3.58653,12.79415 -16.37943,12.79415 z m 0.61781,-36.71385 c -1.85468,0 -3.64732,0.0633 -5.25388,0.12158 l 0,12.36353 c 1.11157,0.062 2.16358,0.062 3.58405,0.062 6.2451,0 9.52024,-2.53327 9.52024,-6.73624 0,-3.40045 -1.91546,-5.8109 -7.85041,-5.8109 z m -1.4825,17.5529 c -0.68108,0 -2.84218,0 -3.77014,0.062 l 0,13.28914 c 1.05202,0.18497 2.71812,0.30766 4.88294,0.30766 6.12104,0 9.02525,-2.96611 9.02525,-7.16933 0,-4.76012 -4.26637,-6.4895 -10.13805,-6.4895 z"
       inkscape:connector-curvature="0"
       style="fill:#c70c6f" />
    <path
       id="path4976"
       d="m 259.95064,874.59962 c -13.10429,0 -15.88692,-7.16561 -15.88692,-14.83255 l 0,-27.50499 6.73637,0 0,27.01012 c 0,5.5603 1.85467,9.76576 9.57979,9.76576 6.7984,0 9.8887,-2.8433 9.8887,-10.63293 l 0,-26.14295 6.61355,0 0,25.64908 c 0.001,11.12804 -5.99326,16.68834 -16.93149,16.68834 z m -6.18307,-45.92146 c -2.10155,0 -3.70811,-1.66983 -3.70811,-3.77138 0,-2.04076 1.60656,-3.70687 3.70811,-3.70687 2.10155,0 3.76889,1.66735 3.76889,3.70687 0,2.10279 -1.6661,3.77138 -3.76889,3.77138 z m 12.17633,0 c -2.10155,0 -3.77138,-1.66983 -3.77138,-3.77138 0,-2.04076 1.66983,-3.70687 3.77138,-3.70687 2.03952,0 3.70811,1.66735 3.70811,3.70687 0,2.10279 -1.66859,3.77138 -3.70811,3.77138 z"
       inkscape:connector-curvature="0"
       style="fill:#c70c6f" />
    <path
       id="path4978"
       d="m 303.45917,874.4768 c -13.9665,0 -19.09756,-9.02277 -19.09756,-20.14833 0,-12.98023 6.55029,-22.43596 20.58005,-22.43596 3.09402,0 6.30465,0.49499 9.21382,1.17235 l -0.74559,6.17935 c -3.02951,-0.92423 -5.99698,-1.41923 -9.02029,-1.41923 -8.71882,0 -12.67256,6.67435 -12.67256,15.39069 0,9.70137 4.13983,15.2046 13.22462,15.2046 2.84466,0 6.49074,-0.80402 8.77714,-1.91918 l 0.80265,5.99686 c -3.15232,1.2381 -7.04279,1.97873 -11.06228,1.97873 z"
       inkscape:connector-curvature="0"
       style="fill:#c70c6f" />
    <path
       id="path4980"
       d="m 349.06056,873.98305 0,-18.73034 -19.71661,0 0,18.73034 -6.73389,0 0,-41.72085 6.73389,0 0,17.24412 19.71661,0 0,-17.24412 6.67682,0 0,41.72085 -6.67682,0 z"
       inkscape:connector-curvature="0"
       style="fill:#c70c6f" />
    <path
       id="path4982"
       d="m 366.60118,873.98305 0,-41.72085 22.00176,0 0,5.62481 -15.26663,0 0,11.86619 14.52476,0 0,5.49951 -14.52476,0 0,12.98271 15.26663,0 0,5.74763 -22.00176,0 z"
       inkscape:connector-curvature="0"
       style="fill:#c70c6f" />
    <path
       id="path4984"
       d="m 417.40434,873.98305 -12.98023,-18.04926 -0.30766,0 0,18.04926 -6.73638,0 0,-41.72085 c 3.02703,-0.18484 6.48826,-0.24687 11.18635,-0.24687 8.65556,0 14.58803,3.03074 14.58803,11.3104 0,6.67559 -5.00824,10.93823 -11.8054,11.68259 1.17235,1.48373 2.47249,3.08905 3.52202,4.45121 l 11.00274,14.52352 -8.46947,0 z m -9.76588,-36.46573 c -1.29765,0 -2.53327,0.0583 -3.52201,0.12282 l 0,13.22711 c 0.61905,0.0608 1.7914,0.12281 3.27514,0.12281 5.4412,0 8.71634,-2.78015 8.71634,-6.92246 0,-4.57155 -2.84466,-6.55028 -8.46947,-6.55028 z"
       inkscape:connector-curvature="0"
       style="fill:#c70c6f" />
    <path
       id="path4986"
       d="m 432.47124,873.98305 0,-41.72085 22.00176,0 0,5.62481 -15.26663,0 0,11.86619 14.52476,0 0,5.49951 -14.52476,0 0,12.98271 15.26663,0 0,5.74763 -22.00176,0 z"
       inkscape:connector-curvature="0"
       style="fill:#c70c6f" />
    <path
       id="path4988"
       d="m 463.25013,873.98305 0,-41.72085 6.73637,0 0,41.72085 -6.73637,0 z"
       inkscape:connector-curvature="0"
       style="fill:#c70c6f" />
    <path
       style="fill:#1d1d1b"
       inkscape:connector-curvature="0"
       d="m 168.93394,800.66068 c 3.03447,3.03335 52.88486,-14.19477 65.1133,-50.68531 5.50075,-16.40536 -6.6334,-10.45552 -9.29942,-9.04249 -4.78245,2.54567 -10.74098,8.04518 -20.05032,12.88718 -15.36836,7.9844 7.20903,0.53097 7.20903,4.84573 0.001,5.67691 -46.0083,38.96302 -42.97259,41.99489 z"
       id="path4992" />
    <path
       id="path4996"
       d="m 235.97511,735.581 c 6.22897,0 10.8427,3.6957 10.8427,8.0824 0,12.45299 -3.92397,21.45467 -7.38271,30.22063 -5.68808,14.52104 -10.75835,27.19857 -14.9937,38.15541 -0.0385,0.098 -0.21835,0.29278 -0.11414,0.29278 21.03163,0 39.59573,0 45.66963,0 0.13522,0 0.1253,-0.24204 0.18733,-0.36238 14.56321,-28.36087 21.61966,-47.99063 21.61966,-58.1597 0,-7.38024 -2.07674,-11.06973 -7.83925,-12.68745 5.76375,-6.23146 14.75923,-9.69021 19.37296,-9.69021 4.38794,0 8.53894,3.45875 8.53894,6.92122 0,14.5358 -5.76624,41.52719 -17.30243,63.44596 -1.75667,3.37315 -3.49224,6.79455 -5.24147,10.24971 -0.0471,0.0943 -0.0372,0.28409 -0.1439,0.28409 -21.6085,0 -59.39421,0 -81.71232,0 -0.0992,0 0.0658,-0.18609 0.098,-0.28161 1.42047,-4.03686 2.96376,-8.30323 4.63607,-12.79415 11.30296,-30.21443 15.45519,-49.5998 15.45519,-52.37126 0,-3.45751 -1.15126,-6.22401 -3.68825,-8.53274 3.919,-2.08046 7.84669,-2.77394 11.99769,-2.77394 z"
       inkscape:connector-curvature="0"
       style="fill:#1d1d1b" />
    <path
       style="fill:#1d1d1b"
       inkscape:connector-curvature="0"
       d="m 241.193,700.08172 c 7.8008,-0.22579 10.16287,2.5257 13.27922,5.97465 0,0 -1.49491,-10.43331 -15.33486,-10.43331 -8.22136,0 -16.10155,4.75267 -15.24678,14.51607 0.87213,9.95445 8.30695,15.14257 15.83978,14.6116 9.07859,-0.62773 14.41186,-6.67806 14.5781,-12.69614 0.14763,-5.20301 -0.18113,4.70182 -7.66433,8.18414 -8.00549,3.73168 -17.08284,-2.09411 -17.08284,-9.89242 0.002,-3.89804 3.20318,-10.02268 11.63171,-10.26459 z"
       id="path4998" />
    <path
       style="fill:#1d1d1b"
       inkscape:connector-curvature="0"
       d="m 258.74479,720.92849 c 0,0 1.68595,-5.49715 5.6856,-8.01169 4.00336,-2.5097 4.67204,-1.84847 6.7922,-1.21701 2.11271,0.64634 15.4341,5.84067 16.49852,18.02056 0,0 -9.17536,-10.8315 -20.5726,-10.45548 -5.94612,0.20346 -7.46584,0.54958 -8.40372,1.66362 z"
       id="path5000" />
    <path
       style="fill:#1d1d1b"
       inkscape:connector-curvature="0"
       d="m 249.32007,710.78796 c 0.21338,2.4576 -1.44404,4.60616 -3.69942,4.80478 -2.25786,0.19849 -4.26017,-1.62765 -4.47727,-4.08648 -0.21214,-2.45016 1.44652,-4.60257 3.7019,-4.80231 2.25539,-0.19477 4.25769,1.63013 4.47479,4.08401 z"
       id="path5002" />
    <path
       style="fill:#1d1d1b"
       inkscape:connector-curvature="0"
       d="m 293.90791,694.72115 c -7.78095,0.68356 -9.80186,3.68082 -12.50137,7.47328 0,0 0.28037,-10.53765 14.02605,-12.13676 8.16552,-0.95277 16.54567,2.86091 16.8248,12.65768 0.28533,9.98546 -6.50438,15.99994 -14.04217,16.34606 -9.09349,0.4156 -15.08799,-4.96978 -15.94647,-10.92582 -0.74932,-5.15215 0.72326,4.63978 8.55755,7.24005 8.37642,2.77643 16.71935,-4.05299 15.81248,-11.7992 -0.44909,-3.87558 -4.33088,-9.59095 -12.73087,-8.85529 z"
       id="path5004" />
    <path
       style="fill:#1d1d1b"
       inkscape:connector-curvature="0"
       d="m 287.07353,706.29704 c 0.072,2.46877 1.9626,4.41016 4.22667,4.34453 2.26531,-0.0657 4.04058,-2.11532 3.97607,-4.57776 -0.0707,-2.45759 -1.97129,-4.40159 -4.23163,-4.33596 -2.26655,0.0596 -4.0381,2.10775 -3.97111,4.56907 z"
       id="path5006" />
    <path
       style="fill:#1d1d1b"
       inkscape:connector-curvature="0"
       d="m 259.50403,691.34304 c 4.47354,4.69933 3.89915,0.96021 4.75019,-1.15995 0,0 -1.45024,-5.00947 -11.92449,-9.94204 -6.03544,-2.84342 -15.07558,-5.6645 -28.56197,-7.48196 -18.01701,-2.42906 -4.57155,0.79149 3.063,4.62986 7.6358,3.83589 -18.22418,1.34727 -24.1306,1.18848 -5.91015,-0.15507 16.74292,3.16721 21.74124,3.29499 5.00079,0.13026 -3.5183,1.91298 -7.12096,3.84705 -9.64678,5.1844 30.76401,-6.36916 42.18359,5.62357 z"
       id="path5008" />
    <path
       style="fill:#1d1d1b"
       inkscape:connector-curvature="0"
       d="m 278.72068,687.68704 c -4.08153,5.0467 -3.80488,1.26912 -4.81719,-0.77909 0,0 1.03961,-5.1112 11.08214,-10.86131 5.78856,-3.32229 14.57066,-6.85423 27.8722,-9.74603 17.76641,-3.86566 4.6187,0.42056 -2.68959,4.85937 -7.29463,4.43509 18.28001,-0.12158 24.1579,-0.74932 5.87169,-0.62649 -16.44022,4.49588 -21.41,5.03057 -4.9735,0.52961 3.65724,1.62753 7.40008,3.26262 10.03013,4.38794 -31.17464,-3.888 -41.59554,8.98307 z"
       id="path5010" />
  </g>
</svg>
