<?xml version="1.0" encoding="UTF-8" standalone="no"?>
<!-- Created with Inkscape (http://www.inkscape.org/) -->

<svg
   xmlns:dc="http://purl.org/dc/elements/1.1/"
   xmlns:cc="http://creativecommons.org/ns#"
   xmlns:rdf="http://www.w3.org/1999/02/22-rdf-syntax-ns#"
   xmlns:svg="http://www.w3.org/2000/svg"
   xmlns="http://www.w3.org/2000/svg"
   xmlns:xlink="http://www.w3.org/1999/xlink"
   xmlns:sodipodi="http://sodipodi.sourceforge.net/DTD/sodipodi-0.dtd"
   xmlns:inkscape="http://www.inkscape.org/namespaces/inkscape"
   id="svg3224"
   version="1.1"
   inkscape:version="0.91 r13725"
   width="512"
   height="512"
   xml:space="preserve"
   sodipodi:docname="ic_launcher.svg"><metadata
     id="metadata3230"><rdf:RDF><cc:Work
         rdf:about=""><dc:format>image/svg+xml</dc:format><dc:type
           rdf:resource="http://purl.org/dc/dcmitype/StillImage" /><dc:title /></cc:Work></rdf:RDF></metadata><defs
     id="defs3228"><clipPath
       clipPathUnits="userSpaceOnUse"
       id="clipPath3240"><path
         d="M 0,948.938 0,0 l 2547.72,0 0,948.938 -2547.72,0 z"
         id="path3242"
         inkscape:connector-curvature="0" /></clipPath><linearGradient
       y2="541.80371"
       x2="276.63446"
       y1="1051.9308"
       x1="276.63446"
       gradientTransform="matrix(0.9765625,0,0,0.9765625,5.9999952,18.664763)"
       gradientUnits="userSpaceOnUse"
       id="linearGradient3625"
       xlink:href="#linearGradient3845"
       inkscape:collect="always" /><linearGradient
       id="linearGradient3845"><stop
         style="stop-color:#ffffff;stop-opacity:1;"
         offset="0"
         id="stop3847" /><stop
         id="stop3855"
         offset="0.5"
         style="stop-color:#dcdcdc;stop-opacity:1;" /><stop
         style="stop-color:#ffffff;stop-opacity:1;"
         offset="1"
         id="stop3849" /></linearGradient><linearGradient
       y2="541.80371"
       x2="276.63446"
       y1="1051.9308"
       x1="276.63446"
       gradientTransform="matrix(0.78125,0,0,0.78125,161.998,-818.95797)"
       gradientUnits="userSpaceOnUse"
       id="linearGradient3339"
       xlink:href="#linearGradient3845"
       inkscape:collect="always" /></defs><sodipodi:namedview
     pagecolor="#ffffff"
     bordercolor="#666666"
     borderopacity="1"
     objecttolerance="10"
     gridtolerance="10"
     guidetolerance="10"
     inkscape:pageopacity="0"
     inkscape:pageshadow="2"
     inkscape:window-width="1916"
     inkscape:window-height="987"
     id="namedview3226"
     showgrid="false"
     fit-margin-top="10"
     fit-margin-left="16.7"
     fit-margin-right="16.7"
     fit-margin-bottom="10"
     inkscape:zoom="0.485985"
     inkscape:cx="271.45444"
     inkscape:cy="2.9588323"
     inkscape:window-x="1920"
     inkscape:window-y="72"
     inkscape:window-maximized="0"
     inkscape:current-layer="g3232" /><g
     id="g3232"
     inkscape:groupmode="layer"
     inkscape:label="ink_ext_XXXXXX"
     transform="matrix(1.25,0,0,-1.25,-196.4975,502)"><rect
       style="fill:url(#linearGradient3339);fill-opacity:1;fill-rule:nonzero;stroke:none"
       id="rect2992"
       width="400"
       height="400"
       x="161.998"
       y="-396.79999"
       rx="39.0625"
       ry="39.0625"
       transform="scale(1,-1)" /><g
       id="g4354"
       transform="matrix(4.912893,0,0,4.912893,-3774.6225,333.15094)"><path
         d="m 828.31219,-2.158667 41.8613,-5.9512 -5.7461,-41.8617 -41.8625,5.9512 5.7473,41.8617"
         style="fill:#fcce06;fill-opacity:1;fill-rule:nonzero;stroke:none"
         id="path34"
         inkscape:connector-curvature="0" /><path
         d="m 828.31219,-2.158667 41.8613,-5.9512 -5.7461,-41.8617 -41.8625,5.9512 5.7473,41.8617 z"
         style="fill:none;stroke:#fcce06;stroke-width:0.82060003;stroke-linecap:butt;stroke-linejoin:miter;stroke-miterlimit:3.86370993;stroke-dasharray:none;stroke-opacity:1"
         id="path36"
         inkscape:connector-curvature="0" /><path
         d="m 813.75009,-53.412967 16.507,0 0,5.65234 -16.507,0 0,-5.65234 z"
         style="fill:#1e5cb3;fill-opacity:1;fill-rule:nonzero;stroke:none"
         id="path38"
         inkscape:connector-curvature="0" /><path
         d="m 813.75009,-53.412967 16.507,0 0,5.65234 -16.507,0 0,-5.65234 z"
         style="fill:none;stroke:#1e5cb3;stroke-width:0.80000001;stroke-linecap:butt;stroke-linejoin:miter;stroke-miterlimit:3.86370993;stroke-dasharray:none;stroke-opacity:1"
         id="path40"
         inkscape:connector-curvature="0" /><path
         d="m 813.75009,-53.412967 5.65195,0 0,16.5074 -5.65195,0 0,-16.5074 z"
         style="fill:#1e5cb3;fill-opacity:1;fill-rule:nonzero;stroke:none"
         id="path42"
         inkscape:connector-curvature="0" /><path
         d="m 813.75009,-53.412967 5.65195,0 0,16.5074 -5.65195,0 0,-16.5074 z"
         style="fill:none;stroke:#1e5cb3;stroke-width:0.80000001;stroke-linecap:butt;stroke-linejoin:miter;stroke-miterlimit:3.86370993;stroke-dasharray:none;stroke-opacity:1"
         id="path44"
         inkscape:connector-curvature="0" /><path
         d="m 839.58719,-53.412967 16.5063,0 0,5.65234 -16.5063,0 0,-5.65234 z"
         style="fill:#1e5cb3;fill-opacity:1;fill-rule:nonzero;stroke:none"
         id="path46"
         inkscape:connector-curvature="0" /><path
         d="m 839.58719,-53.412967 16.5063,0 0,5.65234 -16.5063,0 0,-5.65234 z"
         style="fill:none;stroke:#1e5cb3;stroke-width:0.80000001;stroke-linecap:butt;stroke-linejoin:miter;stroke-miterlimit:3.86370993;stroke-dasharray:none;stroke-opacity:1"
         id="path48"
         inkscape:connector-curvature="0" /><path
         d="m 850.44299,-53.412967 5.65039,0 0,16.5074 -5.65039,0 0,-16.5074 z"
         style="fill:#1e5cb3;fill-opacity:1;fill-rule:nonzero;stroke:none"
         id="path50"
         inkscape:connector-curvature="0" /><path
         d="m 850.44299,-53.412967 5.65039,0 0,16.5074 -5.65039,0 0,-16.5074 z"
         style="fill:none;stroke:#1e5cb3;stroke-width:0.80000001;stroke-linecap:butt;stroke-linejoin:miter;stroke-miterlimit:3.86370993;stroke-dasharray:none;stroke-opacity:1"
         id="path52"
         inkscape:connector-curvature="0" /><path
         d="m 839.58719,-16.720067 16.5063,0 0,5.65156 -16.5063,0 0,-5.65156 z"
         style="fill:#1e5cb3;fill-opacity:1;fill-rule:nonzero;stroke:none"
         id="path54"
         inkscape:connector-curvature="0" /><path
         d="m 839.58719,-16.720067 16.5063,0 0,5.65156 -16.5063,0 0,-5.65156 z"
         style="fill:none;stroke:#1e5cb3;stroke-width:0.80000001;stroke-linecap:butt;stroke-linejoin:miter;stroke-miterlimit:3.86370993;stroke-dasharray:none;stroke-opacity:1"
         id="path56"
         inkscape:connector-curvature="0" /><path
         d="m 850.44299,-27.575467 5.65039,0 0,16.507 -5.65039,0 0,-16.507 z"
         style="fill:#1e5cb3;fill-opacity:1;fill-rule:nonzero;stroke:none"
         id="path58"
         inkscape:connector-curvature="0" /><path
         d="m 850.44299,-27.575467 5.65039,0 0,16.507 -5.65039,0 0,-16.507 z"
         style="fill:none;stroke:#1e5cb3;stroke-width:0.80000001;stroke-linecap:butt;stroke-linejoin:miter;stroke-miterlimit:3.86370993;stroke-dasharray:none;stroke-opacity:1"
         id="path60"
         inkscape:connector-curvature="0" /><path
         d="m 813.75009,-16.720067 16.507,0 0,5.65156 -16.507,0 0,-5.65156 z"
         style="fill:#1e5cb3;fill-opacity:1;fill-rule:nonzero;stroke:none"
         id="path62"
         inkscape:connector-curvature="0" /><path
         d="m 813.75009,-16.720067 16.507,0 0,5.65156 -16.507,0 0,-5.65156 z"
         style="fill:none;stroke:#1e5cb3;stroke-width:0.80000001;stroke-linecap:butt;stroke-linejoin:miter;stroke-miterlimit:3.86370993;stroke-dasharray:none;stroke-opacity:1"
         id="path64"
         inkscape:connector-curvature="0" /><path
         d="m 813.75009,-27.575467 5.65195,0 0,16.507 -5.65195,0 0,-16.507 z"
         style="fill:#1e5cb3;fill-opacity:1;fill-rule:nonzero;stroke:none"
         id="path66"
         inkscape:connector-curvature="0" /><path
         d="m 813.75009,-27.575467 5.65195,0 0,16.507 -5.65195,0 0,-16.507 z"
         style="fill:none;stroke:#1e5cb3;stroke-width:0.80000001;stroke-linecap:butt;stroke-linejoin:miter;stroke-miterlimit:3.86370993;stroke-dasharray:none;stroke-opacity:1"
         id="path68"
         inkscape:connector-curvature="0" /></g></g></svg>