<?xml version="1.0" encoding="UTF-8" standalone="no"?>
<!-- Created with Inkscape (http://www.inkscape.org/) -->

<svg
   xmlns:dc="http://purl.org/dc/elements/1.1/"
   xmlns:cc="http://creativecommons.org/ns#"
   xmlns:rdf="http://www.w3.org/1999/02/22-rdf-syntax-ns#"
   xmlns:svg="http://www.w3.org/2000/svg"
   xmlns="http://www.w3.org/2000/svg"
   xmlns:xlink="http://www.w3.org/1999/xlink"
   xmlns:sodipodi="http://sodipodi.sourceforge.net/DTD/sodipodi-0.dtd"
   xmlns:inkscape="http://www.inkscape.org/namespaces/inkscape"
   width="512"
   height="512"
   id="svg2"
   version="1.1"
   inkscape:version="0.48.4 r9939"
   sodipodi:docname="ic_launcher.svg">
  <defs
     id="defs4">
    <linearGradient
       inkscape:collect="always"
       xlink:href="#linearGradient3845"
       id="linearGradient3873"
       gradientUnits="userSpaceOnUse"
       x1="276.63446"
       y1="1051.9308"
       x2="276.63446"
       y2="541.80371"
       gradientTransform="matrix(0.9765625,0,0,0.9765625,6,18.664736)" />
    <linearGradient
       id="linearGradient3845">
      <stop
         style="stop-color:#ffffff;stop-opacity:1;"
         offset="0"
         id="stop3847" />
      <stop
         id="stop3855"
         offset="0.5"
         style="stop-color:#dcdcdc;stop-opacity:1;" />
      <stop
         style="stop-color:#ffffff;stop-opacity:1;"
         offset="1"
         id="stop3849" />
    </linearGradient>
    <linearGradient
       y2="541.80371"
       x2="276.63446"
       y1="1051.9308"
       x1="276.63446"
       gradientTransform="matrix(0.9765625,0,0,0.9765625,5.9999952,18.664763)"
       gradientUnits="userSpaceOnUse"
       id="linearGradient3625"
       xlink:href="#linearGradient3845"
       inkscape:collect="always" />
  </defs>
  <sodipodi:namedview
     id="base"
     pagecolor="#ffffff"
     bordercolor="#666666"
     borderopacity="1.0"
     inkscape:pageopacity="0.0"
     inkscape:pageshadow="2"
     inkscape:zoom="0.7"
     inkscape:cx="20.120179"
     inkscape:cy="172.51751"
     inkscape:document-units="px"
     inkscape:current-layer="layer1"
     showgrid="false"
     inkscape:window-width="1916"
     inkscape:window-height="1041"
     inkscape:window-x="1920"
     inkscape:window-y="18"
     inkscape:window-maximized="0" />
  <metadata
     id="metadata7">
    <rdf:RDF>
      <cc:Work
         rdf:about="">
        <dc:format>image/svg+xml</dc:format>
        <dc:type
           rdf:resource="http://purl.org/dc/dcmitype/StillImage" />
        <dc:title />
      </cc:Work>
    </rdf:RDF>
  </metadata>
  <g
     inkscape:label="Ebene 1"
     inkscape:groupmode="layer"
     id="layer1"
     transform="translate(0,-540.36218)">
    <rect
       style="fill:url(#linearGradient3625);fill-opacity:1;fill-rule:nonzero;stroke:none"
       id="rect2992"
       width="500"
       height="500"
       x="6"
       y="546.36218"
       rx="48.828125"
       ry="48.828125" />
    <g
       transform="matrix(5.3042631,0,0,5.3042631,-0.78468093,521.82679)"
       id="g3513">
      <g
         id="g3">
        <path
           style="fill:#ff1900"
           inkscape:connector-curvature="0"
           id="path5"
           d="M 43.913,22.771 C 49.747,33.943 55.62,45.528 61.259,56.75 58.329,56.743 55.402,56.743 52.54,56.743 L 52.317,56.75 C 48.95,49.856 34.991,22.767 34.991,22.767 c 0,0 5.953,0.055 8.922,0.004 l 0,0 z" />
        <path
           style="fill:#ff1900"
           inkscape:connector-curvature="0"
           id="path7"
           d="m 31.274,48.579 4.1,8.158 c -0.572,0.005 -8.818,0 -8.818,0 C 20.82,45.517 14.776,34.15 9.241,22.777 c 2.867,0 5.844,0 8.735,0 0.001,0 12.896,24.942 13.298,25.802" />
        <path
           style="fill:#ff1900"
           inkscape:connector-curvature="0"
           id="path9"
           d="m 83.48,48.579 4.101,8.158 c -0.574,0.005 -8.82,0 -8.82,0 -5.734,-11.22 -11.779,-22.587 -17.313,-33.96 2.866,0 5.841,0 8.733,0 0.001,0 12.896,24.942 13.299,25.802" />
        <path
           style="fill:#ff1900"
           inkscape:connector-curvature="0"
           id="path11"
           d="m 36.091,32.51 c 0.034,-0.103 0.147,-0.24 0.085,-0.287 -0.032,-0.022 -0.187,-0.02 -0.245,0 -0.063,0.023 -0.075,0.05 -0.104,0.094 -0.601,0.892 0.647,1.426 1.095,2.068 0.068,0.1 0.068,0.212 0.077,0.329 0.005,0.053 0.043,0.122 0.125,0.108 0.149,-0.025 0.243,-0.234 0.229,-0.31 -0.133,-0.634 -0.867,-0.946 -1.216,-1.479 -0.098,-0.15 -0.112,-0.343 -0.046,-0.523 l 0,0 z" />
        <path
           style="fill:#ff1900"
           inkscape:connector-curvature="0"
           id="path13"
           d="m 38.899,34.351 c -0.177,-0.016 -0.203,-0.245 -0.172,-0.423 0.025,-0.145 0.181,-0.297 0.318,-0.169 0.104,0.098 0.26,0.209 0.23,0.343 -0.03,0.157 -0.233,0.26 -0.376,0.249 l 0,0 z m -1.083,-1.885 c -0.046,-0.021 -0.081,0.055 -0.11,0.109 -0.207,0.412 -0.606,0.715 -0.515,1.186 0.053,0.273 0.407,0.475 0.504,0.583 0.042,0.042 0.075,0.072 0.065,0.128 -0.038,0.241 -0.405,0.551 -0.68,0.604 -0.301,0.059 -0.299,-0.536 -0.544,-0.433 -0.243,0.104 -0.644,0.702 -0.394,0.84 0.756,0.419 1.024,0.56 1.639,0.679 1.006,0.195 1.368,-1.096 1.729,-1.787 0.069,-0.134 0.309,-0.177 0.284,-0.295 -0.201,-0.927 -1.16,-1.233 -1.978,-1.614 l 0,0 z" />
        <path
           style="fill:#ff1900"
           inkscape:connector-curvature="0"
           id="path15"
           d="m 43.06,46.601 c -0.168,0.245 -0.399,0.426 -0.68,0.526 -1.314,0.464 -2.57,-1.506 -3.131,-2.766 -0.682,-1.536 -1.361,-2.986 -1.941,-4.559 0.375,-0.268 0.664,-0.586 1.063,-0.868 -0.425,1.173 0.419,2.318 1.27,3.077 1.108,0.993 2.283,1.813 3.277,2.974 0.394,0.459 0.487,1.11 0.142,1.616 l 0,0 z m -6.274,-8.01 c -0.068,-0.125 -0.135,-0.257 -0.062,-0.377 0.03,-0.05 0.155,-0.131 0.179,-0.055 0.072,0.255 0.201,0.497 0.443,0.563 -0.117,0.28 -0.454,0.058 -0.56,-0.131 l 0,0 z m -0.32,-1.48 c -0.047,-0.151 -0.127,-0.307 0.172,-0.403 0.061,0.317 0.138,0.492 0.332,0.688 0.008,0.008 -0.105,0.081 -0.152,0.074 -0.163,-0.022 -0.305,-0.207 -0.352,-0.359 l 0,0 z m -0.449,2.431 c -0.182,-0.174 -0.32,-0.471 -0.133,-0.715 0.033,-0.043 0.102,-0.03 0.105,-0.003 0.036,0.274 0.238,0.472 0.365,0.669 0.094,0.144 -0.21,0.172 -0.337,0.049 l 0,0 z m -0.421,-1.354 c -0.169,-0.145 -0.243,-0.322 -0.175,-0.504 0.014,-0.046 0.145,-0.13 0.175,-0.051 0.085,0.216 0.163,0.469 0.415,0.514 -0.073,0.229 -0.252,0.177 -0.415,0.041 l 0,0 z m -0.564,1.985 c -0.152,-0.13 -0.203,-0.371 -0.139,-0.58 0.008,-0.025 0.06,-0.054 0.086,-0.045 0.188,0.054 0.188,0.259 0.266,0.4 0.054,0.102 0.107,0.097 0.18,0.209 -0.071,0.231 -0.29,0.108 -0.393,0.016 l 0,0 z m -0.523,-1.298 c -0.059,-0.111 -0.15,-0.218 -0.156,-0.334 -0.01,-0.092 0.164,-0.292 0.21,-0.183 0.101,0.223 0.148,0.441 0.42,0.573 -0.111,0.255 -0.357,0.166 -0.474,-0.056 l 0,0 z m -0.536,1.743 c -0.032,-0.154 -0.018,-0.47 0.19,-0.38 0.084,0.035 0.043,0.204 0.132,0.331 0.081,0.116 0.195,0.239 0.188,0.299 -0.045,0.362 -0.464,-0.03 -0.51,-0.25 l 0,0 z m -0.41,-1.478 c 0.021,-0.042 0.116,-0.095 0.141,-0.027 0.042,0.11 0.094,0.195 0.149,0.29 0.077,0.129 0.329,0.146 0.253,0.343 -0.016,0.039 -0.088,0.076 -0.131,0.069 -0.295,-0.058 -0.558,-0.369 -0.412,-0.675 l 0,0 z m -0.456,-1.226 c -0.03,-0.114 0.1,-0.253 0.246,-0.195 -0.051,0.066 0.103,0.319 0.142,0.367 0.107,0.142 0.073,0.159 0.231,0.228 -0.063,0.184 -0.28,0.207 -0.376,0.075 -0.107,-0.148 -0.197,-0.302 -0.243,-0.475 l 0,0 z m 0.949,-0.736 c 0.008,-0.041 0.044,-0.154 0.152,-0.152 0.146,0.02 0.079,0.185 0.1,0.258 0.045,0.168 0.285,0.247 0.26,0.456 -0.005,0.032 -0.077,0.062 -0.129,0.072 -0.043,0.009 -0.096,-0.015 -0.127,-0.044 -0.181,-0.175 -0.31,-0.353 -0.256,-0.59 l 0,0 z m 0.952,-0.615 c 0.026,-0.05 0.161,-0.127 0.174,-0.056 0.047,0.255 0.231,0.432 0.362,0.616 0.057,0.081 -0.236,0.202 -0.353,0.059 -0.147,-0.18 -0.309,-0.395 -0.183,-0.619 l 0,0 z m 2.913,0.603 c 0.107,0.034 0.225,0.418 0.537,0.546 -0.034,0.074 -0.066,0.18 -0.14,0.18 -0.216,0 -0.359,-0.16 -0.476,-0.343 -0.127,-0.203 0.025,-0.4 0.079,-0.383 l 0,0 z m 6.367,7.997 c -0.893,-2.125 -3.135,-3.054 -4.672,-4.722 -0.325,-0.352 -0.479,-0.889 -0.211,-1.308 0.174,-0.273 0.451,-0.436 0.779,-0.413 0.595,0.04 0.988,0.511 1.182,1.054 -0.133,-0.05 -0.237,0.044 -0.296,0.114 -0.163,0.2 -0.144,0.513 0.022,0.688 0.259,0.277 0.663,0.362 0.973,0.081 0.336,-0.306 0.321,-0.781 0.204,-1.183 -0.387,-1.339 -1.903,-2.25 -3.169,-1.521 0.262,-0.788 0.568,-1.488 0.936,-2.26 0.063,-0.137 0.305,-0.165 0.426,-0.288 0.248,-0.254 0.158,-0.779 -0.193,-0.95 -0.159,-0.079 -0.359,-0.068 -0.428,0.071 -0.373,0.745 -0.604,1.628 -1.432,1.932 -0.975,0.358 -1.771,-0.559 -2.713,-0.749 -0.662,-0.135 -1.162,0.286 -1.748,0.482 -0.59,-1.393 -1.066,-2.834 -1.779,-4.172 -0.21,-0.395 -0.347,-0.808 -0.652,-1.182 -0.212,-0.262 -0.387,-0.477 -0.656,-0.669 -0.232,-0.162 -0.697,-0.377 -0.934,-0.013 0.334,0.17 0.758,0.401 0.709,0.806 -0.013,0.105 -0.08,0.188 -0.219,0.097 -0.223,-0.237 -0.384,-0.477 -0.699,-0.597 -0.162,-0.064 -0.393,-0.136 -0.537,0.006 -0.115,0.114 -0.182,0.361 -0.042,0.455 0.186,0.12 0.446,0.031 0.649,0.165 0.258,0.165 0.486,0.405 0.479,0.703 -0.003,0.063 -0.116,0.191 -0.167,0.148 -0.118,-0.093 -0.201,-0.297 -0.349,-0.442 -0.226,-0.218 -0.503,-0.323 -0.72,-0.096 -0.354,0.372 0.174,1.224 0.602,1.641 0.246,0.241 0.563,0.347 0.914,0.378 0.135,1.062 0.41,2.15 0.629,3.197 -0.367,-0.324 -0.66,-0.658 -0.988,-0.958 -0.326,-0.299 -0.645,-0.618 -0.977,-0.92 -0.365,-0.33 -0.693,-0.671 -1.147,-0.912 -0.396,-0.207 -0.772,-0.383 -1.214,-0.275 -0.146,0.034 -0.4,0.193 -0.318,0.246 0.282,0.185 0.693,0.194 0.961,0.443 0.129,0.118 0.151,0.513 -0.018,0.388 -0.457,-0.342 -1.496,-0.815 -1.536,0.115 -0.007,0.139 0.224,0.039 0.458,0.05 0.235,0.013 0.498,0.097 0.66,0.22 0.127,0.095 0.274,0.158 0.294,0.325 0.013,0.117 -0.095,0.232 -0.168,0.196 -0.265,-0.136 -0.468,-0.377 -0.77,-0.354 -0.246,0.017 -0.448,0.175 -0.372,0.384 0.299,0.808 1.373,1.562 2.211,1.128 1.117,1.294 2.141,2.663 3.377,3.856 0.271,0.263 0.795,-0.118 1.197,-0.239 -0.079,0.25 -0.058,0.484 0.039,0.709 0.572,1.353 1.998,2.005 2.928,3.081 -0.456,-0.185 -0.958,-0.245 -1.449,-0.209 -0.499,0.035 -0.785,0.459 -0.802,0.907 -0.655,-1.081 -1.267,-2.173 -2.13,-3.122 -0.323,-0.357 -0.888,-0.947 -1.427,-0.414 -0.03,0.028 -0.044,0.088 0.001,0.106 0.33,0.119 0.679,0.26 0.787,0.624 0.039,0.13 -0.046,0.287 -0.125,0.232 -0.33,-0.231 -0.57,-0.613 -1.053,-0.517 -0.271,0.055 -0.426,0.462 -0.178,0.615 0.186,0.114 0.454,0.101 0.656,0.204 0.133,0.066 0.546,0.317 0.479,0.664 -0.009,0.045 -0.091,0.141 -0.152,0.101 -0.152,-0.103 -0.624,-0.808 -1.051,-0.485 -0.393,0.299 0.15,0.925 0.471,1.263 0.334,0.354 0.809,0.629 1.309,0.416 0.611,1.302 1.255,2.584 1.861,3.887 0.977,-0.631 2.031,-1.737 3.297,-1.247 0.017,1.012 -0.723,1.924 -0.373,2.939 0.321,0.933 1.348,1.259 2.197,1.577 -0.342,1.121 -0.913,2.13 -1.248,3.278 -0.169,0.585 -0.094,1.353 0.576,1.575 -0.048,-0.612 -0.188,-0.874 0.153,-1.266 0.107,-0.127 0.321,-0.057 0.276,0.103 -0.093,0.348 -0.225,0.629 -0.059,1.034 0.102,0.245 0.322,0.425 0.561,0.409 0.158,-0.009 0.281,-0.184 0.304,-0.326 0.038,-0.251 -0.214,-0.295 -0.271,-0.522 -0.063,-0.256 -0.079,-0.488 0.055,-0.742 0.064,-0.125 0.168,-0.205 0.293,-0.216 0.057,0.024 0.078,0.034 0.092,0.058 0.112,0.187 -0.125,0.353 -0.111,0.55 0.014,0.264 0.199,0.602 0.438,0.5 0.616,-0.264 0.654,-1.073 0.662,-1.703 0.004,-0.281 -0.158,-0.552 -0.474,-0.592 0.509,-0.917 1.157,-1.746 1.633,-2.682 -0.838,-0.529 -2.062,-0.997 -2.121,-2.079 -0.033,-0.607 0.096,-1.367 0.549,-1.838 0.603,0.475 1.194,0.981 1.997,1.137 0.918,0.179 1.833,-0.059 2.463,-0.769 0.616,-0.695 0.725,-1.633 0.409,-2.386 l 0,0 z" />
        <path
           style="fill:#ff1900"
           inkscape:connector-curvature="0"
           id="path17"
           d="m 58.563,25.346 c 0.035,-0.104 0.147,-0.241 0.086,-0.287 -0.032,-0.023 -0.187,-0.021 -0.246,0 -0.062,0.021 -0.075,0.049 -0.104,0.094 -0.599,0.89 0.649,1.427 1.097,2.068 0.066,0.099 0.066,0.211 0.076,0.328 0.004,0.053 0.043,0.122 0.125,0.108 0.15,-0.025 0.244,-0.235 0.229,-0.31 -0.132,-0.635 -0.865,-0.946 -1.216,-1.481 -0.098,-0.148 -0.109,-0.341 -0.047,-0.52 l 0,0 z" />
        <path
           style="fill:#ff1900"
           inkscape:connector-curvature="0"
           id="path19"
           d="M 61.372,27.186 C 61.194,27.172 61.17,26.941 61.2,26.762 c 0.025,-0.144 0.182,-0.294 0.318,-0.168 0.104,0.098 0.258,0.209 0.23,0.343 -0.031,0.158 -0.229,0.261 -0.376,0.249 l 0,0 z m -1.08,-1.885 c -0.046,-0.021 -0.084,0.055 -0.111,0.11 -0.209,0.411 -0.607,0.715 -0.515,1.186 0.052,0.273 0.404,0.473 0.502,0.582 0.042,0.044 0.075,0.072 0.067,0.128 -0.038,0.241 -0.406,0.549 -0.68,0.604 -0.301,0.059 -0.299,-0.537 -0.545,-0.433 -0.244,0.105 -0.645,0.704 -0.395,0.841 0.756,0.417 1.025,0.559 1.64,0.676 1.007,0.195 1.367,-1.096 1.729,-1.785 0.07,-0.134 0.309,-0.178 0.283,-0.294 -0.201,-0.929 -1.16,-1.234 -1.975,-1.615 l 0,0 z" />
        <path
           style="fill:#ff1900"
           inkscape:connector-curvature="0"
           id="path21"
           d="m 65.533,39.438 c -0.167,0.243 -0.399,0.426 -0.679,0.525 -1.315,0.465 -2.57,-1.506 -3.131,-2.766 -0.684,-1.536 -1.363,-2.986 -1.943,-4.558 0.376,-0.271 0.664,-0.589 1.063,-0.869 -0.424,1.172 0.422,2.316 1.27,3.076 1.109,0.992 2.283,1.813 3.279,2.973 0.392,0.461 0.486,1.112 0.141,1.619 l 0,0 z m -6.274,-8.011 c -0.068,-0.126 -0.135,-0.261 -0.061,-0.378 0.031,-0.051 0.156,-0.131 0.178,-0.054 0.073,0.255 0.203,0.496 0.443,0.563 -0.118,0.279 -0.455,0.057 -0.56,-0.131 l 0,0 z m -0.32,-1.481 c -0.047,-0.151 -0.126,-0.306 0.173,-0.403 0.061,0.318 0.135,0.491 0.33,0.689 0.01,0.007 -0.105,0.079 -0.151,0.074 -0.164,-0.022 -0.307,-0.208 -0.352,-0.36 l 0,0 z m -0.449,2.431 c -0.182,-0.174 -0.323,-0.472 -0.135,-0.716 0.034,-0.043 0.102,-0.029 0.104,-0.002 0.039,0.273 0.241,0.472 0.369,0.668 0.094,0.146 -0.21,0.175 -0.338,0.05 l 0,0 z m -0.421,-1.355 c -0.168,-0.144 -0.244,-0.318 -0.177,-0.502 0.015,-0.044 0.146,-0.13 0.176,-0.05 0.085,0.215 0.166,0.468 0.415,0.512 -0.072,0.229 -0.253,0.18 -0.414,0.04 l 0,0 z m -0.565,1.987 c -0.149,-0.133 -0.202,-0.37 -0.137,-0.582 0.007,-0.024 0.059,-0.052 0.084,-0.045 0.19,0.054 0.19,0.26 0.267,0.401 0.055,0.101 0.107,0.096 0.182,0.209 -0.072,0.231 -0.294,0.108 -0.396,0.017 l 0,0 z M 56.982,31.71 c -0.059,-0.111 -0.149,-0.218 -0.159,-0.333 -0.008,-0.094 0.166,-0.292 0.213,-0.183 0.1,0.222 0.149,0.44 0.418,0.573 -0.111,0.253 -0.355,0.165 -0.472,-0.057 l 0,0 z m -0.536,1.743 c -0.032,-0.157 -0.02,-0.471 0.189,-0.381 0.084,0.037 0.043,0.205 0.134,0.334 0.079,0.113 0.194,0.236 0.187,0.298 -0.045,0.361 -0.464,-0.03 -0.51,-0.251 l 0,0 z m -0.41,-1.477 c 0.021,-0.041 0.117,-0.096 0.143,-0.028 0.04,0.111 0.092,0.195 0.148,0.29 0.076,0.13 0.329,0.145 0.252,0.342 -0.014,0.04 -0.088,0.077 -0.129,0.07 -0.299,-0.057 -0.56,-0.369 -0.414,-0.674 l 0,0 z m -0.458,-1.228 c -0.028,-0.113 0.103,-0.251 0.25,-0.194 -0.052,0.066 0.102,0.319 0.14,0.368 0.107,0.14 0.076,0.156 0.232,0.226 -0.065,0.183 -0.281,0.207 -0.375,0.074 -0.107,-0.146 -0.199,-0.299 -0.247,-0.474 l 0,0 z m 0.95,-0.733 c 0.01,-0.042 0.045,-0.156 0.15,-0.152 0.148,0.022 0.082,0.185 0.103,0.257 0.043,0.169 0.286,0.247 0.259,0.456 -0.004,0.032 -0.076,0.061 -0.129,0.072 -0.043,0.009 -0.094,-0.014 -0.127,-0.046 -0.18,-0.174 -0.308,-0.353 -0.256,-0.587 l 0,0 z m 0.951,-0.617 c 0.029,-0.051 0.162,-0.126 0.176,-0.056 0.048,0.255 0.23,0.432 0.361,0.616 0.059,0.079 -0.235,0.201 -0.354,0.057 -0.145,-0.178 -0.306,-0.392 -0.183,-0.617 l 0,0 z m 2.915,0.604 c 0.107,0.033 0.226,0.416 0.538,0.545 -0.034,0.075 -0.066,0.181 -0.14,0.181 -0.218,-0.001 -0.358,-0.161 -0.474,-0.343 -0.13,-0.204 0.022,-0.4 0.076,-0.383 l 0,0 z m 6.369,7.997 c -0.893,-2.125 -3.137,-3.054 -4.674,-4.723 -0.324,-0.353 -0.478,-0.89 -0.211,-1.311 0.175,-0.273 0.453,-0.432 0.781,-0.411 0.593,0.04 0.985,0.511 1.18,1.052 -0.131,-0.049 -0.238,0.044 -0.295,0.118 -0.164,0.198 -0.144,0.511 0.021,0.687 0.259,0.277 0.665,0.362 0.973,0.08 0.336,-0.305 0.322,-0.78 0.206,-1.183 -0.39,-1.339 -1.905,-2.25 -3.169,-1.521 0.258,-0.789 0.564,-1.489 0.935,-2.261 0.063,-0.136 0.306,-0.164 0.425,-0.288 0.248,-0.255 0.158,-0.779 -0.192,-0.951 -0.161,-0.08 -0.359,-0.067 -0.427,0.07 -0.375,0.746 -0.605,1.629 -1.434,1.936 -0.975,0.357 -1.77,-0.561 -2.711,-0.75 -0.664,-0.134 -1.162,0.286 -1.75,0.482 -0.589,-1.393 -1.066,-2.834 -1.777,-4.171 -0.212,-0.396 -0.348,-0.81 -0.652,-1.182 -0.212,-0.26 -0.387,-0.478 -0.658,-0.669 -0.231,-0.165 -0.697,-0.378 -0.933,-0.011 0.336,0.169 0.757,0.4 0.71,0.802 -0.013,0.109 -0.082,0.188 -0.221,0.1 -0.222,-0.239 -0.383,-0.478 -0.699,-0.598 -0.162,-0.062 -0.391,-0.134 -0.534,0.007 -0.116,0.114 -0.183,0.36 -0.044,0.454 0.184,0.121 0.445,0.032 0.648,0.162 0.262,0.168 0.486,0.407 0.479,0.705 -0.002,0.063 -0.114,0.19 -0.164,0.15 -0.121,-0.096 -0.201,-0.298 -0.352,-0.443 -0.226,-0.216 -0.502,-0.323 -0.719,-0.094 -0.354,0.369 0.172,1.224 0.602,1.64 0.248,0.239 0.563,0.347 0.912,0.377 0.139,1.062 0.415,2.151 0.632,3.197 -0.368,-0.324 -0.661,-0.659 -0.987,-0.958 -0.329,-0.3 -0.646,-0.619 -0.979,-0.92 -0.363,-0.331 -0.691,-0.672 -1.146,-0.911 -0.396,-0.209 -0.772,-0.383 -1.215,-0.277 -0.146,0.035 -0.398,0.194 -0.317,0.248 0.281,0.184 0.692,0.193 0.962,0.443 0.129,0.118 0.149,0.513 -0.02,0.386 -0.457,-0.341 -1.494,-0.813 -1.535,0.116 -0.006,0.141 0.223,0.038 0.457,0.05 0.236,0.012 0.498,0.098 0.661,0.22 0.126,0.096 0.272,0.158 0.292,0.327 0.015,0.113 -0.092,0.23 -0.168,0.193 -0.263,-0.135 -0.465,-0.375 -0.769,-0.353 -0.245,0.017 -0.447,0.176 -0.372,0.384 0.3,0.809 1.373,1.562 2.212,1.129 1.118,1.296 2.138,2.664 3.378,3.856 0.27,0.26 0.793,-0.12 1.197,-0.241 -0.08,0.251 -0.058,0.488 0.037,0.712 0.574,1.353 2,2.006 2.93,3.082 -0.458,-0.185 -0.959,-0.246 -1.45,-0.21 -0.499,0.034 -0.784,0.458 -0.8,0.905 -0.657,-1.079 -1.27,-2.171 -2.132,-3.12 -0.323,-0.356 -0.888,-0.947 -1.427,-0.415 -0.031,0.031 -0.045,0.092 0.002,0.109 0.328,0.12 0.679,0.26 0.786,0.624 0.038,0.129 -0.046,0.287 -0.124,0.232 -0.332,-0.232 -0.572,-0.612 -1.053,-0.516 -0.271,0.056 -0.427,0.462 -0.178,0.615 0.184,0.114 0.454,0.102 0.654,0.202 0.135,0.067 0.545,0.319 0.478,0.665 -0.009,0.044 -0.089,0.139 -0.15,0.099 -0.153,-0.102 -0.626,-0.808 -1.05,-0.485 -0.395,0.3 0.148,0.928 0.469,1.264 0.337,0.354 0.809,0.629 1.311,0.415 0.607,1.304 1.253,2.584 1.86,3.888 0.976,-0.63 2.032,-1.739 3.297,-1.245 0.015,1.011 -0.726,1.92 -0.374,2.936 0.32,0.935 1.348,1.259 2.197,1.577 -0.342,1.121 -0.912,2.131 -1.246,3.279 -0.169,0.584 -0.094,1.352 0.574,1.574 -0.049,-0.614 -0.186,-0.874 0.151,-1.266 0.108,-0.126 0.323,-0.058 0.28,0.104 -0.093,0.347 -0.225,0.628 -0.06,1.032 0.101,0.247 0.321,0.427 0.562,0.411 0.158,-0.009 0.281,-0.184 0.303,-0.326 0.037,-0.252 -0.213,-0.296 -0.27,-0.523 -0.066,-0.256 -0.082,-0.488 0.052,-0.742 0.067,-0.125 0.17,-0.204 0.294,-0.216 0.059,0.024 0.078,0.033 0.092,0.059 0.113,0.185 -0.125,0.352 -0.111,0.55 0.016,0.265 0.201,0.601 0.438,0.5 0.616,-0.264 0.654,-1.072 0.662,-1.703 0.002,-0.281 -0.158,-0.551 -0.473,-0.592 0.509,-0.914 1.155,-1.746 1.631,-2.682 -0.836,-0.531 -2.061,-0.997 -2.118,-2.079 -0.034,-0.606 0.095,-1.366 0.547,-1.838 0.604,0.474 1.196,0.983 1.996,1.138 0.921,0.178 1.835,-0.058 2.466,-0.769 0.613,-0.698 0.724,-1.638 0.408,-2.389 l 0,0 z" />
      </g>
      <g
         id="g23">
        <path
           style="fill:#1d1d1b"
           inkscape:connector-curvature="0"
           id="path25"
           d="M 19.442,80.458 H 18.055 L 16.254,72.572 H 16.22 l -1.855,7.886 h -1.422 l -2.557,-9.939 h 1.367 l 1.909,8.084 h 0.036 l 1.908,-8.084 h 1.369 l 1.818,8.084 h 0.035 l 1.855,-8.084 h 1.387 l -2.628,9.939 z" />
        <path
           style="fill:#1d1d1b"
           inkscape:connector-curvature="0"
           id="path27"
           d="M 26.081,67.999 H 24.677 V 66.45 h 1.404 v 1.549 z m 0,12.459 H 24.677 V 70.52 h 1.404 v 9.938 z" />
        <path
           style="fill:#1d1d1b"
           inkscape:connector-curvature="0"
           id="path29"
           d="M 31.032,80.458 H 29.628 V 70.52 h 1.404 v 1.026 c 0.828,-0.666 1.602,-1.314 2.736,-1.314 1.404,0 2.539,0.774 2.539,3.367 v 6.86 h -1.404 v -6.5 c 0,-1.044 0.18,-2.575 -1.314,-2.575 -0.865,0 -1.999,0.846 -2.557,1.513 v 7.561 z" />
        <path
           style="fill:#1d1d1b"
           inkscape:connector-curvature="0"
           id="path31"
           d="M 41.255,80.458 H 39.851 V 66.45 h 1.404 v 5.096 c 0.648,-0.684 1.531,-1.314 2.484,-1.314 1.711,0 3.691,1.548 3.691,5.456 0,3.817 -2.287,5.06 -3.637,5.06 -1.098,0 -1.873,-0.594 -2.539,-1.422 v 1.132 z m 0,-2.791 c 0.396,0.846 1.351,1.855 2.341,1.855 0.972,0 2.358,-0.955 2.358,-3.872 0,-1.494 -0.414,-4.195 -2.377,-4.195 -1.08,0 -1.891,0.738 -2.322,1.602 v 4.61 z" />
        <path
           style="fill:#1d1d1b"
           inkscape:connector-curvature="0"
           id="path33"
           d="M 51.786,67.999 H 50.381 V 66.45 h 1.405 v 1.549 z m 0,12.459 H 50.381 V 70.52 h 1.405 v 9.938 z" />
        <path
           style="fill:#1d1d1b"
           inkscape:connector-curvature="0"
           id="path35"
           d="M 56.771,80.458 H 55.367 V 66.45 h 1.404 v 5.096 c 0.648,-0.684 1.531,-1.314 2.486,-1.314 1.709,0 3.689,1.548 3.689,5.456 0,3.817 -2.285,5.06 -3.637,5.06 -1.098,0 -1.872,-0.594 -2.539,-1.422 v 1.132 z m 0,-2.791 c 0.396,0.846 1.352,1.855 2.342,1.855 0.973,0 2.357,-0.955 2.357,-3.872 0,-1.494 -0.414,-4.195 -2.375,-4.195 -1.081,0 -1.891,0.738 -2.324,1.602 v 4.61 z" />
        <path
           style="fill:#1d1d1b"
           inkscape:connector-curvature="0"
           id="path37"
           d="m 66.833,80.458 h -1.818 v -2.106 h 1.818 v 2.106 z" />
        <path
           style="fill:#1d1d1b"
           inkscape:connector-curvature="0"
           id="path39"
           d="m 75.239,73.292 c -0.342,-0.918 -0.881,-1.909 -1.998,-1.873 -2.16,0 -2.574,2.376 -2.574,4.069 0,1.692 0.414,4.069 2.574,4.069 1.207,-0.054 1.891,-1.026 2.322,-1.999 l 1.135,0.504 c -0.576,1.512 -1.854,2.683 -3.457,2.683 -2.215,0 -3.979,-1.53 -3.979,-5.257 0,-3.728 1.764,-5.258 3.979,-5.258 1.639,0 2.646,1.026 3.188,2.521 l -1.19,0.541 z" />
        <path
           style="fill:#1d1d1b"
           inkscape:connector-curvature="0"
           id="path41"
           d="m 81.358,71.546 c 0.83,-0.666 1.604,-1.314 2.738,-1.314 1.404,0 2.539,0.774 2.539,3.367 v 6.86 h -1.406 v -6.5 c 0,-1.044 0.182,-2.575 -1.313,-2.575 -0.865,0 -2,0.846 -2.559,1.513 v 7.562 H 79.953 V 66.45 h 1.404 v 5.096 z" />
      </g>
    </g>
  </g>
</svg>
