<?xml version="1.0" encoding="utf-8"?>
<!-- Generator: Adobe Illustrator 19.0.0, SVG Export Plug-In . SVG Version: 6.00 Build 0)  -->
<svg version="1.1" id="Layer_1" xmlns="http://www.w3.org/2000/svg" xmlns:xlink="http://www.w3.org/1999/xlink" x="0px" y="0px"
	 viewBox="0 0 512 512" style="enable-background:new 0 0 512 512;" xml:space="preserve">
<style type="text/css">
	.st0{fill:#F4F4F4;}
	.st1{fill:#C4C4C4;}
	.st2{fill:#DD2F44;}
	.st3{fill:#3496DC;}
	.st4{fill:#F3854E;}
	.st5{opacity:0.32;fill:#1E1E1E;}
	.st6{fill:#C92837;}
</style>
<g id="XMLID_32_">
	<g id="XMLID_137_">
		<g id="XMLID_155_">
			<path id="XMLID_158_" class="st0" d="M441.6,370c0-1.5-0.1-2.8-0.2-4.2c-2.6-6.7-10.1-19.8-28.1-19.8c-23.9,0-320.8,0-325.8,0
				c0.9,3,1.7,6.5,2.2,9.9c2.9,18.5,0.2,38.1-8.8,54.1h327.2C426.6,410,441.6,392,441.6,370z"/>
			<path id="XMLID_157_" class="st1" d="M441.4,365.7c-1.9-19.9-16.1-35.7-33.3-35.7H81.3c4.3,9,6.1,16,6.1,16s0,0,0.1,0
				c5.1,0,301.9,0,325.8,0C431.3,346,438.8,359,441.4,365.7z"/>
			<path id="XMLID_156_" class="st2" d="M408.1,312H62.8c-4.7,0-8.5,4.3-8.5,9s3.8,9,8.5,9h18.5h326.8c17.2,0,31.4,15.6,33.3,35.5
				c0.1,1.5,0.2,3,0.2,4.5c0,22-15,40-33.5,40H80.9H62.8c-4.7,0-8.5,3.8-8.5,8.5s3.8,8.5,8.5,8.5h345.3c27.8,0,50.5-26.1,50.5-57.5
				S435.9,312,408.1,312z"/>
		</g>
		<path id="XMLID_154_" class="st0" d="M100.5,231C78,231,72,252.3,71.3,255.1c0,0.1,0,0,0,0.1c0,22,15,39.7,33.5,39.7h327.1
			c-6.5-12-9.7-25.8-9.7-39.6c0-10.4,1.6-20.7,5.2-30.4l-2.8,6C424.6,231,124.6,231,100.5,231z"/>
		<path id="XMLID_150_" class="st1" d="M104.8,216c-18.4,0-33.3,17.5-33.5,39.4C72,252.6,78,231,100.5,231c24.1,0,324.1,0,324.1,0
			l2.8-5.7l4.6-9.3H104.8z"/>
		<path id="XMLID_149_" class="st3" d="M450.1,295h-18.3H104.8c-18.5,0-33.5-17.7-33.5-39.7c0-0.1,0,0.1,0,0
			c0.1-21.9,15.1-39.3,33.5-39.3h327.2h18.2c4.7,0,8.5-3.8,8.5-8.5s-3.8-8.5-8.5-8.5H104.8c-27.8,0-50.5,25.1-50.5,56.5
			S76.9,312,104.8,312h345.3c4.7,0,8.5-3.8,8.5-8.5S454.8,295,450.1,295z"/>
		<path id="XMLID_148_" class="st0" d="M81.2,102.3c0.2,0.5,0.5,0.9,0.7,1.4C81.7,103.2,81.5,102.7,81.2,102.3L81.2,102.3z"/>
		<path id="XMLID_146_" class="st0" d="M441.6,141.6c0-1,0-1.9-0.1-2.8c-2.3-6.5-9.5-20.8-28.2-20.8c-23.9,0-321.7,0-325.9,0
			c0.6,2,1.1,3.7,1.5,5.7c4,19.3,1.2,40.3-7.7,57.3h326.9C426.6,181,441.6,163.6,441.6,141.6z"/>
		<path id="XMLID_145_" class="st1" d="M441.5,138.7c-1.3-20.6-15.8-36.7-33.4-36.7H81.3c0.2,1,0.4,1.2,0.7,1.6
			c3.8,8.2,5.5,14.4,5.5,14.4s0,0,0,0c4.1,0,301.9,0,325.9,0C432.1,118,439.2,132.2,441.5,138.7z"/>
		<path id="XMLID_144_" class="st4" d="M408.1,84H62.8c-4.7,0-8.5,4.3-8.5,9s3.8,9,8.5,9h18.4h0.1h326.8c17.6,0,32.1,15.9,33.4,36.5
			c0.1,1,0.1,2,0.1,3c0,22-15,39.4-33.5,39.4H81.3H62.8c-4.7,0-8.5,4.3-8.5,9s3.8,9,8.5,9h345.3c27.8,0,50.5-26.1,50.5-57.5
			S435.9,84,408.1,84z"/>
		<polygon id="XMLID_143_" class="st5" points="339.9,147.9 278.8,277.8 309.3,268.7 339.9,277.8 347.5,207.3 		"/>
		<g id="XMLID_138_">
			<g id="XMLID_141_">
				<polygon id="XMLID_142_" class="st2" points="339.4,254.9 309.3,254.9 278.6,254.9 278.6,147.6 339.4,147.6 				"/>
			</g>
			<g id="XMLID_139_">
				<polygon id="XMLID_140_" class="st6" points="339.4,220.3 339.4,277.8 309,264.5 278.6,277.8 278.6,220.3 				"/>
			</g>
		</g>
	</g>
</g>
</svg>
